<?xml version="1.0" encoding="utf-8"?>
<!-- Generator: Adobe Illustrator 23.0.1, SVG Export Plug-In . SVG Version: 6.00 Build 0)  -->
<svg version="1.1" id="Layer_1" xmlns="http://www.w3.org/2000/svg" xmlns:xlink="http://www.w3.org/1999/xlink" x="0px" y="0px"
	 viewBox="0 0 88 92" style="enable-background:new 0 0 88 92;" xml:space="preserve">
<style type="text/css">
	.st0{opacity:0.28;}
	.st1{fill:#FFFFFF;}
	.st2{fill:#F7F7F7;}
	.st3{fill:#EFEFEF;}
	.st4{fill:#E6E6E6;}
	.st5{fill:#DEDEDE;}
	.st6{fill:#D6D6D6;}
	.st7{fill:#CECECE;}
	.st8{fill:#C5C5C5;}
	.st9{fill:#BDBDBD;}
	.st10{fill:#B5B5B5;}
	.st11{fill:#ADADAD;}
	.st12{fill:#A5A5A5;}
	.st13{fill:#9C9C9C;}
	.st14{fill:#949494;}
	.st15{fill:#8C8C8C;}
	.st16{fill:#848484;}
	.st17{fill:#7B7B7B;}
	.st18{fill:#737373;}
	.st19{fill:#6B6B6B;}
	.st20{fill:#636363;}
	.st21{fill:#5A5A5A;}
	.st22{fill:#525252;}
	.st23{fill:#4A4A4A;}
	.st24{fill:#424242;}
	.st25{fill:#3A3A3A;}
	.st26{fill:#313131;}
	.st27{fill:#292929;}
	.st28{fill:#212121;}
	.st29{fill:#191919;}
	.st30{fill:#101010;}
	.st31{fill:#080808;}
	.st32{fill:url(#SVGID_1_);}
</style>
<g>
	<g class="st0">
		<path class="st1" d="M23.1,92C10.5,92,0.2,81.7,0.2,69.1V27.2c0-12.6,10.3-22.9,22.9-22.9h42.1c12.6,0,22.9,10.3,22.9,22.9v41.9
			C88.1,81.7,77.8,92,65.2,92H23.1z"/>
		<path class="st2" d="M23.1,91.8c-12.5,0-22.7-10.2-22.7-22.7V27.2c0-12.5,10.2-22.7,22.7-22.7h42.1c12.5,0,22.7,10.2,22.7,22.7
			v41.9c0,12.5-10.2,22.7-22.7,22.7H23.1z"/>
		<path class="st3" d="M23.1,91.6c-12.4,0-22.5-10.1-22.5-22.5V27.2c0-12.4,10.1-22.5,22.5-22.5h42.1c12.4,0,22.5,10.1,22.5,22.5
			v41.9c0,12.4-10.1,22.5-22.5,22.5C65.2,91.6,23.1,91.6,23.1,91.6z"/>
		<path class="st4" d="M23.1,91.4c-12.3,0-22.3-10-22.3-22.3V27.2c0-12.3,10-22.3,22.3-22.3h42.1c12.3,0,22.3,10,22.3,22.3v41.9
			c0,12.3-10,22.3-22.3,22.3C65.2,91.4,23.1,91.4,23.1,91.4z"/>
		<path class="st5" d="M23.1,91.2c-12.1,0-22-9.9-22-22.1V27.2C1.1,15,11,5.1,23.1,5.1h42.1c12.2,0,22.1,9.9,22.1,22.1v41.9
			c0,12.2-9.9,22.1-22.1,22.1C65.2,91.2,23.1,91.2,23.1,91.2z"/>
		<path class="st6" d="M23.1,91c-12,0-21.8-9.8-21.8-21.9V27.2c0-12.1,9.8-21.9,21.9-21.9h42.1c12.1,0,21.9,9.8,21.9,21.9v41.9
			c0,12.1-9.8,21.9-21.9,21.9C65.3,91,23.1,91,23.1,91z"/>
		<path class="st7" d="M23.1,90.8c-12,0-21.7-9.7-21.7-21.7V27.2c0-11.9,9.7-21.7,21.7-21.7h42.1c12,0,21.7,9.7,21.7,21.7v41.9
			c0,11.9-9.7,21.7-21.7,21.7H23.1z"/>
		<path class="st8" d="M23.1,90.6C11.3,90.6,1.6,81,1.6,69.1V27.2c0-11.8,9.6-21.5,21.5-21.5h42.1c11.8,0,21.5,9.6,21.5,21.5v41.9
			c0,11.8-9.6,21.5-21.5,21.5C65.2,90.6,23.1,90.6,23.1,90.6z"/>
		<path class="st9" d="M23.1,90.4c-11.7,0-21.3-9.5-21.3-21.3V27.2c0-11.7,9.5-21.3,21.3-21.3h42.1c11.7,0,21.3,9.5,21.3,21.3v41.9
			c0,11.7-9.5,21.3-21.3,21.3C65.2,90.4,23.1,90.4,23.1,90.4z"/>
		<path class="st10" d="M23.1,90.1c-11.6,0-21-9.4-21-21V27.2c0-11.6,9.4-21,21-21h42.1c11.6,0,21,9.4,21,21v41.9
			c0,11.6-9.4,21-21,21C65.2,90.1,23.1,90.1,23.1,90.1z"/>
		<path class="st11" d="M23.1,89.9c-11.5,0-20.8-9.3-20.8-20.8V27.2c0-11.5,9.3-20.8,20.8-20.8h42.1C76.7,6.3,86,15.7,86,27.2v41.9
			c0,11.5-9.3,20.8-20.8,20.8C65.2,89.9,23.1,89.9,23.1,89.9z"/>
		<path class="st12" d="M23.1,89.7c-11.4,0-20.6-9.3-20.6-20.6V27.2c0-11.4,9.3-20.6,20.6-20.6h42.1c11.4,0,20.6,9.3,20.6,20.6v41.9
			c0,11.4-9.3,20.6-20.6,20.6C65.2,89.7,23.1,89.7,23.1,89.7z"/>
		<path class="st13" d="M23.1,89.5c-11.3,0-20.4-9.2-20.4-20.4V27.2c0-11.3,9.2-20.4,20.4-20.4h42.1c11.3,0,20.4,9.2,20.4,20.4v41.9
			c0,11.3-9.2,20.4-20.4,20.4C65.2,89.5,23.1,89.5,23.1,89.5z"/>
		<path class="st14" d="M23.1,89.3c-11.1,0-20.2-9-20.2-20.2V27.2C2.9,16,12,6.9,23.1,6.9h42.1c11.2,0,20.2,9.1,20.2,20.2V69
			c0,11.2-9.1,20.2-20.2,20.2H23.1V89.3z"/>
		<path class="st15" d="M23.1,89.1c-11,0-20-9-20-20V27.2c0-11,9-20,20-20h42.1c11,0,20,9,20,20v41.9c0,11-9,20-20,20
			C65.2,89.1,23.1,89.1,23.1,89.1z"/>
		<path class="st16" d="M23.1,88.9C12.2,88.9,3.3,80,3.3,69.1V27.2c0-10.9,8.9-19.8,19.8-19.8h42.1C76.1,7.3,85,16.2,85,27.2v41.9
			c0,10.9-8.9,19.8-19.8,19.8C65.2,88.9,23.1,88.9,23.1,88.9z"/>
		<path class="st17" d="M23.1,88.7c-10.8,0-19.6-8.8-19.6-19.6V27.2c0-10.8,8.8-19.6,19.6-19.6h42.1c10.8,0,19.6,8.8,19.6,19.6v41.9
			c0,10.8-8.8,19.6-19.6,19.6C65.2,88.7,23.1,88.7,23.1,88.7z"/>
		<path class="st18" d="M23.1,88.5c-10.7,0-19.4-8.7-19.4-19.4V27.2c0-10.7,8.7-19.4,19.4-19.4h42.1c10.7,0,19.4,8.7,19.4,19.4v41.9
			c0,10.7-8.7,19.4-19.4,19.4C65.2,88.5,23.1,88.5,23.1,88.5z"/>
		<path class="st19" d="M23.1,88.3c-10.6,0-19.2-8.6-19.2-19.2V27.2C3.9,16.6,12.5,8,23.1,8h42.1c10.6,0,19.2,8.6,19.2,19.2v41.9
			c0,10.6-8.6,19.2-19.2,19.2H23.1z"/>
		<path class="st20" d="M23.1,88.1c-10.5,0-19-8.5-19-19V27.2c0-10.5,8.5-19,19-19h42.1c10.5,0,19,8.5,19,19v41.9
			c0,10.5-8.5,19-19,19C65.2,88.1,23.1,88.1,23.1,88.1z"/>
		<path class="st21" d="M23.1,87.9c-10.4,0-18.8-8.4-18.8-18.8V27.2c0-10.4,8.4-18.8,18.8-18.8h42.1C75.6,8.4,84,16.8,84,27.2v41.9
			c0,10.4-8.4,18.8-18.8,18.8C65.2,87.9,23.1,87.9,23.1,87.9z"/>
		<path class="st22" d="M23.1,87.7c-10.3,0-18.6-8.3-18.6-18.6V27.2c0-10.3,8.3-18.6,18.6-18.6h42.1c10.3,0,18.6,8.3,18.6,18.6v41.9
			c0,10.3-8.3,18.6-18.6,18.6C65.2,87.7,23.1,87.7,23.1,87.7z"/>
		<path class="st23" d="M23.1,87.5C13,87.5,4.8,79.2,4.8,69.1V27.2C4.8,17,13,8.8,23.1,8.8h42.1c10.1,0,18.4,8.2,18.4,18.4v41.9
			c0,10.1-8.2,18.4-18.4,18.4C65.2,87.5,23.1,87.5,23.1,87.5z"/>
		<path class="st24" d="M23.1,87.3C13.1,87.3,5,79.1,5,69.1V27.2C5,17.1,13.1,9,23.1,9h42.1c10,0,18.2,8.1,18.2,18.2v41.9
			c0,10-8.1,18.2-18.2,18.2H23.1z"/>
		<path class="st25" d="M23.1,87.1c-9.9,0-18-8-18-18V27.2c0-9.9,8-18,18-18h42.1c9.9,0,18,8,18,18v41.9c0,9.9-8,18-18,18
			C65.2,87.1,23.1,87.1,23.1,87.1z"/>
		<path class="st26" d="M23.1,86.9c-9.8,0-17.8-8-17.8-17.8V27.2c0-9.8,8-17.8,17.8-17.8h42.1c9.8,0,17.8,8,17.8,17.8v41.9
			c0,9.8-8,17.8-17.8,17.8C65.2,86.9,23.1,86.9,23.1,86.9z"/>
		<path class="st27" d="M23.1,86.7c-9.7,0-17.6-7.9-17.6-17.5v-42c0-9.7,7.9-17.6,17.6-17.6h42.1c9.7,0,17.6,7.9,17.6,17.6v41.9
			c0,9.7-7.9,17.5-17.6,17.5L23.1,86.7L23.1,86.7z"/>
		<path class="st28" d="M23.1,86.4c-9.6,0-17.3-7.8-17.3-17.3V27.2c0-9.6,7.8-17.3,17.3-17.3h42.1c9.6,0,17.3,7.8,17.3,17.3v41.9
			c0,9.6-7.8,17.3-17.3,17.3C65.2,86.4,23.1,86.4,23.1,86.4z"/>
		<path class="st29" d="M23.1,86.2C13.7,86.2,6,78.6,6,69.1V27.2C6,17.7,13.7,10,23.1,10h42.1c9.5,0,17.1,7.7,17.1,17.1V69
			c0,9.5-7.7,17.1-17.1,17.1L23.1,86.2L23.1,86.2z"/>
		<path class="st30" d="M23.1,86c-9.4,0-16.9-7.6-16.9-16.9V27.2c0-9.4,7.6-16.9,16.9-16.9h42.1c9.4,0,16.9,7.6,16.9,16.9v41.9
			c0,9.4-7.6,16.9-16.9,16.9C65.2,86,23.1,86,23.1,86z"/>
		<path class="st31" d="M23.1,85.8c-9.2,0-16.7-7.5-16.7-16.7V27.2c0-9.2,7.5-16.7,16.7-16.7h42.1c9.2,0,16.7,7.5,16.7,16.7v41.9
			c0,9.2-7.5,16.7-16.7,16.7H23.1z"/>
		<path d="M81.7,69.1c0,9.1-7.4,16.5-16.5,16.5H23.1c-9.1,0-16.5-7.4-16.5-16.5V27.2c0-9.1,7.4-16.5,16.5-16.5h42.1
			c9.1,0,16.5,7.4,16.5,16.5V69.1z"/>
	</g>
	<g>
		<g>
			
				<linearGradient id="SVGID_1_" gradientUnits="userSpaceOnUse" x1="44.2841" y1="87.5667" x2="44.2841" y2="10.8631" gradientTransform="matrix(1 0 0 -1 0 94)">
				<stop  offset="0" style="stop-color:#2DCCD4"/>
				<stop  offset="1" style="stop-color:#438BF0"/>
			</linearGradient>
			<path class="st32" d="M84.3,66.4c0,9.9-8,18-18,18H22.1c-9.9,0-18-8-18-18V22.3c0-9.9,8-18,18-18h44.3c9.9,0,18,8,18,18
				L84.3,66.4L84.3,66.4z"/>
		</g>
		<g>
			<path class="st1" d="M18,24.6l-0.6,6.4h0.1c0.6-0.7,1.3-1.3,2.1-1.6c0.9-0.3,2-0.5,3.2-0.5c1.4,0,2.6,0.2,3.5,0.8
				c0.9,0.5,1.7,1.2,2.2,2s0.9,1.8,1.1,2.8c0.2,1.1,0.3,2.1,0.3,3.2c0,1.6-0.2,3-0.4,4.3c-0.2,1.3-0.8,2.4-1.5,3.2
				c-0.7,0.9-1.7,1.6-2.8,2S22.5,48,20.6,48c-1.8,0-3.3-0.2-4.5-0.7c-1.1-0.5-2-1.1-2.6-1.9c-0.6-0.8-1-1.7-1.2-2.5
				C12,42,12,41.2,12,40.4v-0.8h5.7c0,0.5,0,0.9,0.1,1.5c0.1,0.6,0.2,1,0.4,1.5c0.2,0.5,0.5,0.9,0.9,1.2s0.9,0.5,1.5,0.5
				c1.3,0,2.1-0.5,2.7-1.3c0.6-0.9,0.8-2.3,0.8-4.1c0-1.2-0.1-2.1-0.2-2.8c-0.1-0.8-0.3-1.3-0.6-1.8s-0.6-0.8-1-0.9
				c-0.5-0.2-1-0.3-1.7-0.3c-0.9,0-1.5,0.2-2,0.7c-0.5,0.5-0.7,1.1-0.9,1.9h-5.4l1.2-15.4h15.2v4.4H18z"/>
			<path class="st1" d="M17.5,50.6v2.2h0.1c0.6-0.9,1.3-1.7,2-2.1c0.8-0.4,1.7-0.6,2.7-0.6c1.1,0,2,0.3,2.8,0.9
				c0.8,0.6,1.3,1.4,1.5,2.5h0.1c0.4-1.1,0.9-2,1.8-2.5c0.9-0.6,1.8-0.9,3-0.9c1.6,0,2.8,0.6,3.5,1.7c0.8,1.1,1.1,2.7,1.1,4.7v15.4
				h-4.8V56.9c0-0.9-0.2-1.6-0.5-2c-0.3-0.5-0.8-0.7-1.4-0.7c-0.8,0-1.4,0.3-1.8,0.9c-0.5,0.6-0.7,1.5-0.7,2.8v13.9h-4.8V56.9
				c0-0.9-0.2-1.6-0.5-2s-0.8-0.7-1.4-0.7c-0.8,0-1.4,0.3-1.8,0.9c-0.5,0.6-0.7,1.5-0.7,2.8v13.9h-4.9V50.6H17.5z"/>
		</g>
		<g>
			<path class="st1" d="M52.3,19.4l6.4,37h0.2l6.4-37h13.2v52.3h-8.2V29.9h-0.2l-7.9,41.8h-7l-7.9-41.8h-0.2v41.8H39V19.4H52.3z"/>
		</g>
	</g>
</g>
</svg>
