<?xml version="1.0" encoding="utf-8"?>
<!-- Generator: Adobe Illustrator 19.1.0, SVG Export Plug-In . SVG Version: 6.00 Build 0)  -->
<!DOCTYPE svg PUBLIC "-//W3C//DTD SVG 1.1//EN" "http://www.w3.org/Graphics/SVG/1.1/DTD/svg11.dtd" [
	<!ENTITY ns_extend "http://ns.adobe.com/Extensibility/1.0/">
	<!ENTITY ns_ai "http://ns.adobe.com/AdobeIllustrator/10.0/">
	<!ENTITY ns_graphs "http://ns.adobe.com/Graphs/1.0/">
	<!ENTITY ns_vars "http://ns.adobe.com/Variables/1.0/">
	<!ENTITY ns_imrep "http://ns.adobe.com/ImageReplacement/1.0/">
	<!ENTITY ns_sfw "http://ns.adobe.com/SaveForWeb/1.0/">
	<!ENTITY ns_custom "http://ns.adobe.com/GenericCustomNamespace/1.0/">
	<!ENTITY ns_adobe_xpath "http://ns.adobe.com/XPath/1.0/">
]>
<svg version="1.1" id="Layer_1" xmlns:x="&ns_extend;" xmlns:i="&ns_ai;" xmlns:graph="&ns_graphs;"
	 xmlns="http://www.w3.org/2000/svg" xmlns:xlink="http://www.w3.org/1999/xlink" x="0px" y="0px" viewBox="0 0 88 92"
	 style="enable-background:new 0 0 88 92;" xml:space="preserve">
<style type="text/css">
	.st0{opacity:0.28;}
	.st1{fill:#FFFFFF;}
	.st2{fill:#F7F7F7;}
	.st3{fill:#EFEFEF;}
	.st4{fill:#E6E6E6;}
	.st5{fill:#DEDEDE;}
	.st6{fill:#D6D6D6;}
	.st7{fill:#CECECE;}
	.st8{fill:#C5C5C5;}
	.st9{fill:#BDBDBD;}
	.st10{fill:#B5B5B5;}
	.st11{fill:#ADADAD;}
	.st12{fill:#A5A5A5;}
	.st13{fill:#9C9C9C;}
	.st14{fill:#949494;}
	.st15{fill:#8C8C8C;}
	.st16{fill:#848484;}
	.st17{fill:#7B7B7B;}
	.st18{fill:#737373;}
	.st19{fill:#6B6B6B;}
	.st20{fill:#636363;}
	.st21{fill:#5A5A5A;}
	.st22{fill:#525252;}
	.st23{fill:#4A4A4A;}
	.st24{fill:#424242;}
	.st25{fill:#3A3A3A;}
	.st26{fill:#313131;}
	.st27{fill:#292929;}
	.st28{fill:#212121;}
	.st29{fill:#191919;}
	.st30{fill:#101010;}
	.st31{fill:#080808;}
	.st32{fill:url(#SVGID_1_);}
	.st33{fill:#E04141;}
	.st34{fill:#F24445;}
	.st35{fill:#F6C300;}
	.st36{fill:#F3B101;}
</style>
<metadata>
	<sfw  xmlns="&ns_sfw;">
		<slices></slices>
		<sliceSourceBounds  width="88.2" height="88" bottomLeftOrigin="true" y="-92" x="0"></sliceSourceBounds>
	</sfw>
</metadata>
<g>
	<g class="st0">
		<path class="st1" d="M23,92C10.3,92,0,81.7,0,69V26.9C0,14.3,10.3,4,23,4h42.2c12.7,0,23,10.3,23,23V69c0,12.7-10.3,23-23,23H23z"
			/>
		<path class="st2" d="M23,91.8C10.4,91.8,0.2,81.6,0.2,69V26.9C0.2,14.4,10.4,4.2,23,4.2h42.2C77.8,4.2,88,14.4,88,26.9V69
			c0,12.6-10.2,22.8-22.8,22.8H23z"/>
		<path class="st3" d="M23,91.6C10.5,91.6,0.4,81.5,0.4,69V26.9C0.4,14.5,10.5,4.4,23,4.4h42.2c12.4,0,22.6,10.1,22.6,22.6V69
			c0,12.4-10.1,22.6-22.6,22.6H23z"/>
		<path class="st4" d="M23,91.4c-12.3,0-22.4-10-22.4-22.4V26.9c0-12.3,10-22.4,22.4-22.4h42.2c12.3,0,22.4,10,22.4,22.4V69
			c0,12.3-10,22.4-22.4,22.4H23z"/>
		<path class="st5" d="M23,91.2C10.8,91.2,0.8,81.2,0.8,69V26.9C0.8,14.7,10.8,4.8,23,4.8h42.2c12.2,0,22.2,9.9,22.2,22.2V69
			c0,12.2-9.9,22.2-22.2,22.2H23z"/>
		<path class="st6" d="M23,91C10.9,91,1,81.1,1,69V26.9C1,14.8,10.9,5,23,5h42.2c12.1,0,21.9,9.8,21.9,21.9V69
			c0,12.1-9.8,21.9-21.9,21.9H23z"/>
		<path class="st7" d="M23,90.8C11,90.8,1.2,81,1.2,69V26.9C1.2,14.9,11,5.2,23,5.2h42.2c12,0,21.7,9.8,21.7,21.7V69
			c0,12-9.8,21.7-21.7,21.7H23z"/>
		<path class="st8" d="M23,90.6C11.1,90.6,1.4,80.9,1.4,69V26.9C1.4,15.1,11.1,5.4,23,5.4h42.2c11.9,0,21.5,9.7,21.5,21.5V69
			c0,11.9-9.7,21.5-21.5,21.5H23z"/>
		<path class="st9" d="M23,90.3C11.2,90.3,1.7,80.8,1.7,69V26.9C1.7,15.2,11.2,5.6,23,5.6h42.2c11.8,0,21.3,9.6,21.3,21.3V69
			c0,11.8-9.6,21.3-21.3,21.3H23z"/>
		<path class="st10" d="M23,90.1C11.3,90.1,1.9,80.7,1.9,69V26.9C1.9,15.3,11.3,5.8,23,5.8h42.2c11.7,0,21.1,9.5,21.1,21.1V69
			c0,11.6-9.5,21.1-21.1,21.1H23z"/>
		<path class="st11" d="M23,89.9C11.4,89.9,2.1,80.6,2.1,69V26.9C2.1,15.4,11.4,6,23,6h42.2c11.5,0,20.9,9.4,20.9,20.9V69
			c0,11.5-9.4,20.9-20.9,20.9H23z"/>
		<path class="st12" d="M23,89.7C11.6,89.7,2.3,80.4,2.3,69V26.9C2.3,15.5,11.6,6.2,23,6.2h42.2c11.4,0,20.7,9.3,20.7,20.7V69
			c0,11.4-9.3,20.7-20.7,20.7H23z"/>
		<path class="st13" d="M23,89.5C11.7,89.5,2.5,80.3,2.5,69V26.9C2.5,15.6,11.7,6.4,23,6.4h42.2c11.3,0,20.5,9.2,20.5,20.5V69
			c0,11.3-9.2,20.5-20.5,20.5H23z"/>
		<path class="st14" d="M23,89.3C11.8,89.3,2.7,80.2,2.7,69V26.9C2.7,15.7,11.8,6.6,23,6.6h42.2c11.2,0,20.3,9.1,20.3,20.3V69
			c0,11.2-9.1,20.3-20.3,20.3H23z"/>
		<path class="st15" d="M23,89.1c-11.1,0-20.1-9-20.1-20.1V26.9c0-11.1,9-20.1,20.1-20.1h42.2c11.1,0,20.1,9,20.1,20.1V69
			c0,11.1-9,20.1-20.1,20.1H23z"/>
		<path class="st16" d="M23,88.9C12,88.9,3.1,80,3.1,69V26.9C3.1,16,12,7,23,7h42.2c11,0,19.9,8.9,19.9,19.9V69
			c0,11-8.9,19.9-19.9,19.9H23z"/>
		<path class="st17" d="M23,88.7C12.1,88.7,3.3,79.9,3.3,69V26.9C3.3,16.1,12.1,7.3,23,7.3h42.2c10.9,0,19.7,8.8,19.7,19.7V69
			c0,10.9-8.8,19.7-19.7,19.7H23z"/>
		<path class="st18" d="M23,88.5C12.2,88.5,3.5,79.8,3.5,69V26.9C3.5,16.2,12.2,7.5,23,7.5h42.2c10.7,0,19.5,8.7,19.5,19.5V69
			c0,10.7-8.7,19.5-19.5,19.5H23z"/>
		<path class="st19" d="M23,88.3C12.4,88.3,3.7,79.7,3.7,69V26.9C3.7,16.3,12.4,7.7,23,7.7h42.2c10.6,0,19.3,8.6,19.3,19.3V69
			c0,10.6-8.6,19.3-19.3,19.3H23z"/>
		<path class="st20" d="M23,88.1C12.5,88.1,3.9,79.5,3.9,69V26.9C3.9,16.4,12.5,7.9,23,7.9h42.2c10.5,0,19.1,8.5,19.1,19.1V69
			c0,10.5-8.5,19.1-19.1,19.1H23z"/>
		<path class="st21" d="M23,87.9C12.6,87.9,4.1,79.4,4.1,69V26.9C4.1,16.5,12.6,8.1,23,8.1h42.2c10.4,0,18.9,8.4,18.9,18.9V69
			c0,10.4-8.4,18.8-18.9,18.8H23z"/>
		<path class="st22" d="M23,87.7C12.7,87.7,4.3,79.3,4.3,69V26.9C4.3,16.6,12.7,8.3,23,8.3h42.2c10.3,0,18.6,8.4,18.6,18.6V69
			c0,10.3-8.4,18.6-18.6,18.6H23z"/>
		<path class="st23" d="M23,87.5C12.8,87.5,4.5,79.2,4.5,69V26.9C4.5,16.8,12.8,8.5,23,8.5h42.2c10.2,0,18.4,8.3,18.4,18.4V69
			c0,10.2-8.3,18.4-18.4,18.4H23z"/>
		<path class="st24" d="M23,87.3C12.9,87.3,4.7,79.1,4.7,69V26.9C4.7,16.9,12.9,8.7,23,8.7h42.2c10.1,0,18.2,8.2,18.2,18.2V69
			c0,10.1-8.2,18.2-18.2,18.2H23z"/>
		<path class="st25" d="M23,87C13,87,5,79,5,69V26.9c0-10,8.1-18,18-18h42.2c10,0,18,8.1,18,18V69c0,10-8.1,18-18,18H23z"/>
		<path class="st26" d="M23,86.8c-9.8,0-17.8-8-17.8-17.8V26.9c0-9.8,8-17.8,17.8-17.8h42.2c9.8,0,17.8,8,17.8,17.8V69
			c0,9.8-8,17.8-17.8,17.8H23z"/>
		<path class="st27" d="M23,86.6c-9.7,0-17.6-7.9-17.6-17.6V26.9c0-9.7,7.9-17.6,17.6-17.6h42.2c9.7,0,17.6,7.9,17.6,17.6V69
			c0,9.7-7.9,17.6-17.6,17.6H23z"/>
		<path class="st28" d="M23,86.4c-9.6,0-17.4-7.8-17.4-17.4V26.9c0-9.6,7.8-17.4,17.4-17.4h42.2c9.6,0,17.4,7.8,17.4,17.4V69
			c0,9.6-7.8,17.4-17.4,17.4H23z"/>
		<path class="st29" d="M23,86.2c-9.5,0-17.2-7.7-17.2-17.2V26.9c0-9.5,7.7-17.2,17.2-17.2h42.2c9.5,0,17.2,7.7,17.2,17.2V69
			c0,9.5-7.7,17.2-17.2,17.2H23z"/>
		<path class="st30" d="M23,86c-9.4,0-17-7.6-17-17V26.9c0-9.4,7.6-17,17-17h42.2c9.4,0,17,7.6,17,17V69c0,9.4-7.6,17-17,17H23z"/>
		<path class="st31" d="M23,85.8c-9.3,0-16.8-7.5-16.8-16.8V26.9c0-9.3,7.5-16.8,16.8-16.8h42.2c9.3,0,16.8,7.5,16.8,16.8V69
			c0,9.3-7.5,16.8-16.8,16.8H23z"/>
		<path d="M81.8,69c0,9.2-7.4,16.6-16.6,16.6H23c-9.2,0-16.6-7.4-16.6-16.6V26.9c0-9.2,7.4-16.6,16.6-16.6h42.2
			c9.2,0,16.6,7.4,16.6,16.6V69z"/>
	</g>
	<g>
		<linearGradient id="SVGID_1_" gradientUnits="userSpaceOnUse" x1="44.0908" y1="84.0213" x2="44.0908" y2="3.9501">
			<stop  offset="0" style="stop-color:#26A9E0"/>
			<stop  offset="1" style="stop-color:#9DDCF9"/>
		</linearGradient>
		<path class="st32" d="M84.3,66.4c0,9.7-7.9,17.6-17.7,17.6H21.6c-9.8,0-17.7-7.9-17.7-17.6V21.6C3.9,11.8,11.8,4,21.6,4h45.1
			c9.8,0,17.7,7.9,17.7,17.6V66.4z"/>
	</g>
</g>
<g>
	<g>
		<path class="st33" d="M68.7,75.4c0.3,0.7,0,1.1-0.7,1l-7.1-1.2c-0.7-0.1-1.6,0.3-2,0.9l-3.7,6.2c-0.4,0.6-0.9,0.6-1.2-0.1
			L41.3,54.7c-0.3-0.7,0-1.4,0.6-1.7l12.4-5.7c0.7-0.3,1.4,0,1.7,0.6L68.7,75.4z"/>
		<path class="st34" d="M21.2,75.4c-0.3,0.7,0,1.1,0.7,1l7.1-1.2c0.7-0.1,1.6,0.3,2,0.9l3.7,6.2c0.4,0.6,0.9,0.6,1.2-0.1l12.7-27.5
			c0.3-0.7,0-1.4-0.6-1.7l-12.4-5.7c-0.7-0.3-1.4,0-1.7,0.6L21.2,75.4z"/>
	</g>
	<g>
		<path class="st35" d="M70,39.4c-1-2-1-5.2,0-7.2c1-2,0.3-4.6-1.6-5.8c-1.9-1.2-3.5-4-3.6-6.2c-0.1-2.2-2-4.1-4.3-4.2
			c-2.2-0.1-5-1.7-6.3-3.6c-1.2-1.9-3.8-2.6-5.8-1.5c-2,1-5.2,1-7.2,0c-2-1-4.6-0.3-5.8,1.6s-4,3.5-6.2,3.6c-2.2,0.1-4.1,2-4.2,4.3
			c-0.1,2.2-1.7,5-3.6,6.3c-1.9,1.2-2.6,3.8-1.5,5.8c1,2,1,5.2,0,7.2c-1,2-0.3,4.6,1.6,5.8c1.9,1.2,3.5,4,3.6,6.2
			c0.1,2.2,2,4.1,4.3,4.2c2.2,0.1,5,1.7,6.3,3.6c1.2,1.9,3.8,2.6,5.8,1.5c2-1,5.2-1,7.2,0c2,1,4.6,0.3,5.8-1.6
			c1.2-1.9,4-3.5,6.2-3.6c2.2-0.1,4.1-2,4.2-4.3c0.1-2.2,1.7-5,3.6-6.3C70.4,44,71.1,41.3,70,39.4z"/>
		<g>
			<circle class="st36" cx="45" cy="35.8" r="17.2"/>
			<circle class="st35" cx="45" cy="35.8" r="15.3"/>
		</g>
	</g>
</g>
</svg>
