<?xml version="1.0" encoding="utf-8"?>
<!-- Generator: Adobe Illustrator 19.0.1, SVG Export Plug-In . SVG Version: 6.00 Build 0)  -->
<!DOCTYPE svg PUBLIC "-//W3C//DTD SVG 1.1//EN" "http://www.w3.org/Graphics/SVG/1.1/DTD/svg11.dtd">
<svg version="1.1" id="Layer_1" xmlns="http://www.w3.org/2000/svg" xmlns:xlink="http://www.w3.org/1999/xlink" x="0px" y="0px"
	 viewBox="0 0 88 92" style="enable-background:new 0 0 88 92;" xml:space="preserve">
<style type="text/css">
	.st0{opacity:0.28;}
	.st1{fill:#FFFFFF;}
	.st2{fill:#F7F7F7;}
	.st3{fill:#EFEFEF;}
	.st4{fill:#E6E6E6;}
	.st5{fill:#DEDEDE;}
	.st6{fill:#D6D6D6;}
	.st7{fill:#CECECE;}
	.st8{fill:#C5C5C5;}
	.st9{fill:#BDBDBD;}
	.st10{fill:#B5B5B5;}
	.st11{fill:#ADADAD;}
	.st12{fill:#A5A5A5;}
	.st13{fill:#9C9C9C;}
	.st14{fill:#949494;}
	.st15{fill:#8C8C8C;}
	.st16{fill:#848484;}
	.st17{fill:#7B7B7B;}
	.st18{fill:#737373;}
	.st19{fill:#6B6B6B;}
	.st20{fill:#636363;}
	.st21{fill:#5A5A5A;}
	.st22{fill:#525252;}
	.st23{fill:#4A4A4A;}
	.st24{fill:#424242;}
	.st25{fill:#3A3A3A;}
	.st26{fill:#313131;}
	.st27{fill:#292929;}
	.st28{fill:#212121;}
	.st29{fill:#191919;}
	.st30{fill:#101010;}
	.st31{fill:#080808;}
	.st32{fill:url(#SVGID_1_);}
	.st33{fill:#1B75BB;}
	.st34{fill:#353535;}
	.st35{fill:#BED129;}
	.st36{fill:#6BBFEE;}
	.st37{fill:#74B64A;}
	.st38{fill:#FCBA63;}
	.st39{fill:#2B388F;}
	.st40{fill:#57A682;}
	.st41{fill:#A86330;}
	.st42{fill:#F6921E;}
	.st43{fill:url(#SVGID_2_);}
	.st44{fill:url(#SVGID_3_);}
	.st45{fill:url(#SVGID_4_);}
	.st46{fill:url(#SVGID_5_);}
	.st47{fill:url(#SVGID_6_);}
	.st48{fill:#124F75;}
</style>
<g>
	<g class="st0">
		<path class="st1" d="M22.9,92C10.3,92,0,81.7,0,69.1v-42C0,14.5,10.3,4.2,22.9,4.2H65c12.6,0,22.9,10.3,22.9,22.9v42
			C87.9,81.7,77.6,92,65,92H22.9z"/>
		<path class="st2" d="M22.9,91.8c-12.5,0-22.7-10.2-22.7-22.7v-42c0-12.5,10.2-22.7,22.7-22.7H65c12.5,0,22.7,10.2,22.7,22.7v42
			c0,12.5-10.2,22.7-22.7,22.7H22.9z"/>
		<path class="st3" d="M22.9,91.6c-12.4,0-22.5-10.1-22.5-22.5v-42c0-12.4,10.1-22.5,22.5-22.5H65c12.4,0,22.5,10.1,22.5,22.5v42
			c0,12.4-10.1,22.5-22.5,22.5H22.9z"/>
		<path class="st4" d="M22.9,91.4c-12.3,0-22.3-10-22.3-22.3v-42c0-12.3,10-22.3,22.3-22.3H65c12.3,0,22.3,10,22.3,22.3v42
			c0,12.3-10,22.3-22.3,22.3H22.9z"/>
		<path class="st5" d="M22.9,91.2c-12.2,0-22.1-9.9-22.1-22.1v-42C0.8,15,10.7,5.1,22.9,5.1H65c12.2,0,22.1,9.9,22.1,22.1v42
			c0,12.2-9.9,22.1-22.1,22.1H22.9z"/>
		<path class="st6" d="M22.9,91C10.8,91,1,81.2,1,69.1v-42C1,15.1,10.8,5.3,22.9,5.3H65c12.1,0,21.9,9.8,21.9,21.9v42
			C86.9,81.2,77,91,65,91H22.9z"/>
		<path class="st7" d="M22.9,90.8C11,90.8,1.2,81,1.2,69.1v-42C1.2,15.2,11,5.5,22.9,5.5H65c12,0,21.7,9.7,21.7,21.7v42
			c0,11.9-9.7,21.7-21.7,21.7H22.9z"/>
		<path class="st8" d="M22.9,90.6c-11.8,0-21.5-9.6-21.5-21.5v-42c0-11.8,9.6-21.5,21.5-21.5H65c11.8,0,21.5,9.6,21.5,21.5v42
			c0,11.8-9.6,21.5-21.5,21.5H22.9z"/>
		<path class="st9" d="M22.9,90.4c-11.7,0-21.3-9.5-21.3-21.3v-42c0-11.7,9.5-21.3,21.3-21.3H65c11.7,0,21.3,9.5,21.3,21.3v42
			c0,11.7-9.5,21.3-21.3,21.3H22.9z"/>
		<path class="st10" d="M22.9,90.1c-11.6,0-21.1-9.4-21.1-21v-42c0-11.6,9.4-21,21.1-21H65c11.6,0,21.1,9.4,21.1,21v42
			c0,11.6-9.4,21-21.1,21H22.9z"/>
		<path class="st11" d="M22.9,89.9c-11.5,0-20.8-9.3-20.8-20.8v-42c0-11.5,9.3-20.8,20.8-20.8H65c11.5,0,20.8,9.3,20.8,20.8v42
			c0,11.5-9.3,20.8-20.8,20.8H22.9z"/>
		<path class="st12" d="M22.9,89.7c-11.4,0-20.6-9.3-20.6-20.6v-42c0-11.4,9.3-20.6,20.6-20.6H65c11.4,0,20.6,9.3,20.6,20.6v42
			c0,11.4-9.3,20.6-20.6,20.6H22.9z"/>
		<path class="st13" d="M22.9,89.5c-11.3,0-20.4-9.2-20.4-20.4v-42c0-11.3,9.2-20.4,20.4-20.4H65c11.3,0,20.4,9.2,20.4,20.4v42
			c0,11.3-9.2,20.4-20.4,20.4H22.9z"/>
		<path class="st14" d="M22.9,89.3c-11.2,0-20.2-9.1-20.2-20.2v-42C2.7,16,11.7,6.9,22.9,6.9H65c11.2,0,20.2,9.1,20.2,20.2v42
			c0,11.2-9.1,20.2-20.2,20.2H22.9z"/>
		<path class="st15" d="M22.9,89.1c-11,0-20-9-20-20v-42c0-11,9-20,20-20H65c11,0,20,9,20,20v42c0,11-9,20-20,20H22.9z"/>
		<path class="st16" d="M22.9,88.9C12,88.9,3.1,80,3.1,69.1v-42C3.1,16.2,12,7.3,22.9,7.3H65c10.9,0,19.8,8.9,19.8,19.8v42
			c0,10.9-8.9,19.8-19.8,19.8H22.9z"/>
		<path class="st17" d="M22.9,88.7c-10.8,0-19.6-8.8-19.6-19.6v-42c0-10.8,8.8-19.6,19.6-19.6H65c10.8,0,19.6,8.8,19.6,19.6v42
			c0,10.8-8.8,19.6-19.6,19.6H22.9z"/>
		<path class="st18" d="M22.9,88.5c-10.7,0-19.4-8.7-19.4-19.4v-42c0-10.7,8.7-19.4,19.4-19.4H65c10.7,0,19.4,8.7,19.4,19.4v42
			c0,10.7-8.7,19.4-19.4,19.4H22.9z"/>
		<path class="st19" d="M22.9,88.3c-10.6,0-19.2-8.6-19.2-19.2v-42c0-10.6,8.6-19.2,19.2-19.2H65c10.6,0,19.2,8.6,19.2,19.2v42
			c0,10.6-8.6,19.2-19.2,19.2H22.9z"/>
		<path class="st20" d="M22.9,88.1c-10.5,0-19-8.5-19-19v-42c0-10.5,8.5-19,19-19H65c10.5,0,19,8.5,19,19v42c0,10.5-8.5,19-19,19
			H22.9z"/>
		<path class="st21" d="M22.9,87.9c-10.4,0-18.8-8.4-18.8-18.8v-42c0-10.4,8.4-18.8,18.8-18.8H65c10.4,0,18.8,8.4,18.8,18.8v42
			c0,10.4-8.4,18.8-18.8,18.8H22.9z"/>
		<path class="st22" d="M22.9,87.7c-10.3,0-18.6-8.3-18.6-18.6v-42c0-10.3,8.3-18.6,18.6-18.6H65c10.3,0,18.6,8.3,18.6,18.6v42
			c0,10.3-8.3,18.6-18.6,18.6H22.9z"/>
		<path class="st23" d="M22.9,87.5c-10.1,0-18.4-8.2-18.4-18.4v-42C4.5,17,12.8,8.8,22.9,8.8H65c10.1,0,18.4,8.2,18.4,18.4v42
			c0,10.1-8.2,18.4-18.4,18.4H22.9z"/>
		<path class="st24" d="M22.9,87.3c-10,0-18.2-8.1-18.2-18.2v-42C4.7,17.1,12.9,9,22.9,9H65c10,0,18.2,8.1,18.2,18.2v42
			c0,10-8.1,18.2-18.2,18.2H22.9z"/>
		<path class="st25" d="M22.9,87.1c-9.9,0-18-8-18-18v-42c0-9.9,8-18,18-18H65c9.9,0,18,8,18,18v42c0,9.9-8,18-18,18H22.9z"/>
		<path class="st26" d="M22.9,86.9c-9.8,0-17.8-8-17.8-17.8v-42c0-9.8,8-17.8,17.8-17.8H65c9.8,0,17.8,8,17.8,17.8v42
			c0,9.8-8,17.8-17.8,17.8H22.9z"/>
		<path class="st27" d="M22.9,86.7c-9.7,0-17.6-7.9-17.6-17.6v-42c0-9.7,7.9-17.6,17.6-17.6H65c9.7,0,17.6,7.9,17.6,17.6v42
			c0,9.7-7.9,17.6-17.6,17.6H22.9z"/>
		<path class="st28" d="M22.9,86.4c-9.6,0-17.3-7.8-17.3-17.3v-42c0-9.6,7.8-17.3,17.3-17.3H65c9.6,0,17.3,7.8,17.3,17.3v42
			c0,9.6-7.8,17.3-17.3,17.3H22.9z"/>
		<path class="st29" d="M22.9,86.2c-9.5,0-17.1-7.7-17.1-17.1v-42c0-9.5,7.7-17.1,17.1-17.1H65c9.5,0,17.1,7.7,17.1,17.1v42
			c0,9.5-7.7,17.1-17.1,17.1H22.9z"/>
		<path class="st30" d="M22.9,86C13.6,86,6,78.5,6,69.1v-42c0-9.4,7.6-16.9,16.9-16.9H65c9.4,0,16.9,7.6,16.9,16.9v42
			C81.9,78.5,74.3,86,65,86H22.9z"/>
		<path class="st31" d="M22.9,85.8c-9.2,0-16.7-7.5-16.7-16.7v-42c0-9.2,7.5-16.7,16.7-16.7H65c9.2,0,16.7,7.5,16.7,16.7v42
			c0,9.2-7.5,16.7-16.7,16.7H22.9z"/>
		<path d="M81.5,69.1c0,9.1-7.4,16.5-16.5,16.5H22.9c-9.1,0-16.5-7.4-16.5-16.5v-42c0-9.1,7.4-16.5,16.5-16.5H65
			c9.1,0,16.5,7.4,16.5,16.5V69.1z"/>
	</g>
	<g>
		<linearGradient id="SVGID_1_" gradientUnits="userSpaceOnUse" x1="43.9418" y1="84.0482" x2="43.9418" y2="4.2477">
			<stop  offset="0" style="stop-color:#26A9E0"/>
			<stop  offset="1" style="stop-color:#9DDCF9"/>
		</linearGradient>
		<path class="st32" d="M84,66.5C84,76.2,76.1,84,66.4,84H21.5c-9.7,0-17.6-7.9-17.6-17.6V21.8c0-9.7,7.9-17.6,17.6-17.6h44.9
			c9.7,0,17.6,7.9,17.6,17.6V66.5z"/>
	</g>
</g>
<g>
	<path class="st33" d="M49.1,30c3.1-0.3,6.2,0,9.3,0.6c0-0.7,0-1.3-0.1-1.9c-0.1-0.7-0.2-1.4-0.3-1.9c-2.3-0.8-4.7-1.4-7.2-1.6
		c-4.7-0.4-9.1,0.5-13.1,2.2c2.1,0.6,4.8,1.5,7.8,3.2C46.7,30.4,47.8,30.2,49.1,30z"/>
	<path class="st34" d="M27.9,68.7c0.8,1,1.8,2,2.8,2.9c2.6-1,5.4-2.5,8.3-4.8C35,67.6,31.3,68.2,27.9,68.7z"/>
	<path class="st35" d="M49.4,54.7c3.4-5.5,5.6-10.1,6.9-14c-3.5-4.4-7.4-7.4-11-9.4c-9,2.3-16.8,8-22.6,13.5
		c-0.4,1.5-0.7,3.1-0.8,4.7c-0.6,6.9,1.5,13.4,5.4,18.4c3.9-0.5,8.2-1.2,12.7-2.2C43.3,63.1,46.4,59.6,49.4,54.7z"/>
	<path class="st36" d="M36.7,27.9c-6.3,3.2-11.3,8.8-13.5,15.7c5.6-5.2,12.9-10.3,21.3-12.7C41.4,29.3,38.7,28.4,36.7,27.9z"/>
	<path class="st37" d="M41.5,65.5c2.4-0.6,4.8-1.2,7.3-1.9c6.8-2,11.7-5.1,15.2-8.5c-0.5-1.5-1.1-3-1.9-4.6
		c-1.6-3.5-3.4-6.5-5.4-9.1c-1.4,3.9-3.5,8.4-6.9,13.7C47.3,59.5,44.4,62.9,41.5,65.5z"/>
	<path class="st38" d="M59,31.5c-0.1,2.4-0.6,5.5-1.8,9.1c2.1,2.7,4.1,5.8,5.7,9.6c0.7,1.5,1.3,2.9,1.8,4.3c1.9-1.9,3.3-3.9,4.5-5.9
		c1.8-3.1,2.8-6.2,3.4-8.6c-0.9-1.9-2-3.6-3.4-5.2C66,33.5,62.6,32.3,59,31.5z"/>
	<path class="st39" d="M59,30.8c3.2,0.7,6.3,1.7,9.1,2.9c-2.6-2.8-5.8-5-9.4-6.5c0.1,0.5,0.2,1,0.2,1.6C59,29.3,59,30,59,30.8z"/>
	<path class="st40" d="M49.1,30.7c-0.9,0.1-1.8,0.2-2.7,0.4c3.4,2,7,4.8,10.3,8.8c1.1-3.5,1.6-6.3,1.7-8.6
		C55.3,30.7,52.1,30.5,49.1,30.7z"/>
	<path class="st41" d="M64.4,55.8c-3.6,3.4-8.5,6.5-15.3,8.5c-3,0.9-5.8,1.6-8.6,2.2c-3.2,2.7-6.3,4.5-9.2,5.6
		c4.1,3.5,9.3,5.8,15.1,6.3c7.7,0.6,15-2.1,20.3-7c0.2-1.6,0.2-3.4,0-5.5C66.4,63,65.7,59.6,64.4,55.8z"/>
	<path class="st42" d="M64.9,55.2c1.4,4.1,2.2,7.6,2.4,10.6c0.2,1.8,0.2,3.4,0.1,4.9c4.3-4.3,7.2-10.1,7.7-16.7
		c0.4-4.6-0.4-9-2.2-13c-0.4,1.7-1,3.5-2,5.5C69.7,49.4,67.7,52.4,64.9,55.2z"/>
	<polygon class="st1" points="56.8,23.8 56.8,23.8 56.8,23.8 	"/>
	<path class="st1" d="M39,66.8c-2.9,2.3-5.7,3.8-8.3,4.8c0.2,0.2,0.4,0.3,0.6,0.5c2.9-1.2,6-2.9,9.2-5.6C40,66.6,39.5,66.7,39,66.8z
		"/>
	<path class="st1" d="M50,55.1c3.3-5.3,5.5-9.9,6.9-13.7c-0.2-0.2-0.3-0.4-0.5-0.6c-1.3,3.9-3.5,8.5-6.9,14c-3,4.8-6.2,8.4-9.3,11.1
		c0.5-0.1,0.9-0.2,1.4-0.3C44.4,62.9,47.3,59.5,50,55.1z"/>
	<path class="st1" d="M56.6,40c0.2,0.2,0.3,0.4,0.5,0.6c1.2-3.7,1.7-6.7,1.8-9.1c-0.2,0-0.5-0.1-0.7-0.1
		C58.2,33.6,57.8,36.5,56.6,40z"/>
	<path class="st1" d="M58.3,30.6c0.2,0,0.5,0.1,0.7,0.1c0-0.8,0-1.5-0.1-2.1c-0.1-0.6-0.1-1.1-0.2-1.6c-0.3-0.1-0.5-0.2-0.8-0.3
		c0.1,0.6,0.2,1.2,0.3,1.9C58.3,29.3,58.3,30,58.3,30.6z"/>
	<path class="st1" d="M57.1,40.6c-0.1,0.3-0.2,0.5-0.3,0.8c2,2.5,3.8,5.5,5.4,9.1c0.7,1.6,1.3,3.1,1.9,4.6c0.2-0.2,0.4-0.4,0.5-0.5
		c-0.5-1.4-1.1-2.8-1.8-4.3C61.2,46.4,59.2,43.3,57.1,40.6z"/>
	<path class="st1" d="M46.4,31.2c-0.3,0.1-0.5,0.1-0.8,0.2c-0.1,0-0.1,0-0.2,0c3.6,2,7.4,5,11,9.4c0.1-0.3,0.2-0.5,0.3-0.8
		C53.3,35.9,49.7,33.1,46.4,31.2z"/>
	<path class="st1" d="M64.9,55.2c-0.2,0.2-0.4,0.4-0.5,0.5c1.3,3.9,2,7.2,2.3,10.1c0.2,2.1,0.2,3.9,0,5.5c0.3-0.2,0.5-0.5,0.8-0.7
		c0.1-1.4,0.1-3.1-0.1-4.9C67.1,62.8,66.3,59.3,64.9,55.2z"/>
	<path class="st1" d="M45.4,30.7c0,0,0.1,0,0.1,0c-3-1.6-5.7-2.6-7.8-3.2c-0.3,0.1-0.7,0.3-1,0.5c2,0.5,4.8,1.4,7.8,3
		C44.8,30.8,45.1,30.8,45.4,30.7z"/>
	<path class="st1" d="M57.1,40.6c-0.2-0.2-0.3-0.4-0.5-0.6c-0.1,0.3-0.2,0.5-0.3,0.8c0.2,0.2,0.3,0.4,0.5,0.6
		C57,41.1,57.1,40.9,57.1,40.6z"/>
	<path class="st1" d="M69.1,48.6c-1.1,2-2.6,4-4.5,5.9c0.1,0.2,0.2,0.5,0.3,0.7c2.8-2.8,4.8-5.9,6.1-8.7c0.9-2,1.5-3.8,2-5.5
		c-0.1-0.3-0.3-0.7-0.5-1C71.9,42.5,70.9,45.5,69.1,48.6z"/>
	<path class="st1" d="M40.1,65.8c-4.5,1-8.8,1.7-12.7,2.2c0.2,0.2,0.3,0.4,0.5,0.6c3.4-0.4,7.1-1,11.1-1.9
		C39.4,66.5,39.7,66.2,40.1,65.8z"/>
	<path class="st1" d="M48.9,63.6c-2.5,0.7-5,1.4-7.3,1.9c-0.4,0.3-0.7,0.7-1.1,1c2.8-0.6,5.7-1.4,8.6-2.2c6.8-2,11.7-5,15.3-8.5
		c-0.1-0.2-0.2-0.5-0.3-0.7C60.6,58.5,55.7,61.6,48.9,63.6z"/>
	<path class="st1" d="M40.1,65.8c-0.4,0.3-0.8,0.7-1.2,1c0.5-0.1,1-0.2,1.5-0.3c0.4-0.3,0.7-0.6,1.1-1
		C41.1,65.6,40.6,65.7,40.1,65.8z"/>
	<path class="st1" d="M64.4,55.8c0.2-0.2,0.4-0.4,0.5-0.5c-0.1-0.2-0.2-0.5-0.3-0.7c-0.2,0.2-0.4,0.4-0.5,0.5
		C64.2,55.3,64.3,55.5,64.4,55.8z"/>
	<path class="st1" d="M59,31.5c3.6,0.8,7,2,10.2,3.3c-0.3-0.4-0.7-0.8-1-1.2c-2.8-1.1-5.9-2.2-9.1-2.9C59,31,59,31.3,59,31.5z"/>
	<path class="st1" d="M49.1,30.7c3-0.3,6.1,0,9.2,0.6c0-0.2,0-0.5,0-0.7c-3.1-0.6-6.2-0.9-9.3-0.6c-1.2,0.1-2.4,0.3-3.6,0.6
		c0.3,0.2,0.6,0.3,0.9,0.5C47.3,31,48.2,30.8,49.1,30.7z"/>
	<path class="st1" d="M44.5,30.9c-8.4,2.4-15.7,7.5-21.3,12.7c-0.1,0.4-0.3,0.9-0.4,1.3c5.8-5.5,13.6-11.2,22.6-13.5
		C45.1,31.2,44.8,31.1,44.5,30.9z"/>
	<path class="st1" d="M59,31.5c0-0.2,0-0.5,0-0.7c-0.2,0-0.5-0.1-0.7-0.1c0,0.2,0,0.5,0,0.7C58.5,31.4,58.8,31.4,59,31.5z"/>
	<path class="st1" d="M46.4,31.2c-0.3-0.2-0.6-0.3-0.9-0.5c0,0-0.1,0-0.1,0c-0.3,0.1-0.6,0.2-0.9,0.2c0.3,0.2,0.6,0.3,0.9,0.5
		c0.1,0,0.1,0,0.2,0C45.8,31.3,46.1,31.2,46.4,31.2z"/>
	<linearGradient id="SVGID_2_" gradientUnits="userSpaceOnUse" x1="28.814" y1="-1.8484" x2="36.0429" y2="81.8011">
		<stop  offset="0" style="stop-color:#00D4FF"/>
		<stop  offset="0.2857" style="stop-color:#00294B"/>
		<stop  offset="0.3352" style="stop-color:#00294B"/>
		<stop  offset="0.3626" style="stop-color:#00294B"/>
		<stop  offset="0.5989" style="stop-color:#00274B"/>
		<stop  offset="1" style="stop-color:#00B5FF"/>
	</linearGradient>
	<path class="st43" d="M55,7.4l-30.7,1L6.7,36.3l2.1-0.1l1.6,8.5C10,45,9.9,45.6,10,46.2c0.1,0.6,0.5,1,0.9,1.3l-1.1,5.5l1.9-0.3
		c0,0,0.2,0.6,1,0.4c0.9-0.1,0.9-0.8,0.9-0.8l1.9-0.3l-3-4.6c0.5-0.3,0.8-1,0.7-1.7c-0.1-0.6-0.6-1.1-1.1-1.3l0-0.3l-1.3-8l10.2-0.7
		l3.4,5.7c0,0,2.9-7.3,10.1-11.3c8-4.4,16-4.5,16-4.5l-3.1-5.5L55,7.4z"/>
	
		<linearGradient id="SVGID_3_" gradientUnits="userSpaceOnUse" x1="98.9226" y1="107.5994" x2="54.0641" y2="128.3813" gradientTransform="matrix(0.9958 -9.140000e-02 9.140000e-02 0.9958 -56.1501 -79.4637)">
		<stop  offset="0" style="stop-color:#00BFBD"/>
		<stop  offset="0.2857" style="stop-color:#009ED7"/>
		<stop  offset="0.4066" style="stop-color:#00294B"/>
		<stop  offset="0.4066" style="stop-color:#00294B"/>
		<stop  offset="0.6593" style="stop-color:#003436"/>
		<stop  offset="1" style="stop-color:#00BFBD"/>
	</linearGradient>
	<path class="st44" d="M47,20c0,0-14.7,0-26,15.2l3,5.1c0,0,2.4-7.6,9.9-11.1C46.1,23.6,49.8,25,49.8,25L47,20z"/>
	
		<linearGradient id="SVGID_4_" gradientUnits="userSpaceOnUse" x1="105.1904" y1="71.9818" x2="123.1556" y2="50.1207" gradientTransform="matrix(0.998 -6.390000e-02 6.390000e-02 0.998 -55.096 -77.7522)">
		<stop  offset="0" style="stop-color:#00BFBD"/>
		<stop  offset="0.2857" style="stop-color:#00294B"/>
		<stop  offset="0.3352" style="stop-color:#00294B"/>
		<stop  offset="0.3626" style="stop-color:#00294B"/>
		<stop  offset="0.6593" style="stop-color:#00294B"/>
		<stop  offset="1" style="stop-color:#00BFBD"/>
	</linearGradient>
	<polygon class="st45" points="54.8,7.7 54.4,8.4 23.8,9.4 24.4,8.4 	"/>
	
		<linearGradient id="SVGID_5_" gradientUnits="userSpaceOnUse" x1="-351.2823" y1="442.7047" x2="-350.938" y2="442.7047" gradientTransform="matrix(127.6929 0 0 -127.6929 44887.5664 56600.7305)">
		<stop  offset="0" style="stop-color:#A86330"/>
		<stop  offset="1" style="stop-color:#844D25"/>
	</linearGradient>
	<path class="st46" d="M66.3,63.3c-0.4,0.4-0.9,0.7-1.2,1c-4.7,3.9-10.1,6.1-16.2,7.3c-1.5,0.3-3,0.4-4.4,0.4
		c-3.5,0-6.8-0.7-10.2-1.2c-0.6,0.3-1.2,0.6-1.8,0.9c4.4,4.1,9.5,6,15.2,6c2.7,0,5.4-0.4,8.3-1.2c3.8-1.1,7.6-3.2,10.8-6
		c0-0.5,0.1-1.1,0.1-1.7c0-0.9,0-1.8-0.1-2.8C66.6,65.2,66.5,64.2,66.3,63.3L66.3,63.3z"/>
	
		<linearGradient id="SVGID_6_" gradientUnits="userSpaceOnUse" x1="-351.2831" y1="442.7858" x2="-350.938" y2="442.7858" gradientTransform="matrix(127.6929 0 0 -127.6929 44887.5664 56600.7305)">
		<stop  offset="0" style="stop-color:#F6921E"/>
		<stop  offset="1" style="stop-color:#C17217"/>
	</linearGradient>
	<path class="st47" d="M75,50.5c0.5,4.5-4.3,9.1-8,12.2c0.2,1.1,0.4,2.2,0.4,3.2c0.1,1,0.1,1.9,0.1,2.7c0,0.4,0,0.8,0,1.1
		c2.7-2.6,5-5.7,6.3-9.1c0.7-2.1,1.2-4.3,1.4-6.5c0-0.2,0-0.3,0-0.5C75.2,52.6,75.1,51.5,75,50.5L75,50.5z"/>
	<path class="st48" d="M50.4,25.2c0,0-19-0.3-26.2,15.9C27.2,37.4,33.5,28.1,50.4,25.2z"/>
</g>
</svg>
