<?xml version="1.0" encoding="utf-8"?>
<!-- Generator: Adobe Illustrator 19.1.0, SVG Export Plug-In . SVG Version: 6.00 Build 0)  -->
<!DOCTYPE svg PUBLIC "-//W3C//DTD SVG 1.1//EN" "http://www.w3.org/Graphics/SVG/1.1/DTD/svg11.dtd" [
	<!ENTITY ns_extend "http://ns.adobe.com/Extensibility/1.0/">
	<!ENTITY ns_ai "http://ns.adobe.com/AdobeIllustrator/10.0/">
	<!ENTITY ns_graphs "http://ns.adobe.com/Graphs/1.0/">
	<!ENTITY ns_vars "http://ns.adobe.com/Variables/1.0/">
	<!ENTITY ns_imrep "http://ns.adobe.com/ImageReplacement/1.0/">
	<!ENTITY ns_sfw "http://ns.adobe.com/SaveForWeb/1.0/">
	<!ENTITY ns_custom "http://ns.adobe.com/GenericCustomNamespace/1.0/">
	<!ENTITY ns_adobe_xpath "http://ns.adobe.com/XPath/1.0/">
]>
<svg version="1.1" id="Layer_1" xmlns:x="&ns_extend;" xmlns:i="&ns_ai;" xmlns:graph="&ns_graphs;"
	 xmlns="http://www.w3.org/2000/svg" xmlns:xlink="http://www.w3.org/1999/xlink" x="0px" y="0px" viewBox="0 0 88 92"
	 style="enable-background:new 0 0 88 92;" xml:space="preserve">
<style type="text/css">
	.st0{opacity:0.28;}
	.st1{fill:#FFFFFF;}
	.st2{fill:#F7F7F7;}
	.st3{fill:#EFEFEF;}
	.st4{fill:#E6E6E6;}
	.st5{fill:#DEDEDE;}
	.st6{fill:#D6D6D6;}
	.st7{fill:#CECECE;}
	.st8{fill:#C5C5C5;}
	.st9{fill:#BDBDBD;}
	.st10{fill:#B5B5B5;}
	.st11{fill:#ADADAD;}
	.st12{fill:#A5A5A5;}
	.st13{fill:#9C9C9C;}
	.st14{fill:#949494;}
	.st15{fill:#8C8C8C;}
	.st16{fill:#848484;}
	.st17{fill:#7B7B7B;}
	.st18{fill:#737373;}
	.st19{fill:#6B6B6B;}
	.st20{fill:#636363;}
	.st21{fill:#5A5A5A;}
	.st22{fill:#525252;}
	.st23{fill:#4A4A4A;}
	.st24{fill:#424242;}
	.st25{fill:#3A3A3A;}
	.st26{fill:#313131;}
	.st27{fill:#292929;}
	.st28{fill:#212121;}
	.st29{fill:#191919;}
	.st30{fill:#101010;}
	.st31{fill:#080808;}
	.st32{fill:url(#SVGID_1_);}
	.st33{fill:url(#SVGID_2_);}
	.st34{fill:url(#SVGID_3_);}
	.st35{fill:url(#SVGID_4_);}
	.st36{fill:url(#SVGID_5_);}
	.st37{fill:url(#SVGID_6_);}
	.st38{fill:url(#SVGID_7_);}
	.st39{fill:url(#SVGID_8_);}
	.st40{fill:url(#SVGID_9_);}
	.st41{fill:url(#SVGID_10_);}
	.st42{fill:url(#SVGID_11_);}
	.st43{fill:url(#SVGID_12_);}
	.st44{fill:url(#SVGID_13_);}
	.st45{fill:url(#SVGID_14_);}
	.st46{fill:url(#SVGID_15_);}
	.st47{fill:url(#SVGID_16_);}
</style>
<metadata>
	<sfw  xmlns="&ns_sfw;">
		<slices></slices>
		<sliceSourceBounds  height="88" width="16383" bottomLeftOrigin="true" x="-8148" y="0"></sliceSourceBounds>
	</sfw>
</metadata>
<g>
	<g class="st0">
		<path class="st1" d="M22.9,92C10.3,92,0,81.7,0,69.1V27C0,14.4,10.3,4.1,22.9,4.1h42.1C77.7,4.1,88,14.4,88,27v42
			C88,81.7,77.7,92,65.1,92H22.9z"/>
		<path class="st2" d="M22.9,91.8c-12.5,0-22.7-10.2-22.7-22.7V27c0-12.5,10.2-22.7,22.7-22.7h42.1c12.5,0,22.7,10.2,22.7,22.7v42
			c0,12.5-10.2,22.7-22.7,22.7H22.9z"/>
		<path class="st3" d="M22.9,91.6c-12.4,0-22.5-10.1-22.5-22.5V27c0-12.4,10.1-22.5,22.5-22.5h42.1c12.4,0,22.5,10.1,22.5,22.5v42
			c0,12.4-10.1,22.5-22.5,22.5H22.9z"/>
		<path class="st4" d="M22.9,91.4c-12.3,0-22.3-10-22.3-22.3V27c0-12.3,10-22.3,22.3-22.3h42.1c12.3,0,22.3,10,22.3,22.3v42
			c0,12.3-10,22.3-22.3,22.3H22.9z"/>
		<path class="st5" d="M22.9,91.2c-12.2,0-22.1-9.9-22.1-22.1V27c0-12.2,9.9-22.1,22.1-22.1h42.1c12.2,0,22.1,9.9,22.1,22.1v42
			c0,12.2-9.9,22.1-22.1,22.1H22.9z"/>
		<path class="st6" d="M22.9,91C10.8,91,1,81.1,1,69.1V27C1,14.9,10.8,5.1,22.9,5.1h42.1C77.1,5.1,87,14.9,87,27v42
			C87,81.1,77.1,91,65.1,91H22.9z"/>
		<path class="st7" d="M22.9,90.8c-12,0-21.7-9.7-21.7-21.7V27c0-12,9.7-21.7,21.7-21.7h42.1c12,0,21.7,9.7,21.7,21.7v42
			c0,12-9.7,21.7-21.7,21.7H22.9z"/>
		<path class="st8" d="M22.9,90.6C11,90.6,1.4,80.9,1.4,69.1V27C1.4,15.2,11,5.5,22.9,5.5h42.1c11.9,0,21.5,9.6,21.5,21.5v42
			c0,11.9-9.6,21.5-21.5,21.5H22.9z"/>
		<path class="st9" d="M22.9,90.4c-11.7,0-21.3-9.5-21.3-21.3V27c0-11.7,9.5-21.3,21.3-21.3h42.1c11.7,0,21.3,9.5,21.3,21.3v42
			c0,11.7-9.5,21.3-21.3,21.3H22.9z"/>
		<path class="st10" d="M22.9,90.1c-11.6,0-21.1-9.5-21.1-21.1V27c0-11.6,9.5-21.1,21.1-21.1h42.1c11.6,0,21.1,9.5,21.1,21.1v42
			c0,11.6-9.5,21.1-21.1,21.1H22.9z"/>
		<path class="st11" d="M22.9,89.9C11.4,89.9,2,80.6,2,69.1V27C2,15.5,11.4,6.2,22.9,6.2h42.1c11.5,0,20.9,9.4,20.9,20.9v42
			c0,11.5-9.4,20.9-20.9,20.9H22.9z"/>
		<path class="st12" d="M22.9,89.7c-11.4,0-20.7-9.3-20.7-20.7V27c0-11.4,9.3-20.7,20.7-20.7h42.1c11.4,0,20.7,9.3,20.7,20.7v42
			c0,11.4-9.3,20.7-20.7,20.7H22.9z"/>
		<path class="st13" d="M22.9,89.5c-11.3,0-20.5-9.2-20.5-20.5V27c0-11.3,9.2-20.5,20.5-20.5h42.1c11.3,0,20.5,9.2,20.5,20.5v42
			c0,11.3-9.2,20.5-20.5,20.5H22.9z"/>
		<path class="st14" d="M22.9,89.3c-11.2,0-20.3-9.1-20.3-20.3V27c0-11.2,9.1-20.3,20.3-20.3h42.1c11.2,0,20.3,9.1,20.3,20.3v42
			c0,11.2-9.1,20.3-20.3,20.3H22.9z"/>
		<path class="st15" d="M22.9,89.1c-11.1,0-20.1-9-20.1-20.1V27C2.8,16,11.8,7,22.9,7h42.1C76.1,7,85.1,16,85.1,27v42
			c0,11.1-9,20.1-20.1,20.1H22.9z"/>
		<path class="st16" d="M22.9,88.9C12,88.9,3.1,80,3.1,69.1V27c0-11,8.9-19.9,19.9-19.9h42.1c11,0,19.9,8.9,19.9,19.9v42
			c0,11-8.9,19.8-19.9,19.8H22.9z"/>
		<path class="st17" d="M22.9,88.7c-10.8,0-19.6-8.8-19.6-19.6V27c0-10.8,8.8-19.6,19.6-19.6h42.1c10.8,0,19.6,8.8,19.6,19.6v42
			c0,10.8-8.8,19.6-19.6,19.6H22.9z"/>
		<path class="st18" d="M22.9,88.5c-10.7,0-19.4-8.7-19.4-19.4V27c0-10.7,8.7-19.4,19.4-19.4h42.1c10.7,0,19.4,8.7,19.4,19.4v42
			c0,10.7-8.7,19.4-19.4,19.4H22.9z"/>
		<path class="st19" d="M22.9,88.3c-10.6,0-19.2-8.6-19.2-19.2V27c0-10.6,8.6-19.2,19.2-19.2h42.1c10.6,0,19.2,8.6,19.2,19.2v42
			c0,10.6-8.6,19.2-19.2,19.2H22.9z"/>
		<path class="st20" d="M22.9,88.1c-10.5,0-19-8.5-19-19V27c0-10.5,8.5-19,19-19h42.1c10.5,0,19,8.5,19,19v42c0,10.5-8.5,19-19,19
			H22.9z"/>
		<path class="st21" d="M22.9,87.9c-10.4,0-18.8-8.4-18.8-18.8V27c0-10.4,8.4-18.8,18.8-18.8h42.1c10.4,0,18.8,8.4,18.8,18.8v42
			c0,10.4-8.4,18.8-18.8,18.8H22.9z"/>
		<path class="st22" d="M22.9,87.7c-10.3,0-18.6-8.3-18.6-18.6V27c0-10.3,8.3-18.6,18.6-18.6h42.1c10.3,0,18.6,8.3,18.6,18.6v42
			c0,10.3-8.3,18.6-18.6,18.6H22.9z"/>
		<path class="st23" d="M22.9,87.5c-10.2,0-18.4-8.2-18.4-18.4V27c0-10.2,8.2-18.4,18.4-18.4h42.1c10.2,0,18.4,8.2,18.4,18.4v42
			c0,10.2-8.2,18.4-18.4,18.4H22.9z"/>
		<path class="st24" d="M22.9,87.3c-10.1,0-18.2-8.2-18.2-18.2V27c0-10,8.2-18.2,18.2-18.2h42.1C75.1,8.8,83.3,17,83.3,27v42
			c0,10-8.2,18.2-18.2,18.2H22.9z"/>
		<path class="st25" d="M22.9,87.1c-9.9,0-18-8.1-18-18V27c0-9.9,8.1-18,18-18h42.1c9.9,0,18,8.1,18,18v42c0,9.9-8.1,18-18,18H22.9z
			"/>
		<path class="st26" d="M22.9,86.8c-9.8,0-17.8-8-17.8-17.8V27c0-9.8,8-17.8,17.8-17.8h42.1c9.8,0,17.8,8,17.8,17.8v42
			c0,9.8-8,17.8-17.8,17.8H22.9z"/>
		<path class="st27" d="M22.9,86.6c-9.7,0-17.6-7.9-17.6-17.6V27c0-9.7,7.9-17.6,17.6-17.6h42.1c9.7,0,17.6,7.9,17.6,17.6v42
			c0,9.7-7.9,17.6-17.6,17.6H22.9z"/>
		<path class="st28" d="M22.9,86.4c-9.6,0-17.4-7.8-17.4-17.4V27c0-9.6,7.8-17.4,17.4-17.4h42.1c9.6,0,17.4,7.8,17.4,17.4v42
			c0,9.6-7.8,17.4-17.4,17.4H22.9z"/>
		<path class="st29" d="M22.9,86.2c-9.5,0-17.2-7.7-17.2-17.2V27c0-9.5,7.7-17.2,17.2-17.2h42.1c9.5,0,17.2,7.7,17.2,17.2v42
			c0,9.5-7.7,17.2-17.2,17.2H22.9z"/>
		<path class="st30" d="M22.9,86c-9.4,0-17-7.6-17-17V27c0-9.4,7.6-17,17-17h42.1c9.4,0,17,7.6,17,17v42c0,9.4-7.6,17-17,17H22.9z"
			/>
		<path class="st31" d="M22.9,85.8c-9.3,0-16.8-7.5-16.8-16.8V27c0-9.3,7.5-16.8,16.8-16.8h42.1c9.3,0,16.8,7.5,16.8,16.8v42
			c0,9.3-7.5,16.8-16.8,16.8H22.9z"/>
		<path d="M81.6,69.1c0,9.1-7.4,16.6-16.6,16.6H22.9c-9.1,0-16.6-7.4-16.6-16.6V27c0-9.1,7.4-16.6,16.6-16.6h42.1
			c9.1,0,16.6,7.4,16.6,16.6V69.1z"/>
	</g>
	<g>
		<linearGradient id="SVGID_1_" gradientUnits="userSpaceOnUse" x1="43.982" y1="84.2679" x2="43.982" y2="4.0931">
			<stop  offset="0" style="stop-color:#F57E20"/>
			<stop  offset="1" style="stop-color:#FECA42"/>
		</linearGradient>
		<path class="st32" d="M84.1,66.6c0,9.8-7.9,17.7-17.7,17.7h-45c-9.8,0-17.7-7.9-17.7-17.7V21.8c0-9.8,7.9-17.7,17.7-17.7h45
			c9.8,0,17.7,7.9,17.7,17.7V66.6z"/>
	</g>
</g>
<g>
	<g>
		<g>
			<g>
				<linearGradient id="SVGID_2_" gradientUnits="userSpaceOnUse" x1="38.3137" y1="89.1898" x2="42.0563" y2="71.4975">
					<stop  offset="0" style="stop-color:#61A82A"/>
					<stop  offset="5.634058e-02" style="stop-color:#5DA228"/>
					<stop  offset="0.4029" style="stop-color:#4A8120"/>
					<stop  offset="0.5934" style="stop-color:#43751D"/>
					<stop  offset="1" style="stop-color:#386118"/>
				</linearGradient>
				<polygon class="st33" points="44.9,79.3 38.2,75.2 38.2,68.2 44.9,72.4 				"/>
			</g>
			<linearGradient id="SVGID_3_" gradientUnits="userSpaceOnUse" x1="46.0591" y1="60.0339" x2="52.4385" y2="50.8901">
				<stop  offset="0" style="stop-color:#61A82A"/>
				<stop  offset="5.634058e-02" style="stop-color:#5DA228"/>
				<stop  offset="0.4029" style="stop-color:#4A8120"/>
				<stop  offset="0.5934" style="stop-color:#43751D"/>
				<stop  offset="1" style="stop-color:#386118"/>
			</linearGradient>
			<path class="st34" d="M54.6,52.5c-0.2-0.3-0.6-0.5-1-0.8L47,47.5c0.4,0.2,0.7,0.5,1,0.8c0.8,0.9,1.2,1.9,1.2,3.1
				c0,1.3-0.5,2.6-1.4,3.8c-0.9,1.2-2.4,2.1-4.4,2.8l6.7,4.2c2-0.7,3.4-1.7,4.4-2.8c0.9-1.2,1.4-2.4,1.4-3.8
				C55.8,54.4,55.4,53.3,54.6,52.5z"/>
			<linearGradient id="SVGID_4_" gradientUnits="userSpaceOnUse" x1="41.4473" y1="59.247" x2="35.2379" y2="64.6057">
				<stop  offset="0" style="stop-color:#4E8822"/>
				<stop  offset="0.467" style="stop-color:#6EC030"/>
				<stop  offset="0.5275" style="stop-color:#74CB33"/>
				<stop  offset="0.6209" style="stop-color:#7CD736"/>
				<stop  offset="0.7692" style="stop-color:#6EC030"/>
				<stop  offset="0.8837" style="stop-color:#65AF2C"/>
				<stop  offset="1" style="stop-color:#5EA329"/>
			</linearGradient>
			<path class="st35" d="M38.3,58.2c-0.7-0.3-1.2-0.5-1.7-0.9l6.7,4.2c0.5,0.3,1.1,0.6,1.7,0.9L38.3,58.2z"/>
			<g>
				<linearGradient id="SVGID_5_" gradientUnits="userSpaceOnUse" x1="40.1592" y1="76.9016" x2="42.0305" y2="46.9608">
					<stop  offset="0" style="stop-color:#61A82A"/>
					<stop  offset="5.634058e-02" style="stop-color:#5DA228"/>
					<stop  offset="0.4029" style="stop-color:#4A8120"/>
					<stop  offset="0.5934" style="stop-color:#43751D"/>
					<stop  offset="1" style="stop-color:#386118"/>
				</linearGradient>
				<polygon class="st36" points="44.9,62.4 38.3,58.2 38.3,45.2 44.9,49.3 				"/>
			</g>
			<linearGradient id="SVGID_6_" gradientUnits="userSpaceOnUse" x1="51.6179" y1="38.5774" x2="66.0779" y2="21.5656">
				<stop  offset="0" style="stop-color:#4E8822"/>
				<stop  offset="0.5275" style="stop-color:#6BBB2F"/>
				<stop  offset="0.8157" style="stop-color:#7BD736"/>
				<stop  offset="1" style="stop-color:#82E339"/>
			</linearGradient>
			<path class="st37" d="M56.6,36.4c-2.6-1.6-7-2.9-13.2-3.9l6.7,4.2c6.2,1,10.6,2.3,13.2,3.9L56.6,36.4z"/>
			<linearGradient id="SVGID_7_" gradientUnits="userSpaceOnUse" x1="48.8028" y1="27.7456" x2="50.6175" y2="25.7042">
				<stop  offset="0" style="stop-color:#61A82A"/>
				<stop  offset="5.634058e-02" style="stop-color:#5DA228"/>
				<stop  offset="0.4029" style="stop-color:#4A8120"/>
				<stop  offset="0.5934" style="stop-color:#43751D"/>
				<stop  offset="1" style="stop-color:#386118"/>
			</linearGradient>
			<path class="st38" d="M52.7,27.7c-0.3-0.4-0.7-0.7-1.3-1l-6.7-4.2c0.5,0.3,1,0.7,1.3,1c0.5,0.6,1.1,1.7,1.8,3.4l6.7,4.2
				C53.8,29.5,53.2,28.3,52.7,27.7z"/>
			<linearGradient id="SVGID_8_" gradientUnits="userSpaceOnUse" x1="41.2275" y1="32.3384" x2="38.2079" y2="37.0167">
				<stop  offset="0" style="stop-color:#4E8822"/>
				<stop  offset="0.467" style="stop-color:#6EC030"/>
				<stop  offset="0.5275" style="stop-color:#74CB33"/>
				<stop  offset="0.6209" style="stop-color:#7CD736"/>
				<stop  offset="0.7692" style="stop-color:#6EC030"/>
				<stop  offset="0.8837" style="stop-color:#65AF2C"/>
				<stop  offset="1" style="stop-color:#5EA329"/>
			</linearGradient>
			<path class="st39" d="M38.3,31.7c-0.9-0.2-1.6-0.5-2.2-0.9l6.7,4.2c0.6,0.4,1.3,0.6,2.2,0.9L38.3,31.7z"/>
			<linearGradient id="SVGID_9_" gradientUnits="userSpaceOnUse" x1="28.7331" y1="53.2173" x2="24.14" y2="66.9969">
				<stop  offset="0" style="stop-color:#61A82A"/>
				<stop  offset="5.634058e-02" style="stop-color:#5DA228"/>
				<stop  offset="0.4029" style="stop-color:#4A8120"/>
				<stop  offset="0.5934" style="stop-color:#43751D"/>
				<stop  offset="1" style="stop-color:#386118"/>
			</linearGradient>
			<path class="st40" d="M31.1,68.8c-1.6-1.3-2.7-2.8-3.6-4.4c-0.8-1.6-1.5-3.7-1.9-6.1l-6.7-4.2c0.4,2.4,1,4.4,1.9,6.1
				c0.8,1.6,2,3.1,3.6,4.4c0.5,0.4,1,0.8,1.6,1.2l6.7,4.2C32.1,69.6,31.6,69.2,31.1,68.8z"/>
			<g>
				<linearGradient id="SVGID_10_" gradientUnits="userSpaceOnUse" x1="33.7044" y1="51.3085" x2="23.6675" y2="58.6236">
					<stop  offset="0" style="stop-color:#569625"/>
					<stop  offset="0.5849" style="stop-color:#64AF2C"/>
					<stop  offset="1" style="stop-color:#6BBB2F"/>
				</linearGradient>
				<polygon class="st41" points="25.6,58.3 18.9,54.1 33.1,50.7 39.7,54.9 				"/>
			</g>
			<g>
				<linearGradient id="SVGID_11_" gradientUnits="userSpaceOnUse" x1="40.8197" y1="43.3633" x2="41.8405" y2="25.671">
					<stop  offset="0" style="stop-color:#61A82A"/>
					<stop  offset="5.634058e-02" style="stop-color:#5DA228"/>
					<stop  offset="0.4029" style="stop-color:#4A8120"/>
					<stop  offset="0.5934" style="stop-color:#43751D"/>
					<stop  offset="1" style="stop-color:#386118"/>
				</linearGradient>
				<polygon class="st42" points="45,35.9 38.3,31.7 38.3,22.3 45,26.4 				"/>
			</g>
			<linearGradient id="SVGID_12_" gradientUnits="userSpaceOnUse" x1="56.0873" y1="10.6231" x2="50.5302" y2="17.8815">
				<stop  offset="0.4505" style="stop-color:#73C832"/>
				<stop  offset="0.6702" style="stop-color:#65B12C"/>
				<stop  offset="1" style="stop-color:#539124"/>
			</linearGradient>
			<path class="st43" d="M54.9,14.3c-2.5-1.5-5.8-2.3-10-2.2c-0.5,0-1,0-1.5,0.1l6.7,4.2c0.5,0,1,0,1.5-0.1c4.2-0.1,7.6,0.7,10,2.2
				L54.9,14.3z"/>
			<g>
				<linearGradient id="SVGID_13_" gradientUnits="userSpaceOnUse" x1="42.5971" y1="7.729" x2="39.7618" y2="23.8336">
					<stop  offset="0" style="stop-color:#61A82A"/>
					<stop  offset="9.494424e-02" style="stop-color:#5DA228"/>
					<stop  offset="0.679" style="stop-color:#4A8120"/>
					<stop  offset="1" style="stop-color:#43751D"/>
				</linearGradient>
				<polygon class="st44" points="45,16.9 38.3,12.7 38.3,9.1 45,13.2 				"/>
			</g>
			<g>
				<linearGradient id="SVGID_14_" gradientUnits="userSpaceOnUse" x1="46.639" y1="8.6185" x2="38.4732" y2="16.217">
					<stop  offset="0" style="stop-color:#73C832"/>
					<stop  offset="1" style="stop-color:#75CC33"/>
				</linearGradient>
				<polygon class="st45" points="45,13.2 38.3,9.1 43.4,8.5 50.1,12.6 				"/>
			</g>
			<linearGradient id="SVGID_15_" gradientUnits="userSpaceOnUse" x1="42.2696" y1="14.7648" x2="23.2164" y2="41.0764">
				<stop  offset="0.1593" style="stop-color:#61A82A"/>
				<stop  offset="0.2084" style="stop-color:#5DA228"/>
				<stop  offset="0.51" style="stop-color:#4A8120"/>
				<stop  offset="0.6758" style="stop-color:#43751D"/>
				<stop  offset="1" style="stop-color:#386118"/>
			</linearGradient>
			<path class="st46" d="M29.8,42.7c-1.4-2.1-2.2-4.7-2.2-7.9c0-4.4,1.5-8.2,4.4-11.5c2.9-3.3,7.2-5.4,13-6.4l-6.7-4.2
				c-5.7,1-10.1,3.2-13,6.4c-2.9,3.3-4.4,7.1-4.4,11.5c0,3.2,0.7,5.8,2.2,7.9c1,1.5,2.2,2.6,3.5,3.4l6.7,4.2
				C32,45.3,30.9,44.2,29.8,42.7z"/>
			<linearGradient id="SVGID_16_" gradientUnits="userSpaceOnUse" x1="57.0243" y1="14.9365" x2="37.2823" y2="79.4856">
				<stop  offset="0" style="stop-color:#95DE40"/>
				<stop  offset="1" style="stop-color:#6EBB33"/>
			</linearGradient>
			<path class="st47" d="M64.2,41.3c-2.4-1.9-7.1-3.5-14.2-4.6l0-10.7c1.2,0.5,2.1,1.1,2.6,1.7c0.5,0.6,1.1,1.7,1.8,3.4l13-3.7
				c-0.8-3.8-2.6-6.7-5.4-8.6c-2.5-1.7-6-2.6-10.5-2.5c-0.5,0-1,0-1.5,0.1l0-3.7L45,13.2l0,3.7c-5.7,1-10.1,3.2-13,6.4
				c-2.9,3.3-4.4,7.1-4.4,11.5c0,3.2,0.7,5.8,2.2,7.9c1.4,2.1,3.1,3.5,5.1,4.2c2,0.8,5.3,1.6,10,2.4l0,13c-1.6-0.6-2.8-1.5-3.5-2.5
				c-0.7-1-1.3-2.7-1.7-5.1l-14.1,3.4c0.4,2.4,1,4.4,1.9,6.1c0.8,1.6,2,3.1,3.6,4.4c1.5,1.3,3.4,2.3,5.5,2.9c2,0.6,4.5,0.8,7.6,0.8
				c0.2,0,0.5,0,0.7,0l0,7l5.1-0.6l0-7c2.9-0.5,5.3-1.2,7.3-2.1c2-0.9,3.9-2.2,5.6-3.9c1.8-1.7,3.2-3.8,4.3-6.1
				c1.1-2.4,1.7-4.9,1.7-7.6C69,47.5,67.4,43.9,64.2,41.3z M45,35.9c-1.5-0.4-2.5-0.9-3.1-1.6c-0.6-0.7-0.9-1.6-0.9-2.7
				c0-1,0.3-2,0.9-2.8c0.6-0.8,1.6-1.6,3.1-2.3L45,35.9z M54.4,59.3c-0.9,1.2-2.4,2.1-4.4,2.8l0-11.8c2.3,0.6,3.8,1.3,4.6,2.2
				c0.8,0.9,1.2,1.9,1.2,3.1C55.8,56.9,55.3,58.1,54.4,59.3z"/>
		</g>
	</g>
</g>
</svg>
