<?xml version="1.0" encoding="utf-8"?>
<!-- Generator: Adobe Illustrator 19.1.0, SVG Export Plug-In . SVG Version: 6.00 Build 0)  -->
<!DOCTYPE svg PUBLIC "-//W3C//DTD SVG 1.1//EN" "http://www.w3.org/Graphics/SVG/1.1/DTD/svg11.dtd" [
	<!ENTITY ns_extend "http://ns.adobe.com/Extensibility/1.0/">
	<!ENTITY ns_ai "http://ns.adobe.com/AdobeIllustrator/10.0/">
	<!ENTITY ns_graphs "http://ns.adobe.com/Graphs/1.0/">
	<!ENTITY ns_vars "http://ns.adobe.com/Variables/1.0/">
	<!ENTITY ns_imrep "http://ns.adobe.com/ImageReplacement/1.0/">
	<!ENTITY ns_sfw "http://ns.adobe.com/SaveForWeb/1.0/">
	<!ENTITY ns_custom "http://ns.adobe.com/GenericCustomNamespace/1.0/">
	<!ENTITY ns_adobe_xpath "http://ns.adobe.com/XPath/1.0/">
]>
<svg version="1.1" id="Layer_1" xmlns:x="&ns_extend;" xmlns:i="&ns_ai;" xmlns:graph="&ns_graphs;"
	 xmlns="http://www.w3.org/2000/svg" xmlns:xlink="http://www.w3.org/1999/xlink" x="0px" y="0px" viewBox="0 0 88 92"
	 style="enable-background:new 0 0 88 92;" xml:space="preserve">
<style type="text/css">
	.st0{opacity:0.28;}
	.st1{fill:#FFFFFF;}
	.st2{fill:#F7F7F7;}
	.st3{fill:#EFEFEF;}
	.st4{fill:#E6E6E6;}
	.st5{fill:#DEDEDE;}
	.st6{fill:#D6D6D6;}
	.st7{fill:#CECECE;}
	.st8{fill:#C5C5C5;}
	.st9{fill:#BDBDBD;}
	.st10{fill:#B5B5B5;}
	.st11{fill:#ADADAD;}
	.st12{fill:#A5A5A5;}
	.st13{fill:#9C9C9C;}
	.st14{fill:#949494;}
	.st15{fill:#8C8C8C;}
	.st16{fill:#848484;}
	.st17{fill:#7B7B7B;}
	.st18{fill:#737373;}
	.st19{fill:#6B6B6B;}
	.st20{fill:#636363;}
	.st21{fill:#5A5A5A;}
	.st22{fill:#525252;}
	.st23{fill:#4A4A4A;}
	.st24{fill:#424242;}
	.st25{fill:#3A3A3A;}
	.st26{fill:#313131;}
	.st27{fill:#292929;}
	.st28{fill:#212121;}
	.st29{fill:#191919;}
	.st30{fill:#101010;}
	.st31{fill:#080808;}
	.st32{fill:url(#SVGID_1_);}
</style>
<metadata>
	<sfw  xmlns="&ns_sfw;">
		<slices></slices>
		<sliceSourceBounds  width="87.9" height="87.8" bottomLeftOrigin="true" y="0" x="0"></sliceSourceBounds>
	</sfw>
</metadata>
<g>
	<g class="st0">
		<path class="st1" d="M22.9,92C10.3,92,0,81.7,0,69.1v-42C0,14.5,10.3,4.2,22.9,4.2H65c12.6,0,22.9,10.3,22.9,22.9v42
			C87.9,81.7,77.6,92,65,92H22.9z"/>
		<path class="st2" d="M22.9,91.8c-12.5,0-22.7-10.2-22.7-22.7v-42c0-12.5,10.2-22.7,22.7-22.7H65c12.5,0,22.7,10.2,22.7,22.7v42
			c0,12.5-10.2,22.7-22.7,22.7H22.9z"/>
		<path class="st3" d="M22.9,91.6c-12.4,0-22.5-10.1-22.5-22.5v-42c0-12.4,10.1-22.5,22.5-22.5H65c12.4,0,22.5,10.1,22.5,22.5v42
			c0,12.4-10.1,22.5-22.5,22.5H22.9z"/>
		<path class="st4" d="M22.9,91.4c-12.3,0-22.3-10-22.3-22.3v-42c0-12.3,10-22.3,22.3-22.3H65c12.3,0,22.3,10,22.3,22.3v42
			c0,12.3-10,22.3-22.3,22.3H22.9z"/>
		<path class="st5" d="M22.9,91.2c-12.2,0-22.1-9.9-22.1-22.1v-42C0.8,15,10.7,5.1,22.9,5.1H65c12.2,0,22.1,9.9,22.1,22.1v42
			c0,12.2-9.9,22.1-22.1,22.1H22.9z"/>
		<path class="st6" d="M22.9,91C10.8,91,1,81.2,1,69.1v-42C1,15.1,10.8,5.3,22.9,5.3H65c12.1,0,21.9,9.8,21.9,21.9v42
			C86.9,81.2,77.1,91,65,91H22.9z"/>
		<path class="st7" d="M22.9,90.8C11,90.8,1.2,81,1.2,69.1v-42c0-12,9.7-21.7,21.7-21.7H65c12,0,21.7,9.7,21.7,21.7v42
			c0,11.9-9.7,21.7-21.7,21.7H22.9z"/>
		<path class="st8" d="M22.9,90.6c-11.8,0-21.5-9.6-21.5-21.5v-42c0-11.8,9.6-21.5,21.5-21.5H65c11.8,0,21.5,9.6,21.5,21.5v42
			c0,11.8-9.6,21.5-21.5,21.5H22.9z"/>
		<path class="st9" d="M22.9,90.4c-11.7,0-21.3-9.5-21.3-21.3v-42c0-11.7,9.5-21.3,21.3-21.3H65c11.7,0,21.3,9.5,21.3,21.3v42
			c0,11.7-9.5,21.3-21.3,21.3H22.9z"/>
		<path class="st10" d="M22.9,90.1c-11.6,0-21.1-9.4-21.1-21v-42c0-11.6,9.4-21.1,21.1-21.1H65C76.6,6.1,86,15.5,86,27.1v42
			c0,11.6-9.4,21-21.1,21H22.9z"/>
		<path class="st11" d="M22.9,89.9c-11.5,0-20.9-9.3-20.9-20.8v-42c0-11.5,9.3-20.9,20.9-20.9H65c11.5,0,20.9,9.3,20.9,20.9v42
			c0,11.5-9.3,20.8-20.9,20.8H22.9z"/>
		<path class="st12" d="M22.9,89.7c-11.4,0-20.6-9.3-20.6-20.6v-42c0-11.4,9.3-20.6,20.6-20.6H65c11.4,0,20.6,9.3,20.6,20.6v42
			c0,11.4-9.3,20.6-20.6,20.6H22.9z"/>
		<path class="st13" d="M22.9,89.5c-11.3,0-20.4-9.2-20.4-20.4v-42c0-11.3,9.2-20.4,20.4-20.4H65c11.3,0,20.4,9.2,20.4,20.4v42
			c0,11.3-9.2,20.4-20.4,20.4H22.9z"/>
		<path class="st14" d="M22.9,89.3c-11.2,0-20.2-9.1-20.2-20.2v-42C2.7,16,11.7,6.9,22.9,6.9H65c11.2,0,20.2,9.1,20.2,20.2v42
			c0,11.2-9.1,20.2-20.2,20.2H22.9z"/>
		<path class="st15" d="M22.9,89.1c-11.1,0-20-9-20-20v-42c0-11.1,9-20,20-20H65c11.1,0,20,9,20,20v42c0,11-9,20-20,20H22.9z"/>
		<path class="st16" d="M22.9,88.9C12,88.9,3.1,80,3.1,69.1v-42C3.1,16.2,12,7.3,22.9,7.3H65c10.9,0,19.8,8.9,19.8,19.8v42
			c0,10.9-8.9,19.8-19.8,19.8H22.9z"/>
		<path class="st17" d="M22.9,88.7c-10.8,0-19.6-8.8-19.6-19.6v-42c0-10.8,8.8-19.6,19.6-19.6H65c10.8,0,19.6,8.8,19.6,19.6v42
			c0,10.8-8.8,19.6-19.6,19.6H22.9z"/>
		<path class="st18" d="M22.9,88.5c-10.7,0-19.4-8.7-19.4-19.4v-42c0-10.7,8.7-19.4,19.4-19.4H65c10.7,0,19.4,8.7,19.4,19.4v42
			c0,10.7-8.7,19.4-19.4,19.4H22.9z"/>
		<path class="st19" d="M22.9,88.3c-10.6,0-19.2-8.6-19.2-19.2v-42c0-10.6,8.6-19.2,19.2-19.2H65c10.6,0,19.2,8.6,19.2,19.2v42
			c0,10.6-8.6,19.2-19.2,19.2H22.9z"/>
		<path class="st20" d="M22.9,88.1c-10.5,0-19-8.5-19-19v-42c0-10.5,8.5-19,19-19H65c10.5,0,19,8.5,19,19v42c0,10.5-8.5,19-19,19
			H22.9z"/>
		<path class="st21" d="M22.9,87.9c-10.4,0-18.8-8.4-18.8-18.8v-42c0-10.4,8.4-18.8,18.8-18.8H65c10.4,0,18.8,8.4,18.8,18.8v42
			c0,10.4-8.4,18.8-18.8,18.8H22.9z"/>
		<path class="st22" d="M22.9,87.7c-10.3,0-18.6-8.3-18.6-18.6v-42c0-10.3,8.3-18.6,18.6-18.6H65c10.3,0,18.6,8.3,18.6,18.6v42
			c0,10.3-8.3,18.6-18.6,18.6H22.9z"/>
		<path class="st23" d="M22.9,87.5c-10.1,0-18.4-8.2-18.4-18.4v-42C4.5,17,12.8,8.8,22.9,8.8H65c10.1,0,18.4,8.2,18.4,18.4v42
			c0,10.1-8.2,18.4-18.4,18.4H22.9z"/>
		<path class="st24" d="M22.9,87.3c-10,0-18.2-8.1-18.2-18.2v-42C4.7,17.1,12.9,9,22.9,9H65c10,0,18.2,8.1,18.2,18.2v42
			c0,10-8.1,18.2-18.2,18.2H22.9z"/>
		<path class="st25" d="M22.9,87.1c-9.9,0-18-8-18-18v-42c0-9.9,8-18,18-18H65c9.9,0,18,8,18,18v42c0,9.9-8,18-18,18H22.9z"/>
		<path class="st26" d="M22.9,86.9c-9.8,0-17.8-8-17.8-17.8v-42c0-9.8,8-17.8,17.8-17.8H65c9.8,0,17.8,8,17.8,17.8v42
			c0,9.8-8,17.8-17.8,17.8H22.9z"/>
		<path class="st27" d="M22.9,86.7c-9.7,0-17.6-7.9-17.6-17.6v-42c0-9.7,7.9-17.6,17.6-17.6H65c9.7,0,17.6,7.9,17.6,17.6v42
			c0,9.7-7.9,17.6-17.6,17.6H22.9z"/>
		<path class="st28" d="M22.9,86.4c-9.6,0-17.4-7.8-17.4-17.3v-42c0-9.6,7.8-17.4,17.4-17.4H65c9.6,0,17.4,7.8,17.4,17.4v42
			c0,9.6-7.8,17.3-17.4,17.3H22.9z"/>
		<path class="st29" d="M22.9,86.2c-9.5,0-17.1-7.7-17.1-17.1v-42c0-9.5,7.7-17.1,17.1-17.1H65c9.5,0,17.1,7.7,17.1,17.1v42
			c0,9.5-7.7,17.1-17.1,17.1H22.9z"/>
		<path class="st30" d="M22.9,86C13.6,86,6,78.4,6,69.1v-42c0-9.4,7.6-16.9,16.9-16.9H65c9.4,0,16.9,7.6,16.9,16.9v42
			C81.9,78.4,74.4,86,65,86H22.9z"/>
		<path class="st31" d="M22.9,85.8c-9.2,0-16.7-7.5-16.7-16.7v-42c0-9.2,7.5-16.7,16.7-16.7H65c9.2,0,16.7,7.5,16.7,16.7v42
			c0,9.2-7.5,16.7-16.7,16.7H22.9z"/>
		<path d="M81.5,69.1c0,9.1-7.4,16.5-16.5,16.5H22.9c-9.1,0-16.5-7.4-16.5-16.5v-42c0-9.1,7.4-16.5,16.5-16.5H65
			c9.1,0,16.5,7.4,16.5,16.5V69.1z"/>
	</g>
	<g>
		<linearGradient id="SVGID_1_" gradientUnits="userSpaceOnUse" x1="43.9544" y1="85.0071" x2="43.9544" y2="4.9475">
			<stop  offset="0" style="stop-color:#5C892A"/>
			<stop  offset="0.34" style="stop-color:#81A62E"/>
			<stop  offset="0.7758" style="stop-color:#AAC731"/>
			<stop  offset="1" style="stop-color:#BAD433"/>
		</linearGradient>
		<path class="st32" d="M84.1,67.4c0,9.7-7.9,17.6-17.6,17.6H21.5c-9.7,0-17.6-7.9-17.6-17.6V22.6c0-9.7,7.9-17.6,17.6-17.6h44.9
			c9.7,0,17.6,7.9,17.6,17.6V67.4z"/>
	</g>
</g>
<g>
	<polygon class="st1" points="13.1,28.1 13.1,61.2 29.7,41.4 	"/>
	<path class="st1" d="M57.9,49.7l-6.1-7.3l-10.4,8.4L31,42.4L14.2,62.5h40.4c-0.3-1.1-0.5-2.3-0.5-3.6
		C54.1,55.3,55.5,52.1,57.9,49.7z"/>
	<path class="st1" d="M59.1,48.6c2.3-1.8,5.1-2.9,8.2-2.9c0.8,0,1.6,0.1,2.4,0.2V28.1L53.1,41.4L59.1,48.6z"/>
	<polygon class="st1" points="68.4,27 14.4,27 41.4,48.7 	"/>
	<path class="st1" d="M78.9,58.6c-0.2-5.5-4.1-10-9.3-11.1c-0.8-0.2-1.6-0.2-2.4-0.2c-2.7,0-5.2,0.9-7.2,2.5
		c-0.4,0.3-0.8,0.7-1.2,1.1c-2,2.1-3.2,4.9-3.2,8c0,1.2,0.2,2.4,0.6,3.6c0.3,0.9,0.7,1.7,1.2,2.5c0.1,0.1,0.2,0.3,0.3,0.4
		c2.1,3.1,5.6,5.1,9.7,5.1c6.2,0,11.3-4.8,11.6-11c0-0.2,0-0.4,0-0.6v-0.1C78.9,58.8,78.9,58.7,78.9,58.6z M67.3,69
		c-5.5,0-10-4.5-10-10c0-5.5,4.5-10,10-10c5.5,0,10,4.5,10,10C77.3,64.5,72.8,69,67.3,69z"/>
</g>
<g>
	<path class="st1" d="M74.4,52.8c-1.5,1.7-3,3.5-4.3,5.4c-1.4,1.8-2.6,3.7-3.7,5.7c-0.1,0.1-0.2,0.3-0.3,0.6
		c-0.4,0.8-0.9,1.2-1.7,1.2c-0.3,0-0.6,0-0.8-0.1c-0.2-0.1-0.4-0.2-0.5-0.5c-0.1-0.2-0.3-0.4-0.4-0.7c-0.1-0.3-0.3-0.8-0.4-1.4
		c0,0,0-0.1,0-0.1c-0.2-0.7-0.3-1.1-0.3-1.2c0-0.3,0.2-0.7,0.6-0.9c0.4-0.3,0.8-0.4,1.2-0.4c0.1,0,0.2,0,0.3,0.1
		c0.1,0.1,0.2,0.2,0.3,0.5c0.1,0.1,0.1,0.4,0.2,0.6c0.2,0.6,0.4,0.9,0.5,0.9c0.1,0,0.6-0.7,1.4-2c0.8-1.2,1.5-2.3,2-3.1
		c0.8-1.2,1.4-2,1.8-2.6c0.4-0.5,0.8-0.9,1.1-1.2c0.3-0.2,0.7-0.4,1.1-0.6c0.5-0.1,1-0.2,1.7-0.3L74.4,52.8z"/>
</g>
</svg>
