<?xml version="1.0" encoding="utf-8"?>
<!-- Generator: Adobe Illustrator 19.0.1, SVG Export Plug-In . SVG Version: 6.00 Build 0)  -->
<!DOCTYPE svg PUBLIC "-//W3C//DTD SVG 1.1//EN" "http://www.w3.org/Graphics/SVG/1.1/DTD/svg11.dtd">
<svg version="1.1" id="Layer_1" xmlns="http://www.w3.org/2000/svg" xmlns:xlink="http://www.w3.org/1999/xlink" x="0px" y="0px"
	 viewBox="0 0 88 92" style="enable-background:new 0 0 88 92;" xml:space="preserve">
<style type="text/css">
	.st0{opacity:0.28;}
	.st1{fill:#FFFFFF;}
	.st2{fill:#F7F7F7;}
	.st3{fill:#EFEFEF;}
	.st4{fill:#E6E6E6;}
	.st5{fill:#DEDEDE;}
	.st6{fill:#D6D6D6;}
	.st7{fill:#CECECE;}
	.st8{fill:#C5C5C5;}
	.st9{fill:#BDBDBD;}
	.st10{fill:#B5B5B5;}
	.st11{fill:#ADADAD;}
	.st12{fill:#A5A5A5;}
	.st13{fill:#9C9C9C;}
	.st14{fill:#949494;}
	.st15{fill:#8C8C8C;}
	.st16{fill:#848484;}
	.st17{fill:#7B7B7B;}
	.st18{fill:#737373;}
	.st19{fill:#6B6B6B;}
	.st20{fill:#636363;}
	.st21{fill:#5A5A5A;}
	.st22{fill:#525252;}
	.st23{fill:#4A4A4A;}
	.st24{fill:#424242;}
	.st25{fill:#3A3A3A;}
	.st26{fill:#313131;}
	.st27{fill:#292929;}
	.st28{fill:#212121;}
	.st29{fill:#191919;}
	.st30{fill:#101010;}
	.st31{fill:#080808;}
	.st32{fill:url(#SVGID_1_);}
	.st33{fill:url(#SVGID_2_);}
	.st34{clip-path:url(#SVGID_4_);fill:#B6C534;}
	.st35{clip-path:url(#SVGID_4_);fill:#B5C534;}
	.st36{clip-path:url(#SVGID_4_);fill:#B4C535;}
	.st37{clip-path:url(#SVGID_4_);fill:#B3C635;}
	.st38{clip-path:url(#SVGID_4_);fill:#B2C635;}
	.st39{clip-path:url(#SVGID_4_);fill:#B1C635;}
	.st40{clip-path:url(#SVGID_4_);fill:#B0C636;}
	.st41{clip-path:url(#SVGID_4_);fill:#AFC736;}
	.st42{clip-path:url(#SVGID_4_);fill:#AEC736;}
	.st43{clip-path:url(#SVGID_4_);fill:#ADC737;}
	.st44{clip-path:url(#SVGID_4_);fill:#ACC737;}
	.st45{clip-path:url(#SVGID_4_);fill:#AAC837;}
	.st46{clip-path:url(#SVGID_4_);fill:#A9C837;}
	.st47{clip-path:url(#SVGID_4_);fill:#A8C838;}
	.st48{clip-path:url(#SVGID_4_);fill:#A7C838;}
	.st49{clip-path:url(#SVGID_4_);fill:#A6C938;}
	.st50{clip-path:url(#SVGID_4_);fill:#A5C939;}
	.st51{clip-path:url(#SVGID_4_);fill:#A4C939;}
	.st52{clip-path:url(#SVGID_4_);fill:#A3C939;}
	.st53{clip-path:url(#SVGID_4_);fill:#A2CA39;}
	.st54{clip-path:url(#SVGID_4_);fill:#A1CA3A;}
	.st55{clip-path:url(#SVGID_4_);fill:#A0CA3A;}
	.st56{clip-path:url(#SVGID_4_);fill:#9FC93A;}
	.st57{clip-path:url(#SVGID_4_);fill:#9EC83A;}
	.st58{clip-path:url(#SVGID_4_);fill:#9DC73B;}
	.st59{clip-path:url(#SVGID_4_);fill:#9CC63B;}
	.st60{clip-path:url(#SVGID_4_);fill:#9BC53B;}
	.st61{clip-path:url(#SVGID_4_);fill:#9AC43B;}
	.st62{clip-path:url(#SVGID_4_);fill:#99C33C;}
	.st63{clip-path:url(#SVGID_4_);fill:#98C33C;}
	.st64{clip-path:url(#SVGID_4_);fill:#97C23C;}
	.st65{clip-path:url(#SVGID_4_);fill:#96C13C;}
	.st66{clip-path:url(#SVGID_4_);fill:#95C03C;}
	.st67{clip-path:url(#SVGID_4_);fill:#94BF3D;}
	.st68{clip-path:url(#SVGID_4_);fill:#93BE3D;}
	.st69{clip-path:url(#SVGID_4_);fill:#92BD3D;}
	.st70{clip-path:url(#SVGID_4_);fill:#91BC3D;}
	.st71{clip-path:url(#SVGID_4_);fill:#90BB3E;}
	.st72{clip-path:url(#SVGID_4_);fill:#8EBA3E;}
	.st73{clip-path:url(#SVGID_4_);fill:#8DB93E;}
	.st74{clip-path:url(#SVGID_4_);fill:#8CB83E;}
	.st75{clip-path:url(#SVGID_4_);fill:#8BB73E;}
	.st76{clip-path:url(#SVGID_4_);fill:#8AB63F;}
	.st77{clip-path:url(#SVGID_4_);fill:#89B53F;}
	.st78{clip-path:url(#SVGID_4_);fill:#88B43F;}
	.st79{clip-path:url(#SVGID_4_);fill:#87B43F;}
	.st80{clip-path:url(#SVGID_4_);fill:#86B33F;}
	.st81{clip-path:url(#SVGID_4_);fill:#85B240;}
	.st82{clip-path:url(#SVGID_4_);fill:#84B140;}
	.st83{clip-path:url(#SVGID_4_);fill:#83B040;}
	.st84{clip-path:url(#SVGID_4_);fill:#82AF40;}
	.st85{clip-path:url(#SVGID_4_);fill:#81AE41;}
	.st86{clip-path:url(#SVGID_4_);fill:#80AD41;}
	.st87{clip-path:url(#SVGID_4_);fill:#7FAC41;}
	.st88{clip-path:url(#SVGID_4_);fill:#7EAB41;}
	.st89{clip-path:url(#SVGID_4_);fill:#7DAA41;}
	.st90{clip-path:url(#SVGID_4_);fill:#7DA941;}
	.st91{clip-path:url(#SVGID_4_);fill:#7CA841;}
	.st92{clip-path:url(#SVGID_4_);fill:#7BA741;}
	.st93{clip-path:url(#SVGID_4_);fill:#7AA641;}
	.st94{clip-path:url(#SVGID_4_);fill:#7AA541;}
	.st95{clip-path:url(#SVGID_4_);fill:#79A441;}
	.st96{clip-path:url(#SVGID_4_);fill:#78A342;}
	.st97{clip-path:url(#SVGID_4_);fill:#77A142;}
	.st98{clip-path:url(#SVGID_4_);fill:#76A042;}
	.st99{clip-path:url(#SVGID_4_);fill:#769F42;}
	.st100{clip-path:url(#SVGID_4_);fill:#759E42;}
	.st101{clip-path:url(#SVGID_4_);fill:#749D42;}
	.st102{clip-path:url(#SVGID_4_);fill:#739C42;}
	.st103{clip-path:url(#SVGID_4_);fill:#739B42;}
	.st104{clip-path:url(#SVGID_4_);fill:#729A42;}
	.st105{clip-path:url(#SVGID_4_);fill:#719942;}
	.st106{fill:url(#SVGID_5_);}
	.st107{fill:url(#SVGID_6_);}
	.st108{fill:url(#SVGID_7_);}
	.st109{clip-path:url(#SVGID_9_);fill:#0EAEE5;}
	.st110{clip-path:url(#SVGID_9_);fill:#0FADE4;}
	.st111{clip-path:url(#SVGID_9_);fill:#10ACE4;}
	.st112{clip-path:url(#SVGID_9_);fill:#11ABE3;}
	.st113{clip-path:url(#SVGID_9_);fill:#12AAE2;}
	.st114{clip-path:url(#SVGID_9_);fill:#13A9E1;}
	.st115{clip-path:url(#SVGID_9_);fill:#14A8E1;}
	.st116{clip-path:url(#SVGID_9_);fill:#15A8E0;}
	.st117{clip-path:url(#SVGID_9_);fill:#16A7DF;}
	.st118{clip-path:url(#SVGID_9_);fill:#17A6DF;}
	.st119{clip-path:url(#SVGID_9_);fill:#18A5DE;}
	.st120{clip-path:url(#SVGID_9_);fill:#19A4DD;}
	.st121{clip-path:url(#SVGID_9_);fill:#1AA3DC;}
	.st122{clip-path:url(#SVGID_9_);fill:#1BA2DC;}
	.st123{clip-path:url(#SVGID_9_);fill:#1CA1DB;}
	.st124{clip-path:url(#SVGID_9_);fill:#1DA0DA;}
	.st125{clip-path:url(#SVGID_9_);fill:#1E9FDA;}
	.st126{clip-path:url(#SVGID_9_);fill:#1F9ED9;}
	.st127{clip-path:url(#SVGID_9_);fill:#209DD8;}
	.st128{clip-path:url(#SVGID_9_);fill:#219CD7;}
	.st129{clip-path:url(#SVGID_9_);fill:#239CD7;}
	.st130{clip-path:url(#SVGID_9_);fill:#249BD6;}
	.st131{clip-path:url(#SVGID_9_);fill:#259AD5;}
	.st132{clip-path:url(#SVGID_9_);fill:#2699D4;}
	.st133{clip-path:url(#SVGID_9_);fill:#2798D4;}
	.st134{clip-path:url(#SVGID_9_);fill:#2897D3;}
	.st135{clip-path:url(#SVGID_9_);fill:#2996D2;}
	.st136{clip-path:url(#SVGID_9_);fill:#2A95D2;}
	.st137{clip-path:url(#SVGID_9_);fill:#2B94D1;}
	.st138{clip-path:url(#SVGID_9_);fill:#2C93D0;}
	.st139{clip-path:url(#SVGID_9_);fill:#2D92CF;}
	.st140{clip-path:url(#SVGID_9_);fill:#2E91CF;}
	.st141{clip-path:url(#SVGID_9_);fill:#2F90CE;}
	.st142{clip-path:url(#SVGID_9_);fill:#3090CD;}
	.st143{clip-path:url(#SVGID_9_);fill:#318FCD;}
	.st144{clip-path:url(#SVGID_9_);fill:#328ECC;}
	.st145{clip-path:url(#SVGID_9_);fill:#338DCB;}
	.st146{clip-path:url(#SVGID_9_);fill:#348CCA;}
	.st147{clip-path:url(#SVGID_9_);fill:#358BCA;}
	.st148{clip-path:url(#SVGID_9_);fill:#368AC9;}
	.st149{clip-path:url(#SVGID_9_);fill:#3589C8;}
	.st150{clip-path:url(#SVGID_9_);fill:#3489C8;}
	.st151{clip-path:url(#SVGID_9_);fill:#3388C7;}
	.st152{clip-path:url(#SVGID_9_);fill:#3287C7;}
	.st153{clip-path:url(#SVGID_9_);fill:#3187C6;}
	.st154{clip-path:url(#SVGID_9_);fill:#3086C5;}
	.st155{clip-path:url(#SVGID_9_);fill:#2F85C5;}
	.st156{clip-path:url(#SVGID_9_);fill:#2E84C4;}
	.st157{clip-path:url(#SVGID_9_);fill:#2D84C3;}
	.st158{clip-path:url(#SVGID_9_);fill:#2C83C3;}
	.st159{clip-path:url(#SVGID_9_);fill:#2B82C2;}
	.st160{clip-path:url(#SVGID_9_);fill:#2A82C2;}
	.st161{clip-path:url(#SVGID_9_);fill:#2981C1;}
	.st162{clip-path:url(#SVGID_9_);fill:#2880C0;}
	.st163{clip-path:url(#SVGID_9_);fill:#2780C0;}
	.st164{clip-path:url(#SVGID_9_);fill:#267FBF;}
	.st165{clip-path:url(#SVGID_9_);fill:#257EBE;}
	.st166{clip-path:url(#SVGID_9_);fill:#247DBE;}
	.st167{clip-path:url(#SVGID_9_);fill:#237DBD;}
	.st168{clip-path:url(#SVGID_9_);fill:#227CBD;}
	.st169{clip-path:url(#SVGID_9_);fill:#217BBC;}
	.st170{clip-path:url(#SVGID_9_);fill:#207BBB;}
	.st171{clip-path:url(#SVGID_9_);fill:#1F7ABB;}
	.st172{clip-path:url(#SVGID_9_);fill:#1E79BA;}
	.st173{clip-path:url(#SVGID_9_);fill:#1D79B9;}
	.st174{clip-path:url(#SVGID_9_);fill:#1C78B9;}
	.st175{clip-path:url(#SVGID_9_);fill:#1A77B8;}
	.st176{clip-path:url(#SVGID_9_);fill:#1976B8;}
	.st177{clip-path:url(#SVGID_9_);fill:#1876B7;}
	.st178{clip-path:url(#SVGID_9_);fill:#1775B6;}
	.st179{clip-path:url(#SVGID_9_);fill:#1674B6;}
	.st180{clip-path:url(#SVGID_9_);fill:#1574B5;}
	.st181{clip-path:url(#SVGID_9_);fill:#1473B4;}
	.st182{clip-path:url(#SVGID_9_);fill:#1372B4;}
	.st183{clip-path:url(#SVGID_9_);fill:#1272B3;}
	.st184{clip-path:url(#SVGID_9_);fill:#1171B3;}
	.st185{clip-path:url(#SVGID_9_);fill:#1070B2;}
	.st186{clip-path:url(#SVGID_9_);fill:#0F6FB1;}
	.st187{clip-path:url(#SVGID_9_);fill:#0E6FB1;}
	.st188{clip-path:url(#SVGID_9_);fill:#0D6EB0;}
	.st189{clip-path:url(#SVGID_9_);fill:#0C6DAF;}
	.st190{clip-path:url(#SVGID_9_);fill:#0B6DAF;}
	.st191{clip-path:url(#SVGID_9_);fill:#0A6CAE;}
	.st192{clip-path:url(#SVGID_9_);fill:#096BAE;}
	.st193{clip-path:url(#SVGID_9_);fill:#086BAD;}
	.st194{clip-path:url(#SVGID_9_);fill:#076AAC;}
	.st195{clip-path:url(#SVGID_9_);fill:#0669AC;}
	.st196{clip-path:url(#SVGID_9_);fill:#0568AB;}
	.st197{clip-path:url(#SVGID_9_);fill:#0468AA;}
	.st198{clip-path:url(#SVGID_9_);fill:#0367AA;}
	.st199{clip-path:url(#SVGID_9_);fill:#0266A9;}
	.st200{clip-path:url(#SVGID_9_);fill:#0166A9;}
	.st201{clip-path:url(#SVGID_9_);fill:#0065A8;}
	.st202{clip-path:url(#SVGID_9_);fill:#0064A7;}
	.st203{clip-path:url(#SVGID_9_);fill:#0064A6;}
	.st204{clip-path:url(#SVGID_9_);fill:#0063A5;}
	.st205{clip-path:url(#SVGID_9_);fill:#0062A4;}
	.st206{clip-path:url(#SVGID_9_);fill:#0062A3;}
	.st207{clip-path:url(#SVGID_9_);fill:#0061A2;}
	.st208{clip-path:url(#SVGID_9_);fill:#0060A1;}
	.st209{clip-path:url(#SVGID_9_);fill:#0060A0;}
	.st210{clip-path:url(#SVGID_9_);fill:#005F9F;}
	.st211{clip-path:url(#SVGID_9_);fill:#005E9E;}
	.st212{clip-path:url(#SVGID_9_);fill:#005E9D;}
	.st213{clip-path:url(#SVGID_9_);fill:#005D9C;}
	.st214{clip-path:url(#SVGID_9_);fill:#005C9B;}
	.st215{clip-path:url(#SVGID_9_);fill:#005C9A;}
	.st216{clip-path:url(#SVGID_9_);fill:#005B99;}
	.st217{clip-path:url(#SVGID_9_);fill:#005A98;}
	.st218{clip-path:url(#SVGID_9_);fill:#005A97;}
	.st219{clip-path:url(#SVGID_9_);fill:#005996;}
	.st220{clip-path:url(#SVGID_9_);fill:#005895;}
	.st221{clip-path:url(#SVGID_9_);fill:#005894;}
	.st222{clip-path:url(#SVGID_9_);fill:#005792;}
	.st223{clip-path:url(#SVGID_9_);fill:#005691;}
	.st224{clip-path:url(#SVGID_9_);fill:#005590;}
	.st225{clip-path:url(#SVGID_9_);fill:#00558F;}
	.st226{clip-path:url(#SVGID_9_);fill:#00548E;}
	.st227{clip-path:url(#SVGID_9_);fill:#00538D;}
	.st228{clip-path:url(#SVGID_9_);fill:#00538C;}
	.st229{clip-path:url(#SVGID_9_);fill:#00528B;}
	.st230{clip-path:url(#SVGID_9_);fill:#00518A;}
	.st231{clip-path:url(#SVGID_9_);fill:#005189;}
	.st232{clip-path:url(#SVGID_9_);fill:#005088;}
	.st233{clip-path:url(#SVGID_9_);fill:#004F87;}
	.st234{clip-path:url(#SVGID_9_);fill:#004F86;}
	.st235{clip-path:url(#SVGID_9_);fill:#004E85;}
	.st236{clip-path:url(#SVGID_9_);fill:#004D84;}
	.st237{clip-path:url(#SVGID_9_);fill:#004D83;}
	.st238{clip-path:url(#SVGID_9_);fill:#004C82;}
	.st239{clip-path:url(#SVGID_9_);fill:#004B81;}
	.st240{clip-path:url(#SVGID_9_);fill:#004B80;}
	.st241{clip-path:url(#SVGID_9_);fill:#004A7F;}
	.st242{fill:url(#SVGID_10_);}
	.st243{fill:url(#SVGID_11_);}
	.st244{fill:url(#SVGID_12_);}
	.st245{clip-path:url(#SVGID_14_);fill:#F28C29;}
	.st246{clip-path:url(#SVGID_14_);fill:#F28C28;}
	.st247{clip-path:url(#SVGID_14_);fill:#F38B27;}
	.st248{clip-path:url(#SVGID_14_);fill:#F38B26;}
	.st249{clip-path:url(#SVGID_14_);fill:#F38A25;}
	.st250{clip-path:url(#SVGID_14_);fill:#F48A23;}
	.st251{clip-path:url(#SVGID_14_);fill:#F48922;}
	.st252{clip-path:url(#SVGID_14_);fill:#F48921;}
	.st253{clip-path:url(#SVGID_14_);fill:#F58820;}
	.st254{clip-path:url(#SVGID_14_);fill:#F5881F;}
	.st255{clip-path:url(#SVGID_14_);fill:#F4871F;}
	.st256{clip-path:url(#SVGID_14_);fill:#F38720;}
	.st257{clip-path:url(#SVGID_14_);fill:#F28620;}
	.st258{clip-path:url(#SVGID_14_);fill:#F18521;}
	.st259{clip-path:url(#SVGID_14_);fill:#F08421;}
	.st260{clip-path:url(#SVGID_14_);fill:#EF8422;}
	.st261{clip-path:url(#SVGID_14_);fill:#EE8322;}
	.st262{clip-path:url(#SVGID_14_);fill:#EC8222;}
	.st263{clip-path:url(#SVGID_14_);fill:#EB8223;}
	.st264{clip-path:url(#SVGID_14_);fill:#EA8123;}
	.st265{clip-path:url(#SVGID_14_);fill:#E98024;}
	.st266{clip-path:url(#SVGID_14_);fill:#E87F24;}
	.st267{clip-path:url(#SVGID_14_);fill:#E77F25;}
	.st268{clip-path:url(#SVGID_14_);fill:#E67E25;}
	.st269{clip-path:url(#SVGID_14_);fill:#E57D25;}
	.st270{clip-path:url(#SVGID_14_);fill:#E47C25;}
	.st271{clip-path:url(#SVGID_14_);fill:#E37B25;}
	.st272{clip-path:url(#SVGID_14_);fill:#E27A25;}
	.st273{clip-path:url(#SVGID_14_);fill:#E17925;}
	.st274{clip-path:url(#SVGID_14_);fill:#E07825;}
	.st275{clip-path:url(#SVGID_14_);fill:#DF7726;}
	.st276{clip-path:url(#SVGID_14_);fill:#DE7626;}
	.st277{clip-path:url(#SVGID_14_);fill:#DD7526;}
	.st278{clip-path:url(#SVGID_14_);fill:#DC7426;}
	.st279{clip-path:url(#SVGID_14_);fill:#DB7326;}
	.st280{clip-path:url(#SVGID_14_);fill:#DA7226;}
	.st281{clip-path:url(#SVGID_14_);fill:#D97126;}
	.st282{clip-path:url(#SVGID_14_);fill:#D87026;}
	.st283{clip-path:url(#SVGID_14_);fill:#D76E26;}
	.st284{clip-path:url(#SVGID_14_);fill:#D66D26;}
	.st285{clip-path:url(#SVGID_14_);fill:#D56C26;}
	.st286{clip-path:url(#SVGID_14_);fill:#D46B26;}
	.st287{clip-path:url(#SVGID_14_);fill:#D36A26;}
	.st288{clip-path:url(#SVGID_14_);fill:#D26926;}
	.st289{clip-path:url(#SVGID_14_);fill:#D16827;}
	.st290{clip-path:url(#SVGID_14_);fill:#D06727;}
	.st291{clip-path:url(#SVGID_14_);fill:#CF6627;}
	.st292{clip-path:url(#SVGID_14_);fill:#CE6527;}
	.st293{clip-path:url(#SVGID_14_);fill:#CD6427;}
	.st294{clip-path:url(#SVGID_14_);fill:#CC6327;}
	.st295{clip-path:url(#SVGID_14_);fill:#CB6227;}
	.st296{clip-path:url(#SVGID_14_);fill:#CA6127;}
	.st297{fill:url(#SVGID_15_);}
	.st298{fill:url(#SVGID_16_);}
</style>
<g>
	<g class="st0">
		<path class="st1" d="M22.9,91C10.3,91,0.1,80.8,0.1,68.2V26.5c0-12.6,10.2-22.8,22.8-22.8h41.9c12.6,0,22.8,10.2,22.8,22.8v41.7
			C87.5,80.8,77.3,91,64.7,91H22.9z"/>
		<path class="st2" d="M22.9,90.8c-12.4,0-22.6-10.1-22.6-22.6V26.5c0-12.4,10.1-22.6,22.6-22.6h41.9c12.4,0,22.6,10.1,22.6,22.6
			v41.7c0,12.4-10.1,22.6-22.6,22.6H22.9z"/>
		<path class="st3" d="M22.9,90.6c-12.3,0-22.4-10-22.4-22.4V26.5c0-12.3,10-22.4,22.4-22.4h41.9c12.3,0,22.4,10,22.4,22.4v41.7
			c0,12.3-10,22.4-22.4,22.4H22.9z"/>
		<path class="st4" d="M22.9,90.4c-12.2,0-22.2-9.9-22.2-22.2V26.5c0-12.2,9.9-22.2,22.2-22.2h41.9c12.2,0,22.2,9.9,22.2,22.2v41.7
			c0,12.2-9.9,22.2-22.2,22.2H22.9z"/>
		<path class="st5" d="M22.9,90.2c-12.1,0-22-9.8-22-22V26.5c0-12.1,9.8-22,22-22h41.9c12.1,0,22,9.8,22,22v41.7
			c0,12.1-9.8,22-22,22H22.9z"/>
		<path class="st6" d="M22.9,90c-12,0-21.7-9.8-21.7-21.8V26.5c0-12,9.8-21.8,21.7-21.8h41.9c12,0,21.8,9.8,21.8,21.8v41.7
			c0,12-9.8,21.8-21.8,21.8H22.9z"/>
		<path class="st7" d="M22.9,89.8C11,89.8,1.3,80.1,1.3,68.2V26.5C1.3,14.6,11,5,22.9,5h41.9c11.9,0,21.5,9.7,21.5,21.5v41.7
			c0,11.9-9.7,21.5-21.5,21.5H22.9z"/>
		<path class="st8" d="M22.9,89.6C11.1,89.6,1.6,80,1.6,68.2V26.5c0-11.8,9.6-21.3,21.3-21.3h41.9c11.8,0,21.3,9.6,21.3,21.3v41.7
			c0,11.8-9.6,21.3-21.3,21.3H22.9z"/>
		<path class="st9" d="M22.9,89.4c-11.7,0-21.1-9.5-21.1-21.1V26.5c0-11.7,9.5-21.1,21.1-21.1h41.9c11.7,0,21.1,9.5,21.1,21.1v41.7
			c0,11.7-9.5,21.1-21.1,21.1H22.9z"/>
		<path class="st10" d="M22.9,89.2C11.3,89.2,2,79.8,2,68.2V26.5C2,15,11.3,5.6,22.9,5.6h41.9c11.5,0,20.9,9.4,20.9,20.9v41.7
			c0,11.5-9.4,20.9-20.9,20.9H22.9z"/>
		<path class="st11" d="M22.9,89C11.5,89,2.2,79.7,2.2,68.2V26.5c0-11.4,9.3-20.7,20.7-20.7h41.9c11.4,0,20.7,9.3,20.7,20.7v41.7
			c0,11.4-9.3,20.7-20.7,20.7H22.9z"/>
		<path class="st12" d="M22.9,88.7c-11.3,0-20.5-9.2-20.5-20.5V26.5C2.4,15.2,11.6,6,22.9,6h41.9c11.3,0,20.5,9.2,20.5,20.5v41.7
			c0,11.3-9.2,20.5-20.5,20.5H22.9z"/>
		<path class="st13" d="M22.9,88.5c-11.2,0-20.3-9.1-20.3-20.3V26.5c0-11.2,9.1-20.3,20.3-20.3h41.9c11.2,0,20.3,9.1,20.3,20.3v41.7
			c0,11.2-9.1,20.3-20.3,20.3H22.9z"/>
		<path class="st14" d="M22.9,88.3c-11.1,0-20.1-9-20.1-20.1V26.5c0-11.1,9-20.1,20.1-20.1h41.9c11.1,0,20.1,9,20.1,20.1v41.7
			c0,11.1-9,20.1-20.1,20.1H22.9z"/>
		<path class="st15" d="M22.9,88.1C11.9,88.1,3,79.2,3,68.2V26.5c0-11,8.9-19.9,19.9-19.9h41.9c11,0,19.9,8.9,19.9,19.9v41.7
			c0,11-8.9,19.9-19.9,19.9H22.9z"/>
		<path class="st16" d="M22.9,87.9C12,87.9,3.2,79.1,3.2,68.2V26.5C3.2,15.6,12,6.8,22.9,6.8h41.9c10.9,0,19.7,8.8,19.7,19.7v41.7
			c0,10.9-8.8,19.7-19.7,19.7H22.9z"/>
		<path class="st17" d="M22.9,87.7C12.1,87.7,3.4,79,3.4,68.2V26.5C3.4,15.7,12.1,7,22.9,7h41.9c10.8,0,19.5,8.7,19.5,19.5v41.7
			c0,10.8-8.7,19.5-19.5,19.5H22.9z"/>
		<path class="st18" d="M22.9,87.5c-10.6,0-19.3-8.6-19.3-19.3V26.5c0-10.6,8.6-19.3,19.3-19.3h41.9C75.4,7.2,84,15.9,84,26.5v41.7
			c0,10.6-8.7,19.3-19.3,19.3H22.9z"/>
		<path class="st19" d="M22.9,87.3c-10.5,0-19.1-8.6-19.1-19.1V26.5C3.8,16,12.4,7.4,22.9,7.4h41.9c10.5,0,19.1,8.6,19.1,19.1v41.7
			c0,10.5-8.6,19.1-19.1,19.1H22.9z"/>
		<path class="st20" d="M22.9,87.1C12.5,87.1,4,78.6,4,68.2V26.5C4,16.1,12.5,7.6,22.9,7.6h41.9c10.4,0,18.9,8.5,18.9,18.9v41.7
			c0,10.4-8.5,18.9-18.9,18.9H22.9z"/>
		<path class="st21" d="M22.9,86.9c-10.3,0-18.7-8.4-18.7-18.7V26.5c0-10.3,8.4-18.7,18.7-18.7h41.9c10.3,0,18.7,8.4,18.7,18.7v41.7
			c0,10.3-8.4,18.7-18.7,18.7H22.9z"/>
		<path class="st22" d="M22.9,86.7c-10.2,0-18.5-8.3-18.5-18.5V26.5C4.4,16.3,12.7,8,22.9,8h41.9c10.2,0,18.5,8.3,18.5,18.5v41.7
			c0,10.2-8.3,18.5-18.5,18.5H22.9z"/>
		<path class="st23" d="M22.9,86.5c-10.1,0-18.3-8.2-18.3-18.3V26.5c0-10.1,8.2-18.3,18.3-18.3h41.9C74.8,8.2,83,16.4,83,26.5v41.7
			c0,10.1-8.2,18.3-18.3,18.3H22.9z"/>
		<path class="st24" d="M22.9,86.3c-10,0-18.1-8.1-18.1-18.1V26.5c0-10,8.1-18.1,18.1-18.1h41.9c10,0,18.1,8.1,18.1,18.1v41.7
			c0,10-8.1,18.1-18.1,18.1H22.9z"/>
		<path class="st25" d="M22.9,86.1C13,86.1,5,78.1,5,68.2V26.5c0-9.9,8-17.9,17.9-17.9h41.9c9.9,0,17.9,8,17.9,17.9v41.7
			c0,9.9-8,17.9-17.9,17.9H22.9z"/>
		<path class="st26" d="M22.9,85.9c-9.7,0-17.7-7.9-17.7-17.7V26.5c0-9.7,7.9-17.7,17.7-17.7h41.9c9.7,0,17.7,7.9,17.7,17.7v41.7
			c0,9.7-7.9,17.7-17.7,17.7H22.9z"/>
		<path class="st27" d="M22.9,85.7c-9.6,0-17.5-7.8-17.5-17.5V26.5C5.4,16.9,13.3,9,22.9,9h41.9c9.6,0,17.5,7.8,17.5,17.5v41.7
			c0,9.6-7.8,17.5-17.5,17.5H22.9z"/>
		<path class="st28" d="M22.9,85.5c-9.5,0-17.2-7.7-17.2-17.2V26.5c0-9.5,7.7-17.3,17.2-17.3h41.9C74.3,9.3,82,17,82,26.5v41.7
			c0,9.5-7.7,17.2-17.3,17.2H22.9z"/>
		<path class="st29" d="M22.9,85.3c-9.4,0-17-7.6-17-17V26.5c0-9.4,7.6-17,17-17h41.9c9.4,0,17,7.6,17,17v41.7c0,9.4-7.6,17-17,17
			H22.9z"/>
		<path class="st30" d="M22.9,85.1c-9.3,0-16.8-7.5-16.8-16.8V26.5c0-9.3,7.5-16.8,16.8-16.8h41.9c9.3,0,16.8,7.5,16.8,16.8v41.7
			c0,9.3-7.5,16.8-16.8,16.8H22.9z"/>
		<path class="st31" d="M22.9,84.9c-9.2,0-16.6-7.4-16.6-16.6V26.5c0-9.2,7.4-16.6,16.6-16.6h41.9c9.2,0,16.6,7.5,16.6,16.6v41.7
			c0,9.2-7.5,16.6-16.6,16.6H22.9z"/>
		<path d="M81.2,68.2c0,9.1-7.4,16.4-16.4,16.4H22.9c-9.1,0-16.4-7.4-16.4-16.4V26.5c0-9.1,7.4-16.4,16.4-16.4h41.9
			c9.1,0,16.4,7.4,16.4,16.4V68.2z"/>
	</g>
	<g>
		<linearGradient id="SVGID_1_" gradientUnits="userSpaceOnUse" x1="43.7858" y1="83.324" x2="43.7858" y2="3.731">
			<stop  offset="0" style="stop-color:#D0D2D3"/>
			<stop  offset="9.575772e-02" style="stop-color:#D8DADB"/>
			<stop  offset="0.4115" style="stop-color:#EEEEEF"/>
			<stop  offset="0.7173" style="stop-color:#FBFBFB"/>
			<stop  offset="1" style="stop-color:#FFFFFF"/>
		</linearGradient>
		<path class="st32" d="M83.7,65.8c0,9.7-7.8,17.5-17.5,17.5H21.5c-9.7,0-17.5-7.9-17.5-17.5V21.3c0-9.7,7.9-17.5,17.5-17.5h44.7
			c9.7,0,17.5,7.9,17.5,17.5V65.8z"/>
	</g>
</g>
<radialGradient id="SVGID_2_" cx="114.1494" cy="-95.6772" r="15.0164" gradientTransform="matrix(0.9594 -0.2819 0.2819 0.9594 -60.7749 167.5455)" gradientUnits="userSpaceOnUse">
	<stop  offset="0" style="stop-color:#B7CB3D"/>
	<stop  offset="0.6345" style="stop-color:#8ABE3F"/>
	<stop  offset="0.9594" style="stop-color:#70AB43"/>
</radialGradient>
<circle class="st33" cx="21.8" cy="43.6" r="15"/>
<g>
	<g>
		<defs>
			<circle id="SVGID_3_" cx="21.8" cy="43.6" r="15"/>
		</defs>
		<clipPath id="SVGID_4_">
			<use xlink:href="#SVGID_3_"  style="overflow:visible;"/>
		</clipPath>
		<rect x="5" y="26.8" class="st34" width="33.5" height="33.5"/>
		<path class="st34" d="M26.3,60c-6.8,2-13.6,1.9-19,0.1c-1.4-0.5-2.6-1-3.8-1.7h1v-26H3.1c1.1-1,2.4-2,3.7-2.8
			c2.7-1.7,5.8-3.2,9.2-4.2v1h19v-1c2.7,0.9,5.1,2.2,6.9,4h-3v20.6h3.3C38.8,54.2,33.2,58,26.3,60z"/>
		<path class="st35" d="M26.3,59.9c-6.8,2-13.5,1.9-18.9,0.1c-1.3-0.5-2.6-1-3.8-1.7h0.9V32.4H3.2c1.1-1,2.4-2,3.7-2.8
			c2.7-1.7,5.8-3.2,9.2-4.2v0.9h18.9v-0.9c2.7,0.9,5,2.2,6.9,3.9H39v20.5h3.2C38.7,54.2,33.1,57.9,26.3,59.9z"/>
		<path class="st36" d="M26.3,59.8c-6.8,2-13.4,1.9-18.8,0.1c-1.3-0.4-2.6-1-3.7-1.7h0.8V32.5H3.4c1.1-1,2.4-1.9,3.7-2.8
			c2.7-1.7,5.8-3.2,9.1-4.1v0.8H35v-0.8c2.7,0.9,5,2.2,6.8,3.9H39v20.3h3.1C38.6,54.1,33,57.8,26.3,59.8z"/>
		<path class="st37" d="M26.2,59.7c-6.7,2-13.4,1.9-18.7,0.1c-1.3-0.4-2.6-1-3.7-1.6h0.7V32.5h-1c1.1-1,2.3-1.9,3.7-2.8
			c2.7-1.7,5.7-3.1,9.1-4.1v0.7h18.7v-0.7c2.7,0.9,5,2.2,6.8,3.9H39v20.2H42C38.5,54,32.9,57.7,26.2,59.7z"/>
		<path class="st38" d="M26.2,59.6c-6.7,2-13.3,1.8-18.6,0.1c-2.6-0.9-4.9-2.2-6.8-3.9h3.6V32.6H3.6c1.1-1,2.3-1.9,3.7-2.8
			c2.6-1.7,5.7-3.1,9-4.1v0.6h18.6v-0.6c2.6,0.9,4.9,2.2,6.8,3.9H39v20.1h2.8C38.4,54,32.9,57.6,26.2,59.6z"/>
		<path class="st39" d="M26.2,59.5c-6.6,2-13.2,1.8-18.4,0.1c-2.6-0.9-4.9-2.2-6.7-3.8h3.5V32.7H3.7c1.1-1,2.3-1.9,3.6-2.8
			c2.6-1.7,5.6-3.1,9-4.1v0.5h18.4v-0.5c2.6,0.9,4.9,2.2,6.7,3.8H39v20h2.7C38.3,53.9,32.8,57.6,26.2,59.5z"/>
		<path class="st40" d="M26.1,59.4c-6.6,1.9-13.1,1.8-18.3,0.1c-2.6-0.9-4.9-2.2-6.7-3.8h3.4V35.8H0.9c3.4-4.3,8.9-7.9,15.5-9.9v0.4
			h18.3v-0.4c2.6,0.9,4.9,2.2,6.7,3.8H39v19.8h2.6C38.2,53.8,32.7,57.5,26.1,59.4z"/>
		<path class="st41" d="M26.1,59.3c-6.6,1.9-13,1.8-18.2,0.1c-2.6-0.9-4.9-2.2-6.6-3.8h3.3V35.9H1c3.4-4.3,8.8-7.9,15.4-9.8v0.3
			h18.2V26c2.6,0.9,4.9,2.2,6.6,3.8H39v19.7h2.4C38,53.8,32.7,57.4,26.1,59.3z"/>
		<path class="st42" d="M26.1,59.2c-6.5,1.9-13,1.8-18.1,0.1c-2.6-0.9-4.8-2.1-6.6-3.8h3.1V35.9H1.1c3.4-4.2,8.7-7.8,15.3-9.7v0.1
			h18.1v-0.2c2.6,0.9,4.8,2.1,6.6,3.8h-2v19.6h2.3C37.9,53.7,32.6,57.3,26.1,59.2z"/>
		<path class="st43" d="M26,59.1c-6.5,1.9-12.9,1.8-18,0.1c-2.6-0.9-4.8-2.1-6.6-3.7h3V35.9H1.2c3.4-4.2,8.7-7.8,15.2-9.7v0h18v-0.1
			c2.6,0.9,4.8,2.1,6.6,3.7H39v19.5h2.2C37.8,53.6,32.5,57.2,26,59.1z"/>
		<path class="st44" d="M26,59c-6.4,1.9-12.8,1.8-17.9,0.1c-2.5-0.9-4.8-2.1-6.5-3.7h2.9V36H1.4c3.3-4.2,8.6-7.7,15.1-9.6
			c6.4-1.9,12.8-1.8,17.9-0.1c2.5,0.9,4.8,2.1,6.5,3.7H39v19.3h2C37.7,53.6,32.4,57.1,26,59z"/>
		<path class="st45" d="M26,58.9c-6.4,1.9-12.7,1.8-17.8,0.1c-2.5-0.9-4.7-2.1-6.5-3.7h2.8V36h-3c3.3-4.2,8.6-7.7,15-9.6
			c6.4-1.9,12.7-1.8,17.8-0.1c2.5,0.8,4.7,2.1,6.5,3.7H39v19.2H41C37.6,53.5,32.4,57,26,58.9z"/>
		<path class="st46" d="M26,58.8c-6.4,1.9-12.6,1.8-17.6,0.1c-2.5-0.8-4.7-2.1-6.4-3.7h2.6V36.1H1.6c3.3-4.1,8.5-7.6,14.9-9.5
			c6.4-1.9,12.6-1.8,17.6-0.1c2.5,0.8,4.7,2.1,6.4,3.7H39v19.1h1.8C37.5,53.4,32.3,56.9,26,58.8z"/>
		<path class="st47" d="M25.9,58.7c-6.3,1.9-12.5,1.7-17.5,0.1c-2.5-0.8-4.7-2.1-6.4-3.6h2.5v-19H1.7c3.3-4.1,8.5-7.6,14.8-9.4
			c6.3-1.9,12.5-1.7,17.5-0.1c2.5,0.8,4.7,2.1,6.4,3.6H39v19h1.7C37.4,53.3,32.2,56.8,25.9,58.7z"/>
		<path class="st48" d="M25.9,58.6c-6.3,1.8-12.5,1.7-17.4,0.1C6,57.8,3.8,56.6,2.1,55h2.4V36.2H1.9c3.3-4.1,8.4-7.5,14.7-9.4
			c6.3-1.8,12.5-1.7,17.4-0.1c2.5,0.8,4.6,2.1,6.4,3.6H39v18.9h1.5C37.3,53.3,32.2,56.7,25.9,58.6z"/>
		<path class="st49" d="M25.9,58.5c-6.2,1.8-12.4,1.7-17.3,0.1c-2.5-0.8-4.6-2-6.3-3.6h2.3V36.2H2c3.2-4.1,8.4-7.5,14.6-9.3
			s12.4-1.7,17.3-0.1c2.5,0.8,4.6,2,6.3,3.6H39v18.7h1.4C37.2,53.2,32.1,56.6,25.9,58.5z"/>
		<path class="st50" d="M25.8,58.4c-6.2,1.8-12.3,1.7-17.2,0.1c-2.4-0.8-4.6-2-6.3-3.6h2.1V36.2H2.1c3.2-4,8.3-7.4,14.5-9.2
			c6.2-1.8,12.3-1.7,17.2-0.1c2.4,0.8,4.6,2,6.3,3.6h-1v18.6h1.3C37.1,53.1,32,56.5,25.8,58.4z"/>
		<path class="st51" d="M25.8,58.3c-6.1,1.8-12.2,1.7-17.1,0.1c-2.4-0.8-4.6-2-6.2-3.6h2V36.3H2.2c3.2-4,8.2-7.4,14.4-9.2
			c6.1-1.8,12.2-1.7,17.1-0.1c2.4,0.8,4.5,2,6.2,3.6H39v18.5h1.2C37,53.1,31.9,56.4,25.8,58.3z"/>
		<path class="st52" d="M25.8,58.2c-6.1,1.8-12.1,1.7-17,0.1c-2.4-0.8-4.5-2-6.2-3.5h1.9V36.3H2.4c3.2-4,8.2-7.3,14.3-9.1
			c6.1-1.8,12.1-1.7,17-0.1c2.4,0.8,4.5,2,6.2,3.5H39V49h1C36.9,53,31.9,56.4,25.8,58.2z"/>
		<path class="st53" d="M25.7,58c-6.1,1.8-12.1,1.7-16.9,0.1c-2.4-0.8-4.5-2-6.1-3.5h1.8V36.4h-2c3.2-3.9,8.1-7.3,14.2-9.1
			c6.1-1.8,12.1-1.7,16.8-0.1c2.4,0.8,4.5,2,6.1,3.5H39V49h0.9C36.8,52.9,31.8,56.3,25.7,58z"/>
		<path class="st54" d="M25.7,57.9c-6,1.8-12,1.7-16.7,0.1c-2.4-0.8-4.5-2-6.1-3.5h1.6V36.4H2.6c3.1-3.9,8.1-7.2,14.1-9
			c6-1.8,12-1.7,16.7-0.1c2.4,0.8,4.5,2,6.1,3.5H39v18.1h0.8C36.7,52.9,31.7,56.2,25.7,57.9z"/>
		<path class="st55" d="M25.7,57.8c-6,1.8-11.9,1.7-16.6,0.1c-2.4-0.8-4.4-2-6.1-3.5h1.5v-18H2.8c3.1-3.9,8-7.2,14-8.9
			c6-1.8,11.9-1.7,16.6-0.1c2.4,0.8,4.4,2,6.1,3.5H39v18h0.7C36.6,52.8,31.7,56.1,25.7,57.8z"/>
		<path class="st55" d="M25.6,57.7c-5.9,1.7-11.8,1.6-16.5,0.1c-2.3-0.8-4.4-2-6-3.4h1.4V36.5H2.9c3.1-3.9,8-7.1,13.9-8.9
			c5.9-1.7,11.8-1.6,16.5-0.1c2.3,0.8,4.4,1.9,6,3.4H39v17.9h0.5C36.5,52.7,31.6,56,25.6,57.7z"/>
		<path class="st56" d="M25.6,57.7c-5.9,1.7-11.8,1.6-16.4,0.1c-2.3-0.8-4.4-1.9-6-3.4h1.3V36.5H3c3.1-3.9,7.9-7.1,13.9-8.8
			c11.8-3.5,23.4,0.4,25.8,8.7H39v12.5h0.5C36.4,52.7,31.5,55.9,25.6,57.7z"/>
		<path class="st57" d="M25.6,57.6c-5.9,1.7-11.7,1.6-16.4,0.1c-2.3-0.8-4.4-1.9-6-3.4h1.2V36.5H3c3.1-3.8,7.9-7.1,13.8-8.8
			c11.8-3.5,23.3,0.4,25.7,8.7H39v12.4h0.4C36.4,52.6,31.5,55.9,25.6,57.6z"/>
		<path class="st58" d="M25.6,57.6c-5.9,1.7-11.7,1.6-16.3,0.1c-2.3-0.8-4.3-1.9-5.9-3.4h1.2V36.6H3.1c3.1-3.8,7.9-7.1,13.8-8.8
			c11.7-3.5,23.2,0.4,25.6,8.6H39v12.4h0.3C36.3,52.6,31.5,55.8,25.6,57.6z"/>
		<path class="st59" d="M25.6,57.5c-5.8,1.7-11.6,1.6-16.3,0.1C7,56.8,5,55.6,3.4,54.2h1.1V36.6H3.2c3-3.8,7.9-7,13.7-8.7
			c11.7-3.4,23.1,0.4,25.5,8.6H39v12.3h0.2C36.2,52.6,31.4,55.8,25.6,57.5z"/>
		<path class="st60" d="M25.6,57.4c-5.8,1.7-11.6,1.6-16.2,0.1c-2.3-0.8-4.3-1.9-5.9-3.4h1V36.6H3.2c3-3.8,7.8-7,13.6-8.7
			c11.7-3.4,23,0.4,25.4,8.6H39v12.3h0.2C36.2,52.5,31.4,55.7,25.6,57.4z"/>
		<path class="st61" d="M25.5,57.4C19.7,59.1,14,59,9.4,57.4c-2.3-0.8-4.3-1.9-5.9-3.4h1V36.6H3.3c3-3.8,7.8-7,13.6-8.7
			c11.6-3.4,23,0.4,25.3,8.5H39v12.2h0.1C36.1,52.5,31.3,55.7,25.5,57.4z"/>
		<path class="st62" d="M25.5,57.3C19.7,59,14,58.9,9.5,57.4c-2.3-0.8-4.3-1.9-5.9-3.3h0.9V36.7H3.4c3-3.8,7.8-6.9,13.5-8.6
			c11.6-3.4,22.9,0.4,25.2,8.5H39v12.2h0C36.1,52.5,31.3,55.6,25.5,57.3z"/>
		<path class="st63" d="M25.5,57.3c-5.8,1.7-11.5,1.6-16,0.1c-2.3-0.8-4.3-1.9-5.8-3.3h0.8V36.7H3.4c3-3.8,7.7-6.9,13.5-8.6
			c11.5-3.4,22.8,0.4,25.1,8.5h-3v6.2h3.1c-0.5,2.1-1.6,4.1-3.1,6C36,52.4,31.3,55.6,25.5,57.3z"/>
		<path class="st64" d="M25.5,57.2c-5.7,1.7-11.4,1.6-15.9,0.1c-2.3-0.8-4.2-1.9-5.8-3.3h0.8V36.7h-1c3-3.7,7.7-6.9,13.4-8.6
			c11.5-3.4,22.7,0.4,25,8.4h-3v6.1h3c-0.5,2-1.6,4.1-3.1,5.9C35.9,52.4,31.2,55.5,25.5,57.2z"/>
		<path class="st65" d="M25.5,57.2c-5.7,1.7-11.4,1.6-15.9,0.1c-2.3-0.8-4.2-1.9-5.8-3.3h0.7V36.7H3.6c3-3.7,7.7-6.9,13.4-8.5
			c11.4-3.4,22.6,0.4,24.9,8.4H39v6.1h2.9c-0.5,2-1.6,4-3.1,5.9C35.9,52.3,31.2,55.5,25.5,57.2z"/>
		<path class="st66" d="M25.5,57.1c-5.7,1.7-11.3,1.6-15.8,0.1c-2.2-0.8-4.2-1.9-5.8-3.3h0.6V36.8H3.7c3-3.7,7.6-6.8,13.3-8.5
			c11.4-3.3,22.5,0.4,24.8,8.4H39v6.1h2.8c-0.5,2-1.6,4-3.1,5.9C35.8,52.3,31.2,55.4,25.5,57.1z"/>
		<path class="st67" d="M25.4,57c-5.7,1.7-11.3,1.6-15.7,0.1c-2.2-0.8-4.2-1.9-5.7-3.3h0.5v-17H3.7c2.9-3.7,7.6-6.8,13.3-8.5
			c11.3-3.3,22.4,0.4,24.7,8.3H39v6.1h2.7c-0.5,2-1.6,4-3.1,5.9C35.8,52.3,31.1,55.4,25.4,57z"/>
		<path class="st68" d="M25.4,57c-5.6,1.7-11.2,1.6-15.7,0.1c-2.2-0.8-4.2-1.9-5.7-3.3h0.5v-17H3.8c2.9-3.7,7.6-6.8,13.2-8.4
			c11.3-3.3,22.3,0.4,24.6,8.3H39v6h2.7c-0.5,2-1.6,4-3,5.8C35.7,52.2,31.1,55.3,25.4,57z"/>
		<path class="st69" d="M25.4,56.9c-11.2,3.3-22.2-0.4-24.5-8.3h3.6V36.8H3.9c2.9-3.7,7.5-6.8,13.2-8.4c11.2-3.3,22.2,0.4,24.5,8.3
			H39v6h2.6c-0.5,2-1.6,4-3,5.8C35.7,52.2,31,55.3,25.4,56.9z"/>
		<path class="st70" d="M25.4,56.9c-11.2,3.3-22.1-0.4-24.4-8.2h3.6V36.9H3.9c2.9-3.6,7.5-6.7,13.1-8.4c11.2-3.3,22.1,0.4,24.4,8.2
			c1.2,3.9-0.1,8.1-3,11.8C35.6,52.1,31,55.2,25.4,56.9z"/>
		<path class="st71" d="M25.4,56.8C14.2,60.1,3.3,56.4,1,48.6h3.5V36.9H4c2.9-3.6,7.5-6.7,13.1-8.3c11.2-3.3,22.1,0.4,24.3,8.2
			c1.1,3.9-0.1,8.1-3,11.7C35.5,52.1,31,55.2,25.4,56.8z"/>
		<path class="st72" d="M25.4,56.8c-11.1,3.3-22-0.4-24.2-8.2h3.4V36.9H4.1c2.9-3.6,7.5-6.7,13-8.3c11.1-3.3,22,0.4,24.2,8.2
			c1.1,3.9-0.1,8.1-3,11.7C35.5,52.1,30.9,55.1,25.4,56.8z"/>
		<path class="st73" d="M25.3,56.7c-11.1,3.2-21.9-0.4-24.1-8.1h3.3V36.9H4.1c2.9-3.6,7.4-6.6,13-8.3C28.2,25.4,39,29,41.3,36.8
			c1.1,3.9-0.1,8-3,11.6C35.4,52,30.9,55.1,25.3,56.7z"/>
		<path class="st74" d="M25.3,56.6c-11,3.2-21.8-0.4-24-8.1h3.2V36.9H4.2c2.9-3.6,7.4-6.6,12.9-8.2c11-3.2,21.8,0.4,24,8.1
			c1.1,3.9-0.1,8-2.9,11.6S30.8,55,25.3,56.6z"/>
		<path class="st75" d="M25.3,56.6c-11,3.2-21.7-0.4-23.9-8.1h3.1V37H4.3c2.9-3.6,7.4-6.6,12.8-8.2c11-3.2,21.7,0.4,23.9,8.1
			c1.1,3.8-0.1,8-2.9,11.5C35.3,52,30.8,55,25.3,56.6z"/>
		<path class="st76" d="M25.3,56.5c-10.9,3.2-21.6-0.4-23.8-8h3.1V37H4.4c2.8-3.6,7.3-6.6,12.8-8.2c10.9-3.2,21.6,0.4,23.8,8
			c1.1,3.8-0.1,7.9-2.9,11.5C35.2,51.9,30.8,54.9,25.3,56.5z"/>
		<path class="st77" d="M25.3,56.5c-10.9,3.2-21.5-0.4-23.7-8h3V37H4.4c2.8-3.5,7.3-6.5,12.7-8.1c10.9-3.2,21.5,0.4,23.7,8
			c1.1,3.8-0.1,7.9-2.9,11.4C35.2,51.9,30.7,54.9,25.3,56.5z"/>
		<path class="st78" d="M25.3,56.4c-10.8,3.2-21.4-0.4-23.6-8h2.9V37h0c2.8-3.5,7.3-6.5,12.7-8.1c10.8-3.2,21.4,0.4,23.6,8
			c1.1,3.8-0.1,7.9-2.9,11.4C35.1,51.8,30.7,54.8,25.3,56.4z"/>
		<path class="st79" d="M25.2,56.3C14.5,59.5,3.9,56,1.7,48.4h2.8v-5.8H1.7c0.5-1.9,1.5-3.8,2.9-5.6c2.8-3.5,7.2-6.5,12.6-8.1
			c10.8-3.2,21.3,0.4,23.6,7.9c1.1,3.8-0.1,7.8-2.9,11.3C35.1,51.8,30.6,54.8,25.2,56.3z"/>
		<path class="st80" d="M25.2,56.3C14.5,59.4,4,55.9,1.8,48.4h2.7v-5.7H1.7c0.5-1.9,1.5-3.8,2.9-5.6c2.8-3.5,7.2-6.5,12.6-8
			C28,25.9,38.5,29.4,40.7,37c1.1,3.8-0.1,7.8-2.9,11.3C35,51.8,30.6,54.7,25.2,56.3z"/>
		<path class="st81" d="M25.2,56.2c-10.7,3.1-21.2-0.4-23.4-7.9h2.6v-5.7H1.8c0.5-1.9,1.5-3.8,2.9-5.5c2.8-3.5,7.2-6.4,12.5-8
			C27.9,26,38.4,29.5,40.6,37c1.1,3.7-0.1,7.8-2.9,11.3C35,51.7,30.6,54.7,25.2,56.2z"/>
		<path class="st82" d="M25.2,56.2c-10.7,3.1-21.1-0.4-23.3-7.8h2.6v-5.7H1.9c0.5-1.9,1.5-3.8,2.9-5.5c2.8-3.5,7.2-6.4,12.5-8
			C27.9,26,38.3,29.6,40.5,37c1.1,3.7-0.1,7.7-2.8,11.2C34.9,51.7,30.5,54.6,25.2,56.2z"/>
		<path class="st83" d="M25.2,56.1c-10.6,3.1-21-0.4-23.2-7.8c-1.1-3.7,0.1-7.7,2.8-11.2s7.1-6.4,12.4-7.9c10.6-3.1,21,0.4,23.2,7.8
			C42.6,44.5,35.8,53,25.2,56.1z"/>
		<path class="st84" d="M25.2,56.1c-10.6,3.1-20.9-0.4-23.1-7.8C1,44.6,2.2,40.6,4.9,37.2c2.7-3.4,7.1-6.3,12.4-7.9
			c10.6-3.1,20.9,0.4,23.1,7.8C42.5,44.4,35.7,53,25.2,56.1z"/>
		<path class="st85" d="M25.1,56c-10.5,3.1-20.8-0.4-23-7.7C1.1,44.6,2.3,40.6,5,37.2c2.7-3.4,7.1-6.3,12.3-7.9
			c10.5-3.1,20.8,0.4,23,7.7C42.4,44.4,35.7,52.9,25.1,56z"/>
		<path class="st86" d="M25.1,55.9C14.7,59,4.4,55.6,2.3,48.2c-1.1-3.7,0.1-7.6,2.8-11c2.7-3.4,7-6.3,12.3-7.8
			c10.5-3.1,20.7,0.4,22.9,7.7C42.3,44.4,35.6,52.9,25.1,55.9z"/>
		<path class="st87" d="M25.1,55.9c-10.4,3.1-20.6-0.4-22.8-7.7c-1.1-3.6,0.1-7.6,2.8-11c2.7-3.4,7-6.3,12.2-7.8
			c10.4-3.1,20.6,0.4,22.8,7.7S35.5,52.8,25.1,55.9z"/>
		<path class="st87" d="M25.1,55.8c-10.4,3-20.5-0.4-22.7-7.6c-1.1-3.6,0.1-7.5,2.8-10.9c2.7-3.4,7-6.2,12.2-7.8
			c10.4-3,20.5,0.4,22.7,7.6C42.1,44.4,35.5,52.8,25.1,55.8z"/>
		<path class="st88" d="M25,55.6c-10.2,3-20.2-0.4-22.3-7.5c-1.1-3.6,0.1-7.4,2.7-10.8c2.7-3.3,6.9-6.1,12-7.6
			c10.2-3,20.2,0.4,22.3,7.5C41.9,44.4,35.3,52.6,25,55.6z"/>
		<ellipse transform="matrix(0.2819 0.9594 -0.9594 0.2819 56.1843 10.2819)" class="st89" cx="21.2" cy="42.7" rx="13.3" ry="19"/>
		
			<ellipse transform="matrix(0.2819 0.9594 -0.9594 0.2819 56.1855 10.2847)" class="st90" cx="21.2" cy="42.7" rx="13.1" ry="18.8"/>
		<ellipse transform="matrix(0.282 0.9594 -0.9594 0.282 56.1833 10.2823)" class="st91" cx="21.2" cy="42.7" rx="12.9" ry="18.5"/>
		
			<ellipse transform="matrix(0.2819 0.9594 -0.9594 0.2819 56.184 10.2817)" class="st92" cx="21.2" cy="42.7" rx="12.8" ry="18.2"/>
		<ellipse transform="matrix(0.2819 0.9594 -0.9594 0.2819 56.1854 10.2846)" class="st93" cx="21.2" cy="42.7" rx="12.6" ry="18"/>
		
			<ellipse transform="matrix(0.2819 0.9595 -0.9595 0.2819 56.1861 10.2839)" class="st94" cx="21.2" cy="42.7" rx="12.4" ry="17.7"/>
		
			<ellipse transform="matrix(0.2818 0.9595 -0.9595 0.2818 56.1874 10.2868)" class="st95" cx="21.2" cy="42.7" rx="12.2" ry="17.4"/>
		<ellipse transform="matrix(0.2819 0.9594 -0.9594 0.2819 56.1852 10.2844)" class="st96" cx="21.2" cy="42.7" rx="12" ry="17.1"/>
		<ellipse transform="matrix(0.282 0.9594 -0.9594 0.282 56.1827 10.2817)" class="st97" cx="21.2" cy="42.7" rx="11.8" ry="16.9"/>
		
			<ellipse transform="matrix(0.2819 0.9594 -0.9594 0.2819 56.1836 10.2812)" class="st98" cx="21.2" cy="42.7" rx="11.6" ry="16.6"/>
		
			<ellipse transform="matrix(0.2819 0.9594 -0.9594 0.2819 56.185 10.2841)" class="st99" cx="21.2" cy="42.7" rx="11.4" ry="16.3"/>
		
			<ellipse transform="matrix(0.2819 0.9594 -0.9594 0.2819 56.1857 10.2835)" class="st100" cx="21.2" cy="42.7" rx="11.2" ry="16.1"/>
		
			<ellipse transform="matrix(0.2818 0.9595 -0.9595 0.2818 56.1872 10.2866)" class="st101" cx="21.2" cy="42.7" rx="11" ry="15.8"/>
		
			<ellipse transform="matrix(0.2819 0.9594 -0.9594 0.2819 56.1847 10.2839)" class="st102" cx="21.2" cy="42.7" rx="10.9" ry="15.5"/>
		
			<ellipse transform="matrix(0.282 0.9594 -0.9594 0.282 56.1819 10.2812)" class="st103" cx="21.2" cy="42.7" rx="10.7" ry="15.2"/>
		<ellipse transform="matrix(0.282 0.9594 -0.9594 0.282 56.183 10.2805)" class="st104" cx="21.2" cy="42.7" rx="10.5" ry="15"/>
		
			<ellipse transform="matrix(0.2819 0.9594 -0.9594 0.2819 56.1843 10.2838)" class="st105" cx="21.2" cy="42.7" rx="10.3" ry="14.7"/>
		
			<ellipse transform="matrix(0.2819 0.9594 -0.9594 0.2819 56.1854 10.2832)" class="st105" cx="21.2" cy="42.7" rx="10.1" ry="14.4"/>
		
			<ellipse transform="matrix(0.2819 0.9594 -0.9594 0.2819 56.1848 10.2842)" class="st104" cx="21.2" cy="42.7" rx="9.7" ry="13.9"/>
		
			<ellipse transform="matrix(0.2819 0.9594 -0.9594 0.2819 56.1856 10.2834)" class="st103" cx="21.2" cy="42.7" rx="9.4" ry="13.4"/>
		<ellipse transform="matrix(0.2819 0.9594 -0.9594 0.2819 56.185 10.2842)" class="st102" cx="21.2" cy="42.7" rx="9" ry="12.9"/>
		
			<ellipse transform="matrix(0.2819 0.9595 -0.9595 0.2819 56.186 10.2838)" class="st101" cx="21.2" cy="42.7" rx="8.7" ry="12.4"/>
		
			<ellipse transform="matrix(0.2819 0.9594 -0.9594 0.2819 56.1853 10.2845)" class="st100" cx="21.2" cy="42.7" rx="8.3" ry="11.9"/>
		<path class="st99" d="M23.5,50.3c-6.1,1.8-12-0.2-13.2-4.4C9,41.7,12.9,36.8,19,35c6-1.8,12,0.2,13.2,4.5
			C33.4,43.7,29.5,48.6,23.5,50.3z"/>
		
			<ellipse transform="matrix(0.2819 0.9594 -0.9594 0.2819 56.1857 10.2849)" class="st98" cx="21.2" cy="42.7" rx="7.6" ry="10.9"/>
		<ellipse transform="matrix(0.2819 0.9594 -0.9594 0.2819 56.1865 10.284)" class="st97" cx="21.2" cy="42.7" rx="7.3" ry="10.4"/>
		<ellipse transform="matrix(0.2819 0.9594 -0.9594 0.2819 56.186 10.2852)" class="st96" cx="21.2" cy="42.7" rx="6.9" ry="9.9"/>
		<ellipse transform="matrix(0.2819 0.9595 -0.9595 0.2819 56.187 10.2845)" class="st95" cx="21.2" cy="42.7" rx="6.6" ry="9.4"/>
		<ellipse transform="matrix(0.2819 0.9595 -0.9595 0.2819 56.1865 10.2859)" class="st94" cx="21.2" cy="42.7" rx="6.2" ry="8.9"/>
		<ellipse transform="matrix(0.2819 0.9594 -0.9594 0.2819 56.1852 10.2829)" class="st93" cx="21.2" cy="42.7" rx="5.9" ry="8.4"/>
		<ellipse transform="matrix(0.2818 0.9595 -0.9595 0.2818 56.1873 10.2867)" class="st92" cx="21.2" cy="42.7" rx="5.5" ry="7.9"/>
		<ellipse transform="matrix(0.2819 0.9594 -0.9594 0.2819 56.1856 10.2834)" class="st91" cx="21.2" cy="42.7" rx="5.2" ry="7.4"/>
		<ellipse transform="matrix(0.2819 0.9595 -0.9595 0.2819 56.1852 10.2847)" class="st90" cx="21.2" cy="42.7" rx="4.8" ry="6.9"/>
		<ellipse transform="matrix(0.2819 0.9595 -0.9595 0.2819 56.1863 10.2841)" class="st89" cx="21.2" cy="42.7" rx="4.5" ry="6.4"/>
		<ellipse transform="matrix(0.2819 0.9595 -0.9595 0.2819 56.1859 10.2854)" class="st88" cx="21.2" cy="42.7" rx="4.1" ry="5.9"/>
		<ellipse transform="matrix(0.2818 0.9595 -0.9595 0.2818 56.1871 10.285)" class="st87" cx="21.2" cy="42.7" rx="3.8" ry="5.4"/>
	</g>
</g>
<radialGradient id="SVGID_5_" cx="78.4148" cy="97.2695" r="24.1566" gradientTransform="matrix(0.8548 -0.2511 0.2138 0.7275 -69.205 -17.9034)" gradientUnits="userSpaceOnUse">
	<stop  offset="0" style="stop-color:#B6C534"/>
	<stop  offset="0.4908" style="stop-color:#A0CA3A"/>
	<stop  offset="0.7698" style="stop-color:#7FAC41"/>
	<stop  offset="0.9218" style="stop-color:#719942"/>
</radialGradient>
<path class="st106" d="M33.2,36.6c1.7,5.8-2.5,12.2-9.3,14.2c-6.9,2-13.8-1.1-15.5-6.9c-1.7-5.8,2.5-12.2,9.3-14.2
	C24.5,27.6,31.5,30.7,33.2,36.6z"/>
<linearGradient id="SVGID_6_" gradientUnits="userSpaceOnUse" x1="114.148" y1="-98.2936" x2="114.148" y2="-109.5046" gradientTransform="matrix(0.9594 -0.2819 0.2819 0.9594 -60.7749 167.5455)">
	<stop  offset="0" style="stop-color:#ADCD36"/>
	<stop  offset="1" style="stop-color:#E7E980"/>
</linearGradient>
<path class="st107" d="M28.4,33c0.9,3-2.4,6.6-7.4,8c-5,1.5-9.7,0.2-10.6-2.7c-0.9-3,2.4-6.6,7.4-8C22.8,28.9,27.6,30.1,28.4,33z"/>
<radialGradient id="SVGID_7_" cx="65.127" cy="54.894" r="13.5292" gradientUnits="userSpaceOnUse">
	<stop  offset="0" style="stop-color:#00ADEE"/>
	<stop  offset="0.6345" style="stop-color:#1E75BB"/>
	<stop  offset="0.9594" style="stop-color:#0057A7"/>
</radialGradient>
<circle class="st108" cx="65.1" cy="54.9" r="13.5"/>
<g>
	<g>
		<defs>
			<circle id="SVGID_8_" cx="65.1" cy="54.9" r="13.5"/>
		</defs>
		<clipPath id="SVGID_9_">
			<use xlink:href="#SVGID_8_"  style="overflow:visible;"/>
		</clipPath>
		<rect x="51.6" y="41.4" class="st109" width="27.1" height="27.1"/>
		<path class="st109" d="M64.9,68.8h-9.1V69c-1.4-0.4-2.7-0.9-4-1.5c-0.6-0.3-1.2-0.6-1.8-0.9h1.2V41.4h-1.2
			c0.6-0.3,1.2-0.6,1.8-0.9V41h26v-0.6c0.6,0.3,1.2,0.6,1.8,0.9H79v25.1h0.7c-0.6,0.3-1.2,0.6-1.8,0.9c-1.2,0.6-2.6,1.1-4,1.5v-0.2
			H64.9z"/>
		<path class="st110" d="M64.9,68.8h-9v0.2c-1.4-0.4-2.7-0.9-3.9-1.5c-0.6-0.3-1.2-0.6-1.8-0.9h1.1V41.4h-1.1
			c0.6-0.3,1.2-0.6,1.8-0.9V41h22v-2c2.8,0.8,5.3,2,7.4,3.5H79v23h2.3c-4.2,2.9-10,4.8-16.4,4.8V68.8z"/>
		<path class="st111" d="M64.9,68.8h-9v0.1c-1.4-0.4-2.7-0.9-3.9-1.5c-0.6-0.3-1.2-0.6-1.8-0.9h1.1v-25h-1.1
			c0.6-0.3,1.2-0.6,1.8-0.9V41h21.9v-2c2.8,0.8,5.3,2,7.3,3.5H79v22.9h2.2c-4.2,2.9-10,4.7-16.3,4.7V68.8z"/>
		<path class="st112" d="M64.9,68.8h-9v0.1c-1.4-0.4-2.7-0.9-3.9-1.5c-0.6-0.3-1.2-0.6-1.8-0.9h1V41.5h-1c0.6-0.3,1.2-0.6,1.8-0.9
			V41h21.9v-1.9c2.8,0.8,5.2,2,7.3,3.5H79v22.8h2.2c-4.2,2.9-9.9,4.7-16.3,4.7V68.8z"/>
		<path class="st113" d="M64.9,68.8h-8.9v0c-1.4-0.4-2.7-0.9-3.9-1.5c-0.6-0.3-1.2-0.6-1.8-0.9h1V41.6h-1c0.6-0.3,1.2-0.6,1.8-0.9
			V41h21.8v-1.9c2.7,0.8,5.2,2,7.3,3.4H79v22.7h2.1c-4.2,2.9-9.9,4.7-16.2,4.7V68.8z"/>
		<path class="st114" d="M64.9,70c-3.2,0-6.2-0.4-8.9-1.3c-1.4-0.4-2.7-0.9-3.9-1.5c-0.6-0.3-1.2-0.6-1.8-0.9h0.9V41.6h-0.9
			c0.6-0.3,1.2-0.6,1.8-0.9V41h21.7v-1.8c2.7,0.8,5.2,2,7.3,3.4H79v22.7h2.1C76.9,68.2,71.2,70,64.9,70z"/>
		<path class="st115" d="M64.9,69.9c-3.1,0-6.1-0.4-8.9-1.3c-1.4-0.4-2.7-0.9-3.9-1.5c-0.6-0.3-1.2-0.6-1.8-0.9h0.9V41.7h-0.9
			c0.6-0.3,1.1-0.6,1.8-0.9V41h21.6v-1.8c2.7,0.8,5.2,2,7.3,3.4h-2v22.6h2C76.9,68.2,71.2,69.9,64.9,69.9z"/>
		<path class="st116" d="M64.9,69.9c-3.1,0-6.1-0.4-8.9-1.2c-1.4-0.4-2.7-0.9-3.9-1.5c-0.6-0.3-1.2-0.6-1.8-0.9h0.8V41.7h-0.8
			c0.6-0.3,1.1-0.6,1.8-0.9V41h21.6v-1.7c2.7,0.8,5.2,2,7.2,3.4h-2v22.5h2C76.8,68.1,71.2,69.9,64.9,69.9z"/>
		<path class="st117" d="M64.9,69.8c-3.1,0-6.1-0.4-8.8-1.2c-1.4-0.4-2.6-0.9-3.8-1.5c-0.6-0.3-1.2-0.6-1.7-0.9h0.8V41.7h-0.8
			c0.6-0.3,1.1-0.6,1.7-0.9V41h21.5v-1.7c2.7,0.8,5.2,2,7.2,3.4H79v22.4h1.9C76.8,68.1,71.1,69.8,64.9,69.8z"/>
		<path class="st118" d="M64.9,69.8c-3.1,0-6.1-0.4-8.8-1.2c-1.4-0.4-2.6-0.9-3.8-1.5c-0.6-0.3-1.2-0.6-1.7-0.9h0.7V41.8h-0.7
			c0.6-0.3,1.1-0.6,1.7-0.9V41h21.4v-1.6c2.7,0.8,5.1,2,7.2,3.4H79v22.4h1.9C76.8,68,71.1,69.8,64.9,69.8z"/>
		<path class="st119" d="M64.9,69.7C58.7,69.7,53,68,49,65.1h2.3V42.8H49c2-1.4,4.5-2.6,7.2-3.4V41h17.5v-1.6c2.7,0.8,5.1,2,7.2,3.4
			H79v22.3h1.8C76.7,68,71.1,69.7,64.9,69.7z"/>
		<path class="st120" d="M64.9,69.7c-6.2,0-11.8-1.8-15.9-4.6h2.2V42.9H49c2-1.4,4.4-2.6,7.1-3.4V41h17.5v-1.5
			c2.7,0.8,5.1,1.9,7.1,3.4H79v22.2h1.8C76.7,67.9,71.1,69.7,64.9,69.7z"/>
		<path class="st121" d="M64.9,69.6c-6.2,0-11.8-1.8-15.8-4.6h2.2V42.9h-2.2c2-1.4,4.4-2.6,7.1-3.4V41h17.4v-1.5
			c2.7,0.8,5.1,1.9,7.1,3.4H79V65h1.7C76.6,67.9,71.1,69.6,64.9,69.6z"/>
		<path class="st122" d="M64.9,69.6c-6.2,0-11.7-1.7-15.8-4.6h2.1V43h-2.1c2-1.4,4.4-2.6,7.1-3.3V41h17.3v-1.4
			c2.7,0.8,5.1,1.9,7.1,3.3H79v22h1.6C76.6,67.8,71,69.6,64.9,69.6z"/>
		<path class="st123" d="M64.9,69.5c-6.1,0-11.7-1.7-15.7-4.6h2.1V43h-2.1c2-1.4,4.4-2.5,7.1-3.3V41h17.3v-1.4
			c2.7,0.8,5,1.9,7.1,3.3H79v22h1.6C76.6,67.8,71,69.5,64.9,69.5z"/>
		<path class="st124" d="M64.9,69.5c-6.1,0-11.6-1.7-15.6-4.5h2V43h-2c2-1.4,4.4-2.5,7-3.3V41h17.2v-1.3c2.6,0.8,5,1.9,7,3.3H79
			v21.9h1.5C76.5,67.7,71,69.5,64.9,69.5z"/>
		<path class="st125" d="M64.9,69.4c-6.1,0-11.6-1.7-15.6-4.5h2V43.1h-2c2-1.4,4.4-2.5,7-3.3V41h17.2v-1.3c2.6,0.8,5,1.9,7,3.3H79
			v21.8h1.5C76.5,67.7,71,69.4,64.9,69.4z"/>
		<path class="st126" d="M64.9,69.4c-6.1,0-11.6-1.7-15.5-4.5h1.9V43.1h-1.9c2-1.4,4.4-2.5,7-3.3V41h17.1v-1.2c2.6,0.8,5,1.9,7,3.3
			H79v21.7h1.4C76.4,67.6,70.9,69.4,64.9,69.4z"/>
		<path class="st127" d="M64.9,69.3c-6,0-11.5-1.7-15.5-4.5h1.9V43.1h-1.9c2-1.4,4.3-2.5,7-3.3V41h17v-1.2c2.6,0.8,5,1.9,7,3.3H79
			v21.7h1.4C76.4,67.6,70.9,69.3,64.9,69.3z"/>
		<path class="st128" d="M64.9,69.2c-6,0-11.5-1.7-15.4-4.5h1.8V43.2h-1.8c3.9-2.8,9.4-4.5,15.4-4.5s11.5,1.7,15.4,4.5H79v21.6h1.3
			C76.4,67.5,70.9,69.2,64.9,69.2z"/>
		<path class="st129" d="M64.9,69.2c-6,0-11.4-1.7-15.4-4.5h1.8V43.2h-1.8c3.9-2.8,9.4-4.5,15.4-4.5s11.4,1.7,15.4,4.5H79v21.5h1.3
			C76.3,67.5,70.9,69.2,64.9,69.2z"/>
		<path class="st130" d="M64.9,69.1c-6,0-11.4-1.7-15.3-4.4h1.7V43.3h-1.7c3.9-2.7,9.3-4.4,15.3-4.4c6,0,11.4,1.7,15.3,4.4H79v21.4
			h1.2C76.3,67.4,70.9,69.1,64.9,69.1z"/>
		<path class="st131" d="M64.9,69.1c-6,0-11.4-1.7-15.3-4.4h1.6V43.3h-1.6c3.9-2.7,9.3-4.4,15.3-4.4c6,0,11.4,1.7,15.3,4.4H79v21.4
			h1.2C76.2,67.4,70.8,69.1,64.9,69.1z"/>
		<path class="st132" d="M64.9,69c-5.9,0-11.3-1.7-15.2-4.4h1.6V43.3h-1.6c3.9-2.7,9.3-4.4,15.2-4.4c5.9,0,11.3,1.7,15.2,4.4H79
			v21.3h1.1C76.2,67.3,70.8,69,64.9,69z"/>
		<path class="st133" d="M64.9,69c-5.9,0-11.3-1.7-15.2-4.4h1.5V43.4h-1.5C53.6,40.7,59,39,64.9,39c5.9,0,11.3,1.7,15.2,4.4h-1v21.2
			h1C76.2,67.3,70.8,69,64.9,69z"/>
		<path class="st134" d="M64.9,68.9c-5.9,0-11.2-1.7-15.1-4.4h1.5V43.4h-1.5C53.6,40.7,59,39,64.9,39c5.9,0,11.2,1.7,15.1,4.4h-1
			v21.1h1C76.1,67.3,70.8,68.9,64.9,68.9z"/>
		<path class="st135" d="M64.9,68.9c-5.9,0-11.2-1.7-15-4.4h1.4V43.4h-1.4c3.8-2.7,9.2-4.4,15-4.4c5.9,0,11.2,1.7,15,4.4H79v21.1
			h0.9C76.1,67.2,70.8,68.9,64.9,68.9z"/>
		<path class="st136" d="M64.9,68.8c-5.9,0-11.2-1.7-15-4.3h1.4v-21h-1.4c3.8-2.7,9.1-4.3,15-4.3c5.9,0,11.2,1.7,15,4.3H79v21h0.9
			C76,67.2,70.7,68.8,64.9,68.8z"/>
		<path class="st137" d="M64.9,68.8c-5.8,0-11.1-1.7-14.9-4.3h1.3V43.5h-1.3c3.8-2.7,9.1-4.3,14.9-4.3c5.8,0,11.1,1.7,14.9,4.3H79
			v20.9h0.8C76,67.1,70.7,68.8,64.9,68.8z"/>
		<path class="st138" d="M64.9,68.7c-5.8,0-11.1-1.6-14.9-4.3h1.3V43.6H50c3.8-2.7,9.1-4.3,14.9-4.3c5.8,0,11.1,1.6,14.9,4.3H79
			v20.8h0.8C76,67.1,70.7,68.7,64.9,68.7z"/>
		<path class="st139" d="M64.9,68.7c-5.8,0-11-1.6-14.8-4.3h1.2V43.6h-1.2c3.8-2.7,9-4.3,14.8-4.3c5.8,0,11,1.6,14.8,4.3H79v20.8
			h0.7C75.9,67,70.7,68.7,64.9,68.7z"/>
		<path class="st140" d="M64.9,68.6c-5.8,0-11-1.6-14.8-4.3h1.2V43.6h-1.2c3.8-2.6,9-4.3,14.8-4.3c5.8,0,11,1.6,14.8,4.3H79v20.7
			h0.7C75.9,67,70.7,68.6,64.9,68.6z"/>
		<path class="st141" d="M64.9,68.5c-5.7,0-11-1.6-14.7-4.3h1.1V43.7h-1.1c3.8-2.6,9-4.3,14.7-4.3c5.7,0,11,1.6,14.7,4.3H79v20.6
			h0.6C75.8,66.9,70.6,68.5,64.9,68.5z"/>
		<path class="st142" d="M64.9,68.5c-5.7,0-10.9-1.6-14.7-4.3h1V43.7h-1c3.8-2.6,8.9-4.3,14.7-4.3c5.7,0,10.9,1.6,14.7,4.3H79v20.5
			h0.6C75.8,66.9,70.6,68.5,64.9,68.5z"/>
		<path class="st143" d="M64.9,68.4c-5.7,0-10.9-1.6-14.6-4.2h1V43.8h-1c3.7-2.6,8.9-4.2,14.6-4.2c5.7,0,10.9,1.6,14.6,4.2H79v20.5
			h0.5C75.8,66.8,70.6,68.4,64.9,68.4z"/>
		<path class="st144" d="M64.9,68.4c-5.7,0-10.8-1.6-14.6-4.2h0.9V43.8h-0.9c3.7-2.6,8.9-4.2,14.6-4.2c5.7,0,10.8,1.6,14.6,4.2H79
			v20.4h0.4C75.7,66.8,70.6,68.4,64.9,68.4z"/>
		<path class="st145" d="M64.9,68.3c-5.7,0-10.8-1.6-14.5-4.2h0.9V43.8h-0.9c3.7-2.6,8.8-4.2,14.5-4.2c5.7,0,10.8,1.6,14.5,4.2H79
			v20.3h0.4C75.7,66.7,70.5,68.3,64.9,68.3z"/>
		<path class="st146" d="M64.9,68.3c-5.6,0-10.8-1.6-14.4-4.2h0.8V43.9h-0.8c3.7-2.6,8.8-4.2,14.4-4.2c5.6,0,10.8,1.6,14.5,4.2H79
			v20.2h0.3C75.6,66.7,70.5,68.3,64.9,68.3z"/>
		<path class="st147" d="M64.9,68.2c-5.6,0-10.7-1.6-14.4-4.2h0.8V43.9h-0.8c3.7-2.6,8.8-4.2,14.4-4.2c5.6,0,10.7,1.6,14.4,4.2H79
			v20.1h0.3C75.6,66.6,70.5,68.2,64.9,68.2z"/>
		<path class="st148" d="M64.9,68.2c-5.6,0-10.7-1.6-14.3-4.2h0.7V43.9h-0.7c3.7-2.6,8.7-4.2,14.3-4.2c5.6,0,10.7,1.6,14.3,4.2H79
			V64h0.2C75.6,66.6,70.5,68.2,64.9,68.2z"/>
		<path class="st148" d="M64.9,68.1c-5.6,0-10.6-1.6-14.3-4.1h0.7V44h-0.7c3.7-2.6,8.7-4.1,14.3-4.1c5.6,0,10.6,1.6,14.3,4.1H79v20
			h0.2C75.5,66.5,70.5,68.1,64.9,68.1z"/>
		<path class="st149" d="M64.9,68.1c-5.6,0-10.6-1.6-14.3-4.1h0.6V44h-0.6c3.6-2.6,8.7-4.1,14.3-4.1s10.6,1.6,14.3,4.1H79v20h0.1
			C75.5,66.5,70.4,68.1,64.9,68.1z"/>
		<path class="st150" d="M64.9,68.1c-5.6,0-10.6-1.6-14.2-4.1h0.6V44h-0.6c3.6-2.5,8.7-4.1,14.2-4.1s10.6,1.6,14.2,4.1H79v19.9h0.1
			C75.5,66.5,70.4,68.1,64.9,68.1z"/>
		<path class="st151" d="M64.9,68c-5.5,0-10.6-1.6-14.2-4.1h0.6V44.1h-0.6c3.6-2.5,8.6-4.1,14.2-4.1c5.5,0,10.6,1.6,14.2,4.1H79
			v19.9h0.1C75.4,66.4,70.4,68,64.9,68z"/>
		<path class="st152" d="M64.9,68c-5.5,0-10.5-1.6-14.2-4.1h0.5V44.1h-0.5c3.6-2.5,8.6-4.1,14.2-4.1s10.5,1.6,14.2,4.1h0v19.8h0
			C75.4,66.4,70.4,68,64.9,68z"/>
		<path class="st153" d="M64.9,68c-5.5,0-10.5-1.6-14.1-4.1h0.5V44.1h-0.5c3.6-2.5,8.6-4.1,14.1-4.1c5.5,0,10.5,1.6,14.1,4.1h0v19.8
			h0C75.4,66.4,70.4,68,64.9,68z"/>
		<path class="st154" d="M64.9,67.9c-5.5,0-10.5-1.6-14.1-4.1h0.5V44.1h-0.5c3.6-2.5,8.6-4.1,14.1-4.1s10.5,1.6,14.1,4.1
			c0.5,0.3,0.9,0.6,1.3,1H79v17.7h1.3c-0.4,0.3-0.8,0.7-1.3,1C75.4,66.4,70.4,67.9,64.9,67.9z"/>
		<path class="st155" d="M64.9,67.9c-5.5,0-10.5-1.6-14-4.1h0.4V44.1h-0.4c3.6-2.5,8.6-4.1,14-4.1s10.5,1.6,14.1,4.1
			c0.4,0.3,0.9,0.6,1.3,1H79v17.7h1.2c-0.4,0.3-0.8,0.7-1.3,1C75.3,66.3,70.4,67.9,64.9,67.9z"/>
		<path class="st156" d="M64.9,67.9c-5.5,0-10.4-1.6-14-4.1h0.4V44.2h-0.4c3.6-2.5,8.5-4.1,14-4.1c5.5,0,10.4,1.6,14,4.1
			c0.9,0.6,1.7,1.3,2.4,2.1H79v15.5h2.3c-0.7,0.7-1.5,1.4-2.4,2.1C75.3,66.3,70.4,67.9,64.9,67.9z"/>
		<path class="st157" d="M64.9,67.8c-5.5,0-10.4-1.5-14-4.1h0.4V44.2h-0.4c3.6-2.5,8.5-4.1,14-4.1c5.5,0,10.4,1.5,14,4.1
			c0.9,0.6,1.7,1.3,2.4,2H79v15.5h2.3c-0.7,0.7-1.5,1.4-2.4,2C75.3,66.3,70.3,67.8,64.9,67.8z"/>
		<path class="st158" d="M64.9,67.8c-5.4,0-10.4-1.5-14-4h0.3V44.2h-0.3c3.6-2.5,8.5-4,14-4s10.4,1.5,14,4c0.9,0.6,1.7,1.3,2.4,2H79
			v15.4h2.3c-0.7,0.7-1.5,1.4-2.4,2C75.3,66.2,70.3,67.8,64.9,67.8z"/>
		<path class="st159" d="M64.9,67.8c-5.4,0-10.4-1.5-13.9-4h0.3V44.2H51c3.6-2.5,8.5-4,13.9-4c5.4,0,10.4,1.5,13.9,4
			c0.9,0.6,1.7,1.3,2.4,2H79v15.4h2.2c-0.7,0.7-1.5,1.4-2.4,2C75.2,66.2,70.3,67.8,64.9,67.8z"/>
		<path class="st160" d="M64.9,67.7c-5.4,0-10.3-1.5-13.9-4h0.3V44.3H51c3.6-2.5,8.5-4,13.9-4s10.3,1.5,13.9,4
			c0.9,0.6,1.7,1.3,2.4,2H79v15.4h2.2c-0.7,0.7-1.5,1.4-2.4,2C75.2,66.2,70.3,67.7,64.9,67.7z"/>
		<path class="st161" d="M64.9,67.7c-5.4,0-10.3-1.5-13.8-4h0.2V44.3H51c3.5-2.5,8.4-4,13.8-4c5.4,0,10.3,1.5,13.9,4
			c0.9,0.6,1.7,1.3,2.4,2H79v15.3h2.1c-0.7,0.7-1.5,1.4-2.4,2C75.2,66.2,70.3,67.7,64.9,67.7z"/>
		<path class="st162" d="M64.9,67.7c-5.4,0-10.3-1.5-13.8-4h0.2V44.3h-0.2c3.5-2.5,8.4-4,13.8-4s10.3,1.5,13.8,4
			c0.9,0.6,1.7,1.3,2.4,2H79v15.3h2.1c-0.7,0.7-1.5,1.4-2.4,2C75.2,66.1,70.3,67.7,64.9,67.7z"/>
		<path class="st163" d="M64.9,67.6c-5.4,0-10.3-1.5-13.8-4h0.2V44.3h-0.2c3.5-2.5,8.4-4,13.8-4c5.4,0,10.3,1.5,13.8,4
			c0.9,0.6,1.7,1.3,2.4,2H79v15.3H81c-0.7,0.7-1.5,1.4-2.4,2C75.1,66.1,70.3,67.6,64.9,67.6z"/>
		<path class="st164" d="M64.9,67.6c-5.4,0-10.2-1.5-13.7-4h0.1V44.4h-0.1c3.5-2.5,8.4-4,13.7-4c5.4,0,10.2,1.5,13.8,4
			c0.9,0.6,1.7,1.3,2.4,2h-2v15.2h2c-0.7,0.7-1.5,1.4-2.4,2C75.1,66.1,70.3,67.6,64.9,67.6z"/>
		<path class="st165" d="M64.9,67.6c-5.4,0-10.2-1.5-13.7-4h0.1V44.4h-0.1c3.5-2.5,8.4-4,13.7-4s10.2,1.5,13.7,4
			c0.9,0.6,1.7,1.3,2.4,2h-2v15.2h2c-0.7,0.7-1.5,1.4-2.4,2C75.1,66,70.2,67.6,64.9,67.6z"/>
		<path class="st166" d="M64.9,67.5c-5.3,0-10.2-1.5-13.7-4h0.1V44.4h-0.1c3.5-2.5,8.3-4,13.7-4s10.2,1.5,13.7,4
			c0.9,0.6,1.7,1.3,2.4,2H79v15.1h1.9c-0.7,0.7-1.5,1.4-2.4,2C75.1,66,70.2,67.5,64.9,67.5z"/>
		<path class="st167" d="M64.9,67.5c-5.3,0-10.2-1.5-13.6-4h0V44.4h0c3.5-2.4,8.3-4,13.6-4c5.3,0,10.2,1.5,13.6,4
			c0.9,0.6,1.7,1.3,2.4,2H79v15.1h1.9c-0.7,0.7-1.5,1.4-2.4,2C75,66,70.2,67.5,64.9,67.5z"/>
		<path class="st168" d="M64.9,67.5c-5.3,0-10.1-1.5-13.6-3.9c-0.4-0.3-0.9-0.6-1.2-1h1.2V45.4H50c0.4-0.3,0.8-0.7,1.2-1
			c3.5-2.4,8.3-3.9,13.6-3.9S75,42,78.5,44.4c0.9,0.6,1.7,1.3,2.4,2H79v15.1h1.9c-0.7,0.7-1.5,1.4-2.4,2
			C75,65.9,70.2,67.5,64.9,67.5z"/>
		<path class="st169" d="M64.9,67.4c-5.3,0-10.1-1.5-13.6-3.9c-0.9-0.6-1.7-1.3-2.3-2h2.3v-15H49c0.7-0.7,1.5-1.4,2.3-2
			c3.5-2.4,8.3-3.9,13.6-3.9c5.3,0,10.1,1.5,13.6,3.9c0.9,0.6,1.7,1.3,2.3,2H79v15h1.8c-0.7,0.7-1.5,1.4-2.3,2
			C75,65.9,70.2,67.4,64.9,67.4z"/>
		<path class="st170" d="M64.9,67.4c-5.3,0-10.1-1.5-13.5-3.9c-0.9-0.6-1.7-1.3-2.3-2h2.3v-15H49c0.7-0.7,1.5-1.4,2.3-2
			c3.5-2.4,8.3-3.9,13.5-3.9s10.1,1.5,13.6,3.9c0.9,0.6,1.7,1.3,2.3,2H79v15h1.8c-0.7,0.7-1.5,1.4-2.3,2
			C75,65.9,70.2,67.4,64.9,67.4z"/>
		<path class="st171" d="M64.9,67.4c-5.3,0-10.1-1.5-13.5-3.9c-0.9-0.6-1.6-1.3-2.3-2h2.2v-15H49c0.7-0.7,1.5-1.4,2.3-2
			c3.5-2.4,8.2-3.9,13.5-3.9s10.1,1.5,13.5,3.9c0.9,0.6,1.6,1.3,2.3,2H79v15h1.7c-0.7,0.7-1.5,1.4-2.3,2
			C74.9,65.9,70.2,67.4,64.9,67.4z"/>
		<path class="st172" d="M64.9,67.3c-5.3,0-10-1.5-13.5-3.9c-0.9-0.6-1.6-1.3-2.3-2h2.2V46.5h-2.2c0.7-0.7,1.5-1.4,2.3-2
			c3.5-2.4,8.2-3.9,13.5-3.9c5.3,0,10,1.5,13.5,3.9c0.9,0.6,1.6,1.3,2.3,2H79v14.9h1.7c-0.7,0.7-1.5,1.4-2.3,2
			C74.9,65.8,70.1,67.3,64.9,67.3z"/>
		<path class="st173" d="M64.9,67.3c-5.3,0-10-1.5-13.4-3.9c-0.9-0.6-1.6-1.3-2.3-2h2.2V46.5h-2.2c0.7-0.7,1.5-1.4,2.3-2
			c3.4-2.4,8.2-3.9,13.4-3.9c5.3,0,10,1.5,13.4,3.9c0.9,0.6,1.6,1.3,2.3,2H79v14.9h1.7c-0.7,0.7-1.5,1.4-2.3,2
			C74.9,65.8,70.1,67.3,64.9,67.3z"/>
		<path class="st174" d="M64.9,67.3c-5.2,0-10-1.5-13.4-3.9c-0.9-0.6-1.6-1.3-2.3-2h2.1V46.6h-2.1c0.7-0.7,1.5-1.4,2.3-2
			c3.4-2.4,8.2-3.9,13.4-3.9s10,1.5,13.4,3.9c0.9,0.6,1.6,1.3,2.3,2H79v14.8h1.6c-0.7,0.7-1.5,1.4-2.3,2
			C74.9,65.8,70.1,67.3,64.9,67.3z"/>
		<path class="st175" d="M64.9,67.2c-5.2,0-10-1.5-13.4-3.9c-0.9-0.6-1.6-1.3-2.3-2h2.1V46.6h-2.1c0.7-0.7,1.5-1.4,2.3-2
			c3.4-2.4,8.2-3.9,13.4-3.9c5.2,0,10,1.5,13.4,3.9c0.9,0.6,1.6,1.3,2.3,2H79v14.8h1.6c-0.7,0.7-1.5,1.4-2.3,2
			C74.8,65.7,70.1,67.2,64.9,67.2z"/>
		<path class="st176" d="M64.9,67.2c-5.2,0-9.9-1.5-13.3-3.9c-0.9-0.6-1.6-1.3-2.3-2h2V46.6h-2c0.7-0.7,1.5-1.4,2.3-2
			c3.4-2.4,8.1-3.9,13.3-3.9s9.9,1.5,13.3,3.9c0.9,0.6,1.6,1.3,2.3,2H79v14.8h1.5c-0.7,0.7-1.5,1.4-2.3,2
			C74.8,65.7,70.1,67.2,64.9,67.2z"/>
		<path class="st177" d="M64.9,67.2c-5.2,0-9.9-1.5-13.3-3.9c-0.9-0.6-1.6-1.2-2.3-1.9h2V46.6h-2c0.7-0.7,1.4-1.4,2.3-1.9
			c3.4-2.4,8.1-3.9,13.3-3.9c5.2,0,9.9,1.5,13.3,3.9c0.9,0.6,1.6,1.2,2.3,1.9H79v14.7h1.5c-0.7,0.7-1.4,1.4-2.3,1.9
			C74.8,65.7,70.1,67.2,64.9,67.2z"/>
		<path class="st178" d="M64.9,67.1c-5.2,0-9.9-1.5-13.3-3.9c-0.9-0.6-1.6-1.2-2.3-1.9h2V46.6h-2c0.7-0.7,1.4-1.4,2.3-1.9
			c3.4-2.4,8.1-3.9,13.3-3.9s9.9,1.5,13.3,3.9c0.8,0.6,1.6,1.2,2.3,1.9H79v14.7h1.5c-0.7,0.7-1.4,1.4-2.3,1.9
			C74.8,65.7,70.1,67.1,64.9,67.1z"/>
		<path class="st179" d="M64.9,67.1c-5.2,0-9.9-1.5-13.2-3.8c-0.8-0.6-1.6-1.2-2.3-1.9h1.9V46.6h-1.9c0.7-0.7,1.4-1.3,2.3-1.9
			c3.4-2.4,8.1-3.8,13.2-3.8c5.2,0,9.9,1.5,13.2,3.8c0.8,0.6,1.6,1.2,2.3,1.9H79v14.7h1.4c-0.7,0.7-1.4,1.3-2.3,1.9
			C74.7,65.6,70.1,67.1,64.9,67.1z"/>
		<path class="st180" d="M64.9,67.1c-5.2,0-9.8-1.5-13.2-3.8c-0.8-0.6-1.6-1.2-2.3-1.9h1.9V46.7h-1.9c0.7-0.7,1.4-1.3,2.3-1.9
			c3.4-2.4,8.1-3.8,13.2-3.8c5.2,0,9.8,1.5,13.2,3.8c0.8,0.6,1.6,1.2,2.3,1.9H79v14.6h1.4c-0.7,0.7-1.4,1.3-2.3,1.9
			C74.7,65.6,70,67.1,64.9,67.1z"/>
		<path class="st181" d="M64.9,67c-5.1,0-9.8-1.5-13.2-3.8c-0.8-0.6-1.6-1.2-2.3-1.9h1.8V46.7h-1.8c0.7-0.7,1.4-1.3,2.3-1.9
			c3.4-2.4,8-3.8,13.2-3.8s9.8,1.5,13.2,3.8c0.8,0.6,1.6,1.2,2.3,1.9H79v14.6h1.3c-0.7,0.7-1.4,1.3-2.3,1.9C74.7,65.6,70,67,64.9,67
			z"/>
		<path class="st182" d="M64.9,67c-5.1,0-9.8-1.5-13.1-3.8c-0.8-0.6-1.6-1.2-2.3-1.9h1.8V46.7h-1.8c0.7-0.7,1.4-1.3,2.3-1.9
			c3.4-2.4,8-3.8,13.1-3.8s9.8,1.5,13.1,3.8c0.8,0.6,1.6,1.2,2.3,1.9H79v14.6h1.3c-0.7,0.7-1.4,1.3-2.3,1.9C74.7,65.5,70,67,64.9,67
			z"/>
		<path class="st183" d="M64.9,67c-5.1,0-9.8-1.5-13.1-3.8c-0.8-0.6-1.6-1.2-2.3-1.9h1.8V46.7h-1.8c0.7-0.7,1.4-1.3,2.3-1.9
			c3.4-2.3,8-3.8,13.1-3.8c5.1,0,9.8,1.5,13.1,3.8c0.8,0.6,1.6,1.2,2.3,1.9H79v14.5h1.3c-0.7,0.7-1.4,1.3-2.3,1.9
			C74.6,65.5,70,67,64.9,67z"/>
		<path class="st184" d="M64.9,66.9c-5.1,0-9.7-1.4-13.1-3.8c-0.8-0.6-1.6-1.2-2.3-1.9h1.7V46.7h-1.7c0.7-0.7,1.4-1.3,2.3-1.9
			c3.3-2.3,8-3.8,13.1-3.8s9.7,1.4,13.1,3.8c0.8,0.6,1.6,1.2,2.3,1.9H79v14.5h1.2c-0.7,0.7-1.4,1.3-2.3,1.9
			C74.6,65.5,70,66.9,64.9,66.9z"/>
		<path class="st185" d="M64.9,66.9c-5.1,0-9.7-1.4-13-3.8c-0.8-0.6-1.6-1.2-2.3-1.9h1.7V46.8h-1.7c0.7-0.7,1.4-1.3,2.3-1.9
			c3.3-2.3,8-3.8,13-3.8c5.1,0,9.7,1.4,13,3.8c0.8,0.6,1.6,1.2,2.3,1.9H79v14.4h1.2c-0.7,0.7-1.4,1.3-2.3,1.9
			C74.6,65.4,70,66.9,64.9,66.9z"/>
		<path class="st186" d="M64.9,66.9c-5.1,0-9.7-1.4-13-3.8c-0.8-0.6-1.6-1.2-2.2-1.9h1.6V46.8h-1.6c0.7-0.7,1.4-1.3,2.2-1.9
			c3.3-2.3,7.9-3.8,13-3.8s9.7,1.4,13,3.8c0.8,0.6,1.6,1.2,2.2,1.9H79v14.4h1.2c-0.7,0.7-1.4,1.3-2.2,1.9
			C74.6,65.4,70,66.9,64.9,66.9z"/>
		<path class="st187" d="M64.9,66.8c-5.1,0-9.7-1.4-13-3.8c-0.8-0.6-1.6-1.2-2.2-1.9h1.6V46.8h-1.6c0.7-0.7,1.4-1.3,2.2-1.9
			c3.3-2.3,7.9-3.8,13-3.8s9.7,1.4,13,3.8c0.8,0.6,1.6,1.2,2.2,1.9H79v14.4h1.1c-0.7,0.7-1.4,1.3-2.2,1.9
			C74.5,65.4,70,66.8,64.9,66.8z"/>
		<path class="st188" d="M64.9,66.8c-5.1,0-9.6-1.4-12.9-3.8c-0.8-0.6-1.6-1.2-2.2-1.9h1.6V46.8h-1.6c0.7-0.7,1.4-1.3,2.2-1.9
			c3.3-2.3,7.9-3.8,12.9-3.8c5.1,0,9.6,1.4,12.9,3.8c0.8,0.6,1.6,1.2,2.2,1.9H79v14.3h1.1c-0.7,0.7-1.4,1.3-2.2,1.9
			C74.5,65.4,69.9,66.8,64.9,66.8z"/>
		<path class="st189" d="M64.9,66.8c-5,0-9.6-1.4-12.9-3.7c-0.8-0.6-1.6-1.2-2.2-1.9h1.5V46.8h-1.5c0.7-0.7,1.4-1.3,2.2-1.9
			c3.3-2.3,7.9-3.7,12.9-3.7c5,0,9.6,1.4,12.9,3.7c0.8,0.6,1.6,1.2,2.2,1.9h-1v14.3h1c-0.7,0.7-1.4,1.3-2.2,1.9
			C74.5,65.3,69.9,66.8,64.9,66.8z"/>
		<path class="st190" d="M64.9,66.7c-5,0-9.6-1.4-12.9-3.7c-0.8-0.6-1.6-1.2-2.2-1.9h1.5V46.9h-1.5c0.7-0.7,1.4-1.3,2.2-1.9
			c3.3-2.3,7.8-3.7,12.9-3.7s9.6,1.4,12.9,3.7c0.8,0.6,1.6,1.2,2.2,1.9h-1v14.3h1c-0.7,0.7-1.4,1.3-2.2,1.9
			C74.5,65.3,69.9,66.7,64.9,66.7z"/>
		<path class="st191" d="M64.9,66.7c-5,0-9.6-1.4-12.8-3.7c-0.8-0.6-1.6-1.2-2.2-1.9h1.4V46.9h-1.4c0.7-0.7,1.4-1.3,2.2-1.9
			c3.3-2.3,7.8-3.7,12.8-3.7c5,0,9.6,1.4,12.8,3.7c0.8,0.6,1.6,1.2,2.2,1.9h-1v14.2h1c-0.7,0.7-1.4,1.3-2.2,1.9
			C74.4,65.3,69.9,66.7,64.9,66.7z"/>
		<path class="st192" d="M64.9,66.7c-5,0-9.5-1.4-12.8-3.7c-0.8-0.6-1.6-1.2-2.2-1.9h1.4V46.9h-1.4c0.7-0.7,1.4-1.3,2.2-1.9
			c3.3-2.3,7.8-3.7,12.8-3.7s9.5,1.4,12.8,3.7c0.8,0.6,1.6,1.2,2.2,1.9H79v14.2h0.9c-0.7,0.7-1.4,1.3-2.2,1.9
			C74.4,65.2,69.9,66.7,64.9,66.7z"/>
		<path class="st193" d="M64.9,66.6c-5,0-9.5-1.4-12.8-3.7c-0.8-0.6-1.6-1.2-2.2-1.9h1.4V46.9h-1.4c0.7-0.7,1.4-1.3,2.2-1.9
			c3.3-2.3,7.8-3.7,12.8-3.7c5,0,9.5,1.4,12.8,3.7c0.8,0.6,1.6,1.2,2.2,1.9H79v14.1h0.9c-0.6,0.7-1.4,1.3-2.2,1.9
			C74.4,65.2,69.9,66.6,64.9,66.6z"/>
		<path class="st194" d="M64.9,66.6c-5,0-9.5-1.4-12.7-3.7c-0.8-0.6-1.6-1.2-2.2-1.9h1.3V46.9h-1.3c0.6-0.7,1.4-1.3,2.2-1.9
			c3.3-2.3,7.8-3.7,12.7-3.7s9.5,1.4,12.7,3.7c0.8,0.6,1.6,1.2,2.2,1.9H79V61h0.8c-0.6,0.7-1.4,1.3-2.2,1.9
			C74.4,65.2,69.9,66.6,64.9,66.6z"/>
		<path class="st195" d="M64.9,66.6c-5,0-9.5-1.4-12.7-3.7c-0.8-0.6-1.5-1.2-2.2-1.9h1.3V46.9H50c0.6-0.7,1.4-1.3,2.2-1.9
			c3.3-2.3,7.7-3.7,12.7-3.7s9.5,1.4,12.7,3.7c0.8,0.6,1.5,1.2,2.2,1.9H79V61h0.8c-0.6,0.7-1.4,1.3-2.2,1.9
			C74.3,65.2,69.8,66.6,64.9,66.6z"/>
		<path class="st196" d="M64.9,66.5c-5,0-9.4-1.4-12.7-3.7c-0.8-0.6-1.5-1.2-2.2-1.9h1.2V47H50c0.6-0.7,1.4-1.3,2.2-1.9
			c3.2-2.3,7.7-3.7,12.7-3.7c5,0,9.4,1.4,12.7,3.7c0.8,0.6,1.5,1.2,2.2,1.9H79v14h0.8c-0.6,0.7-1.4,1.3-2.2,1.9
			C74.3,65.1,69.8,66.5,64.9,66.5z"/>
		<path class="st197" d="M64.9,66.5c-4.9,0-9.4-1.4-12.6-3.7c-0.8-0.6-1.5-1.2-2.2-1.9h1.2V47h-1.2c0.6-0.7,1.4-1.3,2.2-1.9
			c3.2-2.3,7.7-3.7,12.6-3.7s9.4,1.4,12.6,3.7c0.8,0.6,1.5,1.2,2.2,1.9H79v14h0.7c-0.6,0.7-1.4,1.3-2.2,1.9
			C74.3,65.1,69.8,66.5,64.9,66.5z"/>
		<path class="st198" d="M64.9,66.5c-4.9,0-9.4-1.4-12.6-3.7c-0.8-0.6-1.5-1.2-2.2-1.8h1.2V47h-1.2c0.6-0.7,1.4-1.3,2.2-1.8
			c3.2-2.3,7.7-3.7,12.6-3.7s9.4,1.4,12.6,3.7c1.6,1.1,2.9,2.5,3.8,4H79v9.7h2.3c-0.9,1.5-2.2,2.8-3.8,4
			C74.3,65.1,69.8,66.5,64.9,66.5z"/>
		<path class="st199" d="M64.9,66.4c-4.9,0-9.4-1.4-12.6-3.6c-0.8-0.6-1.5-1.2-2.2-1.8h1.1V47h-1.1c0.6-0.7,1.4-1.3,2.2-1.8
			c3.2-2.3,7.7-3.6,12.6-3.6c4.9,0,9.4,1.4,12.6,3.6c1.6,1.1,2.9,2.5,3.8,4H79v9.7h2.3c-0.9,1.5-2.2,2.8-3.8,4
			C74.2,65,69.8,66.4,64.9,66.4z"/>
		<path class="st200" d="M64.9,66.4c-4.9,0-9.3-1.4-12.5-3.6c-0.8-0.6-1.5-1.2-2.2-1.8h1.1V47h-1.1c0.6-0.7,1.4-1.3,2.2-1.8
			c3.2-2.2,7.6-3.6,12.5-3.6s9.3,1.4,12.5,3.6c1.6,1.1,2.9,2.5,3.8,3.9H79v9.7h2.2c-0.9,1.5-2.2,2.8-3.8,3.9
			C74.2,65,69.8,66.4,64.9,66.4z"/>
		<path class="st201" d="M64.9,66.4c-4.9,0-9.3-1.4-12.5-3.6c-0.8-0.6-1.5-1.2-2.2-1.8h1.1V47.1h-1.1c0.6-0.7,1.4-1.3,2.2-1.8
			c3.2-2.2,7.6-3.6,12.5-3.6c4.9,0,9.3,1.4,12.5,3.6c1.6,1.1,2.9,2.5,3.8,3.9H79v9.6h2.2c-0.9,1.5-2.2,2.8-3.8,3.9
			C74.2,65,69.8,66.4,64.9,66.4z"/>
		<path class="st201" d="M64.9,66.3c-4.9,0-9.3-1.4-12.5-3.6c-0.8-0.6-1.5-1.2-2.2-1.8h1V47.1h-1c0.6-0.7,1.4-1.3,2.2-1.8
			c3.2-2.2,7.6-3.6,12.5-3.6s9.3,1.4,12.5,3.6c1.6,1.1,2.9,2.4,3.8,3.9H79v9.6h2.1c-0.9,1.5-2.2,2.8-3.8,3.9
			C74.2,64.9,69.8,66.3,64.9,66.3z"/>
		<path class="st202" d="M64.9,66.3c-4.8,0-9.2-1.4-12.4-3.6c-0.8-0.6-1.5-1.2-2.1-1.8h0.9V47.1h-0.9c0.6-0.7,1.3-1.3,2.1-1.8
			c3.2-2.2,7.6-3.6,12.4-3.6c4.8,0,9.2,1.4,12.4,3.6c1.6,1.1,2.9,2.4,3.8,3.9h-2v9.6h2c-0.9,1.5-2.2,2.8-3.8,3.9
			C74.1,64.9,69.7,66.3,64.9,66.3z"/>
		<path class="st203" d="M64.9,66.2c-4.8,0-9.2-1.4-12.3-3.6c-0.8-0.6-1.5-1.2-2.1-1.8h0.8V47.2h-0.8c0.6-0.6,1.3-1.3,2.1-1.8
			c3.2-2.2,7.5-3.6,12.3-3.6c4.8,0,9.2,1.4,12.3,3.6c1.6,1.1,2.9,2.4,3.7,3.9H79v9.5h1.9c-0.9,1.5-2.2,2.8-3.7,3.9
			C74,64.8,69.7,66.2,64.9,66.2z"/>
		<path class="st204" d="M64.9,66.1c-4.8,0-9.1-1.4-12.2-3.5c-1.6-1.1-2.8-2.4-3.7-3.8h2.3v-9.4h-2.3c0.9-1.4,2.1-2.8,3.7-3.8
			c3.1-2.2,7.5-3.5,12.2-3.5c4.8,0,9.1,1.4,12.2,3.5c1.6,1.1,2.8,2.4,3.7,3.8H79v9.4h1.8c-0.9,1.4-2.1,2.8-3.7,3.8
			C74,64.7,69.7,66.1,64.9,66.1z"/>
		<path class="st205" d="M64.9,66c-4.7,0-9-1.3-12.2-3.5c-1.6-1.1-2.8-2.4-3.7-3.8h2.2v-9.4H49c0.9-1.4,2.1-2.7,3.7-3.8
			c3.1-2.2,7.4-3.5,12.2-3.5c4.7,0,9,1.3,12.2,3.5c1.6,1.1,2.8,2.4,3.7,3.8H79v9.4h1.7c-0.9,1.4-2.1,2.7-3.7,3.8
			C73.9,64.7,69.6,66,64.9,66z"/>
		<path class="st206" d="M64.9,65.9c-4.7,0-9-1.3-12.1-3.5c-1.5-1.1-2.8-2.4-3.7-3.8h2.1v-9.3h-2.1c0.9-1.4,2.1-2.7,3.7-3.8
			c3.1-2.2,7.4-3.5,12.1-3.5c4.7,0,9,1.3,12.1,3.5c1.5,1.1,2.8,2.4,3.7,3.8H79v9.3h1.6c-0.9,1.4-2.1,2.7-3.7,3.8
			C73.9,64.6,69.6,65.9,64.9,65.9z"/>
		<path class="st207" d="M64.9,65.9c-4.7,0-8.9-1.3-12-3.5c-1.5-1.1-2.8-2.4-3.6-3.8h2v-9.2h-2c0.9-1.4,2.1-2.7,3.6-3.8
			c3.1-2.1,7.3-3.5,12-3.5c4.7,0,8.9,1.3,12,3.5c1.5,1.1,2.8,2.4,3.6,3.8H79v9.2h1.5c-0.9,1.4-2.1,2.7-3.6,3.8
			C73.8,64.5,69.6,65.9,64.9,65.9z"/>
		<path class="st208" d="M64.9,65.8c-4.7,0-8.9-1.3-11.9-3.5c-1.5-1.1-2.8-2.3-3.6-3.7h1.9v-9.2h-1.9c0.9-1.4,2.1-2.7,3.6-3.7
			c3-2.1,7.3-3.5,11.9-3.5c4.7,0,8.9,1.3,11.9,3.5c1.5,1.1,2.8,2.3,3.6,3.7H79v9.2h1.4c-0.9,1.4-2.1,2.7-3.6,3.7
			C73.7,64.5,69.5,65.8,64.9,65.8z"/>
		<path class="st209" d="M64.9,65.7c-4.6,0-8.8-1.3-11.8-3.4c-1.5-1.1-2.7-2.3-3.6-3.7h1.8v-9.1h-1.8c0.8-1.4,2.1-2.7,3.6-3.7
			c3-2.1,7.2-3.4,11.8-3.4c4.6,0,8.8,1.3,11.8,3.4c1.5,1.1,2.7,2.3,3.6,3.7H79v9.1h1.3c-0.8,1.4-2.1,2.7-3.6,3.7
			C73.7,64.4,69.5,65.7,64.9,65.7z"/>
		<path class="st210" d="M64.9,65.6c-4.6,0-8.7-1.3-11.8-3.4c-1.5-1.1-2.7-2.3-3.6-3.7h1.7v-9.1h-1.7c0.8-1.4,2.1-2.6,3.6-3.7
			c3-2.1,7.2-3.4,11.8-3.4c4.6,0,8.7,1.3,11.8,3.4c1.5,1.1,2.7,2.3,3.6,3.7H79v9.1h1.2c-0.8,1.4-2.1,2.6-3.6,3.7
			C73.6,64.3,69.5,65.6,64.9,65.6z"/>
		<path class="st211" d="M64.9,65.5c-4.6,0-8.7-1.3-11.7-3.4c-1.5-1-2.7-2.3-3.5-3.7h1.6v-9h-1.6c0.8-1.4,2-2.6,3.5-3.7
			c3-2.1,7.1-3.4,11.7-3.4c4.6,0,8.7,1.3,11.7,3.4c1.5,1,2.7,2.3,3.5,3.7H79v9h1.1c-0.8,1.4-2,2.6-3.5,3.7
			C73.6,64.2,69.4,65.5,64.9,65.5z"/>
		<path class="st212" d="M64.9,65.5c-4.5,0-8.6-1.3-11.6-3.4c-1.5-1-2.7-2.3-3.5-3.6h1.5v-8.9h-1.5c0.8-1.4,2-2.6,3.5-3.6
			c3-2.1,7.1-3.4,11.6-3.4c9.1,0,16.4,5.1,16.4,11.5S73.9,65.5,64.9,65.5z"/>
		<path class="st213" d="M64.9,65.4c-4.5,0-8.6-1.3-11.5-3.3c-1.5-1-2.7-2.3-3.5-3.6h1.4v-8.9h-1.4c0.8-1.4,2-2.6,3.5-3.6
			c2.9-2.1,7-3.3,11.5-3.3c9,0,16.3,5.1,16.3,11.4S73.9,65.4,64.9,65.4z"/>
		<path class="st214" d="M64.9,65.3c-4.5,0-8.5-1.3-11.4-3.3c-1.5-1-2.6-2.2-3.5-3.6h1.3v-8.8H50c0.8-1.4,2-2.6,3.5-3.6
			c2.9-2,7-3.3,11.4-3.3c8.9,0,16.2,5.1,16.2,11.3C81.1,60.2,73.8,65.3,64.9,65.3z"/>
		<path class="st215" d="M64.9,65.2c-4.4,0-8.4-1.3-11.4-3.3c-1.5-1-2.6-2.2-3.4-3.6h1.2v-8.8h-1.2c0.8-1.3,2-2.6,3.4-3.6
			c2.9-2,6.9-3.3,11.4-3.3c8.9,0,16.1,5,16.1,11.2C80.9,60.2,73.8,65.2,64.9,65.2z"/>
		<ellipse class="st216" cx="64.9" cy="54" rx="15.9" ry="11.2"/>
		<ellipse class="st217" cx="64.9" cy="54" rx="15.8" ry="11.1"/>
		<ellipse class="st218" cx="64.9" cy="54" rx="15.7" ry="11"/>
		<ellipse class="st219" cx="64.9" cy="54" rx="15.6" ry="10.9"/>
		<ellipse class="st220" cx="64.9" cy="54" rx="15.5" ry="10.8"/>
		<ellipse class="st221" cx="64.9" cy="54" rx="15.4" ry="10.8"/>
		<ellipse class="st222" cx="64.9" cy="54" rx="15.3" ry="10.7"/>
		<ellipse class="st223" cx="64.9" cy="54" rx="15.1" ry="10.6"/>
		<ellipse class="st224" cx="64.9" cy="54" rx="15" ry="10.5"/>
		<ellipse class="st225" cx="64.9" cy="54" rx="14.9" ry="10.4"/>
		<ellipse class="st226" cx="64.9" cy="54" rx="14.8" ry="10.4"/>
		<ellipse class="st227" cx="64.9" cy="54" rx="14.7" ry="10.3"/>
		<ellipse class="st228" cx="64.9" cy="54" rx="14.6" ry="10.2"/>
		<ellipse class="st229" cx="64.9" cy="54" rx="14.5" ry="10.1"/>
		<ellipse class="st230" cx="64.9" cy="54" rx="14.4" ry="10"/>
		<ellipse class="st231" cx="64.9" cy="54" rx="14.2" ry="10"/>
		<ellipse class="st232" cx="64.9" cy="54" rx="14.1" ry="9.9"/>
		<ellipse class="st233" cx="64.9" cy="54" rx="14" ry="9.8"/>
		<ellipse class="st234" cx="64.9" cy="54" rx="13.9" ry="9.7"/>
		<ellipse class="st235" cx="64.9" cy="54" rx="13.8" ry="9.7"/>
		<ellipse class="st236" cx="64.9" cy="54" rx="13.7" ry="9.6"/>
		<ellipse class="st237" cx="64.9" cy="54" rx="13.6" ry="9.5"/>
		<ellipse class="st238" cx="64.9" cy="54" rx="13.4" ry="9.4"/>
		<ellipse class="st239" cx="64.9" cy="54" rx="13.3" ry="9.3"/>
		<ellipse class="st240" cx="64.9" cy="54" rx="13.2" ry="9.3"/>
		<ellipse class="st241" cx="64.9" cy="54" rx="13.1" ry="9.2"/>
		<ellipse class="st241" cx="64.9" cy="54" rx="13" ry="9.1"/>
		<ellipse class="st240" cx="64.9" cy="54" rx="12.8" ry="8.9"/>
		<ellipse class="st239" cx="64.9" cy="54" rx="12.6" ry="8.8"/>
		<ellipse class="st238" cx="64.9" cy="54" rx="12.4" ry="8.7"/>
		<ellipse class="st237" cx="64.9" cy="54" rx="12.2" ry="8.5"/>
		<ellipse class="st236" cx="64.9" cy="54" rx="11.9" ry="8.4"/>
		<ellipse class="st235" cx="64.9" cy="54" rx="11.7" ry="8.2"/>
		<ellipse class="st234" cx="64.9" cy="54" rx="11.5" ry="8.1"/>
		<ellipse class="st233" cx="64.9" cy="54" rx="11.3" ry="7.9"/>
		<ellipse class="st232" cx="64.9" cy="54" rx="11.1" ry="7.8"/>
		<ellipse class="st231" cx="64.9" cy="54" rx="10.9" ry="7.6"/>
		<ellipse class="st230" cx="64.9" cy="54" rx="10.7" ry="7.5"/>
		<ellipse class="st229" cx="64.9" cy="54" rx="10.5" ry="7.3"/>
		<ellipse class="st228" cx="64.9" cy="54" rx="10.3" ry="7.2"/>
		<ellipse class="st227" cx="64.9" cy="54" rx="10.1" ry="7"/>
		<ellipse class="st226" cx="64.9" cy="54" rx="9.9" ry="6.9"/>
		<ellipse class="st225" cx="64.9" cy="54" rx="9.6" ry="6.8"/>
		<ellipse class="st224" cx="64.9" cy="54" rx="9.4" ry="6.6"/>
		<ellipse class="st223" cx="64.9" cy="54" rx="9.2" ry="6.5"/>
		<ellipse class="st222" cx="64.9" cy="54" rx="9" ry="6.3"/>
		<ellipse class="st221" cx="64.9" cy="54" rx="8.8" ry="6.2"/>
		<ellipse class="st220" cx="64.9" cy="54" rx="8.6" ry="6"/>
		<ellipse class="st219" cx="64.9" cy="54" rx="8.4" ry="5.9"/>
		<ellipse class="st218" cx="64.9" cy="54" rx="8.2" ry="5.7"/>
		<ellipse class="st217" cx="64.9" cy="54" rx="8" ry="5.6"/>
		<ellipse class="st216" cx="64.9" cy="54" rx="7.8" ry="5.4"/>
		<ellipse class="st215" cx="64.9" cy="54" rx="7.6" ry="5.3"/>
		<ellipse class="st214" cx="64.9" cy="54" rx="7.4" ry="5.1"/>
		<ellipse class="st213" cx="64.9" cy="54" rx="7.1" ry="5"/>
		<ellipse class="st212" cx="64.9" cy="54" rx="6.9" ry="4.9"/>
		<ellipse class="st211" cx="64.9" cy="54" rx="6.7" ry="4.7"/>
		<ellipse class="st210" cx="64.9" cy="54" rx="6.5" ry="4.6"/>
		<ellipse class="st209" cx="64.9" cy="54" rx="6.3" ry="4.4"/>
		<ellipse class="st208" cx="64.9" cy="54" rx="6.1" ry="4.3"/>
		<ellipse class="st207" cx="64.9" cy="54" rx="5.9" ry="4.1"/>
		<ellipse class="st206" cx="64.9" cy="54" rx="5.7" ry="4"/>
		<ellipse class="st205" cx="64.9" cy="54" rx="5.5" ry="3.8"/>
		<ellipse class="st204" cx="64.9" cy="54" rx="5.3" ry="3.7"/>
		<ellipse class="st203" cx="64.9" cy="54" rx="5.1" ry="3.5"/>
		<ellipse class="st202" cx="64.9" cy="54" rx="4.8" ry="3.4"/>
		<ellipse class="st201" cx="64.9" cy="54" rx="4.6" ry="3.2"/>
	</g>
</g>
<radialGradient id="SVGID_10_" cx="24.2443" cy="298.0403" r="21.7649" gradientTransform="matrix(0.8909 0 0 0.7583 43.4493 -180.903)" gradientUnits="userSpaceOnUse">
	<stop  offset="0" style="stop-color:#0EAEE5"/>
	<stop  offset="0.4908" style="stop-color:#368AC9"/>
	<stop  offset="0.7698" style="stop-color:#0065A8"/>
	<stop  offset="0.9218" style="stop-color:#004A7F"/>
</radialGradient>
<ellipse class="st242" cx="65.1" cy="51.7" rx="11.7" ry="9.9"/>
<linearGradient id="SVGID_11_" gradientUnits="userSpaceOnUse" x1="65.1261" y1="52.5365" x2="65.1261" y2="42.4364">
	<stop  offset="0" style="stop-color:#379DD7"/>
	<stop  offset="1" style="stop-color:#A6DEF8"/>
</linearGradient>
<ellipse class="st243" cx="65.1" cy="47.5" rx="8.4" ry="5.1"/>
<radialGradient id="SVGID_12_" cx="44.2581" cy="38.2174" r="20.3875" gradientUnits="userSpaceOnUse">
	<stop  offset="0" style="stop-color:#F79836"/>
	<stop  offset="0.6345" style="stop-color:#F38420"/>
	<stop  offset="0.9594" style="stop-color:#E68525"/>
</radialGradient>
<circle class="st244" cx="44.3" cy="38.2" r="20.4"/>
<g>
	<g>
		<defs>
			<circle id="SVGID_13_" cx="44.3" cy="38.2" r="20.4"/>
		</defs>
		<clipPath id="SVGID_14_">
			<use xlink:href="#SVGID_13_"  style="overflow:visible;"/>
		</clipPath>
		<rect x="23.9" y="17.8" class="st245" width="40.8" height="40.8"/>
		<path class="st245" d="M43.9,61.4c-9.7,0-18.5-2.7-24.8-7.2h3.8V19.5h-3.8c6.3-4.4,15.1-7.2,24.8-7.2c9.7,0,18.5,2.7,24.8,7.2
			h-3.1v34.7h3.1C62.3,58.6,53.6,61.4,43.9,61.4z"/>
		<path class="st246" d="M43.9,61.1c-9.6,0-18.2-2.7-24.5-7.1h3.5V19.7h-3.5c6.3-4.4,14.9-7.1,24.5-7.1c9.6,0,18.2,2.7,24.5,7.1
			h-2.8V54h2.8C62.1,58.4,53.4,61.1,43.9,61.1z"/>
		<path class="st247" d="M43.9,60.7c-9.4,0-18-2.7-24.1-7h3.2V19.9h-3.2c6.2-4.3,14.7-7,24.1-7s18,2.7,24.1,7h-2.4v33.8H68
			C61.9,58.1,53.3,60.7,43.9,60.7z"/>
		<path class="st248" d="M43.9,60.4c-9.3,0-17.7-2.6-23.8-6.9h2.8V20.2h-2.8c6.1-4.3,14.5-6.9,23.8-6.9c9.3,0,17.7,2.6,23.8,6.9
			h-2.1v33.3h2.1C61.6,57.8,53.2,60.4,43.9,60.4z"/>
		<path class="st249" d="M43.9,60.1c-9.2,0-17.5-2.6-23.5-6.8h2.5V20.4h-2.5c6-4.2,14.3-6.8,23.5-6.8c9.2,0,17.5,2.6,23.5,6.8h-1.8
			v32.9h1.8C61.4,57.5,53.1,60.1,43.9,60.1z"/>
		<path class="st250" d="M43.9,59.8c-9,0-17.2-2.6-23.2-6.7h2.2V20.6h-2.2c5.9-4.2,14.1-6.7,23.2-6.7c9,0,17.2,2.6,23.2,6.7h-1.5
			v32.4h1.5C61.1,57.2,52.9,59.8,43.9,59.8z"/>
		<path class="st251" d="M43.9,59.4c-8.9,0-17-2.5-22.8-6.6h1.9v-32h-1.9c5.8-4.1,13.9-6.6,22.8-6.6c8.9,0,17,2.5,22.8,6.6h-1.1v32
			h1.1C60.9,56.9,52.8,59.4,43.9,59.4z"/>
		<path class="st252" d="M43.9,59.1c-8.8,0-16.7-2.5-22.5-6.5h1.5V21.1h-1.5c5.8-4,13.7-6.5,22.5-6.5c8.8,0,16.7,2.5,22.5,6.5h-0.8
			v31.5h0.8C60.6,56.6,52.7,59.1,43.9,59.1z"/>
		<path class="st253" d="M43.9,58.8c-8.7,0-16.5-2.5-22.2-6.4h1.2V21.3h-1.2c5.7-4,13.5-6.4,22.2-6.4c8.7,0,16.5,2.5,22.2,6.4h-0.5
			v31.1h0.5C60.4,56.3,52.6,58.8,43.9,58.8z"/>
		<path class="st254" d="M43.9,58.5c-8.5,0-16.3-2.4-21.9-6.3h0.9V21.5H22c5.6-3.9,13.3-6.3,21.9-6.3s16.3,2.4,21.9,6.3h-0.1v30.6
			h0.1C60.2,56.1,52.4,58.5,43.9,58.5z"/>
		<path class="st254" d="M43.9,58.1c-8.4,0-16-2.4-21.5-6.2h0.6V21.8h-0.6c5.5-3.9,13.1-6.2,21.5-6.2c8.4,0,16,2.4,21.5,6.2
			c2.8,1.9,5,4.2,6.5,6.8h-6.3v16.6h6.3c-1.5,2.6-3.8,4.8-6.5,6.8C59.9,55.8,52.3,58.1,43.9,58.1z"/>
		<path class="st255" d="M43.9,58c-8.3,0-15.9-2.4-21.3-6.2h0.4V21.9h-0.4c5.5-3.8,13-6.2,21.3-6.2c8.3,0,15.9,2.4,21.3,6.2
			c2.7,1.9,4.9,4.2,6.5,6.7h-6.1v16.4h6.1c-1.5,2.5-3.7,4.8-6.5,6.7C59.8,55.6,52.2,58,43.9,58z"/>
		<path class="st256" d="M43.9,57.8c-8.3,0-15.7-2.3-21.2-6.1h0.2V22h-0.2c5.4-3.8,12.9-6.1,21.2-6.1c8.3,0,15.7,2.3,21.2,6.1
			c2.7,1.9,4.9,4.2,6.4,6.7h-5.9V45h5.9c-1.5,2.5-3.7,4.8-6.4,6.7C59.6,55.4,52.2,57.8,43.9,57.8z"/>
		<path class="st257" d="M43.9,57.6c-8.2,0-15.6-2.3-21-6.1h0V22.2h0c5.4-3.8,12.8-6.1,21-6.1c8.2,0,15.6,2.3,21,6.1
			c2.7,1.9,4.9,4.1,6.4,6.6h-5.6v16.2h5.6c-1.5,2.5-3.7,4.7-6.4,6.6C59.5,55.3,52.1,57.6,43.9,57.6z"/>
		<path class="st258" d="M43.9,57.4c-8.1,0-15.5-2.3-20.8-6c-2.7-1.9-4.8-4.1-6.3-6.5h6.1v-16h-6.1c1.5-2.5,3.6-4.7,6.3-6.5
			c5.3-3.7,12.7-6,20.8-6c8.1,0,15.5,2.3,20.8,6c2.7,1.9,4.8,4.1,6.3,6.5h-5.4v16H71c-1.5,2.5-3.6,4.7-6.3,6.5
			C59.4,55.1,52,57.4,43.9,57.4z"/>
		<path class="st259" d="M43.9,57.2c-8,0-15.3-2.3-20.6-6c-2.6-1.9-4.8-4-6.2-6.5h5.9V28.9H17c1.5-2.4,3.6-4.6,6.2-6.5
			c5.3-3.7,12.6-6,20.6-6c8.1,0,15.3,2.3,20.6,6c2.6,1.8,4.8,4,6.3,6.5h-5.2v15.9h5.2c-1.5,2.4-3.6,4.6-6.3,6.5
			C59.2,55,51.9,57.2,43.9,57.2z"/>
		<path class="st260" d="M43.9,57.1c-8,0-15.2-2.3-20.4-5.9c-2.6-1.8-4.7-4-6.2-6.4h5.7V29h-5.7c1.5-2.4,3.6-4.6,6.2-6.4
			c5.2-3.7,12.5-5.9,20.4-5.9c8,0,15.2,2.3,20.4,5.9c2.6,1.8,4.7,4,6.2,6.4h-4.9v15.8h4.9c-1.5,2.4-3.6,4.6-6.2,6.4
			C59.1,54.8,51.9,57.1,43.9,57.1z"/>
		<path class="st261" d="M43.9,56.9c-7.9,0-15.1-2.2-20.3-5.9c-2.6-1.8-4.7-4-6.1-6.4h5.4V29h-5.4c1.4-2.4,3.5-4.6,6.1-6.4
			c5.2-3.6,12.3-5.9,20.3-5.9c7.9,0,15.1,2.2,20.3,5.9c2.6,1.8,4.7,4,6.1,6.4h-4.7v15.6h4.7c-1.5,2.4-3.5,4.6-6.1,6.4
			C59,54.6,51.8,56.9,43.9,56.9z"/>
		<path class="st262" d="M43.9,56.7c-7.8,0-14.9-2.2-20.1-5.8c-2.6-1.8-4.6-3.9-6.1-6.3h5.2V29.1h-5.2c1.4-2.4,3.5-4.5,6.1-6.3
			C29,19.2,36,17,43.9,17c15.7,0,28.4,8.9,28.4,19.9S59.6,56.7,43.9,56.7z"/>
		<path class="st263" d="M43.9,56.5c-7.8,0-14.8-2.2-19.9-5.8c-2.5-1.8-4.6-3.9-6-6.3h4.9V29.2H18c1.4-2.4,3.5-4.5,6-6.3
			c5.1-3.6,12.1-5.8,19.9-5.8C59.4,17.1,72,26,72,36.8C72,47.7,59.4,56.5,43.9,56.5z"/>
		<path class="st264" d="M43.9,56.3c-7.7,0-14.7-2.2-19.7-5.7c-2.5-1.8-4.6-3.9-6-6.2h4.7V29.2h-4.7c1.4-2.3,3.5-4.4,6-6.2
			c5-3.5,12-5.7,19.7-5.7c15.4,0,27.9,8.7,27.9,19.5C71.8,47.6,59.3,56.3,43.9,56.3z"/>
		<path class="st265" d="M43.9,56.2c-15.3,0-27.6-8.7-27.6-19.3s12.4-19.3,27.6-19.3c15.3,0,27.6,8.7,27.6,19.3S59.1,56.2,43.9,56.2
			z"/>
		<ellipse class="st266" cx="43.9" cy="36.8" rx="27.4" ry="19.2"/>
		<ellipse class="st267" cx="43.9" cy="36.8" rx="27.1" ry="19"/>
		<ellipse class="st268" cx="43.9" cy="36.8" rx="26.8" ry="18.8"/>
		<path class="st268" d="M43.9,55.5c-14.7,0-26.6-8.3-26.6-18.6c0-10.3,11.9-18.6,26.6-18.6c14.7,0,26.6,8.3,26.6,18.6
			C70.5,47.1,58.6,55.5,43.9,55.5z"/>
		<path class="st269" d="M43.9,55.3c-14.6,0-26.3-8.3-26.3-18.4c0-10.2,11.8-18.4,26.3-18.4c14.6,0,26.3,8.3,26.3,18.4
			C70.2,47,58.4,55.3,43.9,55.3z"/>
		<ellipse class="st270" cx="43.9" cy="36.8" rx="26.1" ry="18.3"/>
		<path class="st271" d="M43.9,54.9C29.6,54.9,18,46.8,18,36.8c0-10,11.6-18.1,25.9-18.1c14.3,0,25.9,8.1,25.9,18.1
			C69.8,46.8,58.2,54.9,43.9,54.9z"/>
		<ellipse class="st272" cx="43.9" cy="36.8" rx="25.6" ry="17.9"/>
		<ellipse class="st273" cx="43.9" cy="36.8" rx="25.4" ry="17.8"/>
		<ellipse class="st274" cx="43.9" cy="36.8" rx="25.1" ry="17.6"/>
		<path class="st275" d="M43.9,54.3C30.1,54.3,19,46.5,19,36.8c0-9.6,11.1-17.4,24.9-17.4c13.8,0,24.9,7.8,24.9,17.4
			C68.8,46.5,57.6,54.3,43.9,54.3z"/>
		<ellipse class="st276" cx="43.9" cy="36.8" rx="24.7" ry="17.3"/>
		<ellipse class="st277" cx="43.9" cy="36.8" rx="24.4" ry="17.1"/>
		<path class="st278" d="M43.9,53.8c-13.3,0-24.2-7.6-24.2-16.9c0-9.3,10.8-16.9,24.2-16.9c13.4,0,24.2,7.6,24.2,16.9
			C68.1,46.2,57.2,53.8,43.9,53.8z"/>
		<ellipse class="st279" cx="43.9" cy="36.8" rx="23.9" ry="16.8"/>
		<path class="st280" d="M43.9,53.4c-13.1,0-23.7-7.4-23.7-16.6c0-9.2,10.6-16.6,23.7-16.6c13.1,0,23.7,7.4,23.7,16.6
			C67.6,46,57,53.4,43.9,53.4z"/>
		<ellipse class="st281" cx="43.9" cy="36.8" rx="23.4" ry="16.4"/>
		<ellipse class="st282" cx="43.9" cy="36.8" rx="23.2" ry="16.2"/>
		<ellipse class="st283" cx="43.9" cy="36.8" rx="23" ry="16.1"/>
		<ellipse class="st284" cx="43.9" cy="36.8" rx="22.7" ry="15.9"/>
		<ellipse class="st285" cx="43.9" cy="36.8" rx="22.5" ry="15.7"/>
		<path class="st286" d="M43.9,52.4c-12.3,0-22.2-7-22.2-15.6c0-8.6,10-15.6,22.2-15.6c12.3,0,22.2,7,22.2,15.6
			C66.1,45.4,56.2,52.4,43.9,52.4z"/>
		<path class="st287" d="M43.9,52.2c-12.1,0-22-6.9-22-15.4c0-8.5,9.8-15.4,22-15.4c12.2,0,22,6.9,22,15.4
			C65.9,45.3,56,52.2,43.9,52.2z"/>
		<path class="st288" d="M43.9,52.1c-12,0-21.8-6.8-21.8-15.2c0-8.4,9.7-15.2,21.8-15.2c12,0,21.8,6.8,21.8,15.2
			C65.6,45.2,55.9,52.1,43.9,52.1z"/>
		<ellipse class="st289" cx="43.9" cy="36.8" rx="21.5" ry="15.1"/>
		<ellipse class="st290" cx="43.9" cy="36.8" rx="21.3" ry="14.9"/>
		<ellipse class="st291" cx="43.9" cy="36.8" rx="21" ry="14.7"/>
		<ellipse class="st292" cx="43.9" cy="36.8" rx="20.8" ry="14.6"/>
		<ellipse class="st293" cx="43.9" cy="36.8" rx="20.5" ry="14.4"/>
		<path class="st294" d="M43.9,51c-11.2,0-20.3-6.4-20.3-14.2c0-7.8,9.1-14.2,20.3-14.2c11.2,0,20.3,6.4,20.3,14.2
			C64.2,44.7,55.1,51,43.9,51z"/>
		<path class="st295" d="M43.9,50.9c-11.1,0-20.1-6.3-20.1-14c0-7.8,9-14,20.1-14c11.1,0,20.1,6.3,20.1,14
			C64,44.6,55,50.9,43.9,50.9z"/>
		<ellipse class="st296" cx="43.9" cy="36.8" rx="19.8" ry="13.9"/>
		<path class="st296" d="M43.9,50.5c-10.8,0-19.6-6.1-19.6-13.7c0-7.6,8.8-13.7,19.6-13.7c10.8,0,19.6,6.1,19.6,13.7
			C63.5,44.4,54.7,50.5,43.9,50.5z"/>
		<path class="st295" d="M43.9,50.2c-10.6,0-19.1-6-19.1-13.4s8.6-13.4,19.1-13.4c10.6,0,19.1,6,19.1,13.4S54.5,50.2,43.9,50.2z"/>
		<path class="st294" d="M43.9,49.9c-10.3,0-18.7-5.9-18.7-13.1s8.4-13.1,18.7-13.1c10.3,0,18.7,5.9,18.7,13.1S54.2,49.9,43.9,49.9z
			"/>
		<path class="st293" d="M43.9,49.6c-10.1,0-18.2-5.7-18.2-12.8c0-7,8.2-12.8,18.2-12.8c10.1,0,18.2,5.7,18.2,12.8
			C62.1,43.9,54,49.6,43.9,49.6z"/>
		<ellipse class="st292" cx="43.9" cy="36.8" rx="17.8" ry="12.5"/>
		<path class="st291" d="M43.9,49c-9.6,0-17.4-5.4-17.4-12.1c0-6.7,7.8-12.1,17.4-12.1c9.6,0,17.4,5.4,17.4,12.1
			C61.2,43.5,53.5,49,43.9,49z"/>
		<ellipse class="st290" cx="43.9" cy="36.8" rx="16.9" ry="11.8"/>
		<ellipse class="st289" cx="43.9" cy="36.8" rx="16.5" ry="11.5"/>
		<ellipse class="st288" cx="43.9" cy="36.8" rx="16" ry="11.2"/>
		<ellipse class="st287" cx="43.9" cy="36.8" rx="15.6" ry="10.9"/>
		<ellipse class="st286" cx="43.9" cy="36.8" rx="15.1" ry="10.6"/>
		<ellipse class="st285" cx="43.9" cy="36.8" rx="14.7" ry="10.3"/>
		<ellipse class="st284" cx="43.9" cy="36.8" rx="14.2" ry="10"/>
		<ellipse class="st283" cx="43.9" cy="36.8" rx="13.8" ry="9.7"/>
		<path class="st282" d="M43.9,46.2c-7.4,0-13.3-4.2-13.3-9.3c0-5.2,6-9.3,13.3-9.3c7.4,0,13.3,4.2,13.3,9.3
			C57.2,42,51.3,46.2,43.9,46.2z"/>
		<ellipse class="st281" cx="43.9" cy="36.8" rx="12.9" ry="9"/>
		<ellipse class="st280" cx="43.9" cy="36.8" rx="12.5" ry="8.7"/>
		<ellipse class="st279" cx="43.9" cy="36.8" rx="12" ry="8.4"/>
		<ellipse class="st278" cx="43.9" cy="36.8" rx="11.6" ry="8.1"/>
		<path class="st277" d="M43.9,44.6c-6.1,0-11.1-3.5-11.1-7.8c0-4.3,5-7.8,11.1-7.8c6.1,0,11.1,3.5,11.1,7.8
			C55,41.1,50,44.6,43.9,44.6z"/>
		<ellipse class="st276" cx="43.9" cy="36.8" rx="10.7" ry="7.5"/>
		<ellipse class="st275" cx="43.9" cy="36.8" rx="10.2" ry="7.2"/>
		<ellipse class="st274" cx="43.9" cy="36.8" rx="9.8" ry="6.8"/>
		<ellipse class="st273" cx="43.9" cy="36.8" rx="9.3" ry="6.5"/>
		<path class="st272" d="M43.9,43.1c-4.9,0-8.9-2.8-8.9-6.2c0-3.4,4-6.2,8.9-6.2c4.9,0,8.9,2.8,8.9,6.2
			C52.8,40.3,48.8,43.1,43.9,43.1z"/>
		<ellipse class="st271" cx="43.9" cy="36.8" rx="8.5" ry="5.9"/>
		<path class="st270" d="M43.9,42.4c-4.4,0-8-2.5-8-5.6s3.6-5.6,8-5.6c4.4,0,8,2.5,8,5.6S48.3,42.4,43.9,42.4z"/>
		<ellipse class="st269" cx="43.9" cy="36.8" rx="7.6" ry="5.3"/>
		<path class="st268" d="M43.9,41.8c-3.9,0-7.1-2.2-7.1-5c0-2.7,3.2-5,7.1-5c3.9,0,7.1,2.2,7.1,5C51,39.6,47.8,41.8,43.9,41.8z"/>
	</g>
</g>
<radialGradient id="SVGID_15_" cx="0.7756" cy="269.5007" r="32.7982" gradientTransform="matrix(0.8909 0 0 0.7583 43.4493 -180.903)" gradientUnits="userSpaceOnUse">
	<stop  offset="0" style="stop-color:#F28C29"/>
	<stop  offset="0.4908" style="stop-color:#F5881F"/>
	<stop  offset="0.7698" style="stop-color:#E67E25"/>
	<stop  offset="0.9218" style="stop-color:#CA6127"/>
</radialGradient>
<path class="st297" d="M61.8,33.5c0,8.3-7.9,15-17.6,15c-9.7,0-17.6-6.7-17.6-15c0-8.3,7.9-14.9,17.6-14.9
	C54,18.5,61.8,25.2,61.8,33.5z"/>
<linearGradient id="SVGID_16_" gradientUnits="userSpaceOnUse" x1="44.2571" y1="34.6647" x2="44.2571" y2="19.4438">
	<stop  offset="0" style="stop-color:#F69122"/>
	<stop  offset="1" style="stop-color:#FCBD62"/>
</linearGradient>
<path class="st298" d="M57,27.1c0,4.2-5.7,7.6-12.7,7.6c-7,0-12.7-3.4-12.7-7.6c0-4.2,5.7-7.6,12.7-7.6C51.3,19.4,57,22.9,57,27.1z"
	/>
</svg>
