<?xml version="1.0" encoding="utf-8"?>
<!-- Generator: Adobe Illustrator 19.1.0, SVG Export Plug-In . SVG Version: 6.00 Build 0)  -->
<!DOCTYPE svg PUBLIC "-//W3C//DTD SVG 1.1//EN" "http://www.w3.org/Graphics/SVG/1.1/DTD/svg11.dtd" [
	<!ENTITY ns_extend "http://ns.adobe.com/Extensibility/1.0/">
	<!ENTITY ns_ai "http://ns.adobe.com/AdobeIllustrator/10.0/">
	<!ENTITY ns_graphs "http://ns.adobe.com/Graphs/1.0/">
	<!ENTITY ns_vars "http://ns.adobe.com/Variables/1.0/">
	<!ENTITY ns_imrep "http://ns.adobe.com/ImageReplacement/1.0/">
	<!ENTITY ns_sfw "http://ns.adobe.com/SaveForWeb/1.0/">
	<!ENTITY ns_custom "http://ns.adobe.com/GenericCustomNamespace/1.0/">
	<!ENTITY ns_adobe_xpath "http://ns.adobe.com/XPath/1.0/">
]>
<svg version="1.1" id="Layer_1" xmlns:x="&ns_extend;" xmlns:i="&ns_ai;" xmlns:graph="&ns_graphs;"
	 xmlns="http://www.w3.org/2000/svg" xmlns:xlink="http://www.w3.org/1999/xlink" x="0px" y="0px" viewBox="-111 55 88 92"
	 style="enable-background:new -111 55 88 92;" xml:space="preserve">
<style type="text/css">
	.st0{opacity:0.28;}
	.st1{fill:#FFFFFF;}
	.st2{fill:#F7F7F7;}
	.st3{fill:#EFEFEF;}
	.st4{fill:#E6E6E6;}
	.st5{fill:#DEDEDE;}
	.st6{fill:#D6D6D6;}
	.st7{fill:#CECECE;}
	.st8{fill:#C5C5C5;}
	.st9{fill:#BDBDBD;}
	.st10{fill:#B5B5B5;}
	.st11{fill:#ADADAD;}
	.st12{fill:#A5A5A5;}
	.st13{fill:#9C9C9C;}
	.st14{fill:#949494;}
	.st15{fill:#8C8C8C;}
	.st16{fill:#848484;}
	.st17{fill:#7B7B7B;}
	.st18{fill:#737373;}
	.st19{fill:#6B6B6B;}
	.st20{fill:#636363;}
	.st21{fill:#5A5A5A;}
	.st22{fill:#525252;}
	.st23{fill:#4A4A4A;}
	.st24{fill:#424242;}
	.st25{fill:#3A3A3A;}
	.st26{fill:#313131;}
	.st27{fill:#292929;}
	.st28{fill:#212121;}
	.st29{fill:#191919;}
	.st30{fill:#101010;}
	.st31{fill:#080808;}
	.st32{fill:url(#SVGID_1_);}
	.st33{clip-path:url(#SVGID_3_);fill:#FFFFFF;}
</style>
<metadata>
	<sfw  xmlns="&ns_sfw;">
		<slices></slices>
		<sliceSourceBounds  width="88" height="87.9" x="0" y="0" bottomLeftOrigin="true"></sliceSourceBounds>
	</sfw>
</metadata>
<g>
	<g class="st0">
		<path class="st1" d="M-88.1,147c-12.6,0-22.9-10.3-22.9-22.9v-42c0-12.6,10.3-22.9,22.9-22.9h42.1c12.6,0,22.9,10.3,22.9,22.9v42
			c0,12.6-10.3,22.9-22.9,22.9H-88.1z"/>
		<path class="st2" d="M-88.1,146.8c-12.5,0-22.7-10.2-22.7-22.7v-42c0-12.5,10.2-22.7,22.7-22.7h42.1c12.5,0,22.7,10.2,22.7,22.7
			v42c0,12.5-10.2,22.7-22.7,22.7H-88.1z"/>
		<path class="st3" d="M-88.1,146.6c-12.4,0-22.5-10.1-22.5-22.5v-42c0-12.4,10.1-22.5,22.5-22.5h42.1c12.4,0,22.5,10.1,22.5,22.5
			v42c0,12.4-10.1,22.5-22.5,22.5H-88.1z"/>
		<path class="st4" d="M-88.1,146.4c-12.3,0-22.3-10-22.3-22.3v-42c0-12.3,10-22.3,22.3-22.3h42.1c12.3,0,22.3,10,22.3,22.3v42
			c0,12.3-10,22.3-22.3,22.3H-88.1z"/>
		<path class="st5" d="M-88.1,146.2c-12.2,0-22.1-9.9-22.1-22.1v-42c0-12.2,9.9-22.1,22.1-22.1h42.1c12.2,0,22.1,9.9,22.1,22.1v42
			c0,12.2-9.9,22.1-22.1,22.1H-88.1z"/>
		<path class="st6" d="M-88.1,146c-12.1,0-21.9-9.8-21.9-21.9v-42c0-12.1,9.8-21.9,21.9-21.9h42.1C-33.9,60.2-24,70-24,82.1v42
			c0,12.1-9.8,21.9-21.9,21.9H-88.1z"/>
		<path class="st7" d="M-88.1,145.8c-12,0-21.7-9.7-21.7-21.7v-42c0-12,9.7-21.7,21.7-21.7h42.1c12,0,21.7,9.7,21.7,21.7v42
			c0,12-9.7,21.7-21.7,21.7H-88.1z"/>
		<path class="st8" d="M-88.1,145.6c-11.9,0-21.5-9.6-21.5-21.5v-42c0-11.9,9.6-21.5,21.5-21.5h42.1c11.9,0,21.5,9.6,21.5,21.5v42
			c0,11.8-9.6,21.5-21.5,21.5H-88.1z"/>
		<path class="st9" d="M-88.1,145.4c-11.7,0-21.3-9.5-21.3-21.3v-42c0-11.7,9.5-21.3,21.3-21.3h42.1c11.7,0,21.3,9.5,21.3,21.3v42
			c0,11.7-9.5,21.3-21.3,21.3H-88.1z"/>
		<path class="st10" d="M-88.1,145.1c-11.6,0-21.1-9.4-21.1-21.1v-42c0-11.6,9.4-21.1,21.1-21.1h42.1c11.6,0,21.1,9.4,21.1,21.1v42
			c0,11.6-9.4,21.1-21.1,21.1H-88.1z"/>
		<path class="st11" d="M-88.1,144.9c-11.5,0-20.9-9.4-20.9-20.9v-42c0-11.5,9.4-20.9,20.9-20.9h42.1c11.5,0,20.9,9.4,20.9,20.9v42
			c0,11.5-9.4,20.9-20.9,20.9H-88.1z"/>
		<path class="st12" d="M-88.1,144.7c-11.4,0-20.7-9.3-20.7-20.7v-42c0-11.4,9.3-20.7,20.7-20.7h42.1c11.4,0,20.7,9.3,20.7,20.7v42
			c0,11.4-9.3,20.7-20.7,20.7H-88.1z"/>
		<path class="st13" d="M-88.1,144.5c-11.3,0-20.5-9.2-20.5-20.5v-42c0-11.3,9.2-20.5,20.5-20.5h42.1c11.3,0,20.5,9.2,20.5,20.5v42
			c0,11.3-9.2,20.5-20.5,20.5H-88.1z"/>
		<path class="st14" d="M-88.1,144.3c-11.2,0-20.3-9.1-20.3-20.2v-42c0-11.2,9.1-20.3,20.3-20.3h42.1c11.2,0,20.3,9.1,20.3,20.3v42
			c0,11.2-9.1,20.2-20.3,20.2H-88.1z"/>
		<path class="st15" d="M-88.1,144.1c-11.1,0-20-9-20-20v-42c0-11.1,9-20,20-20h42.1c11.1,0,20,9,20,20v42c0,11.1-9,20-20,20H-88.1z
			"/>
		<path class="st16" d="M-88.1,143.9c-10.9,0-19.8-8.9-19.8-19.8v-42c0-10.9,8.9-19.8,19.8-19.8h42.1c11,0,19.8,8.9,19.8,19.8v42
			c0,10.9-8.9,19.8-19.8,19.8H-88.1z"/>
		<path class="st17" d="M-88.1,143.7c-10.8,0-19.6-8.8-19.6-19.6v-42c0-10.8,8.8-19.6,19.6-19.6h42.1c10.8,0,19.6,8.8,19.6,19.6v42
			c0,10.8-8.8,19.6-19.6,19.6H-88.1z"/>
		<path class="st18" d="M-88.1,143.5c-10.7,0-19.4-8.7-19.4-19.4v-42c0-10.7,8.7-19.4,19.4-19.4h42.1c10.7,0,19.4,8.7,19.4,19.4v42
			c0,10.7-8.7,19.4-19.4,19.4H-88.1z"/>
		<path class="st19" d="M-88.1,143.3c-10.6,0-19.2-8.6-19.2-19.2v-42c0-10.6,8.6-19.2,19.2-19.2h42.1c10.6,0,19.2,8.6,19.2,19.2v42
			c0,10.6-8.6,19.2-19.2,19.2H-88.1z"/>
		<path class="st20" d="M-88.1,143.1c-10.5,0-19-8.5-19-19v-42c0-10.5,8.5-19,19-19h42.1c10.5,0,19,8.5,19,19v42
			c0,10.5-8.5,19-19,19H-88.1z"/>
		<path class="st21" d="M-88.1,142.9c-10.4,0-18.8-8.4-18.8-18.8v-42c0-10.4,8.4-18.8,18.8-18.8h42.1c10.4,0,18.8,8.4,18.8,18.8v42
			c0,10.4-8.4,18.8-18.8,18.8H-88.1z"/>
		<path class="st22" d="M-88.1,142.7c-10.3,0-18.6-8.3-18.6-18.6v-42c0-10.3,8.3-18.6,18.6-18.6h42.1c10.3,0,18.6,8.3,18.6,18.6v42
			c0,10.3-8.3,18.6-18.6,18.6H-88.1z"/>
		<path class="st23" d="M-88.1,142.5c-10.2,0-18.4-8.2-18.4-18.4v-42c0-10.2,8.2-18.4,18.4-18.4h42.1c10.2,0,18.4,8.2,18.4,18.4v42
			c0,10.2-8.2,18.4-18.4,18.4H-88.1z"/>
		<path class="st24" d="M-88.1,142.3c-10,0-18.2-8.1-18.2-18.2v-42c0-10,8.1-18.2,18.2-18.2h42.1c10,0,18.2,8.1,18.2,18.2v42
			c0,10-8.1,18.2-18.2,18.2H-88.1z"/>
		<path class="st25" d="M-88.1,142.1c-9.9,0-18-8.1-18-18v-42c0-9.9,8.1-18,18-18h42.1c9.9,0,18,8.1,18,18v42c0,9.9-8.1,18-18,18
			H-88.1z"/>
		<path class="st26" d="M-88.1,141.9c-9.8,0-17.8-8-17.8-17.8v-42c0-9.8,8-17.8,17.8-17.8h42.1c9.8,0,17.8,8,17.8,17.8v42
			c0,9.8-8,17.8-17.8,17.8H-88.1z"/>
		<path class="st27" d="M-88.1,141.6c-9.7,0-17.6-7.9-17.6-17.6v-42c0-9.7,7.9-17.6,17.6-17.6h42.1c9.7,0,17.6,7.9,17.6,17.6v42
			c0,9.7-7.9,17.6-17.6,17.6H-88.1z"/>
		<path class="st28" d="M-88.1,141.4c-9.6,0-17.4-7.8-17.4-17.4v-42c0-9.6,7.8-17.4,17.4-17.4h42.1c9.6,0,17.4,7.8,17.4,17.4v42
			c0,9.6-7.8,17.4-17.4,17.4H-88.1z"/>
		<path class="st29" d="M-88.1,141.2c-9.5,0-17.2-7.7-17.2-17.2v-42c0-9.5,7.7-17.2,17.2-17.2h42.1c9.5,0,17.2,7.7,17.2,17.2v42
			c0,9.5-7.7,17.2-17.2,17.2H-88.1z"/>
		<path class="st30" d="M-88.1,141c-9.4,0-17-7.6-17-17v-42c0-9.4,7.6-17,17-17h42.1c9.4,0,17,7.6,17,17v42c0,9.4-7.6,17-17,17
			H-88.1z"/>
		<path class="st31" d="M-88.1,140.8c-9.3,0-16.8-7.5-16.8-16.7v-42c0-9.3,7.5-16.8,16.8-16.8h42.1c9.3,0,16.8,7.5,16.8,16.8v42
			c0,9.2-7.5,16.7-16.8,16.7H-88.1z"/>
		<path d="M-29.4,124.1c0,9.1-7.4,16.5-16.5,16.5h-42.1c-9.1,0-16.5-7.4-16.5-16.5v-42c0-9.1,7.4-16.5,16.5-16.5h42.1
			c9.1,0,16.5,7.4,16.5,16.5V124.1z"/>
	</g>
	<g>
		<linearGradient id="SVGID_1_" gradientUnits="userSpaceOnUse" x1="-67.0016" y1="140.0001" x2="-67.0016" y2="59.8603">
			<stop  offset="0" style="stop-color:#5C892A"/>
			<stop  offset="0.34" style="stop-color:#81A62E"/>
			<stop  offset="0.7758" style="stop-color:#AAC731"/>
			<stop  offset="1" style="stop-color:#BAD433"/>
		</linearGradient>
		<path class="st32" d="M-26.9,122.3c0,9.7-7.9,17.7-17.7,17.7h-45c-9.8,0-17.7-7.9-17.7-17.7V77.5c0-9.8,7.9-17.7,17.7-17.7h45
			c9.7,0,17.7,7.9,17.7,17.7V122.3z"/>
	</g>
</g>
<g>
	<defs>
		<rect id="SVGID_2_" x="-96.8" y="105" width="69.9" height="25"/>
	</defs>
	<clipPath id="SVGID_3_">
		<use xlink:href="#SVGID_2_"  style="overflow:visible;"/>
	</clipPath>
	<path class="st33" d="M-31.2,121.2c0,2.7-2,4.8-4.4,4.8s-4.4-2.2-4.4-4.8c0-2.7,2-4.9,4.4-4.9S-31.2,118.4-31.2,121.2 M-26.9,121.2
		c0-5.1-3.6-8.9-8.1-8.9c-2,0-3.7,0.7-5,2V105h-4.4v24.6h4.2v-1.8c1.3,1.4,3.1,2.2,5.2,2.2C-30.5,130-26.9,126.2-26.9,121.2
		 M-55.6,125.3c-0.9,0.6-2,0.9-3.4,0.9c-2.4,0-4.2-1.5-4.2-3.4c0-1.3,0.6-2.6,2.6-3.8L-55.6,125.3z M-60.7,111.5
		c0-1.1,0.7-1.8,1.7-1.8c1,0,1.7,0.7,1.7,1.6c0,1.1-0.7,2-2.1,2.8l-0.2-0.3C-60.3,113.1-60.7,112.4-60.7,111.5 M-52.2,129.7h5.1
		l-3.2-4.1c1.2-2,1.7-4.7,1.6-7.5h-3.9c0.1,1.6,0,2.9-0.4,4.1l-4.1-5.2c2.1-1.2,3.7-3,3.7-5.4c0-3.1-2.3-5.5-5.6-5.5
		c-3.3,0-5.7,2.4-5.7,5.6c0,1.4,0.5,2.9,1.6,4.2l0.2,0.2c-2.2,1.3-4.5,3.5-4.5,6.7c0,4.2,3.7,7.3,8.3,7.3c2.5,0,4.4-0.6,5.9-1.6
		L-52.2,129.7z M-70.7,119.7c0-4.5-2.6-7.5-7.2-7.5c-2.2,0-4,0.9-5.2,2.4c-1.2-1.5-3-2.4-5.1-2.4c-1.9,0-3.3,0.8-4.4,2.1v-1.7h-4.2
		v17h4.4v-10c0-1.9,1.4-3.4,3.3-3.4c2.9,0,3.2,2.4,3.2,3.4v10h4.4v-10c0-1.9,1.4-3.4,3.3-3.4c2.8,0,3.2,2.4,3.2,3.4v10h4.4V119.7z"
		/>
</g>
</svg>
