<?xml version="1.0" encoding="utf-8"?>
<!-- Generator: Adobe Illustrator 26.2.1, SVG Export Plug-In . SVG Version: 6.00 Build 0)  -->
<svg version="1.1" id="Layer_1" xmlns="http://www.w3.org/2000/svg" xmlns:xlink="http://www.w3.org/1999/xlink" x="0px" y="0px"
	 viewBox="0 0 88 92" style="enable-background:new 0 0 88 92;" xml:space="preserve">
<style type="text/css">
	.st0{opacity:0.28;}
	.st1{fill:#FFFFFF;}
	.st2{fill:#F7F7F7;}
	.st3{fill:#EFEFEF;}
	.st4{fill:#E6E6E6;}
	.st5{fill:#DEDEDE;}
	.st6{fill:#D6D6D6;}
	.st7{fill:#CECECE;}
	.st8{fill:#C5C5C5;}
	.st9{fill:#BDBDBD;}
	.st10{fill:#B5B5B5;}
	.st11{fill:#ADADAD;}
	.st12{fill:#A5A5A5;}
	.st13{fill:#9C9C9C;}
	.st14{fill:#949494;}
	.st15{fill:#8C8C8C;}
	.st16{fill:#848484;}
	.st17{fill:#7B7B7B;}
	.st18{fill:#737373;}
	.st19{fill:#6B6B6B;}
	.st20{fill:#636363;}
	.st21{fill:#5A5A5A;}
	.st22{fill:#525252;}
	.st23{fill:#4A4A4A;}
	.st24{fill:#424242;}
	.st25{fill:#3A3A3A;}
	.st26{fill:#313131;}
	.st27{fill:#292929;}
	.st28{fill:#212121;}
	.st29{fill:#191919;}
	.st30{fill:#080808;}
	.st31{fill:url(#SVGID_1_);}
	.st32{fill:#3A3732;}
	.st33{fill:#EFE0CA;}
	.st34{fill:#4F4C49;}
	.st35{fill:#174A6E;}
</style>
<g>
	<g id="a">
		<g class="st0">
			<path class="st1" d="M22.9,92.2C10.3,92.2,0,81.9,0,69.3V27.4C0,14.8,10.3,4.6,22.9,4.6h42c12.6,0,22.9,10.3,22.9,22.9v41.9
				c0,12.6-10.3,22.9-22.9,22.9L22.9,92.2L22.9,92.2z"/>
			<path class="st2" d="M22.9,92C10.4,92,0.2,81.8,0.2,69.3V27.4c0-12.5,10.2-22.7,22.7-22.7h42c12.5,0,22.7,10.2,22.7,22.7v41.9
				C87.5,81.8,77.4,92,64.9,92H22.9z"/>
			<path class="st3" d="M22.9,91.8c-12.4,0-22.5-10.1-22.5-22.4V27.4C0.4,15.1,10.5,5,22.9,5h42c12.4,0,22.5,10.1,22.5,22.5v41.9
				c0,12.4-10.1,22.4-22.5,22.4H22.9z"/>
			<path class="st4" d="M22.9,91.6c-12.3,0-22.2-10-22.2-22.2V27.4c0-12.3,10-22.2,22.2-22.2h42c12.3,0,22.2,10,22.2,22.2v41.9
				c0,12.3-10,22.2-22.2,22.2H22.9z"/>
			<path class="st5" d="M22.9,91.4c-12.2,0-22-9.9-22-22V27.4c0-12.2,9.9-22,22-22h42c12.2,0,22,9.9,22,22v41.9c0,12.2-9.9,22-22,22
				L22.9,91.4L22.9,91.4z"/>
			<path class="st6" d="M22.9,91.1C10.8,91.1,1,81.4,1,69.3V27.4c0-12,9.8-21.8,21.8-21.8h42c12,0,21.8,9.8,21.8,21.8v41.9
				c0,12-9.8,21.8-21.8,21.8L22.9,91.1L22.9,91.1z"/>
			<path class="st7" d="M22.9,90.9c-11.9,0-21.6-9.7-21.6-21.6V27.4c0-11.9,9.7-21.6,21.6-21.6h42c11.9,0,21.6,9.7,21.6,21.6v41.9
				c0,11.9-9.7,21.6-21.6,21.6L22.9,90.9L22.9,90.9z"/>
			<path class="st8" d="M22.9,90.7C11,90.7,1.4,81.1,1.4,69.3V27.4C1.4,15.6,11,6,22.9,6h42c11.8,0,21.4,9.6,21.4,21.4v41.9
				c0,11.8-9.6,21.4-21.4,21.4H22.9z"/>
			<path class="st9" d="M22.9,90.5C11.2,90.5,1.6,81,1.6,69.3V27.4c0-11.7,9.5-21.2,21.2-21.2h42c11.7,0,21.2,9.5,21.2,21.2v41.9
				c0,11.7-9.5,21.2-21.2,21.2H22.9z"/>
			<path class="st10" d="M22.9,90.3c-11.6,0-21-9.4-21-21V27.4c0-11.6,9.4-21,21-21h42c11.6,0,21,9.4,21,21v41.9
				c0,11.6-9.4,21-21,21H22.9z"/>
			<path class="st11" d="M22.9,90.1c-11.5,0-20.8-9.3-20.8-20.8V27.4C2.1,16,11.4,6.6,22.9,6.6h42c11.5,0,20.8,9.3,20.8,20.8v41.9
				c0,11.5-9.3,20.8-20.8,20.8L22.9,90.1L22.9,90.1z"/>
			<path class="st12" d="M22.9,89.9c-11.4,0-20.6-9.2-20.6-20.6V27.4c0-11.4,9.2-20.6,20.6-20.6h42c11.4,0,20.6,9.2,20.6,20.6v41.9
				c0,11.4-9.2,20.6-20.6,20.6L22.9,89.9L22.9,89.9z"/>
			<path class="st13" d="M22.9,89.7c-11.3,0-20.4-9.1-20.4-20.4V27.4C2.5,16.2,11.6,7,22.9,7h42c11.3,0,20.4,9.1,20.4,20.4v41.9
				c0,11.2-9.1,20.4-20.4,20.4L22.9,89.7L22.9,89.7z"/>
			<path class="st14" d="M22.9,89.5c-11.1,0-20.2-9-20.2-20.2V27.4c0-11.1,9.1-20.2,20.2-20.2h42c11.1,0,20.2,9,20.2,20.2v41.9
				c0,11.1-9.1,20.2-20.2,20.2H22.9z"/>
			<path class="st15" d="M22.9,89.3c-11,0-20-9-20-20V27.4c0-11,9-20,20-20h42c11,0,20,9,20,20v41.9c0,11-9,20-20,20H22.9z"/>
			<path class="st16" d="M22.9,89.1c-10.9,0-19.8-8.9-19.8-19.8V27.4c0-10.9,8.9-19.8,19.8-19.8h42c10.9,0,19.8,8.9,19.8,19.8v41.9
				c0,10.9-8.9,19.8-19.8,19.8L22.9,89.1L22.9,89.1z"/>
			<path class="st17" d="M22.9,88.9c-10.8,0-19.6-8.8-19.6-19.6V27.4c0-10.8,8.8-19.6,19.6-19.6h42c10.8,0,19.6,8.8,19.6,19.6v41.9
				c0,10.8-8.8,19.6-19.6,19.6L22.9,88.9L22.9,88.9z"/>
			<path class="st18" d="M22.9,88.7C12.2,88.7,3.5,80,3.5,69.3V27.4c0-10.7,8.7-19.4,19.4-19.4h42c10.7,0,19.4,8.7,19.4,19.4v41.9
				c0,10.7-8.7,19.4-19.4,19.4L22.9,88.7L22.9,88.7z"/>
			<path class="st19" d="M22.9,88.5c-10.6,0-19.2-8.6-19.2-19.2V27.4c0-10.6,8.6-19.2,19.2-19.2h42C75.4,8.3,84,16.9,84,27.4v41.9
				c0,10.6-8.6,19.2-19.2,19.2L22.9,88.5L22.9,88.5z"/>
			<path class="st20" d="M22.9,88.3c-10.5,0-19-8.5-19-19V27.4c0-10.5,8.5-19,19-19h42c10.5,0,19,8.5,19,19v41.9
				c0,10.5-8.5,19-19,19H22.9z"/>
			<path class="st21" d="M22.9,88.1c-10.4,0-18.8-8.4-18.8-18.7V27.4c0-10.4,8.4-18.8,18.8-18.8h42c10.4,0,18.8,8.4,18.8,18.8v41.9
				c0,10.3-8.4,18.7-18.8,18.7L22.9,88.1L22.9,88.1z"/>
			<path class="st22" d="M22.9,87.9c-10.2,0-18.6-8.3-18.6-18.5V27.4c0-10.2,8.3-18.6,18.6-18.6h42c10.2,0,18.6,8.3,18.6,18.6v41.9
				c0,10.2-8.3,18.5-18.6,18.5L22.9,87.9L22.9,87.9z"/>
			<path class="st23" d="M22.9,87.7c-10.1,0-18.3-8.2-18.3-18.3V27.4c0-10.1,8.2-18.3,18.3-18.3h42c10.1,0,18.3,8.2,18.3,18.3v41.9
				c0,10.1-8.2,18.3-18.3,18.3L22.9,87.7L22.9,87.7z"/>
			<path class="st24" d="M22.9,87.4c-10,0-18.1-8.1-18.1-18.1V27.4c0-10,8.1-18.1,18.1-18.1h42c10,0,18.1,8.1,18.1,18.1v41.9
				c0,10-8.1,18.1-18.1,18.1H22.9z"/>
			<path class="st25" d="M22.9,87.2c-9.9,0-17.9-8-17.9-17.9V27.4c0-9.9,8-17.9,17.9-17.9h42c9.9,0,17.9,8,17.9,17.9v41.9
				c0,9.9-8,17.9-17.9,17.9H22.9z"/>
			<path class="st26" d="M22.9,87c-9.8,0-17.7-7.9-17.7-17.7V27.4c0-9.8,7.9-17.7,17.7-17.7h42c9.8,0,17.7,7.9,17.7,17.7v41.9
				c0,9.8-7.9,17.7-17.7,17.7H22.9z"/>
			<path class="st27" d="M22.9,86.8c-9.7,0-17.5-7.8-17.5-17.5V27.4c0-9.7,7.8-17.5,17.5-17.5h42c9.7,0,17.5,7.8,17.5,17.5v41.9
				c0,9.7-7.8,17.5-17.5,17.5L22.9,86.8L22.9,86.8z"/>
			<path class="st28" d="M22.9,86.6c-9.6,0-17.3-7.8-17.3-17.3V27.4c0-9.6,7.8-17.3,17.3-17.3h42c9.6,0,17.3,7.8,17.3,17.3v41.9
				c0,9.6-7.8,17.3-17.3,17.3L22.9,86.6L22.9,86.6z"/>
			<path class="st29" d="M22.9,86.4c-9.4,0-17.1-7.7-17.1-17.1V27.4c0-9.5,7.7-17.1,17.1-17.1h42C74.3,10.3,82,18,82,27.4v41.9
				c0,9.4-7.7,17.1-17.1,17.1H22.9z"/>
			<path d="M22.9,86.2C13.5,86.2,6,78.7,6,69.3V27.4c0-9.3,7.6-16.9,16.9-16.9h42c9.3,0,16.9,7.6,16.9,16.9v41.9
				c0,9.3-7.6,16.9-16.9,16.9H22.9z"/>
			<path class="st30" d="M22.9,86c-9.2,0-16.7-7.5-16.7-16.7V27.4c0-9.2,7.5-16.7,16.7-16.7h42c9.2,0,16.7,7.5,16.7,16.7v41.9
				c0,9.2-7.5,16.7-16.7,16.7H22.9z"/>
			<path d="M81.4,69.3c0,9.1-7.4,16.5-16.5,16.5h-42c-9.1,0-16.5-7.4-16.5-16.5V27.4c0-9.1,7.4-16.5,16.5-16.5h42
				c9.1,0,16.5,7.4,16.5,16.5L81.4,69.3L81.4,69.3z"/>
		</g>
		
			<linearGradient id="SVGID_1_" gradientUnits="userSpaceOnUse" x1="43.7083" y1="8.8082" x2="43.7083" y2="88.6978" gradientTransform="matrix(1 0 0 -1 0 94)">
			<stop  offset="0" style="stop-color:#3E93A1"/>
			<stop  offset="0.13" style="stop-color:#479DAA"/>
			<stop  offset="0.71" style="stop-color:#6EC7D0"/>
			<stop  offset="1" style="stop-color:#7DD7DF"/>
		</linearGradient>
		<path class="st31" d="M83.7,67.6c0,9.7-7.9,17.6-17.6,17.6H21.3c-9.7,0-17.6-7.9-17.6-17.6V22.9c0-9.7,7.9-17.6,17.6-17.6h44.8
			c9.7,0,17.6,7.9,17.6,17.6V67.6z"/>
		<g>
			<path class="st32" d="M32.1,12.1h23.6c2.7,0,4.9,2.2,4.9,4.9v55c0,2.7-2.2,4.9-4.9,4.9H32.1c-2.7,0-4.9-2.2-4.9-4.9v-55
				C27.2,14.3,29.4,12.1,32.1,12.1L32.1,12.1z"/>
			<rect x="29.9" y="23.3" class="st1" width="27.8" height="42.2"/>
			<path class="st33" d="M41.2,18.4c-0.3,0-0.5-0.3-0.5-0.5s0.2-0.5,0.5-0.5h5.6c0.3,0,0.5,0.3,0.5,0.5s-0.2,0.5-0.5,0.5
				C46.7,18.4,41.2,18.4,41.2,18.4z"/>
			<circle class="st34" cx="43.9" cy="71" r="2.9"/>
		</g>
		<g id="c">
			<g>
				<path class="st35" d="M38.6,36.5c0-0.6,0-1.2,0-1.7c0-0.7,0.3-1,0.9-1c2.9,0,5.9,0,8.8,0c0.6,0,0.9,0.3,0.9,0.9
					c0,0.6,0,1.1,0,1.7c0.2,0,0.4,0,0.6,0c0.9,0,1.8,0,2.7,0c1,0,1.4,0.4,1.4,1.4c0,4,0,8,0,12c0,1-0.5,1.4-1.4,1.4
					c-3.6,0-7.2,0-10.8,0c-0.5,0-0.9,0.1-1.2,0.5c-0.6,0.7-1.3,1.3-1.9,1.9c-0.1,0.1-0.2,0.1-0.3,0.3v-2.6c-0.2,0-0.4,0-0.6,0
					c-0.8,0-1.7,0-2.5,0c-0.8,0-1.3-0.5-1.3-1.3c0-4.1,0-8.2,0-12.2c0-0.8,0.5-1.2,1.3-1.3c0.9,0,1.9,0,2.8,0
					C38.2,36.5,38.4,36.5,38.6,36.5L38.6,36.5z M52.4,38.1H35.5v11.6h16.9V38.1z M47.7,35.3h-7.5v1.1h7.5V35.3z"/>
				<path class="st35" d="M42.4,46.2c0.9-1.1,1.7-2.2,2.6-3.3c0.6-0.8,1.3-1.7,1.9-2.5c0.5-0.6,1.2-0.5,1.5,0.1
					c0.1,0.3,0.1,0.7-0.1,0.9c-1.7,2.3-3.4,4.5-5.2,6.7c-0.5,0.6-1.1,0.6-1.5,0c-0.7-0.9-1.4-1.9-2.2-2.8c-0.4-0.5-0.3-1,0.1-1.3
					c0.4-0.3,1-0.2,1.3,0.2C41.4,44.9,41.9,45.5,42.4,46.2z"/>
			</g>
		</g>
	</g>
</g>
</svg>
