<?xml version="1.0" encoding="UTF-8"?><svg xmlns="http://www.w3.org/2000/svg" xmlns:xlink="http://www.w3.org/1999/xlink" viewBox="0 0 88 92"><defs><style>.c{fill:url(#b);}.d{fill:#f7f7f7;}.e{fill:#e6e6e6;}.f{fill:#fff;}.g{fill:#efefef;}.h{fill:#6b6b6b;}.i{fill:#9c9c9c;}.j{fill:#848484;}.k{fill:#b5b5b5;}.l{fill:#737373;}.m{fill:#8c8c8c;}.n{fill:#cecece;}.o{fill:#a5a5a5;}.p{fill:#bdbdbd;}.q{fill:#dedede;}.r{fill:#d6d6d6;}.s{fill:#adadad;}.t{fill:#c5c5c5;}.u{fill:#141029;}.v{fill:#212121;}.w{fill:#080808;}.x{fill:#101010;}.y{fill:#424242;}.a`{fill:#191919;}.aa{fill:#949494;}.ab{fill:#636363;}.ac{fill:#292929;}.ad{fill:#4a4a4a;}.ae{fill:#313131;}.af{fill:#3a3a3a;}.ag{fill:#5a5a5a;}.ah{fill:#525252;}.ai{fill:#7b7b7b;}.aj{isolation:isolate;}.ak{mix-blend-mode:multiply;opacity:.28;}</style><linearGradient id="b" x1="76.93" y1="-1.17" x2="-36.12" y2="160.24" gradientTransform="matrix(1, 0, 0, 1, 0, 0)" gradientUnits="userSpaceOnUse"><stop offset="0" stop-color="#39f0cf"/><stop offset=".08" stop-color="#2ed7c9"/><stop offset=".22" stop-color="#1eadbf"/><stop offset=".37" stop-color="#118db7"/><stop offset=".5" stop-color="#0775b2"/><stop offset=".63" stop-color="#0167af"/><stop offset=".74" stop-color="#0063ae"/></linearGradient></defs><g class="aj"><g id="a"><g><g class="ak"><path class="f" d="M22.93,91.58c-12.65,0-22.93-10.29-22.93-22.93V26.64C0,14,10.29,3.71,22.93,3.71h42.13c12.65,0,22.93,10.29,22.93,22.93v42.01c0,12.64-10.29,22.93-22.93,22.93H22.93Z"/><path class="d" d="M22.93,91.38C10.4,91.38,.21,81.18,.21,68.65V26.64C.21,14.11,10.4,3.92,22.93,3.92h42.13c12.53,0,22.73,10.19,22.73,22.72v42.01c0,12.53-10.19,22.72-22.73,22.72H22.93Z"/><path class="g" d="M22.93,4.12h42.13c12.43,0,22.52,10.09,22.52,22.52v42.01c0,12.43-10.09,22.52-22.52,22.52H22.93C10.5,91.17,.41,81.08,.41,68.65V26.65C.41,14.22,10.5,4.12,22.93,4.12Z"/><path class="e" d="M22.93,90.97c-12.31,0-22.32-10.01-22.32-22.31V26.64C.62,14.34,10.63,4.33,22.93,4.33h42.13c12.31,0,22.32,10.01,22.32,22.31v42.01c0,12.3-10.01,22.31-22.32,22.31H22.93Z"/><path class="q" d="M22.93,90.76c-12.19,0-22.11-9.92-22.11-22.11V26.64C.82,14.45,10.74,4.54,22.93,4.54h42.13c12.2,0,22.11,9.92,22.11,22.11v42.01c0,12.19-9.92,22.11-22.11,22.11H22.93Z"/><path class="r" d="M22.93,90.55c-12.08,0-21.9-9.82-21.9-21.9V26.64C1.03,14.56,10.85,4.74,22.93,4.74h42.13c12.08,0,21.9,9.82,21.9,21.9v42.01c0,12.08-9.82,21.9-21.9,21.9H22.93Z"/><path class="n" d="M22.93,90.35c-11.97,0-21.7-9.73-21.7-21.69V26.64C1.24,14.68,10.97,4.95,22.93,4.95h42.13c11.97,0,21.7,9.73,21.7,21.7v42.01c0,11.97-9.73,21.69-21.7,21.69H22.93Z"/><path class="t" d="M22.93,90.14c-11.86,0-21.49-9.64-21.49-21.49V26.64C1.44,14.79,11.08,5.15,22.93,5.15h42.13c11.86,0,21.49,9.64,21.49,21.49v42.01c0,11.85-9.64,21.49-21.49,21.49H22.93Z"/><path class="p" d="M22.93,89.94c-11.74,0-21.29-9.54-21.29-21.28V26.64C1.65,14.9,11.19,5.36,22.93,5.36h42.13c11.74,0,21.29,9.54,21.29,21.28v42.01c0,11.74-9.54,21.28-21.29,21.28H22.93Z"/><path class="k" d="M22.93,89.73c-11.63,0-21.08-9.45-21.08-21.08V26.64C1.85,15.02,11.31,5.57,22.93,5.57h42.13c11.63,0,21.08,9.45,21.08,21.08v42.01c0,11.63-9.45,21.08-21.08,21.08H22.93Z"/><path class="s" d="M22.93,89.52c-11.52,0-20.87-9.36-20.87-20.87V26.64C2.06,15.13,11.42,5.77,22.93,5.77h42.13c11.52,0,20.87,9.36,20.87,20.87v42.01c0,11.51-9.36,20.87-20.87,20.87H22.93Z"/><path class="o" d="M22.93,89.32c-11.4,0-20.67-9.26-20.67-20.66V26.64C2.27,15.24,11.53,5.98,22.93,5.98h42.13c11.4,0,20.67,9.27,20.67,20.67v42.01c0,11.4-9.26,20.66-20.67,20.66H22.93Z"/><path class="i" d="M22.93,89.11c-11.29,0-20.46-9.17-20.46-20.46V26.64C2.47,15.36,11.64,6.18,22.93,6.18h42.13c11.29,0,20.46,9.17,20.46,20.46v42.01c0,11.29-9.17,20.46-20.46,20.46H22.93Z"/><path class="aa" d="M22.93,88.91c-11.18,0-20.26-9.08-20.26-20.25V26.64C2.68,15.47,11.76,6.39,22.93,6.39h42.13c11.18,0,20.26,9.08,20.26,20.25v42.01c0,11.17-9.08,20.25-20.26,20.25H22.93Z"/><path class="m" d="M22.93,88.7c-11.06,0-20.05-8.99-20.05-20.05V26.64C2.88,15.58,11.87,6.59,22.93,6.59h42.13c11.06,0,20.05,8.99,20.05,20.05v42.01c0,11.06-8.99,20.05-20.05,20.05H22.93Z"/><path class="j" d="M22.93,88.49c-10.95,0-19.84-8.89-19.84-19.84V26.64C3.09,15.7,11.98,6.8,22.93,6.8h42.13c10.95,0,19.84,8.89,19.84,19.84v42.01c0,10.95-8.89,19.84-19.84,19.84H22.93Z"/><path class="ai" d="M22.93,88.29c-10.84,0-19.64-8.8-19.64-19.63V26.64C3.3,15.81,12.1,7.01,22.93,7.01h42.13c10.84,0,19.64,8.8,19.64,19.64v42.01c0,10.83-8.8,19.63-19.64,19.63H22.93Z"/><path class="l" d="M22.93,7.21h42.13c10.72,0,19.43,8.71,19.43,19.43v42.01c0,10.73-8.71,19.43-19.43,19.43H22.93c-10.73,0-19.43-8.71-19.43-19.43V26.64C3.5,15.92,12.21,7.21,22.93,7.21Z"/><path class="h" d="M22.93,7.42h42.13c10.61,0,19.22,8.61,19.22,19.22v42.01c0,10.61-8.61,19.22-19.22,19.22H22.93c-10.61,0-19.22-8.61-19.22-19.22V26.64C3.71,16.03,12.32,7.42,22.93,7.42Z"/><path class="ab" d="M22.93,7.62h42.13c10.5,0,19.02,8.52,19.02,19.02v42.01c0,10.5-8.52,19.02-19.02,19.02H22.93c-10.5,0-19.02-8.52-19.02-19.02V26.64C3.91,16.15,12.44,7.62,22.93,7.62Z"/><path class="ag" d="M22.93,87.46c-10.39,0-18.81-8.43-18.81-18.81V26.64C4.12,16.26,12.55,7.83,22.93,7.83h42.13c10.39,0,18.81,8.43,18.81,18.81v42.01c0,10.38-8.43,18.81-18.81,18.81H22.93Z"/><path class="ah" d="M22.93,87.26c-10.27,0-18.61-8.34-18.61-18.6V26.64c0-10.27,8.34-18.61,18.61-18.61h42.13c10.27,0,18.61,8.34,18.61,18.61v42.01c0,10.27-8.34,18.6-18.61,18.6H22.93Z"/><path class="ad" d="M22.93,87.05c-10.16,0-18.4-8.24-18.4-18.4V26.64c0-10.16,8.24-18.4,18.4-18.4h42.13c10.16,0,18.4,8.25,18.4,18.4v42.01c0,10.16-8.24,18.4-18.4,18.4H22.93Z"/><path class="y" d="M22.93,8.45h42.13c10.04,0,18.2,8.15,18.2,18.2v42.01c0,10.04-8.15,18.2-18.2,18.2H22.93c-10.04,0-18.19-8.15-18.19-18.19V26.64c0-10.04,8.15-18.2,18.2-18.2Z"/><path class="af" d="M22.93,86.64c-9.93,0-17.99-8.06-17.99-17.99V26.64c0-9.93,8.06-17.99,17.99-17.99h42.13c9.93,0,17.99,8.06,17.99,17.99v42.01c0,9.93-8.06,17.99-17.99,17.99H22.93Z"/><path class="ae" d="M22.93,86.43c-9.82,0-17.78-7.96-17.78-17.78V26.64c0-9.82,7.96-17.78,17.78-17.78h42.13c9.82,0,17.78,7.97,17.78,17.78v42.01c0,9.82-7.96,17.78-17.78,17.78H22.93Z"/><path class="ac" d="M22.93,86.23c-9.71,0-17.58-7.87-17.58-17.57V26.64c0-9.7,7.87-17.58,17.58-17.58h42.13c9.71,0,17.58,7.87,17.58,17.58v42.01c0,9.7-7.87,17.57-17.58,17.57H22.93Z"/><path class="v" d="M22.93,86.02c-9.59,0-17.37-7.78-17.37-17.37V26.64c0-9.59,7.78-17.37,17.37-17.37h42.13c9.59,0,17.37,7.78,17.37,17.37v42.01c0,9.59-7.78,17.37-17.37,17.37H22.93Z"/><path class="a`" d="M22.93,85.82c-9.48,0-17.17-7.68-17.17-17.16V26.64c0-9.48,7.68-17.17,17.17-17.17h42.13c9.48,0,17.17,7.69,17.17,17.17v42.01c0,9.48-7.68,17.16-17.17,17.16H22.93Z"/><path class="x" d="M22.93,85.61c-9.37,0-16.96-7.59-16.96-16.96V26.64c0-9.36,7.59-16.96,16.96-16.96h42.13c9.37,0,16.96,7.6,16.96,16.96v42.01c0,9.36-7.59,16.96-16.96,16.96H22.93Z"/><path class="w" d="M22.93,85.4c-9.26,0-16.75-7.5-16.75-16.75V26.64c0-9.25,7.5-16.75,16.75-16.75h42.13c9.26,0,16.75,7.5,16.75,16.75v42.01c0,9.25-7.5,16.75-16.75,16.75H22.93Z"/><path d="M81.61,68.65c0,9.14-7.41,16.54-16.55,16.54H22.93c-9.14,0-16.55-7.41-16.55-16.54V26.64c0-9.14,7.41-16.55,16.55-16.55h42.13c9.14,0,16.55,7.41,16.55,16.55v42.01Z"/></g><path class="u" d="M84.14,66.2c0,9.75-7.9,17.66-17.65,17.66H21.52c-9.75,0-17.65-7.91-17.65-17.66V21.37C3.86,11.62,11.77,3.71,21.52,3.71h44.97c9.75,0,17.65,7.9,17.65,17.65v44.83Z"/></g><path class="c" d="M46.54,59.36c6.95-1.18,12.27-7.24,12.27-14.53v-11.47c0-.74-.6-1.34-1.34-1.34s-1.34,.6-1.34,1.34v1.34h-1.28v-1.5c0-.4-.22-.76-.54-.95v-7.25c0-5.64-4.59-10.24-10.24-10.24s-10.24,4.59-10.24,10.24v7.25c-.32,.19-.54,.54-.54,.95v1.5h-1.28v-1.34c0-.74-.6-1.34-1.34-1.34s-1.34,.6-1.34,1.34v11.3c0,7.32,5.28,13.49,12.27,14.69v5.07h-4.12c-2.31,0-4.19,1.88-4.19,4.19h0c0,.38,.21,.71,.52,.87,.14,.08,.3,.12,.47,.12h19.57c.17,0,.33-.04,.47-.12,.31-.17,.52-.5,.52-.87h0s0-.07,0-.1c0-.03,0-.06,0-.09h0c-.1-2.22-1.94-3.99-4.18-3.99h-4.12v-5.07Zm-2.35-2.47c-6.7,.07-12.18-5.37-12.18-12.06v-9.16h1.28v1.5c0,.4,.22,.76,.54,.95v7.08c0,5.65,4.58,10.24,10.24,10.24s10.24-4.58,10.24-10.24v-7.08c.32-.19,.54-.54,.54-.95v-1.5h1.28v9c0,6.64-5.3,12.15-11.94,12.21Z"/></g></g></svg>