<svg xmlns="http://www.w3.org/2000/svg" xmlns:xlink="http://www.w3.org/1999/xlink" viewBox="0 0 88 92"><defs><style>.cls-1{isolation:isolate;}.cls-2{mix-blend-mode:multiply;opacity:0.28;}.cls-3{fill:#fff;}.cls-4{fill:#f7f7f7;}.cls-5{fill:#efefef;}.cls-6{fill:#e6e6e6;}.cls-7{fill:#dedede;}.cls-8{fill:#d6d6d6;}.cls-9{fill:#cecece;}.cls-10{fill:#c5c5c5;}.cls-11{fill:#bdbdbd;}.cls-12{fill:#b5b5b5;}.cls-13{fill:#adadad;}.cls-14{fill:#a5a5a5;}.cls-15{fill:#9c9c9c;}.cls-16{fill:#949494;}.cls-17{fill:#8c8c8c;}.cls-18{fill:#848484;}.cls-19{fill:#7b7b7b;}.cls-20{fill:#737373;}.cls-21{fill:#6b6b6b;}.cls-22{fill:#636363;}.cls-23{fill:#5a5a5a;}.cls-24{fill:#525252;}.cls-25{fill:#4a4a4a;}.cls-26{fill:#424242;}.cls-27{fill:#3a3a3a;}.cls-28{fill:#313131;}.cls-29{fill:#292929;}.cls-30{fill:#212121;}.cls-31{fill:#191919;}.cls-32{fill:#101010;}.cls-33{fill:#080808;}.cls-34{fill:url(#linear-gradient);}</style><linearGradient id="linear-gradient" x1="44" y1="3.71" x2="44" y2="83.85" gradientUnits="userSpaceOnUse"><stop offset="0" stop-color="#c1272d"/><stop offset="1" stop-color="#231f20"/></linearGradient></defs><g class="cls-1"><g id="Layer_1" data-name="Layer 1"><g class="cls-2"><path class="cls-3" d="M22.93,91.58A23,23,0,0,1,0,68.65v-42A23,23,0,0,1,22.93,3.71H65.07A23,23,0,0,1,88,26.64v42A23,23,0,0,1,65.07,91.58Z"/><path class="cls-4" d="M22.93,91.38A22.75,22.75,0,0,1,.21,68.65v-42A22.74,22.74,0,0,1,22.93,3.92H65.07A22.74,22.74,0,0,1,87.79,26.64v42A22.75,22.75,0,0,1,65.07,91.38Z"/><path class="cls-5" d="M22.93,91.17A22.54,22.54,0,0,1,.41,68.65v-42A22.55,22.55,0,0,1,22.93,4.12H65.07A22.55,22.55,0,0,1,87.59,26.64v42A22.54,22.54,0,0,1,65.07,91.17Z"/><path class="cls-6" d="M22.93,91A22.33,22.33,0,0,1,.62,68.65v-42A22.34,22.34,0,0,1,22.93,4.33H65.07A22.34,22.34,0,0,1,87.38,26.64v42A22.33,22.33,0,0,1,65.07,91Z"/><path class="cls-7" d="M22.93,90.76A22.14,22.14,0,0,1,.82,68.65v-42A22.13,22.13,0,0,1,22.93,4.54H65.07a22.13,22.13,0,0,1,22.11,22.1v42A22.14,22.14,0,0,1,65.07,90.76Z"/><path class="cls-8" d="M22.93,90.55A21.92,21.92,0,0,1,1,68.65v-42a21.92,21.92,0,0,1,21.9-21.9H65.07A21.92,21.92,0,0,1,87,26.64v42a21.92,21.92,0,0,1-21.9,21.9Z"/><path class="cls-9" d="M22.93,4.95H65.07a21.7,21.7,0,0,1,21.7,21.7v42a21.7,21.7,0,0,1-21.7,21.7H22.93A21.69,21.69,0,0,1,1.24,68.65v-42A21.7,21.7,0,0,1,22.93,4.95Z"/><path class="cls-10" d="M22.93,90.14A21.51,21.51,0,0,1,1.44,68.65v-42A21.51,21.51,0,0,1,22.93,5.15H65.07A21.51,21.51,0,0,1,86.56,26.64v42A21.51,21.51,0,0,1,65.07,90.14Z"/><path class="cls-11" d="M22.93,89.93A21.3,21.3,0,0,1,1.65,68.65v-42A21.3,21.3,0,0,1,22.93,5.36H65.07A21.3,21.3,0,0,1,86.35,26.64v42A21.3,21.3,0,0,1,65.07,89.93Z"/><path class="cls-12" d="M22.93,89.73A21.1,21.1,0,0,1,1.85,68.65v-42A21.1,21.1,0,0,1,22.93,5.57H65.07A21.09,21.09,0,0,1,86.15,26.64v42A21.1,21.1,0,0,1,65.07,89.73Z"/><rect class="cls-13" x="2.06" y="5.77" width="83.88" height="83.75" rx="20.87"/><path class="cls-14" d="M22.93,89.32A20.68,20.68,0,0,1,2.27,68.65v-42A20.67,20.67,0,0,1,22.93,6H65.07A20.67,20.67,0,0,1,85.73,26.64v42A20.68,20.68,0,0,1,65.07,89.32Z"/><path class="cls-15" d="M22.93,89.11A20.47,20.47,0,0,1,2.47,68.65v-42A20.48,20.48,0,0,1,22.93,6.18H65.07A20.48,20.48,0,0,1,85.53,26.64v42A20.47,20.47,0,0,1,65.07,89.11Z"/><path class="cls-16" d="M22.93,88.91A20.27,20.27,0,0,1,2.68,68.65v-42A20.27,20.27,0,0,1,22.93,6.39H65.07A20.27,20.27,0,0,1,85.32,26.64v42A20.27,20.27,0,0,1,65.07,88.91Z"/><path class="cls-17" d="M22.93,88.7a20.07,20.07,0,0,1-20-20v-42a20.07,20.07,0,0,1,20.05-20H65.07A20.07,20.07,0,0,1,85.12,26.64v42a20.07,20.07,0,0,1-20.05,20Z"/><path class="cls-18" d="M22.93,88.49A19.85,19.85,0,0,1,3.09,68.65v-42A19.86,19.86,0,0,1,22.93,6.8H65.07A19.86,19.86,0,0,1,84.91,26.64v42A19.85,19.85,0,0,1,65.07,88.49Z"/><path class="cls-19" d="M22.93,88.29A19.65,19.65,0,0,1,3.3,68.65v-42A19.64,19.64,0,0,1,22.93,7H65.07A19.64,19.64,0,0,1,84.7,26.64v42A19.65,19.65,0,0,1,65.07,88.29Z"/><path class="cls-20" d="M22.93,88.08A19.44,19.44,0,0,1,3.5,68.65v-42A19.44,19.44,0,0,1,22.93,7.21H65.07A19.44,19.44,0,0,1,84.5,26.64v42A19.44,19.44,0,0,1,65.07,88.08Z"/><path class="cls-21" d="M22.93,87.88A19.23,19.23,0,0,1,3.71,68.65v-42A19.23,19.23,0,0,1,22.93,7.42H65.07A19.23,19.23,0,0,1,84.29,26.64v42A19.23,19.23,0,0,1,65.07,87.88Z"/><path class="cls-22" d="M22.93,87.67a19,19,0,0,1-19-19v-42a19,19,0,0,1,19-19H65.07a19,19,0,0,1,19,19v42a19,19,0,0,1-19,19Z"/><path class="cls-23" d="M22.93,87.46A18.82,18.82,0,0,1,4.12,68.65v-42A18.82,18.82,0,0,1,22.93,7.83H65.07A18.82,18.82,0,0,1,83.88,26.64v42A18.82,18.82,0,0,1,65.07,87.46Z"/><path class="cls-24" d="M22.93,8H65.07A18.61,18.61,0,0,1,83.67,26.64v42A18.61,18.61,0,0,1,65.07,87.26H22.93a18.6,18.6,0,0,1-18.6-18.6v-42A18.61,18.61,0,0,1,22.93,8Z"/><path class="cls-25" d="M22.93,87.05a18.4,18.4,0,0,1-18.4-18.4v-42a18.41,18.41,0,0,1,18.4-18.4H65.07a18.41,18.41,0,0,1,18.4,18.4v42a18.4,18.4,0,0,1-18.4,18.4Z"/><path class="cls-26" d="M22.93,86.85A18.2,18.2,0,0,1,4.74,68.65v-42A18.2,18.2,0,0,1,22.93,8.45H65.07A18.2,18.2,0,0,1,83.26,26.64v42a18.2,18.2,0,0,1-18.19,18.2Z"/><path class="cls-27" d="M22.93,86.64a18,18,0,0,1-18-18v-42a18,18,0,0,1,18-18H65.07a18,18,0,0,1,18,18v42a18,18,0,0,1-18,18Z"/><path class="cls-28" d="M22.93,86.43A17.78,17.78,0,0,1,5.15,68.65v-42A17.79,17.79,0,0,1,22.93,8.86H65.07A17.79,17.79,0,0,1,82.85,26.64v42A17.78,17.78,0,0,1,65.07,86.43Z"/><path class="cls-29" d="M22.93,86.23A17.58,17.58,0,0,1,5.36,68.65v-42A17.58,17.58,0,0,1,22.93,9.06H65.07A17.58,17.58,0,0,1,82.64,26.64v42A17.58,17.58,0,0,1,65.07,86.23Z"/><path class="cls-30" d="M22.93,86A17.37,17.37,0,0,1,5.56,68.65v-42A17.37,17.37,0,0,1,22.93,9.27H65.07A17.37,17.37,0,0,1,82.44,26.64v42A17.37,17.37,0,0,1,65.07,86Z"/><path class="cls-31" d="M22.93,85.82A17.16,17.16,0,0,1,5.77,68.65v-42A17.16,17.16,0,0,1,22.93,9.48H65.07A17.16,17.16,0,0,1,82.23,26.64v42A17.16,17.16,0,0,1,65.07,85.82Z"/><path class="cls-32" d="M22.93,85.61a17,17,0,0,1-17-17v-42a17,17,0,0,1,17-17H65.07a17,17,0,0,1,17,17v42a17,17,0,0,1-17,17Z"/><path class="cls-33" d="M22.93,85.4A16.75,16.75,0,0,1,6.18,68.65v-42A16.75,16.75,0,0,1,22.93,9.89H65.07A16.75,16.75,0,0,1,81.82,26.64v42A16.75,16.75,0,0,1,65.07,85.4Z"/><rect x="6.39" y="10.09" width="75.23" height="75.1" rx="16.55"/></g><path class="cls-34" d="M84.14,66.2A17.66,17.66,0,0,1,66.48,83.85h-45A17.66,17.66,0,0,1,3.86,66.2V21.37A17.66,17.66,0,0,1,21.52,3.71h45A17.66,17.66,0,0,1,84.14,21.37Z"/><path class="cls-3" d="M72.46,55.59a31.16,31.16,0,0,1-6.6,9.7,31.07,31.07,0,0,1-43.92,0,31.3,31.3,0,0,1-6.59-9.7H13.5a32.81,32.81,0,0,0,60.81,0Z"/><path class="cls-3" d="M33.26,12.32a32.91,32.91,0,0,0-20.59,21h1.8A31.19,31.19,0,0,1,33.26,14.14Z"/><path class="cls-3" d="M67.07,20.16a32.61,32.61,0,0,0-12.52-7.84v1.82A31.26,31.26,0,0,1,73.34,33.37h1.8A32.58,32.58,0,0,0,67.07,20.16Z"/><path class="cls-3" d="M37.91,13.64H36.09l-.35.84h-.93l1.75-3.92h.9l1.75,3.92h-1ZM37.62,13,37,11.45,36.38,13Z"/><path class="cls-3" d="M43.32,13.41c0,.67-.53,1.07-1.56,1.07h-2V10.56h1.91c1,0,1.49.4,1.49,1a1,1,0,0,1-.52.87A1,1,0,0,1,43.32,13.41Zm-2.69-2.17v.92h.9c.44,0,.68-.15.68-.46s-.24-.46-.68-.46Zm1.78,2.07c0-.33-.25-.49-.72-.49H40.63v1h1.06C42.16,13.79,42.41,13.65,42.41,13.31Z"/><path class="cls-3" d="M47.58,14.48V12.12l-1.15,1.94H46l-1.15-1.89v2.31H44V10.56h.75L46.23,13l1.44-2.43h.75v3.92Z"/><path class="cls-3" d="M52.76,12c0,.87-.66,1.41-1.7,1.41h-.79v1.09h-.91V10.56h1.7C52.1,10.56,52.76,11.1,52.76,12Zm-.92,0c0-.43-.28-.69-.83-.69h-.74v1.37H51C51.56,12.66,51.84,12.4,51.84,12Z"/><path class="cls-3" d="M8,36.09h4.09l1.38,8.63h0l1.45-8.63h4V52.94H16.17V40.58h-.05L14,52.94h-1.7L10.28,40.58h0V52.94H8Z"/><path class="cls-3" d="M23.48,36.09h4.45L30,52.94h-3l-.45-3.74H24.12l-.42,3.74H21.12Zm2,2.6H25.4l-1,8.05h1.92Z"/><path class="cls-3" d="M34.44,48.06c0,.95,0,2.6,1.32,2.6A1.47,1.47,0,0,0,37.14,49c0-3-5.59-3.69-5.59-8.68,0-2.53,1.37-4.59,4-4.59,2.77,0,3.83,2.1,3.9,5.13H36.69c0-1,0-2.53-1.23-2.53-.74,0-1.16.61-1.16,1.54,0,2.86,5.58,3.83,5.58,8.73,0,2.58-1.47,4.64-4.23,4.64-3.29,0-4-2.89-4-5.21Z"/><path class="cls-3" d="M44.38,48.06c0,.95,0,2.6,1.32,2.6A1.46,1.46,0,0,0,47.07,49c0-3-5.58-3.69-5.58-8.68,0-2.53,1.37-4.59,4-4.59s3.83,2.1,3.9,5.13H46.62c0-1,0-2.53-1.23-2.53-.73,0-1.16.61-1.16,1.54,0,2.86,5.59,3.83,5.59,8.73,0,2.58-1.47,4.64-4.24,4.64-3.29,0-3.95-2.89-3.95-5.21Z"/><path class="cls-3" d="M53.72,36.09h4.45l2.08,16.85h-3l-.45-3.74H54.36l-.42,3.74H51.36Zm2,2.6h0l-1,8.05h1.92Z"/><path class="cls-3" d="M67.8,42.1c0-.78.19-3.74-1.13-3.74-.76,0-1.33.71-1.33,6.13s.52,6.17,1.47,6.17c1.16,0,1.25-2.31,1.25-3.12H66.93V45.08h3.74v7.86H69.36l-.42-1.12a3.1,3.1,0,0,1-2.44,1.45c-3.29,0-4.38-3.22-4.38-8.76,0-6.43,1.94-8.75,4.38-8.75,2,0,4,.94,4,5.25V42.1Z"/><path class="cls-3" d="M73.39,36.09h7v2.6H76.46V43h2.87v2.74H76.46v4.59h4.05v2.61H73.39Z"/><path class="cls-3" d="M21.83,60.55l4.09-1.85-.81-.91.66-.6,1.6,1.8-.4.36-4.16,1.86.89,1L23,62.8l-1.65-1.86Z"/><path class="cls-3" d="M27.71,59.32,29.5,60.9l-.59.66-1-.88-1,1.11.74.65-.62.7-.74-.65-1,1.18,1,.92-.59.67-1.83-1.62Z"/><path class="cls-3" d="M30,61.24l1,.66a1.45,1.45,0,0,1,.48,2.29,1.64,1.64,0,0,1-1.29.83l-1,2.61-.88-.58,1-2.34L29,64.57l-1.38,2.06-.88-.58Zm-.48,2.63.17.11c.32.22.66,0,.89-.37.35-.52.26-.79,0-1l-.13-.09Z"/><path class="cls-3" d="M34.09,63.57c.85.39,1.09,1.3.12,3.37S32.39,69.39,31.54,69s-1.08-1.31-.11-3.37S33.25,63.17,34.09,63.57Zm-1.88,3.1c-.53,1.13-.51,1.42-.29,1.52s.46-.06,1-1.19l.52-1.1c.53-1.13.51-1.42.29-1.53s-.46.06-1,1.2Z"/><path class="cls-3" d="M37.94,66l-.88-.2.2-.87,2.8.65-.2.87L39,66.25,37.87,71l-1-.24Z"/><path class="cls-3" d="M41.8,65.65c.93.09,1.47.86,1.27,3.13s-.88,2.93-1.81,2.85S39.79,70.77,40,68.5,40.87,65.57,41.8,65.65Zm-.71,3.56c-.11,1.24,0,1.51.25,1.53s.41-.22.53-1.46l.1-1.21c.12-1.24,0-1.51-.25-1.53s-.41.22-.52,1.46Z"/><path class="cls-3" d="M44,65.88l1,0,.24,4.88,1.34-.07.05.9-2.4.11Z"/><path class="cls-3" d="M46.9,65.69l2.35-.41.15.88-1.31.23.26,1.45,1-.17.16.93-1,.17.28,1.55,1.36-.25.16.88-2.41.43Z"/><path class="cls-3" d="M49.8,65.14l1.12-.36a1.46,1.46,0,0,1,2.1,1,1.62,1.62,0,0,1-.16,1.54l1.43,2.4-1,.32-1.23-2.21-.24.08.76,2.36-1,.33Zm1.75,2,.2-.07c.37-.12.39-.53.27-.92-.2-.6-.47-.7-.81-.59l-.15.05Z"/><path class="cls-3" d="M53.47,63.81l1.37-.67L58,68l-.91.45-.7-1.08-.77.37L56.08,69l-.8.39Zm1,.51h0L55.37,67l.59-.29Z"/><path class="cls-3" d="M55.85,62.6,56.7,62l2.53,2h0l-1.73-2.52.7-.47,3.27,4.76-.68.46L57.89,64h0l2,2.88-.74.5Z"/><path class="cls-3" d="M61.49,60.85c-.65-.7-1-.88-1.17-.7s-.23.4,1.11,1.84,1.52,1.46,1.76,1.24,0-.68-.61-1.3l.68-.58c.69.73,1.41,1.72.51,2.56s-1.85.22-3.14-1.17c-1.51-1.61-1.56-2.65-1-3.22.89-.83,1.76-.11,2.48.66Z"/><path class="cls-3" d="M61.21,58.16l1.5-1.85.7.57-.85,1,1.15.93.62-.76.73.6-.62.76,1.21,1,.88-1.07.69.56-1.54,1.89Z"/><path class="cls-3" d="M25.57,23.56h1.94c1.65,0,2.74.69,2.74,2.68a2.66,2.66,0,0,1-1,2.31l1,4.46H28.52L27.71,29H27.3V33H25.57Zm1.73,4h.35c.63,0,.87-.64.87-1.32,0-1-.37-1.31-.95-1.31H27.3Z"/><path class="cls-3" d="M31.5,23.56h3.9V25H33.22v2.42h1.61V29H33.22v2.57h2.27V33h-4Z"/><path class="cls-3" d="M37.87,30.28c0,.53,0,1.46.74,1.46a.83.83,0,0,0,.77-.92c0-1.69-3.13-2.07-3.13-4.87a2.29,2.29,0,0,1,2.23-2.58c1.55,0,2.15,1.18,2.19,2.88H39.13c0-.53,0-1.42-.69-1.42-.41,0-.65.35-.65.87,0,1.6,3.13,2.15,3.13,4.9a2.35,2.35,0,0,1-2.37,2.6c-1.85,0-2.22-1.62-2.22-2.92Z"/><path class="cls-3" d="M42.12,23.56h1.72c2,0,3,.78,3,2.83,0,1.7-.67,2.84-2.29,2.84h-.69V33H42.12Zm1.74,4.29H44c.71,0,1.09-.28,1.09-1.42,0-1.37-.53-1.41-1.1-1.41h-.13Z"/><path class="cls-3" d="M47.8,23.56h3.9V25H49.53v2.42h1.6V29h-1.6v2.57H51.8V33h-4Z"/><path class="cls-3" d="M55.89,27c0-1.56-.2-2.15-.63-2.15s-.71.24-.71,3.46.18,3.45.71,3.45.71-.88.73-2.25l1.46.07c0,1.65-.24,3.64-2.25,3.64-1.85,0-2.46-1.81-2.46-4.91,0-3.62,1.09-4.92,2.46-4.92,2,0,2.23,1.83,2.23,3.56Z"/><path class="cls-3" d="M59.71,25H58.22V23.56h4.7V25H61.44v8H59.71Z"/></g></g></svg>