<?xml version="1.0" encoding="utf-8"?>
<!-- Generator: Adobe Illustrator 19.1.0, SVG Export Plug-In . SVG Version: 6.00 Build 0)  -->
<!DOCTYPE svg PUBLIC "-//W3C//DTD SVG 1.0//EN" "http://www.w3.org/TR/2001/REC-SVG-20010904/DTD/svg10.dtd" [
	<!ENTITY ns_extend "http://ns.adobe.com/Extensibility/1.0/">
	<!ENTITY ns_ai "http://ns.adobe.com/AdobeIllustrator/10.0/">
	<!ENTITY ns_graphs "http://ns.adobe.com/Graphs/1.0/">
	<!ENTITY ns_vars "http://ns.adobe.com/Variables/1.0/">
	<!ENTITY ns_imrep "http://ns.adobe.com/ImageReplacement/1.0/">
	<!ENTITY ns_sfw "http://ns.adobe.com/SaveForWeb/1.0/">
	<!ENTITY ns_custom "http://ns.adobe.com/GenericCustomNamespace/1.0/">
	<!ENTITY ns_adobe_xpath "http://ns.adobe.com/XPath/1.0/">
]>
<svg version="1.0" id="Layer_1" xmlns:x="&ns_extend;" xmlns:i="&ns_ai;" xmlns:graph="&ns_graphs;"
	 xmlns="http://www.w3.org/2000/svg" xmlns:xlink="http://www.w3.org/1999/xlink" x="0px" y="0px" viewBox="0 0 88 92"
	 style="enable-background:new 0 0 88 92;" xml:space="preserve">
<style type="text/css">
	.st0{opacity:0.28;}
	.st1{fill:#FFFFFF;}
	.st2{fill:#F7F7F7;}
	.st3{fill:#EFEFEF;}
	.st4{fill:#E6E6E6;}
	.st5{fill:#DEDEDE;}
	.st6{fill:#D6D6D6;}
	.st7{fill:#CECECE;}
	.st8{fill:#C5C5C5;}
	.st9{fill:#BDBDBD;}
	.st10{fill:#B5B5B5;}
	.st11{fill:#ADADAD;}
	.st12{fill:#A5A5A5;}
	.st13{fill:#9C9C9C;}
	.st14{fill:#949494;}
	.st15{fill:#8C8C8C;}
	.st16{fill:#848484;}
	.st17{fill:#7B7B7B;}
	.st18{fill:#737373;}
	.st19{fill:#6B6B6B;}
	.st20{fill:#636363;}
	.st21{fill:#5A5A5A;}
	.st22{fill:#525252;}
	.st23{fill:#4A4A4A;}
	.st24{fill:#424242;}
	.st25{fill:#3A3A3A;}
	.st26{fill:#313131;}
	.st27{fill:#292929;}
	.st28{fill:#212121;}
	.st29{fill:#191919;}
	.st30{fill:#101010;}
	.st31{fill:#080808;}
	.st32{fill:url(#SVGID_1_);}
	.st33{fill:#576474;}
	.st34{fill:#EFF3F3;}
	.st35{fill:#E2E5E5;}
	.st36{fill:#98A3A3;}
	.st37{fill:#D25400;}
	.st38{fill:#C3C7C7;}
	.st39{fill:#C7CDD1;}
	.st40{fill:#D7DFE3;}
	.st41{fill:#CED5D9;}
</style>
<metadata>
	<sfw  xmlns="&ns_sfw;">
		<slices></slices>
		<sliceSourceBounds  height="87.7" width="87.9" x="0.2" y="-92" bottomLeftOrigin="true"></sliceSourceBounds>
	</sfw>
</metadata>
<g>
	<g class="st0">
		<path class="st1" d="M23.1,92C10.5,92,0.2,81.7,0.2,69.1V27.2c0-12.6,10.3-22.9,22.9-22.9h42.1c12.6,0,22.9,10.3,22.9,22.9v41.9
			C88.1,81.7,77.8,92,65.2,92H23.1z"/>
		<path class="st2" d="M23.1,91.8c-12.5,0-22.7-10.2-22.7-22.7V27.2c0-12.5,10.2-22.7,22.7-22.7h42.1c12.5,0,22.7,10.2,22.7,22.7
			v41.9c0,12.5-10.2,22.7-22.7,22.7H23.1z"/>
		<path class="st3" d="M23.1,91.6c-12.4,0-22.5-10.1-22.5-22.5V27.2c0-12.4,10.1-22.5,22.5-22.5h42.1c12.4,0,22.5,10.1,22.5,22.5
			v41.9c0,12.4-10.1,22.5-22.5,22.5H23.1z"/>
		<path class="st4" d="M23.1,91.4c-12.3,0-22.3-10-22.3-22.3V27.2c0-12.3,10-22.3,22.3-22.3h42.1c12.3,0,22.3,10,22.3,22.3v41.9
			c0,12.3-10,22.3-22.3,22.3H23.1z"/>
		<path class="st5" d="M23.1,91.2C11,91.2,1.1,81.3,1.1,69.1V27.2C1.1,15,11,5.1,23.1,5.1h42.1c12.2,0,22.1,9.9,22.1,22.1v41.9
			c0,12.2-9.9,22.1-22.1,22.1H23.1z"/>
		<path class="st6" d="M23.1,91C11.1,91,1.3,81.2,1.3,69.1V27.2c0-12.1,9.8-21.9,21.9-21.9h42.1c12.1,0,21.9,9.8,21.9,21.9v41.9
			c0,12.1-9.8,21.9-21.9,21.9H23.1z"/>
		<path class="st7" d="M23.1,90.8c-12,0-21.7-9.7-21.7-21.7V27.2c0-11.9,9.7-21.7,21.7-21.7h42.1c12,0,21.7,9.7,21.7,21.7v41.9
			c0,11.9-9.7,21.7-21.7,21.7H23.1z"/>
		<path class="st8" d="M23.1,90.6c-11.8,0-21.5-9.6-21.5-21.5V27.2c0-11.8,9.6-21.5,21.5-21.5h42.1c11.8,0,21.5,9.6,21.5,21.5v41.9
			c0,11.8-9.6,21.5-21.5,21.5H23.1z"/>
		<path class="st9" d="M23.1,90.4c-11.7,0-21.3-9.5-21.3-21.3V27.2c0-11.7,9.5-21.3,21.3-21.3h42.1c11.7,0,21.3,9.5,21.3,21.3v41.9
			c0,11.7-9.5,21.3-21.3,21.3H23.1z"/>
		<path class="st10" d="M23.1,90.1c-11.6,0-21-9.4-21-21V27.2c0-11.6,9.4-21,21-21h42.1c11.6,0,21,9.4,21,21v41.9
			c0,11.6-9.4,21-21,21H23.1z"/>
		<path class="st11" d="M23.1,89.9c-11.5,0-20.8-9.3-20.8-20.8V27.2c0-11.5,9.3-20.8,20.8-20.8h42.1C76.7,6.3,86,15.7,86,27.2v41.9
			c0,11.5-9.3,20.8-20.8,20.8H23.1z"/>
		<path class="st12" d="M23.1,89.7c-11.4,0-20.6-9.3-20.6-20.6V27.2c0-11.4,9.3-20.6,20.6-20.6h42.1c11.4,0,20.6,9.3,20.6,20.6v41.9
			c0,11.4-9.3,20.6-20.6,20.6H23.1z"/>
		<path class="st13" d="M23.1,89.5c-11.3,0-20.4-9.2-20.4-20.4V27.2c0-11.3,9.2-20.4,20.4-20.4h42.1c11.3,0,20.4,9.2,20.4,20.4v41.9
			c0,11.3-9.2,20.4-20.4,20.4H23.1z"/>
		<path class="st14" d="M23.1,89.3C12,89.3,2.9,80.3,2.9,69.1V27.2C2.9,16,12,6.9,23.1,6.9h42.1c11.2,0,20.2,9.1,20.2,20.2v41.9
			c0,11.2-9.1,20.2-20.2,20.2H23.1z"/>
		<path class="st15" d="M23.1,89.1c-11,0-20-9-20-20V27.2c0-11,9-20,20-20h42.1c11,0,20,9,20,20v41.9c0,11-9,20-20,20H23.1z"/>
		<path class="st16" d="M23.1,88.9C12.2,88.9,3.3,80,3.3,69.1V27.2c0-10.9,8.9-19.8,19.8-19.8h42.1C76.1,7.3,85,16.2,85,27.2v41.9
			c0,10.9-8.9,19.8-19.8,19.8H23.1z"/>
		<path class="st17" d="M23.1,88.7c-10.8,0-19.6-8.8-19.6-19.6V27.2c0-10.8,8.8-19.6,19.6-19.6h42.1c10.8,0,19.6,8.8,19.6,19.6v41.9
			c0,10.8-8.8,19.6-19.6,19.6H23.1z"/>
		<path class="st18" d="M23.1,88.5c-10.7,0-19.4-8.7-19.4-19.4V27.2c0-10.7,8.7-19.4,19.4-19.4h42.1c10.7,0,19.4,8.7,19.4,19.4v41.9
			c0,10.7-8.7,19.4-19.4,19.4H23.1z"/>
		<path class="st19" d="M23.1,88.3c-10.6,0-19.2-8.6-19.2-19.2V27.2C3.9,16.6,12.5,8,23.1,8h42.1c10.6,0,19.2,8.6,19.2,19.2v41.9
			c0,10.6-8.6,19.2-19.2,19.2H23.1z"/>
		<path class="st20" d="M23.1,88.1c-10.5,0-19-8.5-19-19V27.2c0-10.5,8.5-19,19-19h42.1c10.5,0,19,8.5,19,19v41.9
			c0,10.5-8.5,19-19,19H23.1z"/>
		<path class="st21" d="M23.1,87.9c-10.4,0-18.8-8.4-18.8-18.8V27.2c0-10.4,8.4-18.8,18.8-18.8h42.1C75.6,8.4,84,16.8,84,27.2v41.9
			c0,10.4-8.4,18.8-18.8,18.8H23.1z"/>
		<path class="st22" d="M23.1,87.7c-10.3,0-18.6-8.3-18.6-18.6V27.2c0-10.3,8.3-18.6,18.6-18.6h42.1c10.3,0,18.6,8.3,18.6,18.6v41.9
			c0,10.3-8.3,18.6-18.6,18.6H23.1z"/>
		<path class="st23" d="M23.1,87.5C13,87.5,4.8,79.2,4.8,69.1V27.2C4.8,17,13,8.8,23.1,8.8h42.1c10.1,0,18.4,8.2,18.4,18.4v41.9
			c0,10.1-8.2,18.4-18.4,18.4H23.1z"/>
		<path class="st24" d="M23.1,87.3C13.1,87.3,5,79.1,5,69.1V27.2C5,17.1,13.1,9,23.1,9h42.1c10,0,18.2,8.1,18.2,18.2v41.9
			c0,10-8.1,18.2-18.2,18.2H23.1z"/>
		<path class="st25" d="M23.1,87.1c-9.9,0-18-8-18-18V27.2c0-9.9,8-18,18-18h42.1c9.9,0,18,8,18,18v41.9c0,9.9-8,18-18,18H23.1z"/>
		<path class="st26" d="M23.1,86.9c-9.8,0-17.8-8-17.8-17.8V27.2c0-9.8,8-17.8,17.8-17.8h42.1c9.8,0,17.8,8,17.8,17.8v41.9
			c0,9.8-8,17.8-17.8,17.8H23.1z"/>
		<path class="st27" d="M23.1,86.7c-9.7,0-17.6-7.9-17.6-17.5V27.2c0-9.7,7.9-17.6,17.6-17.6h42.1c9.7,0,17.6,7.9,17.6,17.6v41.9
			c0,9.7-7.9,17.5-17.6,17.5H23.1z"/>
		<path class="st28" d="M23.1,86.4c-9.6,0-17.3-7.8-17.3-17.3V27.2c0-9.6,7.8-17.3,17.3-17.3h42.1c9.6,0,17.3,7.8,17.3,17.3v41.9
			c0,9.6-7.8,17.3-17.3,17.3H23.1z"/>
		<path class="st29" d="M23.1,86.2C13.7,86.2,6,78.6,6,69.1V27.2C6,17.7,13.7,10,23.1,10h42.1c9.5,0,17.1,7.7,17.1,17.1v41.9
			c0,9.5-7.7,17.1-17.1,17.1H23.1z"/>
		<path class="st30" d="M23.1,86c-9.4,0-16.9-7.6-16.9-16.9V27.2c0-9.4,7.6-16.9,16.9-16.9h42.1c9.4,0,16.9,7.6,16.9,16.9v41.9
			c0,9.4-7.6,16.9-16.9,16.9H23.1z"/>
		<path class="st31" d="M23.1,85.8c-9.2,0-16.7-7.5-16.7-16.7V27.2c0-9.2,7.5-16.7,16.7-16.7h42.1c9.2,0,16.7,7.5,16.7,16.7v41.9
			c0,9.2-7.5,16.7-16.7,16.7H23.1z"/>
		<path d="M81.7,69.1c0,9.1-7.4,16.5-16.5,16.5H23.1c-9.1,0-16.5-7.4-16.5-16.5V27.2c0-9.1,7.4-16.5,16.5-16.5h42.1
			c9.1,0,16.5,7.4,16.5,16.5V69.1z"/>
	</g>
	<g>
		<linearGradient id="SVGID_1_" gradientUnits="userSpaceOnUse" x1="44.1677" y1="84.2826" x2="44.1677" y2="4.2605">
			<stop  offset="0" style="stop-color:#F57E20"/>
			<stop  offset="0" style="stop-color:#EB6F63"/>
			<stop  offset="0.995" style="stop-color:#EA9382"/>
		</linearGradient>
		<path class="st32" d="M84.2,66.7c0,9.7-7.9,17.6-17.6,17.6H21.7c-9.7,0-17.6-7.9-17.6-17.6V21.9c0-9.7,7.9-17.6,17.6-17.6h44.9
			c9.7,0,17.6,7.9,17.6,17.6V66.7z"/>
	</g>
</g>
<g>
	<path class="st33" d="M63,79.8H25.6c-1.6,0-2.8-1.3-2.8-2.8V20.5c0-1.6,1.3-2.8,2.8-2.8H63c1.6,0,2.8,1.3,2.8,2.8V77
		C65.8,78.5,64.5,79.8,63,79.8z"/>
	<polygon class="st34" points="64,20 24.6,20 24.6,75.6 58.8,75.6 64,72.2 	"/>
	<rect x="27.7" y="28" class="st35" width="8" height="8"/>
	<rect x="27.7" y="39.9" class="st35" width="8" height="8"/>
	<rect x="27.7" y="51.8" class="st35" width="8" height="8"/>
	<rect x="27.7" y="63.7" class="st35" width="8" height="8"/>
	<g>
		<rect x="38.2" y="29.7" class="st36" width="23.7" height="1.5"/>
		<rect x="38.2" y="32.7" class="st36" width="23.7" height="1.5"/>
	</g>
	<g>
		<rect x="38.2" y="64" class="st36" width="23.7" height="1.5"/>
		<rect x="38.2" y="67" class="st36" width="23.7" height="1.5"/>
		<rect x="38.2" y="69.9" class="st36" width="23.7" height="1.5"/>
	</g>
	<g>
		<rect x="38.2" y="53.5" class="st36" width="23.7" height="1.5"/>
		<rect x="38.2" y="56.5" class="st36" width="20.5" height="1.5"/>
	</g>
	<g>
		<rect x="38.2" y="41.6" class="st36" width="23.7" height="1.5"/>
		<rect x="38.2" y="44.6" class="st36" width="17.3" height="1.5"/>
	</g>
	<path class="st37" d="M29.9,35.9c-0.2,0-0.3-0.1-0.5-0.2L27.2,33c-0.2-0.3-0.2-0.6,0.1-0.8c0.3-0.2,0.6-0.2,0.8,0.1l1.7,2.1
		l5.3-6.9c0.2-0.3,0.6-0.3,0.8-0.1c0.3,0.2,0.3,0.6,0.1,0.8l-5.8,7.4C30.2,35.8,30.1,35.9,29.9,35.9C29.9,35.9,29.9,35.9,29.9,35.9z
		"/>
	<path class="st37" d="M29.9,48c-0.2,0-0.3-0.1-0.5-0.2l-2.2-2.7c-0.2-0.3-0.2-0.6,0.1-0.8c0.3-0.2,0.6-0.2,0.8,0.1l1.7,2.1l5.3-6.9
		c0.2-0.3,0.6-0.3,0.8-0.1c0.3,0.2,0.3,0.6,0.1,0.8l-5.8,7.4C30.2,47.9,30.1,48,29.9,48C29.9,48,29.9,48,29.9,48z"/>
	<polygon class="st35" points="58.8,75.6 64,72.2 58.8,72.2 	"/>
	<polygon class="st38" points="58.8,72.2 58.6,75.6 58.8,75.6 	"/>
	<rect x="33" y="16.9" class="st39" width="22.5" height="4.4"/>
	<path class="st40" d="M38.4,16.9L38.4,16.9c0-2.5,2-4.5,4.4-4.5h2.9c2.4,0,4.4,2,4.4,4.4v0.1h1.6v-0.1c0-3.3-2.7-6-6-6h-2.9
		c-3.3,0-6,2.7-6,6v0.1H38.4z"/>
	<rect x="33" y="16.9" class="st41" width="11.3" height="4.4"/>
</g>
</svg>
