<?xml version="1.0" encoding="utf-8"?>
<!-- Generator: Adobe Illustrator 19.1.0, SVG Export Plug-In . SVG Version: 6.00 Build 0)  -->
<!DOCTYPE svg PUBLIC "-//W3C//DTD SVG 1.1//EN" "http://www.w3.org/Graphics/SVG/1.1/DTD/svg11.dtd" [
	<!ENTITY ns_extend "http://ns.adobe.com/Extensibility/1.0/">
	<!ENTITY ns_ai "http://ns.adobe.com/AdobeIllustrator/10.0/">
	<!ENTITY ns_graphs "http://ns.adobe.com/Graphs/1.0/">
	<!ENTITY ns_vars "http://ns.adobe.com/Variables/1.0/">
	<!ENTITY ns_imrep "http://ns.adobe.com/ImageReplacement/1.0/">
	<!ENTITY ns_sfw "http://ns.adobe.com/SaveForWeb/1.0/">
	<!ENTITY ns_custom "http://ns.adobe.com/GenericCustomNamespace/1.0/">
	<!ENTITY ns_adobe_xpath "http://ns.adobe.com/XPath/1.0/">
]>
<svg version="1.1" id="Layer_1" xmlns:x="&ns_extend;" xmlns:i="&ns_ai;" xmlns:graph="&ns_graphs;"
	 xmlns="http://www.w3.org/2000/svg" xmlns:xlink="http://www.w3.org/1999/xlink" x="0px" y="0px" viewBox="0 0 88 92"
	 style="enable-background:new 0 0 88 92;" xml:space="preserve">
<style type="text/css">
	.st0{opacity:0.28;}
	.st1{fill:#FFFFFF;}
	.st2{fill:#F7F7F7;}
	.st3{fill:#EFEFEF;}
	.st4{fill:#E6E6E6;}
	.st5{fill:#DEDEDE;}
	.st6{fill:#D6D6D6;}
	.st7{fill:#CECECE;}
	.st8{fill:#C5C5C5;}
	.st9{fill:#BDBDBD;}
	.st10{fill:#B5B5B5;}
	.st11{fill:#ADADAD;}
	.st12{fill:#A5A5A5;}
	.st13{fill:#9C9C9C;}
	.st14{fill:#949494;}
	.st15{fill:#8C8C8C;}
	.st16{fill:#848484;}
	.st17{fill:#7B7B7B;}
	.st18{fill:#737373;}
	.st19{fill:#6B6B6B;}
	.st20{fill:#636363;}
	.st21{fill:#5A5A5A;}
	.st22{fill:#525252;}
	.st23{fill:#4A4A4A;}
	.st24{fill:#424242;}
	.st25{fill:#3A3A3A;}
	.st26{fill:#313131;}
	.st27{fill:#292929;}
	.st28{fill:#212121;}
	.st29{fill:#191919;}
	.st30{fill:#101010;}
	.st31{fill:#080808;}
	.st32{fill:url(#SVGID_1_);}
	.st33{fill:#008C9E;}
	.st34{fill:#00DFFC;}
	.st35{fill:#343838;}
</style>
<metadata>
	<sfw  xmlns="&ns_sfw;">
		<slices></slices>
		<sliceSourceBounds  height="87.6" width="87.8" y="-92" x="0" bottomLeftOrigin="true"></sliceSourceBounds>
	</sfw>
</metadata>
<g>
	<g class="st0">
		<path class="st1" d="M22.9,92C10.3,92,0,81.7,0,69.1V27.2C0,14.6,10.3,4.4,22.9,4.4h42c12.6,0,22.9,10.3,22.9,22.9v41.9
			C87.8,81.7,77.5,92,64.9,92H22.9z"/>
		<path class="st2" d="M22.9,91.8c-12.5,0-22.7-10.2-22.7-22.7V27.2c0-12.5,10.2-22.7,22.7-22.7h42c12.5,0,22.7,10.2,22.7,22.7v41.9
			c0,12.5-10.2,22.7-22.7,22.7H22.9z"/>
		<path class="st3" d="M22.9,91.6c-12.4,0-22.5-10.1-22.5-22.5V27.2c0-12.4,10.1-22.5,22.5-22.5h42c12.4,0,22.5,10.1,22.5,22.5v41.9
			c0,12.4-10.1,22.5-22.5,22.5H22.9z"/>
		<path class="st4" d="M22.9,91.4c-12.3,0-22.3-10-22.3-22.3V27.2C0.6,15,10.6,5,22.9,5h42c12.3,0,22.3,10,22.3,22.3v41.9
			c0,12.3-10,22.3-22.3,22.3H22.9z"/>
		<path class="st5" d="M22.9,91.2c-12.2,0-22.1-9.9-22.1-22V27.2c0-12.2,9.9-22,22.1-22h42c12.2,0,22.1,9.9,22.1,22v41.9
			c0,12.2-9.9,22-22.1,22H22.9z"/>
		<path class="st6" d="M22.9,91C10.8,91,1,81.2,1,69.1V27.2c0-12,9.8-21.8,21.8-21.8h42c12,0,21.8,9.8,21.8,21.8v41.9
			c0,12-9.8,21.8-21.8,21.8H22.9z"/>
		<path class="st7" d="M22.9,90.8c-11.9,0-21.6-9.7-21.6-21.6V27.2c0-11.9,9.7-21.6,21.6-21.6h42c11.9,0,21.6,9.7,21.6,21.6v41.9
			c0,11.9-9.7,21.6-21.6,21.6H22.9z"/>
		<path class="st8" d="M22.9,90.6C11,90.6,1.4,81,1.4,69.1V27.2C1.4,15.4,11,5.8,22.9,5.8h42c11.8,0,21.4,9.6,21.4,21.4v41.9
			c0,11.8-9.6,21.4-21.4,21.4H22.9z"/>
		<path class="st9" d="M22.9,90.4c-11.7,0-21.2-9.5-21.2-21.2V27.2C1.6,15.5,11.2,6,22.9,6h42c11.7,0,21.2,9.5,21.2,21.2v41.9
			c0,11.7-9.5,21.2-21.2,21.2H22.9z"/>
		<path class="st10" d="M22.9,90.2c-11.6,0-21-9.4-21-21V27.2c0-11.6,9.4-21,21-21h42c11.6,0,21,9.4,21,21v41.9c0,11.6-9.4,21-21,21
			H22.9z"/>
		<path class="st11" d="M22.9,89.9c-11.5,0-20.8-9.3-20.8-20.8V27.2c0-11.5,9.3-20.8,20.8-20.8h42c11.5,0,20.8,9.3,20.8,20.8v41.9
			c0,11.5-9.3,20.8-20.8,20.8H22.9z"/>
		<path class="st12" d="M22.9,89.7c-11.4,0-20.6-9.2-20.6-20.6V27.2c0-11.4,9.2-20.6,20.6-20.6h42c11.4,0,20.6,9.2,20.6,20.6v41.9
			c0,11.4-9.2,20.6-20.6,20.6H22.9z"/>
		<path class="st13" d="M22.9,89.5c-11.3,0-20.4-9.1-20.4-20.4V27.2C2.5,16,11.6,6.8,22.9,6.8h42c11.3,0,20.4,9.1,20.4,20.4v41.9
			c0,11.3-9.1,20.4-20.4,20.4H22.9z"/>
		<path class="st14" d="M22.9,89.3c-11.1,0-20.2-9.1-20.2-20.2V27.2C2.7,16.1,11.7,7,22.9,7h42C76,7,85.1,16.1,85.1,27.2v41.9
			c0,11.1-9.1,20.2-20.2,20.2H22.9z"/>
		<path class="st15" d="M22.9,89.1c-11,0-20-9-20-20V27.2c0-11,9-20,20-20h42c11,0,20,9,20,20v41.9c0,11-9,20-20,20H22.9z"/>
		<path class="st16" d="M22.9,88.9C12,88.9,3.1,80,3.1,69.1V27.2C3.1,16.3,12,7.4,22.9,7.4h42c10.9,0,19.8,8.9,19.8,19.8v41.9
			c0,10.9-8.9,19.8-19.8,19.8H22.9z"/>
		<path class="st17" d="M22.9,88.7c-10.8,0-19.6-8.8-19.6-19.6V27.2c0-10.8,8.8-19.6,19.6-19.6h42c10.8,0,19.6,8.8,19.6,19.6v41.9
			c0,10.8-8.8,19.6-19.6,19.6H22.9z"/>
		<path class="st18" d="M22.9,88.5c-10.7,0-19.4-8.7-19.4-19.4V27.2c0-10.7,8.7-19.4,19.4-19.4h42c10.7,0,19.4,8.7,19.4,19.4v41.9
			c0,10.7-8.7,19.4-19.4,19.4H22.9z"/>
		<path class="st19" d="M22.9,88.3c-10.6,0-19.2-8.6-19.2-19.2V27.2c0-10.6,8.6-19.2,19.2-19.2h42c10.6,0,19.2,8.6,19.2,19.2v41.9
			c0,10.6-8.6,19.2-19.2,19.2H22.9z"/>
		<path class="st20" d="M22.9,88.1c-10.5,0-19-8.5-19-19V27.2c0-10.5,8.5-19,19-19h42c10.5,0,19,8.5,19,19v41.9c0,10.5-8.5,19-19,19
			H22.9z"/>
		<path class="st21" d="M22.9,87.9c-10.4,0-18.8-8.4-18.8-18.8V27.2c0-10.4,8.4-18.8,18.8-18.8h42c10.4,0,18.8,8.4,18.8,18.8v41.9
			c0,10.4-8.4,18.8-18.8,18.8H22.9z"/>
		<path class="st22" d="M22.9,87.7c-10.2,0-18.6-8.3-18.6-18.6V27.2C4.3,17,12.6,8.7,22.9,8.7h42c10.2,0,18.6,8.3,18.6,18.6v41.9
			c0,10.2-8.3,18.6-18.6,18.6H22.9z"/>
		<path class="st23" d="M22.9,87.5c-10.1,0-18.4-8.2-18.4-18.3V27.2c0-10.1,8.2-18.4,18.4-18.4h42c10.1,0,18.4,8.2,18.4,18.4v41.9
			c0,10.1-8.2,18.3-18.4,18.3H22.9z"/>
		<path class="st24" d="M22.9,87.3c-10,0-18.1-8.1-18.1-18.1V27.2c0-10,8.1-18.1,18.1-18.1h42c10,0,18.1,8.1,18.1,18.1v41.9
			c0,10-8.1,18.1-18.1,18.1H22.9z"/>
		<path class="st25" d="M22.9,87.1c-9.9,0-17.9-8-17.9-17.9V27.2c0-9.9,8-17.9,17.9-17.9h42c9.9,0,17.9,8,17.9,17.9v41.9
			c0,9.9-8,17.9-17.9,17.9H22.9z"/>
		<path class="st26" d="M22.9,86.9c-9.8,0-17.7-7.9-17.7-17.7V27.2c0-9.8,7.9-17.7,17.7-17.7h42c9.8,0,17.7,7.9,17.7,17.7v41.9
			c0,9.8-7.9,17.7-17.7,17.7H22.9z"/>
		<path class="st27" d="M22.9,86.7c-9.7,0-17.5-7.8-17.5-17.5V27.2c0-9.7,7.8-17.5,17.5-17.5h42c9.7,0,17.5,7.9,17.5,17.5v41.9
			c0,9.7-7.8,17.5-17.5,17.5H22.9z"/>
		<path class="st28" d="M22.9,86.5c-9.6,0-17.3-7.8-17.3-17.3V27.2c0-9.6,7.8-17.3,17.3-17.3h42c9.6,0,17.3,7.8,17.3,17.3v41.9
			c0,9.6-7.8,17.3-17.3,17.3H22.9z"/>
		<path class="st29" d="M22.9,86.2c-9.5,0-17.1-7.7-17.1-17.1V27.2c0-9.5,7.7-17.1,17.1-17.1h42c9.5,0,17.1,7.7,17.1,17.1v41.9
			c0,9.5-7.7,17.1-17.1,17.1H22.9z"/>
		<path class="st30" d="M22.9,86C13.5,86,6,78.5,6,69.1V27.2c0-9.3,7.6-16.9,16.9-16.9h42c9.3,0,16.9,7.6,16.9,16.9v41.9
			c0,9.3-7.6,16.9-16.9,16.9H22.9z"/>
		<path class="st31" d="M22.9,85.8c-9.2,0-16.7-7.5-16.7-16.7V27.2c0-9.2,7.5-16.7,16.7-16.7h42c9.2,0,16.7,7.5,16.7,16.7v41.9
			c0,9.2-7.5,16.7-16.7,16.7H22.9z"/>
		<path d="M81.4,69.1c0,9.1-7.4,16.5-16.5,16.5h-42c-9.1,0-16.5-7.4-16.5-16.5V27.2c0-9.1,7.4-16.5,16.5-16.5h42
			c9.1,0,16.5,7.4,16.5,16.5V69.1z"/>
	</g>
	<g>
		<linearGradient id="SVGID_1_" gradientUnits="userSpaceOnUse" x1="43.8799" y1="84.2922" x2="43.8799" y2="4.3691">
			<stop  offset="0" style="stop-color:#F57E20"/>
			<stop  offset="1" style="stop-color:#FECA42"/>
		</linearGradient>
		<path class="st32" d="M83.9,66.7c0,9.7-7.9,17.6-17.6,17.6H21.5c-9.7,0-17.6-7.9-17.6-17.6V22c0-9.7,7.9-17.6,17.6-17.6h44.8
			c9.7,0,17.6,7.9,17.6,17.6V66.7z"/>
	</g>
</g>
<g>
	<path class="st33" d="M16.9,34.6c4.2-6,17.6-11.3,34.1-13.6c7.6-1.3,9.2-6.4,9.8-8.8l0.3,13.7C44.2,23.8,25,25.6,16.9,34.6z"/>
	<path class="st34" d="M50.9,20.5c-4.5,0.6-8.7,1.5-12.6,2.5c8.8-2.7,16.3-6.2,18.4-12.6l0.3,7.5C55.6,19.1,53.7,20.1,50.9,20.5z"/>
	<path class="st35" d="M32,78.9L16.8,36c8.4-9.9,30-11.4,47.9-8.6l3,45.9C52.5,72,40.2,73.5,32,78.9z"/>
	<path class="st35" d="M16.7,33.4C20.2,29.5,33.4,21.6,37,8c0.9,6.8,2.1,13.5,2.2,14.1C30.8,24,23.4,27.7,16.7,33.4z"/>
</g>
</svg>
