<svg xmlns="http://www.w3.org/2000/svg" xmlns:xlink="http://www.w3.org/1999/xlink" viewBox="0 0 88 92"><defs><style>.cls-1{isolation:isolate;}.cls-2{mix-blend-mode:multiply;opacity:0.28;}.cls-3{fill:#fff;}.cls-4{fill:#f7f7f7;}.cls-5{fill:#efefef;}.cls-6{fill:#e6e6e6;}.cls-7{fill:#dedede;}.cls-8{fill:#d6d6d6;}.cls-9{fill:#cecece;}.cls-10{fill:#c5c5c5;}.cls-11{fill:#bdbdbd;}.cls-12{fill:#b5b5b5;}.cls-13{fill:#adadad;}.cls-14{fill:#a5a5a5;}.cls-15{fill:#9c9c9c;}.cls-16{fill:#949494;}.cls-17{fill:#8c8c8c;}.cls-18{fill:#848484;}.cls-19{fill:#7b7b7b;}.cls-20{fill:#737373;}.cls-21{fill:#6b6b6b;}.cls-22{fill:#636363;}.cls-23{fill:#5a5a5a;}.cls-24{fill:#525252;}.cls-25{fill:#4a4a4a;}.cls-26{fill:#424242;}.cls-27{fill:#3a3a3a;}.cls-28{fill:#313131;}.cls-29{fill:#292929;}.cls-30{fill:#212121;}.cls-31{fill:#191919;}.cls-32{fill:#101010;}.cls-33{fill:#080808;}.cls-34{fill:url(#linear-gradient);}.cls-35{fill:url(#linear-gradient-2);}.cls-36{fill:url(#linear-gradient-3);}.cls-37{fill:url(#linear-gradient-4);}.cls-38{fill:#d7dfe3;}.cls-39{fill:url(#linear-gradient-5);}.cls-40{fill:url(#linear-gradient-6);}</style><linearGradient id="linear-gradient" x1="44" y1="83.85" x2="44" y2="3.71" gradientUnits="userSpaceOnUse"><stop offset="0" stop-color="#f57e20"/><stop offset="0" stop-color="#203d68"/><stop offset="0.99" stop-color="#4992c4"/></linearGradient><linearGradient id="linear-gradient-2" x1="41.59" y1="64.82" x2="46.33" y2="64.82" gradientUnits="userSpaceOnUse"><stop offset="0" stop-color="#dedede"/><stop offset="0.18" stop-color="#e1e1e1"/><stop offset="0.32" stop-color="#ebebeb"/><stop offset="0.45" stop-color="#fcfcfc"/><stop offset="0.47" stop-color="#fff"/><stop offset="0.63" stop-color="#eee"/><stop offset="0.81" stop-color="#e2e2e2"/><stop offset="1" stop-color="#dedede"/></linearGradient><linearGradient id="linear-gradient-3" x1="34.25" y1="68.69" x2="53.66" y2="68.69" xlink:href="#linear-gradient-2"/><linearGradient id="linear-gradient-4" x1="17.09" y1="13.02" x2="70.91" y2="66.83" xlink:href="#linear-gradient-2"/><linearGradient id="linear-gradient-5" x1="39.28" y1="28.88" x2="52.16" y2="52.47" gradientUnits="userSpaceOnUse"><stop offset="0" stop-color="#5c892a"/><stop offset="0.34" stop-color="#81a62e"/><stop offset="0.78" stop-color="#aac731"/><stop offset="1" stop-color="#bad433"/></linearGradient><linearGradient id="linear-gradient-6" x1="45.6" y1="25.43" x2="58.48" y2="49.02" xlink:href="#linear-gradient-5"/></defs><g class="cls-1"><g id="Layer_1" data-name="Layer 1"><g class="cls-2"><path class="cls-3" d="M22.93,91.58A23,23,0,0,1,0,68.65v-42A23,23,0,0,1,22.93,3.71H65.07A23,23,0,0,1,88,26.64v42A23,23,0,0,1,65.07,91.58Z"/><path class="cls-4" d="M22.93,91.38A22.75,22.75,0,0,1,.21,68.65v-42A22.74,22.74,0,0,1,22.93,3.92H65.07A22.74,22.74,0,0,1,87.79,26.64v42A22.75,22.75,0,0,1,65.07,91.38Z"/><path class="cls-5" d="M22.93,91.17A22.54,22.54,0,0,1,.41,68.65v-42A22.55,22.55,0,0,1,22.93,4.12H65.07A22.55,22.55,0,0,1,87.59,26.64v42A22.54,22.54,0,0,1,65.07,91.17Z"/><path class="cls-6" d="M22.93,91A22.34,22.34,0,0,1,.62,68.65v-42A22.34,22.34,0,0,1,22.93,4.33H65.07A22.34,22.34,0,0,1,87.38,26.64v42A22.34,22.34,0,0,1,65.07,91Z"/><path class="cls-7" d="M22.93,90.76A22.14,22.14,0,0,1,.82,68.65v-42A22.13,22.13,0,0,1,22.93,4.54H65.07a22.13,22.13,0,0,1,22.11,22.1v42A22.14,22.14,0,0,1,65.07,90.76Z"/><path class="cls-8" d="M22.93,90.55A21.92,21.92,0,0,1,1,68.65v-42a21.92,21.92,0,0,1,21.9-21.9H65.07A21.92,21.92,0,0,1,87,26.64v42a21.92,21.92,0,0,1-21.9,21.9Z"/><rect class="cls-9" x="1.24" y="4.95" width="85.53" height="85.4" rx="21.7"/><path class="cls-10" d="M22.93,90.14A21.51,21.51,0,0,1,1.44,68.65v-42A21.51,21.51,0,0,1,22.93,5.15H65.07A21.51,21.51,0,0,1,86.56,26.64v42A21.51,21.51,0,0,1,65.07,90.14Z"/><path class="cls-11" d="M22.93,89.94A21.3,21.3,0,0,1,1.65,68.65v-42A21.3,21.3,0,0,1,22.93,5.36H65.07A21.3,21.3,0,0,1,86.35,26.64v42A21.3,21.3,0,0,1,65.07,89.94Z"/><path class="cls-12" d="M22.93,89.73A21.1,21.1,0,0,1,1.85,68.65v-42A21.1,21.1,0,0,1,22.93,5.57H65.07A21.09,21.09,0,0,1,86.15,26.64v42A21.1,21.1,0,0,1,65.07,89.73Z"/><path class="cls-13" d="M22.93,89.52A20.88,20.88,0,0,1,2.06,68.65v-42A20.89,20.89,0,0,1,22.93,5.77H65.07A20.89,20.89,0,0,1,85.94,26.64v42A20.88,20.88,0,0,1,65.07,89.52Z"/><path class="cls-14" d="M22.93,89.32A20.68,20.68,0,0,1,2.27,68.65v-42A20.67,20.67,0,0,1,22.93,6H65.07A20.67,20.67,0,0,1,85.73,26.64v42A20.68,20.68,0,0,1,65.07,89.32Z"/><path class="cls-15" d="M22.93,89.11A20.47,20.47,0,0,1,2.47,68.65v-42A20.48,20.48,0,0,1,22.93,6.18H65.07A20.48,20.48,0,0,1,85.53,26.64v42A20.47,20.47,0,0,1,65.07,89.11Z"/><path class="cls-16" d="M22.93,88.91A20.27,20.27,0,0,1,2.68,68.65v-42A20.27,20.27,0,0,1,22.93,6.39H65.07A20.27,20.27,0,0,1,85.32,26.64v42A20.27,20.27,0,0,1,65.07,88.91Z"/><path class="cls-17" d="M22.93,88.7a20.07,20.07,0,0,1-20-20v-42a20.07,20.07,0,0,1,20.05-20H65.07A20.07,20.07,0,0,1,85.12,26.64v42a20.07,20.07,0,0,1-20.05,20Z"/><rect class="cls-18" x="3.09" y="6.8" width="81.82" height="81.69" rx="19.84"/><path class="cls-19" d="M22.93,88.29A19.65,19.65,0,0,1,3.3,68.65v-42A19.64,19.64,0,0,1,22.93,7H65.07A19.64,19.64,0,0,1,84.7,26.64v42A19.65,19.65,0,0,1,65.07,88.29Z"/><path class="cls-20" d="M22.93,88.08A19.44,19.44,0,0,1,3.5,68.65v-42A19.44,19.44,0,0,1,22.93,7.21H65.07A19.44,19.44,0,0,1,84.5,26.64v42A19.44,19.44,0,0,1,65.07,88.08Z"/><path class="cls-21" d="M22.93,7.42H65.07A19.22,19.22,0,0,1,84.29,26.64v42A19.22,19.22,0,0,1,65.07,87.88H22.93A19.22,19.22,0,0,1,3.71,68.65v-42A19.23,19.23,0,0,1,22.93,7.42Z"/><path class="cls-22" d="M22.93,87.67a19,19,0,0,1-19-19v-42a19,19,0,0,1,19-19H65.07a19,19,0,0,1,19,19v42a19,19,0,0,1-19,19Z"/><path class="cls-23" d="M22.93,87.46A18.82,18.82,0,0,1,4.12,68.65v-42A18.82,18.82,0,0,1,22.93,7.83H65.07A18.82,18.82,0,0,1,83.88,26.64v42A18.82,18.82,0,0,1,65.07,87.46Z"/><path class="cls-24" d="M22.93,87.26A18.61,18.61,0,0,1,4.33,68.65v-42A18.6,18.6,0,0,1,22.93,8H65.07a18.6,18.6,0,0,1,18.6,18.6v42a18.61,18.61,0,0,1-18.6,18.61Z"/><path class="cls-25" d="M22.93,87.05a18.4,18.4,0,0,1-18.4-18.4v-42a18.41,18.41,0,0,1,18.4-18.4H65.07a18.41,18.41,0,0,1,18.4,18.4v42a18.4,18.4,0,0,1-18.4,18.4Z"/><path class="cls-26" d="M22.93,86.85A18.2,18.2,0,0,1,4.74,68.65v-42A18.2,18.2,0,0,1,22.93,8.45H65.07A18.2,18.2,0,0,1,83.26,26.64v42a18.2,18.2,0,0,1-18.19,18.2Z"/><path class="cls-27" d="M22.93,86.64a18,18,0,0,1-18-18v-42a18,18,0,0,1,18-18H65.07a18,18,0,0,1,18,18v42a18,18,0,0,1-18,18Z"/><path class="cls-28" d="M22.93,86.43A17.78,17.78,0,0,1,5.15,68.65v-42A17.79,17.79,0,0,1,22.93,8.86H65.07A17.79,17.79,0,0,1,82.85,26.64v42A17.78,17.78,0,0,1,65.07,86.43Z"/><path class="cls-29" d="M22.93,86.23A17.58,17.58,0,0,1,5.36,68.65v-42A17.58,17.58,0,0,1,22.93,9.06H65.07A17.58,17.58,0,0,1,82.64,26.64v42A17.58,17.58,0,0,1,65.07,86.23Z"/><path class="cls-30" d="M22.93,86A17.37,17.37,0,0,1,5.56,68.65v-42A17.37,17.37,0,0,1,22.93,9.27H65.07A17.37,17.37,0,0,1,82.44,26.64v42A17.37,17.37,0,0,1,65.07,86Z"/><path class="cls-31" d="M22.93,85.82A17.16,17.16,0,0,1,5.77,68.65v-42A17.16,17.16,0,0,1,22.93,9.48H65.07A17.16,17.16,0,0,1,82.23,26.64v42A17.16,17.16,0,0,1,65.07,85.82Z"/><path class="cls-32" d="M22.93,85.61a17,17,0,0,1-17-17v-42a17,17,0,0,1,17-17H65.07a17,17,0,0,1,17,17v42a17,17,0,0,1-17,17Z"/><path class="cls-33" d="M22.93,85.4A16.75,16.75,0,0,1,6.18,68.65v-42A16.75,16.75,0,0,1,22.93,9.89H65.07A16.75,16.75,0,0,1,81.82,26.64v42A16.75,16.75,0,0,1,65.07,85.4Z"/><path d="M81.61,68.65A16.54,16.54,0,0,1,65.07,85.2H22.93A16.54,16.54,0,0,1,6.39,68.65v-42A16.54,16.54,0,0,1,22.93,10.09H65.07A16.54,16.54,0,0,1,81.61,26.64Z"/></g><path class="cls-34" d="M84.14,66.2A17.66,17.66,0,0,1,66.48,83.85h-45A17.66,17.66,0,0,1,3.86,66.2V21.37A17.66,17.66,0,0,1,21.52,3.71h45A17.66,17.66,0,0,1,84.14,21.37Z"/><rect class="cls-35" x="41.59" y="60.95" width="4.74" height="7.74"/><rect class="cls-36" x="34.25" y="67.66" width="19.41" height="2.06"/><rect class="cls-37" x="12.07" y="17.84" width="63.86" height="44.16" rx="0.34"/><rect class="cls-3" x="15.1" y="21.87" width="57.72" height="35.86"/><rect class="cls-38" x="19.24" y="25.66" width="27.09" height="4.28"/><path class="cls-38" d="M68.72,55H18.89V33.08H68.72ZM20.89,53H66.72V35.08H20.89Z"/><rect class="cls-38" x="23.75" y="38.31" width="16.85" height="2"/><rect class="cls-38" x="23.75" y="43.02" width="38.75" height="2"/><rect class="cls-38" x="23.75" y="47.73" width="38.75" height="2"/><path class="cls-39" d="M45.74,54.12a13.44,13.44,0,1,1,2.45-26.65l-.61,3.27a10.14,10.14,0,0,0-6.7,1.07,10.1,10.1,0,1,0,13.71,4l2.93-1.59a13.45,13.45,0,0,1-5.36,18.23A13.28,13.28,0,0,1,45.74,54.12Z"/><polygon class="cls-40" points="45.34 32.44 52.91 31.35 48.19 25.34 45.34 32.44"/></g></g></svg>