<?xml version="1.0" encoding="utf-8"?>
<!-- Generator: Adobe Illustrator 19.0.1, SVG Export Plug-In . SVG Version: 6.00 Build 0)  -->
<!DOCTYPE svg PUBLIC "-//W3C//DTD SVG 1.1//EN" "http://www.w3.org/Graphics/SVG/1.1/DTD/svg11.dtd">
<svg version="1.1" id="Layer_1" xmlns="http://www.w3.org/2000/svg" xmlns:xlink="http://www.w3.org/1999/xlink" x="0px" y="0px"
	 viewBox="0 0 88 92" style="enable-background:new 0 0 88 92;" xml:space="preserve">
<style type="text/css">
	.st0{opacity:0.28;}
	.st1{fill:#FFFFFF;}
	.st2{fill:#F7F7F7;}
	.st3{fill:#EFEFEF;}
	.st4{fill:#E6E6E6;}
	.st5{fill:#DEDEDE;}
	.st6{fill:#D6D6D6;}
	.st7{fill:#CECECE;}
	.st8{fill:#C5C5C5;}
	.st9{fill:#BDBDBD;}
	.st10{fill:#B5B5B5;}
	.st11{fill:#ADADAD;}
	.st12{fill:#A5A5A5;}
	.st13{fill:#9C9C9C;}
	.st14{fill:#949494;}
	.st15{fill:#8C8C8C;}
	.st16{fill:#848484;}
	.st17{fill:#7B7B7B;}
	.st18{fill:#737373;}
	.st19{fill:#6B6B6B;}
	.st20{fill:#636363;}
	.st21{fill:#5A5A5A;}
	.st22{fill:#525252;}
	.st23{fill:#4A4A4A;}
	.st24{fill:#424242;}
	.st25{fill:#3A3A3A;}
	.st26{fill:#313131;}
	.st27{fill:#292929;}
	.st28{fill:#212121;}
	.st29{fill:#191919;}
	.st30{fill:#101010;}
	.st31{fill:#080808;}
	.st32{fill:url(#SVGID_1_);}
	.st33{fill:url(#SVGID_2_);}
	.st34{fill:#7F983C;}
	.st35{fill:url(#SVGID_3_);}
	.st36{fill:url(#SVGID_4_);}
	.st37{fill:url(#SVGID_5_);}
	.st38{fill:#989898;}
	.st39{fill:url(#SVGID_6_);}
	.st40{fill:#AEAEAE;}
	.st41{fill:url(#SVGID_7_);}
</style>
<g>
	<g class="st0">
		<path class="st1" d="M23.1,92C10.5,92,0.2,81.7,0.2,69.1V27c0-12.7,10.3-22.9,22.9-22.9h42.2c12.7,0,22.9,10.3,22.9,22.9v42
			C88.2,81.7,77.9,92,65.3,92H23.1z"/>
		<path class="st2" d="M23.1,91.8c-12.5,0-22.7-10.2-22.7-22.7V27c0-12.5,10.2-22.7,22.7-22.7h42.2C77.8,4.3,88,14.5,88,27v42
			c0,12.5-10.2,22.7-22.7,22.7H23.1z"/>
		<path class="st3" d="M23.1,91.6c-12.4,0-22.5-10.1-22.5-22.5V27c0-12.4,10.1-22.5,22.5-22.5h42.2c12.4,0,22.5,10.1,22.5,22.5v42
			c0,12.4-10.1,22.5-22.5,22.5H23.1z"/>
		<path class="st4" d="M23.1,91.4c-12.3,0-22.3-10-22.3-22.3V27c0-12.3,10-22.3,22.3-22.3h42.2c12.3,0,22.3,10,22.3,22.3v42
			c0,12.3-10,22.3-22.3,22.3H23.1z"/>
		<path class="st5" d="M23.1,91.2C10.9,91.2,1,81.3,1,69.1V27C1,14.8,10.9,4.9,23.1,4.9h42.2c12.2,0,22.1,9.9,22.1,22.1v42
			c0,12.2-9.9,22.1-22.1,22.1H23.1z"/>
		<path class="st6" d="M23.1,91C11,91,1.2,81.1,1.2,69.1V27C1.2,15,11,5.1,23.1,5.1h42.2C77.4,5.1,87.2,15,87.2,27v42
			c0,12.1-9.8,21.9-21.9,21.9H23.1z"/>
		<path class="st7" d="M23.1,90.8c-12,0-21.7-9.7-21.7-21.7V27c0-12,9.7-21.7,21.7-21.7h42.2C77.2,5.3,87,15.1,87,27v42
			c0,12-9.7,21.7-21.7,21.7H23.1z"/>
		<path class="st8" d="M23.1,90.6c-11.9,0-21.5-9.6-21.5-21.5V27c0-11.9,9.6-21.5,21.5-21.5h42.2c11.9,0,21.5,9.6,21.5,21.5v42
			c0,11.9-9.6,21.5-21.5,21.5H23.1z"/>
		<path class="st9" d="M23.1,90.4c-11.7,0-21.3-9.5-21.3-21.3V27c0-11.7,9.5-21.3,21.3-21.3h42.2C77,5.7,86.6,15.3,86.6,27v42
			c0,11.7-9.5,21.3-21.3,21.3H23.1z"/>
		<path class="st10" d="M23.1,90.1C11.5,90.1,2,80.7,2,69.1V27C2,15.4,11.5,5.9,23.1,5.9h42.2c11.6,0,21.1,9.5,21.1,21.1v42
			c0,11.6-9.5,21.1-21.1,21.1H23.1z"/>
		<path class="st11" d="M23.1,89.9c-11.5,0-20.9-9.4-20.9-20.9V27c0-11.5,9.4-20.9,20.9-20.9h42.2c11.5,0,20.9,9.4,20.9,20.9v42
			c0,11.5-9.4,20.9-20.9,20.9H23.1z"/>
		<path class="st12" d="M23.1,89.7c-11.4,0-20.7-9.3-20.7-20.7V27c0-11.4,9.3-20.7,20.7-20.7h42.2C76.7,6.4,86,15.6,86,27v42
			c0,11.4-9.3,20.7-20.7,20.7H23.1z"/>
		<path class="st13" d="M23.1,89.5c-11.3,0-20.5-9.2-20.5-20.5V27c0-11.3,9.2-20.5,20.5-20.5h42.2c11.3,0,20.5,9.2,20.5,20.5v42
			c0,11.3-9.2,20.5-20.5,20.5H23.1z"/>
		<path class="st14" d="M23.1,89.3c-11.2,0-20.3-9.1-20.3-20.3V27c0-11.2,9.1-20.3,20.3-20.3h42.2c11.2,0,20.3,9.1,20.3,20.3v42
			c0,11.2-9.1,20.3-20.3,20.3H23.1z"/>
		<path class="st15" d="M23.1,89.1c-11.1,0-20.1-9-20.1-20.1V27C3.1,16,12.1,7,23.1,7h42.2C76.3,7,85.3,16,85.3,27v42
			c0,11.1-9,20.1-20.1,20.1H23.1z"/>
		<path class="st16" d="M23.1,88.9c-11,0-19.9-8.9-19.9-19.8V27c0-11,8.9-19.9,19.9-19.9h42.2c11,0,19.9,8.9,19.9,19.9v42
			c0,10.9-8.9,19.8-19.9,19.8H23.1z"/>
		<path class="st17" d="M23.1,88.7c-10.8,0-19.6-8.8-19.6-19.6V27c0-10.8,8.8-19.6,19.6-19.6h42.2c10.8,0,19.6,8.8,19.6,19.6v42
			c0,10.8-8.8,19.6-19.6,19.6H23.1z"/>
		<path class="st18" d="M23.1,88.5c-10.7,0-19.4-8.7-19.4-19.4V27c0-10.7,8.7-19.4,19.4-19.4h42.2C76,7.6,84.7,16.3,84.7,27v42
			c0,10.7-8.7,19.4-19.4,19.4H23.1z"/>
		<path class="st19" d="M23.1,88.3c-10.6,0-19.2-8.6-19.2-19.2V27c0-10.6,8.6-19.2,19.2-19.2h42.2c10.6,0,19.2,8.6,19.2,19.2v42
			c0,10.6-8.6,19.2-19.2,19.2H23.1z"/>
		<path class="st20" d="M23.1,88.1c-10.5,0-19-8.5-19-19V27c0-10.5,8.5-19,19-19h42.2c10.5,0,19,8.5,19,19v42c0,10.5-8.5,19-19,19
			H23.1z"/>
		<path class="st21" d="M23.1,87.9c-10.4,0-18.8-8.4-18.8-18.8V27c0-10.4,8.4-18.8,18.8-18.8h42.2c10.4,0,18.8,8.4,18.8,18.8v42
			c0,10.4-8.4,18.8-18.8,18.8H23.1z"/>
		<path class="st22" d="M23.1,87.7c-10.3,0-18.6-8.3-18.6-18.6V27c0-10.3,8.3-18.6,18.6-18.6h42.2c10.3,0,18.6,8.3,18.6,18.6v42
			c0,10.3-8.3,18.6-18.6,18.6H23.1z"/>
		<path class="st23" d="M23.1,87.5C13,87.5,4.7,79.2,4.7,69.1V27C4.7,16.9,13,8.6,23.1,8.6h42.2c10.2,0,18.4,8.2,18.4,18.4v42
			c0,10.2-8.2,18.4-18.4,18.4H23.1z"/>
		<path class="st24" d="M23.1,87.3c-10,0-18.2-8.2-18.2-18.2V27C4.9,17,13.1,8.8,23.1,8.8h42.2c10,0,18.2,8.2,18.2,18.2v42
			c0,10-8.2,18.2-18.2,18.2H23.1z"/>
		<path class="st25" d="M23.1,87.1c-9.9,0-18-8.1-18-18V27c0-9.9,8.1-18,18-18h42.2c9.9,0,18,8.1,18,18v42c0,9.9-8.1,18-18,18H23.1z
			"/>
		<path class="st26" d="M23.1,86.8c-9.8,0-17.8-8-17.8-17.8V27c0-9.8,8-17.8,17.8-17.8h42.2c9.8,0,17.8,8,17.8,17.8v42
			c0,9.8-8,17.8-17.8,17.8H23.1z"/>
		<path class="st27" d="M23.1,86.6c-9.7,0-17.6-7.9-17.6-17.6V27c0-9.7,7.9-17.6,17.6-17.6h42.2c9.7,0,17.6,7.9,17.6,17.6v42
			c0,9.7-7.9,17.6-17.6,17.6H23.1z"/>
		<path class="st28" d="M23.1,86.4c-9.6,0-17.4-7.8-17.4-17.4V27c0-9.6,7.8-17.4,17.4-17.4h42.2c9.6,0,17.4,7.8,17.4,17.4v42
			c0,9.6-7.8,17.4-17.4,17.4H23.1z"/>
		<path class="st29" d="M23.1,86.2c-9.5,0-17.2-7.7-17.2-17.2V27c0-9.5,7.7-17.2,17.2-17.2h42.2c9.5,0,17.2,7.7,17.2,17.2v42
			c0,9.5-7.7,17.2-17.2,17.2H23.1z"/>
		<path class="st30" d="M23.1,86c-9.4,0-17-7.6-17-17V27c0-9.4,7.6-17,17-17h42.2c9.4,0,17,7.6,17,17v42c0,9.4-7.6,17-17,17H23.1z"
			/>
		<path class="st31" d="M23.1,85.8c-9.3,0-16.8-7.5-16.8-16.8V27c0-9.3,7.5-16.8,16.8-16.8h42.2C74.5,10.3,82,17.8,82,27v42
			c0,9.3-7.5,16.8-16.8,16.8H23.1z"/>
		<path d="M81.8,69.1c0,9.1-7.4,16.5-16.6,16.5H23.1c-9.1,0-16.6-7.4-16.6-16.5V27c0-9.1,7.4-16.6,16.6-16.6h42.2
			c9.1,0,16.6,7.4,16.6,16.6V69.1z"/>
	</g>
	<g>
		<linearGradient id="SVGID_1_" gradientUnits="userSpaceOnUse" x1="44.0443" y1="84.996" x2="44.0443" y2="4.8177">
			<stop  offset="0" style="stop-color:#3E93A1"/>
			<stop  offset="0.1328" style="stop-color:#489EAB"/>
			<stop  offset="0.7055" style="stop-color:#6EC7D0"/>
			<stop  offset="1" style="stop-color:#7DD7DF"/>
		</linearGradient>
		<path class="st32" d="M84.2,67.3c0,9.8-7.9,17.7-17.7,17.7h-45c-9.8,0-17.7-7.9-17.7-17.7V22.5c0-9.8,7.9-17.7,17.7-17.7h45
			c9.8,0,17.7,7.9,17.7,17.7V67.3z"/>
	</g>
</g>
<g>
	<g>
		<linearGradient id="SVGID_2_" gradientUnits="userSpaceOnUse" x1="7.7487" y1="39.6814" x2="54.146" y2="39.6814">
			<stop  offset="0" style="stop-color:#FFFFFF"/>
			<stop  offset="1" style="stop-color:#D2CDC8"/>
		</linearGradient>
		<path class="st33" d="M12.9,54.1C14.8,42.4,24.9,33.6,37,33.6c5.4,0,10.5,1.8,14.5,4.8l2.6-1.6c-0.8-1.5-1.4-2.6-2.5-3.8l-3.8,1.7
			c-1.3-1.2-3.8-2.8-5.3-3.7l0.1-4.3c-1.5-0.7-2.6-1.1-4.3-1.5L36,28.5c-0.9-0.1-2.9,0-3.8,0c-0.9,0-1.8,0.1-2.6,0.2l-2.3-3.4
			c-1.7,0.3-2.6,0.4-4.1,1.1l0.5,4.5c-1.6,0.8-4.5,3.1-5.8,4.3l-4.2-1.8c-1.1,1.2-1.3,1.9-2.1,3.3l2.5,3.2c-0.8,1.6-1.6,4.7-2,6.5
			l-4.4,1.3c-0.1,0.8,0.1,1,0.1,1.8c0,0.8-0.1,1.4,0,2.2l4.6,0.5C12.6,52.8,12.8,53.5,12.9,54.1z"/>
	</g>
	<path class="st34" d="M77.6,45.3c0.3-0.6,0.5-1.3,0.7-2c0.2-0.7,0.3-1.4,0.5-2.1l-2.9-1.8c0.1-1.5,0.1-3-0.2-4.4l2.7-2
		c-0.4-1.4-0.8-2.7-1.5-3.9l-3.4,0.2c-0.8-1.3-1.7-2.4-2.7-3.5l1-3.3c-1.1-0.9-2.2-1.7-3.5-2.3l-2.6,2.2c-0.7-0.3-1.4-0.5-2.1-0.7
		c-0.7-0.2-1.5-0.3-2.2-0.5l-1.1-3.2c-1.4-0.1-2.8,0-4.2,0.2l-0.8,3.3c-1.5,0.3-2.8,0.9-4.2,1.6l-2.8-2c-1.2,0.8-2.3,1.6-3.3,2.6
		l1.3,3.2c-1,1.1-1.8,2.3-2.4,3.7l-3.4,0.1c-0.3,0.6-0.5,1.3-0.7,2c-0.2,0.7-0.3,1.4-0.5,2.1l2.9,1.8c-0.1,1.5-0.1,3,0.2,4.4l-2.7,2
		c0.4,1.4,0.8,2.7,1.5,3.9l3.4-0.2c0.8,1.3,1.7,2.4,2.8,3.5l-1,3.3c1.1,0.9,2.2,1.7,3.5,2.3l2.6-2.2c0.7,0.3,1.4,0.5,2.1,0.7
		c0.7,0.2,1.5,0.3,2.2,0.5l1.1,3.2c1.4,0.1,2.8,0,4.2-0.2l0.8-3.3c1.5-0.3,2.8-0.9,4.2-1.6l2.8,2c1.2-0.8,2.3-1.6,3.3-2.6L71.7,49
		c1-1.1,1.8-2.3,2.4-3.7L77.6,45.3z M57.4,43.4c-3-0.8-4.8-4-3.9-7c0.8-3,4-4.8,7-3.9c3,0.8,4.8,4,3.9,7
		C63.6,42.4,60.4,44.2,57.4,43.4z"/>
	<linearGradient id="SVGID_3_" gradientUnits="userSpaceOnUse" x1="54.0388" y1="25.0106" x2="63.9598" y2="49.6986">
		<stop  offset="0" style="stop-color:#D6E491"/>
		<stop  offset="1" style="stop-color:#93BC47"/>
	</linearGradient>
	<path class="st35" d="M77.8,45.2c0.3-0.6,0.5-1.3,0.7-2c0.2-0.7,0.3-1.4,0.5-2.1L76,39.4c0.1-1.5,0.1-3-0.2-4.4l2.7-2
		c-0.4-1.4-0.8-2.7-1.5-3.9l-3.4,0.2C73,27.9,72,26.7,71,25.7l1-3.3c-1.1-0.9-2.2-1.7-3.5-2.3l-2.6,2.2c-0.7-0.3-1.4-0.5-2.1-0.7
		c-0.7-0.2-1.4-0.3-2.2-0.5l-1.1-3.2c-1.4-0.1-2.8,0-4.2,0.2l-0.8,3.3c-1.5,0.3-2.8,0.9-4.2,1.6l-2.8-2c-1.2,0.8-2.3,1.6-3.3,2.6
		l1.3,3.2c-1,1.1-1.8,2.3-2.4,3.7l-3.4,0.1c-0.3,0.6-0.5,1.3-0.7,2c-0.2,0.7-0.3,1.4-0.5,2.1l2.9,1.8c-0.1,1.5-0.1,3,0.2,4.4l-2.7,2
		c0.4,1.4,0.8,2.7,1.5,3.9l3.4-0.2c0.8,1.3,1.7,2.4,2.8,3.5l-1,3.3c1.1,0.9,2.2,1.7,3.5,2.3l2.6-2.2c0.7,0.3,1.4,0.5,2.1,0.7
		c0.7,0.2,1.4,0.3,2.2,0.5l1.1,3.2c1.4,0.1,2.8,0,4.2-0.2l0.8-3.3c1.5-0.3,2.8-0.9,4.2-1.6l2.8,2c1.2-0.8,2.3-1.6,3.3-2.6L71.9,49
		c1-1.1,1.8-2.3,2.5-3.7L77.8,45.2z M57.7,43.3c-3-0.8-4.8-4-3.9-7c0.8-3,4-4.8,7-3.9c3,0.8,4.8,4,3.9,7
		C63.8,42.4,60.7,44.2,57.7,43.3z"/>
	<g>
		
			<linearGradient id="SVGID_4_" gradientUnits="userSpaceOnUse" x1="-33.9708" y1="65.847" x2="-32.5865" y2="73.4609" gradientTransform="matrix(0.9633 0.2684 -0.2684 0.9633 110.8788 -37.2613)">
			<stop  offset="0" style="stop-color:#FFFFFF"/>
			<stop  offset="1" style="stop-color:#CFE08A"/>
		</linearGradient>
		<path class="st36" d="M43.3,37.1c3.8-8.4,13.3-12.9,22.4-10.4c4.1,1.1,7.5,3.5,9.9,6.6l2.3-0.6c-0.3-1.3-0.5-2.2-1.1-3.4l-3.2,0.5
			c-0.7-1.2-2.2-2.9-3.2-3.9l1-3.2c-1-0.8-1.7-1.4-2.9-2l-2.4,1.9c-0.6-0.3-2.2-0.6-2.9-0.8c-0.7-0.2-1.3-0.3-2-0.4l-1-3
			c-1.3-0.1-2-0.2-3.3,0l-0.6,3.5c-1.3,0.3-4,1.4-5.2,2l-2.7-2.3c-1.1,0.7-1.4,1.2-2.3,2.1l1.2,2.9c-0.9,1-2.2,3.2-2.8,4.5l-3.6,0
			c-0.2,0.6-0.1,0.8-0.3,1.4c-0.2,0.6-0.4,1-0.5,1.7l3.4,1.4C43.3,36.1,43.3,36.6,43.3,37.1z"/>
	</g>
	<path class="st34" d="M61.4,28.4C56.3,27,51.1,30,49.6,35.1c-1.4,5.1,1.6,10.4,6.6,11.8c5.1,1.4,10.4-1.6,11.8-6.6
		C69.5,35.1,66.5,29.9,61.4,28.4z M56.6,45.6c-4.4-1.2-7-5.8-5.8-10.2c1.2-4.4,5.8-7,10.2-5.8c4.4,1.2,7,5.8,5.8,10.2
		C65.6,44.3,61,46.9,56.6,45.6z"/>
	
		<linearGradient id="SVGID_5_" gradientUnits="userSpaceOnUse" x1="-39.4096" y1="86.2304" x2="-20.2848" y2="86.2304" gradientTransform="matrix(0.9633 0.2684 -0.2684 0.9633 110.8788 -37.2613)">
		<stop  offset="0" style="stop-color:#FFFFFF"/>
		<stop  offset="1" style="stop-color:#CFE08A"/>
	</linearGradient>
	<path class="st37" d="M61.5,28.6c-5.1-1.4-10.4,1.6-11.8,6.6c-1.4,5.1,1.6,10.4,6.6,11.8c5.1,1.4,10.4-1.6,11.8-6.6
		C69.6,35.3,66.6,30,61.5,28.6z M56.8,45.8c-4.4-1.2-7-5.8-5.8-10.2c1.2-4.4,5.8-7,10.2-5.8c4.4,1.2,7,5.8,5.8,10.2
		C65.7,44.4,61.2,47,56.8,45.8z"/>
	<path class="st38" d="M57.9,52.2c0.1-0.9,0.1-1.8,0.1-2.7c0-0.9,0-1.8-0.1-2.7l-4.2-1.2c-0.3-1.9-0.9-3.7-1.7-5.4l2.7-3.5
		c-0.9-1.6-2-3-3.2-4.4l-4.1,1.5c-1.4-1.3-2.9-2.4-4.6-3.3l0.1-4.4c-1.6-0.7-3.3-1.3-5.1-1.7l-2.5,3.6c-0.9-0.1-1.9-0.2-2.8-0.2
		c-1,0-1.9,0.1-2.8,0.2l-2.5-3.6c-1.8,0.4-3.5,0.9-5.1,1.7l0.1,4.4c-1.7,0.9-3.2,2-4.6,3.3l-4.1-1.5c-1.2,1.3-2.3,2.8-3.2,4.4
		l2.7,3.5c-0.8,1.7-1.4,3.5-1.7,5.4l-4.2,1.2c-0.1,0.9-0.1,1.8-0.1,2.7c0,0.9,0.1,1.8,0.1,2.7l4.2,1.2c0.3,1.9,0.9,3.7,1.7,5.4
		l-2.7,3.5c0.9,1.6,2,3,3.2,4.4l4.1-1.5c1.4,1.3,2.9,2.4,4.6,3.3L22,72.9c1.6,0.7,3.3,1.3,5.1,1.7l2.5-3.6c0.9,0.1,1.9,0.2,2.8,0.2
		c1,0,1.9-0.1,2.8-0.2l2.5,3.6c1.8-0.4,3.5-0.9,5.1-1.7l-0.1-4.4c1.7-0.9,3.2-2,4.6-3.3l4.1,1.5c1.2-1.3,2.3-2.8,3.2-4.4l-2.7-3.5
		c0.8-1.7,1.4-3.5,1.7-5.4L57.9,52.2z M32.4,56.8c-4,0-7.3-3.3-7.3-7.3c0-4,3.3-7.3,7.3-7.3s7.3,3.3,7.3,7.3
		C39.7,53.5,36.4,56.8,32.4,56.8z"/>
	<linearGradient id="SVGID_6_" gradientUnits="userSpaceOnUse" x1="39.1245" y1="62.4227" x2="27.5886" y2="38.8884">
		<stop  offset="6.060610e-03" style="stop-color:#D2CDC8"/>
		<stop  offset="0.5758" style="stop-color:#ECEBE9"/>
	</linearGradient>
	<path class="st39" d="M58.3,52.2c0.1-0.9,0.1-1.8,0.1-2.7c0-0.9,0-1.8-0.1-2.7l-4.2-1.2c-0.3-1.9-0.9-3.7-1.7-5.4l2.7-3.5
		c-0.9-1.6-2-3-3.2-4.4l-4.1,1.5c-1.4-1.3-2.9-2.4-4.6-3.3l0.1-4.4c-1.6-0.7-3.3-1.3-5.1-1.7l-2.5,3.6c-0.9-0.1-1.9-0.2-2.8-0.2
		c-1,0-1.9,0.1-2.8,0.2l-2.5-3.6c-1.8,0.4-3.5,0.9-5.1,1.7l0.1,4.4c-1.7,0.9-3.2,2-4.6,3.3l-4.1-1.5c-1.2,1.3-2.3,2.8-3.2,4.4
		l2.7,3.5c-0.8,1.7-1.4,3.5-1.7,5.4l-4.2,1.2c-0.1,0.9-0.1,1.8-0.1,2.7c0,0.9,0,1.8,0.1,2.7l4.2,1.2c0.3,1.9,0.9,3.7,1.7,5.4
		l-2.7,3.5c0.9,1.6,2,3,3.2,4.4l4.1-1.5c1.4,1.3,2.9,2.4,4.6,3.3l-0.1,4.4c1.6,0.7,3.3,1.3,5.1,1.7L30,71c0.9,0.1,1.9,0.2,2.8,0.2
		c1,0,1.9-0.1,2.8-0.2l2.5,3.6c1.8-0.4,3.5-0.9,5.1-1.7l-0.1-4.4c1.7-0.9,3.2-2,4.6-3.3l4.1,1.5c1.2-1.3,2.3-2.8,3.2-4.4l-2.7-3.5
		c0.8-1.7,1.4-3.5,1.7-5.4L58.3,52.2z M32.8,56.8c-4,0-7.3-3.3-7.3-7.3c0-4,3.3-7.3,7.3-7.3c4,0,7.3,3.3,7.3,7.3
		C40.1,53.5,36.8,56.8,32.8,56.8z"/>
	<path class="st40" d="M32,37.1c-6.8,0-12.2,5.5-12.2,12.2c0,6.8,5.5,12.2,12.2,12.2c6.8,0,12.2-5.5,12.2-12.2
		C44.2,42.6,38.7,37.1,32,37.1z M32,60c-5.9,0-10.6-4.8-10.6-10.6c0-5.9,4.8-10.6,10.6-10.6c5.9,0,10.6,4.8,10.6,10.6
		C42.6,55.2,37.8,60,32,60z"/>
	<linearGradient id="SVGID_7_" gradientUnits="userSpaceOnUse" x1="20.2803" y1="49.513" x2="44.7366" y2="49.513">
		<stop  offset="0" style="stop-color:#F3F2F1"/>
		<stop  offset="1" style="stop-color:#D2CDC8"/>
	</linearGradient>
	<path class="st41" d="M32.5,37.3c-6.8,0-12.2,5.5-12.2,12.2c0,6.8,5.5,12.2,12.2,12.2c6.8,0,12.2-5.5,12.2-12.2
		C44.7,42.8,39.3,37.3,32.5,37.3z M32.5,60.1c-5.9,0-10.6-4.8-10.6-10.6c0-5.9,4.8-10.6,10.6-10.6c5.9,0,10.6,4.8,10.6,10.6
		C43.1,55.4,38.4,60.1,32.5,60.1z"/>
</g>
</svg>
