<?xml version="1.0" encoding="iso-8859-1"?>
<!-- Generator: Adobe Illustrator 16.0.3, SVG Export Plug-In . SVG Version: 6.00 Build 0)  -->
<!DOCTYPE svg PUBLIC "-//W3C//DTD SVG 1.1//EN" "http://www.w3.org/Graphics/SVG/1.1/DTD/svg11.dtd">
<svg version="1.1" id="Layer_1" xmlns="http://www.w3.org/2000/svg" xmlns:xlink="http://www.w3.org/1999/xlink" x="0px" y="0px"
	 width="128px" height="128px" viewBox="0 0 128 128" enable-background="new 0 0 128 128" xml:space="preserve">
<g>
	<g>
		<g>
			<path d="M45.354,76.663c-10.516,0-19.072-8.556-19.073-19.073c0-10.517,8.557-19.073,19.073-19.073s19.073,8.556,19.073,19.073
				C64.427,68.107,55.87,76.663,45.354,76.663z M45.354,42.518c-8.312,0-15.073,6.762-15.073,15.073
				c0.001,8.31,6.763,15.073,15.073,15.073c8.312,0,15.073-6.763,15.073-15.073C60.427,49.279,53.665,42.518,45.354,42.518z"/>
		</g>
		<polygon points="58.887,68.191 43.354,58.713 43.354,40.552 47.354,40.552 47.354,56.468 60.971,64.777 		"/>
		<rect x="49.378" y="43.046" transform="matrix(0.7071 0.7071 -0.7071 0.7071 51.5109 -21.2264)" width="4" height="17.04"/>
	</g>
	<path d="M99.986,44.54H77.248c-1.104,0-2-0.896-2-2s0.896-2,2-2h22.738c1.104,0,2,0.896,2,2S101.091,44.54,99.986,44.54z"/>
	<path d="M99.986,59.11H77.248c-1.104,0-2-0.896-2-2c0-1.104,0.896-2,2-2h22.738c1.104,0,2,0.896,2,2
		C101.986,58.215,101.091,59.11,99.986,59.11z"/>
	<path d="M99.986,74.09H77.248c-1.104,0-2-0.895-2-2c0-1.104,0.896-2,2-2h22.738c1.104,0,2,0.896,2,2
		C101.986,73.195,101.091,74.09,99.986,74.09z"/>
</g>
<path d="M108.9,96.367H19.368c-2.919,0-5.294-2.374-5.294-5.293v-72.26h100.12v72.26C114.194,93.993,111.819,96.367,108.9,96.367z
	 M18.074,22.814v68.26c0,0.713,0.58,1.293,1.294,1.293H108.9c0.714,0,1.294-0.58,1.294-1.293v-68.26H18.074z"/>
<path d="M64.135,116.001c-1.104,0-2-0.896-2-2V94.367c0-1.104,0.896-2,2-2s2,0.896,2,2v19.634
	C66.135,115.105,65.239,116.001,64.135,116.001z"/>
<path d="M78.986,116.001H49.281c-1.104,0-2-0.896-2-2s0.896-2,2-2h29.705c1.104,0,2,0.896,2,2S80.091,116.001,78.986,116.001z"/>
<path d="M64.135,22.139c-1.104,0-2-0.896-2-2v-7.138c0-1.104,0.896-2,2-2s2,0.896,2,2v7.138
	C66.135,21.244,65.239,22.139,64.135,22.139z"/>
</svg>
