<?xml version="1.0" encoding="iso-8859-1"?>
<!-- Generator: Adobe Illustrator 16.0.3, SVG Export Plug-In . SVG Version: 6.00 Build 0)  -->
<!DOCTYPE svg PUBLIC "-//W3C//DTD SVG 1.1//EN" "http://www.w3.org/Graphics/SVG/1.1/DTD/svg11.dtd">
<svg version="1.1" id="Layer_1" xmlns="http://www.w3.org/2000/svg" xmlns:xlink="http://www.w3.org/1999/xlink" x="0px" y="0px"
	 width="128px" height="128px" viewBox="0 0 128 128" enable-background="new 0 0 128 128" xml:space="preserve">
<path d="M64.051,114.139h-0.004c-27.642,0-50.129-22.488-50.129-50.129c0-27.641,22.487-50.129,50.129-50.129
	s50.129,22.488,50.129,50.129C114.176,91.65,91.689,114.139,64.051,114.139z M64.047,17.881c-25.436,0-46.129,20.693-46.129,46.129
	s20.693,46.129,46.129,46.129h0.004c25.434,0,46.125-20.693,46.125-46.129S89.482,17.881,64.047,17.881z"/>
<path d="M64.047,114.139c-1.104,0-2-0.896-2-2V15.881c0-1.104,0.896-2,2-2s2,0.896,2,2v96.258
	C66.047,113.243,65.151,114.139,64.047,114.139z"/>
<path d="M112.176,66.01h-96.26c-1.104,0-2-0.896-2-2s0.896-2,2-2h96.26c1.104,0,2,0.896,2,2S113.28,66.01,112.176,66.01z"/>
<path d="M63.703,114.137c-15.469,0-27.588-22.02-27.59-50.128c0-28.11,12.118-50.129,27.588-50.129
	c15.469,0,27.586,22.019,27.586,50.128C91.287,92.117,79.171,114.137,63.703,114.137z M63.701,17.879
	c-12.786,0-23.588,21.124-23.588,46.128c0.002,25.005,10.804,46.129,23.588,46.129h0.002c12.784,0,23.584-21.124,23.584-46.129
	C87.287,39.003,76.486,17.879,63.701,17.879z"/>
</svg>
