<?xml version="1.0" encoding="iso-8859-1"?>
<!-- Generator: Adobe Illustrator 16.0.3, SVG Export Plug-In . SVG Version: 6.00 Build 0)  -->
<!DOCTYPE svg PUBLIC "-//W3C//DTD SVG 1.1//EN" "http://www.w3.org/Graphics/SVG/1.1/DTD/svg11.dtd">
<svg version="1.1" id="Layer_1" xmlns="http://www.w3.org/2000/svg" xmlns:xlink="http://www.w3.org/1999/xlink" x="0px" y="0px"
	 width="128px" height="128px" viewBox="0 0 128 128" enable-background="new 0 0 128 128" xml:space="preserve">
<g>
	<path d="M107.669,102.1h-88.88c-3.06,0-5.549-2.49-5.549-5.549V31.482c0-3.06,2.489-5.549,5.549-5.549h88.88
		c3.06,0,5.549,2.489,5.549,5.549v65.069C113.218,99.609,110.729,102.1,107.669,102.1z M18.789,29.933
		c-0.854,0-1.549,0.695-1.549,1.549v65.069c0,0.854,0.694,1.549,1.549,1.549h88.88c0.854,0,1.549-0.695,1.549-1.549V31.482
		c0-0.854-0.694-1.549-1.549-1.549H18.789z"/>
	<path d="M111.218,47.974H15.24c-1.104,0-2-0.895-2-2c0-1.104,0.896-2,2-2h95.978c1.104,0,2,0.896,2,2
		C113.218,47.079,112.322,47.974,111.218,47.974z"/>
	<circle cx="27.235" cy="36.998" r="1.966"/>
	<circle cx="35.322" cy="36.998" r="1.965"/>
</g>
<g>
	<path d="M86.019,66.53H39.985c-1.104,0-2-0.896-2-2s0.896-2,2-2h46.033c1.104,0,2,0.896,2,2S87.123,66.53,86.019,66.53z"/>
	<path d="M86.019,82.511H39.985c-1.104,0-2-0.896-2-2s0.896-2,2-2h46.033c1.104,0,2,0.896,2,2S87.123,82.511,86.019,82.511z"/>
</g>
</svg>
