<?xml version="1.0" encoding="iso-8859-1"?>
<!-- Generator: Adobe Illustrator 16.0.3, SVG Export Plug-In . SVG Version: 6.00 Build 0)  -->
<!DOCTYPE svg PUBLIC "-//W3C//DTD SVG 1.1//EN" "http://www.w3.org/Graphics/SVG/1.1/DTD/svg11.dtd">
<svg version="1.1" id="Layer_1" xmlns="http://www.w3.org/2000/svg" xmlns:xlink="http://www.w3.org/1999/xlink" x="0px" y="0px"
	 width="128px" height="128px" viewBox="0 0 128 128" enable-background="new 0 0 128 128" xml:space="preserve">
<g>
	<g>
		<path d="M14.12,100.75V24.7l3.411-1.393c9.223-3.755,16.942-5.504,24.296-5.504c6.826,0.007,13.906,1.498,22.243,4.688
			c8.346-3.192,15.418-4.681,22.239-4.688c7.351,0,15.071,1.749,24.3,5.503l3.411,1.394v76.047l-7.54-3.059
			c-7.851-3.193-14.259-4.68-20.169-4.681c-5.249,0-11.041,1.214-17.707,3.713l-4.533,1.796l-4.565-1.809
			c-6.636-2.485-12.431-3.7-17.679-3.7c-5.911,0.001-12.32,1.487-20.17,4.68L14.12,100.75z M86.312,89.009
			c6.444,0.001,13.331,1.581,21.675,4.976l2.034,0.824V27.387l-0.922-0.376c-8.731-3.552-15.973-5.207-22.787-5.207
			c-6.458,0.007-13.232,1.474-21.317,4.619l-0.919,0.371l-0.947-0.379c-8.071-3.137-14.847-4.604-21.303-4.611
			c-6.817,0-14.058,1.655-22.784,5.208l-0.921,0.376v67.42l2.032-0.825c8.342-3.393,15.229-4.973,21.675-4.974
			c5.736,0,11.989,1.298,19.117,3.968l3.127,1.238l3.095-1.225C74.323,90.307,80.574,89.009,86.312,89.009z"/>
	</g>
	<g>
		<path d="M54.145,72.768c-0.125,0-0.252-0.012-0.38-0.037c-4.629-0.891-8.422-1.305-11.938-1.305
			c-3.495,0-7.285,0.415-11.929,1.307c-1.078,0.209-2.132-0.504-2.341-1.588c-0.208-1.086,0.502-2.134,1.587-2.342
			c4.898-0.939,8.928-1.377,12.683-1.377c3.775,0,7.809,0.438,12.693,1.377c1.085,0.209,1.795,1.258,1.586,2.342
			C55.923,72.102,55.085,72.768,54.145,72.768z M73.994,72.768c-0.94,0-1.778-0.666-1.962-1.623
			c-0.209-1.084,0.502-2.133,1.586-2.342c4.887-0.939,8.921-1.377,12.693-1.377c3.755,0,7.786,0.438,12.686,1.377
			c1.085,0.208,1.795,1.256,1.587,2.341s-1.246,1.798-2.341,1.589c-4.645-0.892-8.436-1.307-11.932-1.307
			c-3.513,0-7.307,0.414-11.938,1.305C74.246,72.756,74.119,72.768,73.994,72.768z M73.994,58.15c-0.939,0-1.777-0.665-1.962-1.621
			c-0.209-1.085,0.501-2.133,1.585-2.343c4.869-0.938,8.902-1.376,12.694-1.376c3.793,0,7.824,0.438,12.688,1.376
			c1.085,0.209,1.794,1.259,1.585,2.343c-0.21,1.084-1.262,1.792-2.343,1.584c-4.607-0.89-8.398-1.304-11.93-1.304
			s-7.324,0.415-11.937,1.304C74.247,58.138,74.119,58.15,73.994,58.15z M54.145,58.15c-0.125,0-0.253-0.012-0.381-0.036
			c-4.61-0.89-8.403-1.304-11.937-1.304c-3.531,0-7.322,0.415-11.93,1.304c-1.089,0.208-2.134-0.501-2.343-1.584
			c-0.209-1.084,0.5-2.134,1.585-2.343c4.863-0.938,8.895-1.376,12.688-1.376c3.794,0,7.828,0.438,12.694,1.376
			c1.085,0.209,1.794,1.258,1.585,2.343C55.922,57.485,55.084,58.15,54.145,58.15z M73.994,43.551c-0.939,0-1.777-0.665-1.962-1.622
			c-0.209-1.084,0.501-2.133,1.585-2.343c4.882-0.941,8.915-1.381,12.693-1.383c0.015,0,0.03,0,0.046,0
			c3.769,0,7.788,0.437,12.646,1.375c1.085,0.209,1.794,1.258,1.585,2.343c-0.209,1.084-1.265,1.789-2.343,1.585
			c-4.602-0.889-8.381-1.303-11.889-1.303c-0.015,0-0.028,0-0.042,0c-3.519,0.002-7.313,0.418-11.938,1.311
			C74.247,43.539,74.119,43.551,73.994,43.551z M54.145,43.551c-0.125,0-0.253-0.012-0.381-0.037
			c-4.624-0.893-8.416-1.309-11.934-1.311c-0.015,0-0.028,0-0.042,0c-3.512,0-7.292,0.414-11.894,1.303
			c-1.095,0.204-2.134-0.501-2.343-1.585c-0.209-1.085,0.5-2.134,1.585-2.343c4.856-0.938,8.879-1.375,12.65-1.375
			c0.016,0,0.03,0,0.046,0c3.777,0.002,7.81,0.442,12.688,1.383c1.085,0.21,1.794,1.258,1.585,2.343
			C55.922,42.886,55.084,43.551,54.145,43.551z"/>
	</g>
</g>
<path d="M16.121,108.84c-0.79,0-1.538-0.472-1.854-1.248c-0.415-1.023,0.078-2.191,1.102-2.605l4.784-1.943
	c8.343-3.393,15.23-4.973,21.674-4.975c5.736,0,11.989,1.297,19.118,3.967l3.127,1.24l3.095-1.227
	c7.158-2.684,13.409-3.98,19.146-3.98c6.443,0.002,13.33,1.582,21.674,4.976l4.787,1.94c1.023,0.416,1.517,1.582,1.102,2.606
	c-0.416,1.024-1.584,1.516-2.605,1.101l-4.788-1.941c-7.852-3.192-14.26-4.68-20.17-4.682c-5.248,0-11.04,1.215-17.706,3.713
	l-4.533,1.797l-4.565-1.811c-6.637-2.484-12.431-3.699-17.679-3.699c-5.91,0.002-12.319,1.489-20.17,4.682l-4.785,1.941
	C16.626,108.792,16.371,108.84,16.121,108.84z"/>
</svg>
