<?xml version="1.0" encoding="iso-8859-1"?>
<!-- Generator: Adobe Illustrator 16.0.3, SVG Export Plug-In . SVG Version: 6.00 Build 0)  -->
<!DOCTYPE svg PUBLIC "-//W3C//DTD SVG 1.1//EN" "http://www.w3.org/Graphics/SVG/1.1/DTD/svg11.dtd">
<svg version="1.1" id="Layer_1" xmlns="http://www.w3.org/2000/svg" xmlns:xlink="http://www.w3.org/1999/xlink" x="0px" y="0px"
	 width="128px" height="128px" viewBox="0 0 128 128" enable-background="new 0 0 128 128" xml:space="preserve">
<path d="M46.229,114.072c-7.994,0-15.737-3.717-20.428-10.656c-5.007-7.41-5.585-16.74-1.545-24.961
	c0.487-0.99,1.688-1.4,2.677-0.912c0.991,0.486,1.4,1.686,0.913,2.676c-3.449,7.02-2.987,14.658,1.27,20.957
	c6.4,9.469,19.641,11.746,29.514,5.074l17.271-12c0.909-0.627,2.154-0.404,2.784,0.502s0.405,2.154-0.501,2.783l-17.292,12.014
	C56.369,112.605,51.249,114.072,46.229,114.072z"/>
<path fill="none" stroke="#000000" stroke-width="4" stroke-linecap="round" stroke-miterlimit="10" d="M25.917,92.625"/>
<path d="M25.839,81.789c-0.217,0-0.438-0.037-0.654-0.111c-1.044-0.361-1.597-1.5-1.235-2.545
	c1.652-4.771,2.284-16.996-1.608-28.079c-2.637-7.5,0.421-10.681,3.45-12.027c2.049-0.917,4.22-0.957,6.111-0.111
	c1.798,0.805,3.236,2.32,4.158,4.385c2.247,5.028,5.459,13.214,8.002,23.657c0.261,1.072-0.397,2.154-1.471,2.416
	c-1.063,0.258-2.154-0.395-2.416-1.469c-2.472-10.152-5.588-18.096-7.768-22.972c-0.507-1.135-1.267-1.975-2.14-2.365
	c-0.859-0.385-1.819-0.347-2.849,0.113c-0.981,0.437-3.271,1.455-1.306,7.048c4.255,12.114,3.506,25.252,1.614,30.713
	C27.442,81.27,26.668,81.789,25.839,81.789z"/>
<g>
	<path d="M80.99,97.893H49.597c-5.063,0-9.182-4.117-9.182-9.18V23.187c0-5.063,4.119-9.181,9.182-9.181H80.99
		c5.063,0,9.182,4.118,9.182,9.181v65.526C90.172,93.775,86.053,97.893,80.99,97.893z M49.597,18.006
		c-2.857,0-5.182,2.324-5.182,5.181v65.526c0,2.855,2.324,5.18,5.182,5.18H80.99c2.857,0,5.182-2.324,5.182-5.18V23.187
		c0-2.856-2.324-5.181-5.182-5.181H49.597z"/>
	<path d="M88.172,29.466H42.415c-1.104,0-2-0.896-2-2s0.896-2,2-2h45.757c1.104,0,2,0.896,2,2S89.276,29.466,88.172,29.466z"/>
	<path d="M88.172,83.869H69.77c-1.104,0-2-0.896-2-2c0-1.105,0.896-2,2-2h18.402c1.104,0,2,0.895,2,2
		C90.172,82.973,89.276,83.869,88.172,83.869z"/>
	<path d="M61.632,83.869H42.415c-1.104,0-2-0.896-2-2c0-1.105,0.896-2,2-2h19.217c1.104,0,2,0.895,2,2
		C63.632,82.973,62.736,83.869,61.632,83.869z"/>
	<path d="M65.7,87.984c-3.346,0-6.068-2.723-6.068-6.068c0-3.348,2.723-6.07,6.068-6.07c3.347,0,6.069,2.723,6.069,6.07
		C71.77,85.262,69.047,87.984,65.7,87.984z M65.7,79.846c-1.141,0-2.068,0.928-2.068,2.07c0,1.141,0.928,2.068,2.068,2.068
		s2.069-0.928,2.069-2.068C67.77,80.773,66.841,79.846,65.7,79.846z"/>
</g>
<path fill="none" stroke="#000000" stroke-width="4" stroke-linecap="round" stroke-miterlimit="10" d="M96.754,80.084"/>
<path fill="none" stroke="#000000" stroke-width="4" stroke-linecap="round" stroke-miterlimit="10" d="M64.749,45.987"/>
<path d="M91.123,40.92c-0.578,0-1.152-0.25-1.548-0.731c-0.7-0.854-0.575-2.114,0.278-2.815l3.499-2.869
	c1.631-1.339,1.871-3.754,0.534-5.384c-0.716-0.873-1.77-1.381-2.898-1.4c-0.438,0.039-0.951,0.123-1.275,0.205
	c-0.366,0.443-0.921,0.726-1.541,0.726c-1.104,0-2-0.896-2-2c0-1.71,1.544-2.694,4.59-2.926l0.149-0.006c0.003,0,0.006,0,0.009,0
	c2.357,0,4.565,1.043,6.06,2.863c2.735,3.336,2.246,8.276-1.089,11.015l-3.5,2.87C92.019,40.772,91.569,40.92,91.123,40.92z"/>
<path d="M88.173,74.014c-0.58,0-1.154-0.252-1.55-0.736c-0.699-0.855-0.571-2.115,0.284-2.813l12.794-10.447
	c1.628-1.336,1.866-3.753,0.528-5.384c-1.338-1.633-3.755-1.868-5.386-0.53l-0.083,0.064l-5.598,4.119l-2.461-3.151l10.77-8.921
	c1.638-1.346,1.877-3.763,0.539-5.394c-1.339-1.633-3.755-1.867-5.386-0.53l-0.139,0.104l-3.185,2.181
	c-0.912,0.624-2.156,0.392-2.78-0.521c-0.624-0.911-0.391-2.156,0.521-2.78l3.118-2.135c3.337-2.673,8.227-2.168,10.943,1.144
	c2.736,3.336,2.248,8.278-1.087,11.017l-0.369,0.306c1.394,0.441,2.68,1.278,3.674,2.49c2.737,3.337,2.249,8.278-1.087,11.016
	l-12.798,10.45C89.065,73.865,88.618,74.014,88.173,74.014z"/>
<path d="M88.173,89.002c-0.576,0-1.148-0.248-1.544-0.727c-0.703-0.854-0.582-2.113,0.27-2.816l14.355-11.848
	c1.636-1.342,1.875-3.758,0.537-5.389c-1.289-1.57-3.714-1.723-5.403-0.336c-0.854,0.701-2.114,0.576-2.815-0.277
	c-0.7-0.855-0.575-2.115,0.278-2.816c3.396-2.783,8.346-2.385,11.032,0.892c2.737,3.336,2.249,8.277-1.087,11.016L89.445,88.545
	C89.072,88.852,88.621,89.002,88.173,89.002z"/>
</svg>
