<?xml version="1.0" encoding="iso-8859-1"?>
<!-- Generator: Adobe Illustrator 16.0.3, SVG Export Plug-In . SVG Version: 6.00 Build 0)  -->
<!DOCTYPE svg PUBLIC "-//W3C//DTD SVG 1.1//EN" "http://www.w3.org/Graphics/SVG/1.1/DTD/svg11.dtd">
<svg version="1.1" id="Layer_1" xmlns="http://www.w3.org/2000/svg" xmlns:xlink="http://www.w3.org/1999/xlink" x="0px" y="0px"
	 width="128px" height="128px" viewBox="0 0 128 128" enable-background="new 0 0 128 128" xml:space="preserve">
<g>
	<path d="M54.47,81.729H30.449c-1.742,0-3.168-1.383-3.238-3.109c-0.003-0.045-0.005-0.09-0.005-0.137
		c0-0.234,0.05-5.793,4.418-7.965c1.258-0.625,1.782-0.732,2.385-0.814c0.267-0.035,0.568-0.078,1.597-0.504
		c0.666-0.275,1.124-0.49,1.432-0.645l0.008-0.834c-0.348-0.617-0.824-1.654-1.105-3.067c-0.068-0.091-0.134-0.189-0.197-0.298
		c-0.531-0.921-1.063-3.277-0.504-4.694c-0.094-0.667-0.155-1.18-0.096-1.781c0.292-3.021,3.538-5.634,7.235-5.823
		c0.063-0.004,0.125-0.004,0.189-0.001c4.598,0.199,6.97,3.159,7.228,5.824c0.063,0.609-0.009,1.14-0.104,1.793
		c0.15,0.372,0.242,0.83,0.242,1.393c0,0.321-0.036,2.367-0.95,3.595c-0.282,1.406-0.758,2.437-1.105,3.052l0.008,0.799
		c0.311,0.154,0.768,0.367,1.429,0.641c1.047,0.434,1.366,0.486,1.647,0.535c0.604,0.1,1.092,0.213,2.334,0.83
		c4.367,2.172,4.417,7.73,4.417,7.965C57.712,80.271,56.258,81.729,54.47,81.729z M31.277,77.729h22.363
		c-0.152-1.045-0.63-2.885-2.126-3.629c-0.803-0.398-0.968-0.426-1.216-0.469c-0.574-0.096-1.159-0.221-2.517-0.783
		c-2.726-1.131-3.585-1.758-3.833-2.797c-0.035-0.146-0.053-0.295-0.055-0.445l-0.022-2.439c-0.004-0.447,0.142-0.883,0.413-1.236
		l0,0c-0.001,0,0.649-0.934,0.866-2.605c0.062-0.475,0.291-0.907,0.641-1.224c0.057-0.227,0.105-0.52,0.129-0.764
		c-0.262-0.397-0.377-0.881-0.313-1.363c0.04-0.302,0.077-0.56,0.11-0.786c0.067-0.457,0.111-0.759,0.096-0.914
		c-0.08-0.83-1.032-2.084-3.323-2.217c-1.973,0.141-3.299,1.499-3.368,2.21c-0.017,0.176,0.021,0.456,0.103,1.023l0.095,0.687
		c0.064,0.484-0.051,0.969-0.314,1.367c0.022,0.244,0.071,0.536,0.127,0.762c0.351,0.317,0.579,0.751,0.641,1.227
		c0.216,1.673,0.86,2.603,0.866,2.613c0.27,0.354,0.414,0.785,0.41,1.23l-0.022,2.453c-0.001,0.145-0.019,0.287-0.051,0.428
		c-0.241,1.057-1.139,1.719-3.839,2.838c-1.394,0.578-1.996,0.691-2.588,0.771c-0.229,0.031-0.379,0.053-1.146,0.434
		C31.909,74.844,31.431,76.68,31.277,77.729z"/>
	<path d="M98.807,62.969H67.625c-1.104,0-2-0.896-2-2s0.896-2,2-2h31.182c1.104,0,2,0.896,2,2S99.911,62.969,98.807,62.969z"/>
	<path d="M98.807,74.813H67.625c-1.104,0-2-0.895-2-2c0-1.104,0.896-2,2-2h31.182c1.104,0,2,0.896,2,2
		C100.807,73.918,99.911,74.813,98.807,74.813z"/>
</g>
<path d="M114.008,104.432H95.972v-6.654c0-2-1.628-3.629-3.629-3.629c-2,0-3.628,1.629-3.628,3.629v6.654H39.3v-6.654
	c0-2-1.628-3.629-3.628-3.629s-3.628,1.629-3.628,3.629v6.654H14.007V38.748h100.001V104.432z M99.972,100.432h10.036V42.748H18.007
	v57.684h10.037v-2.654c0-4.207,3.422-7.629,7.628-7.629S43.3,93.57,43.3,97.777v2.654h41.415v-2.654
	c0-4.207,3.422-7.629,7.628-7.629c4.207,0,7.629,3.422,7.629,7.629V100.432z"/>
<rect x="17.225" y="31.073" width="93.547" height="4"/>
<rect x="19.563" y="23.879" width="88.89" height="4"/>
</svg>
