<?xml version="1.0" encoding="iso-8859-1"?>
<!-- Generator: Adobe Illustrator 16.0.3, SVG Export Plug-In . SVG Version: 6.00 Build 0)  -->
<!DOCTYPE svg PUBLIC "-//W3C//DTD SVG 1.1//EN" "http://www.w3.org/Graphics/SVG/1.1/DTD/svg11.dtd">
<svg version="1.1" id="Layer_1" xmlns="http://www.w3.org/2000/svg" xmlns:xlink="http://www.w3.org/1999/xlink" x="0px" y="0px"
	 width="128px" height="128px" viewBox="0 0 128 128" enable-background="new 0 0 128 128" xml:space="preserve">
<g>
	<path d="M113.31,89.996H47.969c-2.176,0-3.945-1.77-3.945-3.945V42.043c0-2.175,1.77-3.944,3.945-3.944h65.341
		c2.176,0,3.945,1.769,3.945,3.944v44.008C117.255,88.227,115.485,89.996,113.31,89.996z M113.255,42.043l-65.286,0.056
		l0.055,43.952l65.231-0.055V42.043z"/>
	<path d="M80.64,66.047c-0.391,0-0.78-0.113-1.118-0.342L45.55,42.789c-0.916-0.617-1.157-1.861-0.54-2.777
		c0.618-0.916,1.861-1.157,2.776-0.54l32.839,22.153l32.003-22.141c0.906-0.627,2.154-0.401,2.782,0.508
		c0.629,0.908,0.401,2.154-0.507,2.782L81.777,65.691C81.436,65.928,81.037,66.047,80.64,66.047z"/>
</g>
<g>
	<path d="M35.4,51.083H11.251c-1.104,0-2-0.896-2-2s0.896-2,2-2H35.4c1.104,0,2,0.896,2,2S36.505,51.083,35.4,51.083z"/>
	<path d="M35.4,66.098H16.725c-1.104,0-2-0.896-2-2c0-1.104,0.896-2,2-2H35.4c1.104,0,2,0.896,2,2
		C37.4,65.201,36.505,66.098,35.4,66.098z"/>
	<path d="M35.4,81.011H20.375c-1.104,0-2-0.896-2-2s0.896-2,2-2H35.4c1.104,0,2,0.896,2,2S36.505,81.011,35.4,81.011z"/>
</g>
</svg>
