<?xml version="1.0" encoding="iso-8859-1"?>
<!-- Generator: Adobe Illustrator 16.0.3, SVG Export Plug-In . SVG Version: 6.00 Build 0)  -->
<!DOCTYPE svg PUBLIC "-//W3C//DTD SVG 1.1//EN" "http://www.w3.org/Graphics/SVG/1.1/DTD/svg11.dtd">
<svg version="1.1" id="Layer_1" xmlns="http://www.w3.org/2000/svg" xmlns:xlink="http://www.w3.org/1999/xlink" x="0px" y="0px"
	 width="128px" height="128px" viewBox="0 0 128 128" enable-background="new 0 0 128 128" xml:space="preserve">
<path d="M109.205,89.496H18.836c-2.586,0-4.69-2.104-4.69-4.69V18.709c0-2.586,2.104-4.69,4.69-4.69h90.369
	c2.586,0,4.69,2.104,4.69,4.69v66.097C113.896,87.393,111.791,89.496,109.205,89.496z M18.836,18.019c-0.374,0-0.69,0.316-0.69,0.69
	v66.097c0,0.374,0.316,0.69,0.69,0.69h90.369c0.374,0,0.69-0.316,0.69-0.69V18.709c0-0.375-0.316-0.69-0.69-0.69H18.836z"/>
<path d="M85.041,114.432H43.303l6.487-16.887c0.396-1.032,1.558-1.545,2.584-1.149c1.031,0.396,1.546,1.553,1.15,2.584
	l-4.399,11.452h30.094l-4.401-11.452c-0.396-1.031,0.119-2.188,1.149-2.584s2.188,0.117,2.585,1.149L85.041,114.432z"/>
<path d="M111.966,75.252H69.104c-1.104,0-2-0.896-2-2c0-1.104,0.896-2,2-2h42.862c1.104,0,2,0.896,2,2
	C113.966,74.355,113.07,75.252,111.966,75.252z"/>
<path d="M58.939,75.252H16.075c-1.104,0-2-0.896-2-2c0-1.104,0.896-2,2-2h42.864c1.104,0,2,0.896,2,2
	C60.939,74.355,60.044,75.252,58.939,75.252z"/>
<path d="M64.021,80.334c-3.904,0-7.081-3.178-7.081-7.082c0-3.905,3.177-7.082,7.081-7.082c3.905,0,7.083,3.177,7.083,7.082
	C71.104,77.156,67.926,80.334,64.021,80.334z M64.021,70.17c-1.699,0-3.081,1.383-3.081,3.082s1.382,3.082,3.081,3.082
	c1.7,0,3.083-1.383,3.083-3.082S65.721,70.17,64.021,70.17z"/>
</svg>
