<?xml version="1.0" encoding="iso-8859-1"?>
<!-- Generator: Adobe Illustrator 16.0.3, SVG Export Plug-In . SVG Version: 6.00 Build 0)  -->
<!DOCTYPE svg PUBLIC "-//W3C//DTD SVG 1.1//EN" "http://www.w3.org/Graphics/SVG/1.1/DTD/svg11.dtd">
<svg version="1.1" id="Layer_1" xmlns="http://www.w3.org/2000/svg" xmlns:xlink="http://www.w3.org/1999/xlink" x="0px" y="0px"
	 width="128px" height="128px" viewBox="0 0 128 128" enable-background="new 0 0 128 128" xml:space="preserve">
<g>
	<path d="M64.106,63.627L48.585,50.252c-0.837-0.721-0.931-1.983-0.209-2.821c0.722-0.836,1.984-0.931,2.82-0.209l12.91,11.125
		l12.908-11.125c0.836-0.721,2.099-0.627,2.82,0.209c0.722,0.837,0.628,2.1-0.209,2.821L64.106,63.627z"/>
	<path d="M64.106,62.987c-1.104,0-2-0.895-2-2V15.931c0-1.104,0.896-2,2-2s2,0.896,2,2v45.056
		C66.106,62.092,65.211,62.987,64.106,62.987z"/>
</g>
<path d="M16.073,85.441c-1.104,0-2-0.895-2-2V47.538h17.953c1.104,0,2,0.896,2,2s-0.896,2-2,2H18.073v31.904
	C18.073,84.547,17.178,85.441,16.073,85.441z"/>
<path d="M112.066,85.441c-1.104,0-2-0.895-2-2V51.538H96.189c-1.104,0-2-0.896-2-2s0.896-2,2-2h17.877v35.904
	C114.066,84.547,113.171,85.441,112.066,85.441z"/>
<path d="M109.368,114.154H18.77c-2.59,0-4.696-2.107-4.696-4.697V83.441c0-1.104,0.896-2,2-2h36.015
	c1.488,0,2.707,0.006,2.707,0.006c1.102,0.005,1.991,0.898,1.991,2v5.533h14.569v-5.537c0-1.104,0.894-1.998,1.997-2l38.714-0.002
	c1.104,0,2,0.896,2,2v26.016C114.066,112.047,111.959,114.154,109.368,114.154z M18.073,85.441v24.016
	c0,0.379,0.319,0.697,0.696,0.697h90.599c0.379,0,0.698-0.318,0.698-0.697V85.441H75.355v5.539c0,1.104-0.896,2-2,2H54.786
	c-1.104,0-2-0.896-2-2v-5.539c-0.223,0-0.457,0-0.698,0H18.073z"/>
</svg>
