<?xml version="1.0" encoding="iso-8859-1"?>
<!-- Generator: Adobe Illustrator 16.0.3, SVG Export Plug-In . SVG Version: 6.00 Build 0)  -->
<!DOCTYPE svg PUBLIC "-//W3C//DTD SVG 1.1//EN" "http://www.w3.org/Graphics/SVG/1.1/DTD/svg11.dtd">
<svg version="1.1" id="Layer_1" xmlns="http://www.w3.org/2000/svg" xmlns:xlink="http://www.w3.org/1999/xlink" x="0px" y="0px"
	 width="128px" height="128px" viewBox="0 0 128 128" enable-background="new 0 0 128 128" xml:space="preserve">
<path d="M64.022,113.942c-0.18,0-0.36-0.024-0.535-0.073c-0.385-0.106-38.478-11.123-38.478-48.648V28.769
	c0-0.533,0.213-1.044,0.592-1.42s0.88-0.571,1.425-0.58l0.213,0.001c13.992,0,34.81-2.863,34.81-10.751c0-1.104,0.896-2,2-2
	s2,0.896,2,2c0,7.888,20.786,10.751,34.758,10.751l0.212-0.001c0.005,0,0.011,0,0.017,0c0.527,0,1.033,0.208,1.408,0.58
	c0.379,0.376,0.592,0.887,0.592,1.42v36.452c0,37.525-38.093,48.542-38.478,48.648C64.383,113.918,64.202,113.942,64.022,113.942z
	 M29.01,30.754v34.467c0,32.189,30.602,43.211,35.021,44.633c4.647-1.443,35.004-12.125,35.004-44.633V30.754
	c-7.682-0.13-28.449-1.238-34.987-9.255C57.5,29.517,36.7,30.625,29.01,30.754z"/>
<path d="M56.104,79.844L43.83,67.568c-0.781-0.781-0.781-2.047,0-2.828c0.781-0.781,2.047-0.781,2.828,0l9.446,9.445l25.282-25.281
	c0.781-0.781,2.047-0.781,2.828,0s0.781,2.047,0,2.829L56.104,79.844z"/>
</svg>
