<?xml version="1.0" encoding="iso-8859-1"?>
<!-- Generator: Adobe Illustrator 16.0.3, SVG Export Plug-In . SVG Version: 6.00 Build 0)  -->
<!DOCTYPE svg PUBLIC "-//W3C//DTD SVG 1.1//EN" "http://www.w3.org/Graphics/SVG/1.1/DTD/svg11.dtd">
<svg version="1.1" id="Layer_1" xmlns="http://www.w3.org/2000/svg" xmlns:xlink="http://www.w3.org/1999/xlink" x="0px" y="0px"
	 width="128px" height="128px" viewBox="0 0 128 128" enable-background="new 0 0 128 128" xml:space="preserve">
<path d="M28.676,78.869c-0.512,0-1.023-0.195-1.414-0.586c-0.781-0.781-0.781-2.047,0-2.828l18.259-18.259l12.163,12.161
	l26.441-26.438l7.111,7.113l6.885-6.884c0.781-0.781,2.047-0.781,2.828,0c0.781,0.78,0.781,2.047,0,2.828l-9.713,9.713l-7.111-7.113
	L57.684,75.016L45.521,62.853L30.09,78.283C29.699,78.674,29.188,78.869,28.676,78.869z"/>
<g>
	<g>
		<path d="M108.884,96.374H19.352c-2.919,0-5.294-2.374-5.294-5.292V18.821h100.12v72.261C114.178,94,111.803,96.374,108.884,96.374
			z M18.058,22.821v68.261c0,0.713,0.58,1.292,1.294,1.292h89.532c0.714,0,1.294-0.579,1.294-1.292V22.821H18.058z"/>
		<path d="M64.118,116.008c-1.104,0-2-0.895-2-2V94.374c0-1.104,0.896-2,2-2s2,0.896,2,2v19.634
			C66.118,115.113,65.223,116.008,64.118,116.008z"/>
		<path d="M78.97,116.008H49.265c-1.104,0-2-0.895-2-2c0-1.104,0.896-2,2-2H78.97c1.104,0,2,0.896,2,2
			C80.97,115.113,80.074,116.008,78.97,116.008z"/>
		<path d="M64.118,22.146c-1.104,0-2-0.896-2-2v-7.137c0-1.104,0.896-2,2-2s2,0.896,2,2v7.137
			C66.118,21.25,65.223,22.146,64.118,22.146z"/>
	</g>
</g>
</svg>
