<?xml version="1.0" encoding="iso-8859-1"?>
<!-- Generator: Adobe Illustrator 16.0.3, SVG Export Plug-In . SVG Version: 6.00 Build 0)  -->
<!DOCTYPE svg PUBLIC "-//W3C//DTD SVG 1.1//EN" "http://www.w3.org/Graphics/SVG/1.1/DTD/svg11.dtd">
<svg version="1.1" id="Layer_1" xmlns="http://www.w3.org/2000/svg" xmlns:xlink="http://www.w3.org/1999/xlink" x="0px" y="0px"
	 width="128px" height="128px" viewBox="0 0 128 128" enable-background="new 0 0 128 128" xml:space="preserve">
<g>
	<path d="M64.554,76.305c-9.542,0-17.306-7.764-17.306-17.305v-8.131c0-9.543,7.764-17.307,17.306-17.307
		c9.543,0,17.307,7.764,17.307,17.307V59C81.86,68.541,74.097,76.305,64.554,76.305z M64.554,37.562
		c-7.337,0-13.306,5.97-13.306,13.307V59c0,7.336,5.969,13.305,13.306,13.305S77.86,66.336,77.86,59v-8.131
		C77.86,43.532,71.891,37.562,64.554,37.562z"/>
	<path d="M86.794,94.766H42.072c-4.268,0-7.739-3.471-7.739-7.738V80.83c0-2.539,1.246-5.932,7.18-7.658l6.701-1.854
		c1.066-0.295,2.166,0.33,2.461,1.395c0.294,1.064-0.33,2.166-1.395,2.461l-6.675,1.846c-4.272,1.244-4.272,3.176-4.272,3.811v6.197
		c0,2.061,1.678,3.738,3.739,3.738h44.722c2.062,0,3.739-1.678,3.739-3.738V80.83c0-1.715-1.444-2.998-4.292-3.816l-6.359-1.779
		c-1.064-0.297-1.686-1.4-1.388-2.463c0.297-1.064,1.404-1.689,2.464-1.389l6.374,1.783c6.268,1.799,7.201,5.574,7.201,7.664v6.197
		C94.533,91.295,91.062,94.766,86.794,94.766z"/>
</g>
<g>
	<path d="M95.563,73.189c-6.105,0-11.072-4.965-11.072-11.07V57.3c0-6.105,4.967-11.073,11.072-11.073s11.072,4.968,11.072,11.073
		v4.819C106.635,68.225,101.668,73.189,95.563,73.189z M95.563,50.227c-3.899,0-7.072,3.173-7.072,7.073v4.819
		c0,3.898,3.173,7.07,7.072,7.07s7.072-3.172,7.072-7.07V57.3C102.635,53.4,99.462,50.227,95.563,50.227z"/>
	<path d="M108.744,84.133H93.152c-1.104,0-2-0.896-2-2c0-1.105,0.896-2,2-2h15.592c0.773,0,1.403-0.629,1.403-1.402v-3.672
		c0-0.76-1.063-1.225-1.954-1.479l-0.217-0.076l-2.541-1.057c-1.02-0.424-1.503-1.594-1.079-2.613s1.595-1.504,2.614-1.08
		l2.439,1.014c4.118,1.225,4.737,3.834,4.737,5.291v3.672C114.147,81.709,111.724,84.133,108.744,84.133z"/>
</g>
<g>
	<path d="M32.664,73.189c-6.105,0-11.072-4.965-11.072-11.07V57.3c0-6.105,4.967-11.073,11.072-11.073
		c6.104,0,11.071,4.968,11.071,11.073v4.819C43.735,68.225,38.769,73.189,32.664,73.189z M32.664,50.227
		c-3.899,0-7.072,3.173-7.072,7.073v4.819c0,3.898,3.173,7.07,7.072,7.07s7.071-3.172,7.071-7.07V57.3
		C39.735,53.4,36.563,50.227,32.664,50.227z"/>
	<path d="M35.715,84.133H19.34c-2.979,0-5.402-2.424-5.402-5.402v-3.672c0-1.449,0.619-4.055,4.744-5.293l2.631-1.057
		c1.03-0.414,2.189,0.084,2.602,1.109s-0.085,2.189-1.109,2.602l-2.906,1.156c-1.301,0.379-1.961,0.877-1.961,1.482v3.672
		c0,0.773,0.629,1.402,1.402,1.402h16.375c1.104,0,2,0.895,2,2C37.715,83.236,36.819,84.133,35.715,84.133z"/>
</g>
</svg>
