<?xml version="1.0" encoding="iso-8859-1"?>
<!-- Generator: Adobe Illustrator 16.0.3, SVG Export Plug-In . SVG Version: 6.00 Build 0)  -->
<!DOCTYPE svg PUBLIC "-//W3C//DTD SVG 1.1//EN" "http://www.w3.org/Graphics/SVG/1.1/DTD/svg11.dtd">
<svg version="1.1" id="Layer_1" xmlns="http://www.w3.org/2000/svg" xmlns:xlink="http://www.w3.org/1999/xlink" x="0px" y="0px"
	 width="128px" height="128px" viewBox="0 0 128 128" enable-background="new 0 0 128 128" xml:space="preserve">
<path d="M111.053,41.035H17.025c-0.931,0-1.738-0.642-1.948-1.549c-0.21-0.906,0.232-1.838,1.068-2.247L63.16,14.21
	c0.555-0.271,1.205-0.271,1.76,0l47.013,23.028c0.836,0.409,1.278,1.341,1.068,2.247C112.791,40.393,111.983,41.035,111.053,41.035z
	 M25.655,37.035h76.768L64.04,18.233L25.655,37.035z"/>
<path d="M112.014,103.533H16.065c-1.104,0-2-0.896-2-2c0-1.105,0.896-2,2-2h95.948c1.104,0,2,0.895,2,2
	C114.014,102.637,113.118,103.533,112.014,103.533z"/>
<path fill="none" stroke="#000000" stroke-width="4" stroke-linecap="round" stroke-linejoin="round" stroke-miterlimit="10" d="
	M80.361,101.498"/>
<path fill="none" stroke="#000000" stroke-width="4" stroke-linecap="round" stroke-linejoin="round" stroke-miterlimit="10" d="
	M80.361,49.76"/>
<path d="M104.069,103.498L104.069,103.498c-1.104,0-2-0.895-2-2l0.003-53.738h9.941c1.104,0,2,0.896,2,2s-0.896,2-2,2h-5.941
	l-0.003,49.738C106.069,102.604,105.174,103.498,104.069,103.498z"/>
<path d="M80.363,103.533c-1.104,0-2-0.896-2-2V47.76h18.58l-0.266,53.748c-0.006,1.102-0.9,1.99-2,1.99h-0.01
	c-1.104-0.006-1.996-0.904-1.99-2.01l0.246-49.728H82.363v49.773C82.363,102.637,81.468,103.533,80.363,103.533z"/>
<path d="M70.969,103.498L70.969,103.498c-1.104,0-2-0.895-2-2l0.002-49.738h-9.863l0.004,49.738c0,1.105-0.896,2-2,2s-2-0.895-2-2
	L55.107,47.76h17.863l-0.002,53.738C72.969,102.604,72.073,103.498,70.969,103.498z"/>
<path d="M47.717,103.498c-1.104,0-2-0.895-2-2V51.76H35.402v49.738c0,1.105-0.896,2-2,2s-2-0.895-2-2V47.76h18.314v53.738
	C49.717,102.604,48.821,103.498,47.717,103.498z"/>
<path d="M24.01,103.498L24.01,103.498c-1.104,0-2-0.895-2-2l0.006-49.738h-5.95c-1.104,0-2-0.896-2-2s0.896-2,2-2h9.95
	l-0.006,53.738C26.01,102.604,25.114,103.498,24.01,103.498z"/>
<path d="M112.014,114.006H16.065c-1.104,0-2-0.895-2-2c0-1.104,0.896-2,2-2h95.948c1.104,0,2,0.896,2,2
	C114.014,113.111,113.118,114.006,112.014,114.006z"/>
</svg>
